<svg width="474" height="439" viewBox="0 0 474 439" fill="none" xmlns="http://www.w3.org/2000/svg">
<path opacity="0.44" d="M266.032 433.787C270.45 433.787 274.031 430.47 274.031 426.379C274.031 422.287 270.45 418.971 266.032 418.971C261.615 418.971 258.034 422.287 258.034 426.379C258.034 430.47 261.615 433.787 266.032 433.787Z" fill="#FA6B70"/>
<path opacity="0.43" d="M343.65 396.472C346.104 396.472 348.094 394.629 348.094 392.356C348.094 390.083 346.104 388.241 343.65 388.241C341.196 388.241 339.206 390.083 339.206 392.356C339.206 394.629 341.196 396.472 343.65 396.472Z" fill="#FA6B75"/>
<path opacity="0.79" d="M226.928 257.638C230.036 257.638 232.556 255.304 232.556 252.425C232.556 249.546 230.036 247.212 226.928 247.212C223.819 247.212 221.299 249.546 221.299 252.425C221.299 255.304 223.819 257.638 226.928 257.638Z" fill="#FA6B70"/>
<path opacity="0.9" d="M322.32 211.269C324.938 211.269 327.06 209.303 327.06 206.879C327.06 204.454 324.938 202.489 322.32 202.489C319.702 202.489 317.58 204.454 317.58 206.879C317.58 209.303 319.702 211.269 322.32 211.269Z" fill="#FA6B75"/>
<path opacity="0.16" d="M216.263 281.509C220.517 281.509 223.965 278.315 223.965 274.375C223.965 270.435 220.517 267.241 216.263 267.241C212.009 267.241 208.56 270.435 208.56 274.375C208.56 278.315 212.009 281.509 216.263 281.509Z" fill="#FA6B70"/>
<path opacity="0.5" d="M206.782 238.432C209.564 238.432 211.819 236.343 211.819 233.767C211.819 231.191 209.564 229.103 206.782 229.103C204.001 229.103 201.746 231.191 201.746 233.767C201.746 236.343 204.001 238.432 206.782 238.432Z" fill="#FA6B70"/>
<path opacity="0.56" d="M137.46 316.629C139.423 316.629 141.015 315.155 141.015 313.336C141.015 311.518 139.423 310.044 137.46 310.044C135.496 310.044 133.905 311.518 133.905 313.336C133.905 315.155 135.496 316.629 137.46 316.629Z" fill="#FA6B72"/>
<path opacity="0.78" d="M203.227 186.026C206.827 186.026 209.745 183.324 209.745 179.99C209.745 176.656 206.827 173.954 203.227 173.954C199.628 173.954 196.71 176.656 196.71 179.99C196.71 183.324 199.628 186.026 203.227 186.026Z" fill="#FA6B70"/>
<path opacity="0.78" d="M226.928 179.441C229.873 179.441 232.26 177.23 232.26 174.503C232.26 171.775 229.873 169.564 226.928 169.564C223.983 169.564 221.595 171.775 221.595 174.503C221.595 177.23 223.983 179.441 226.928 179.441Z" fill="#FA6B70"/>
<path opacity="0.6" d="M296.25 314.159C299.032 314.159 301.286 312.071 301.286 309.495C301.286 306.919 299.032 304.831 296.25 304.831C293.469 304.831 291.214 306.919 291.214 309.495C291.214 312.071 293.469 314.159 296.25 314.159Z" fill="#FA6B72"/>
<path opacity="0.81" d="M7.10982 381.656C8.90958 381.656 10.3686 380.305 10.3686 378.638C10.3686 376.971 8.90958 375.62 7.10982 375.62C5.31007 375.62 3.85107 376.971 3.85107 378.638C3.85107 380.305 5.31007 381.656 7.10982 381.656Z" fill="#FA6B7A"/>
<path opacity="0.39" d="M359.055 218.951C362.327 218.951 364.98 216.494 364.98 213.464C364.98 210.433 362.327 207.976 359.055 207.976C355.783 207.976 353.13 210.433 353.13 213.464C353.13 216.494 355.783 218.951 359.055 218.951Z" fill="#FA6B75"/>
<path opacity="0.32" d="M119.685 112.494C123.284 112.494 126.202 109.791 126.202 106.458C126.202 103.124 123.284 100.421 119.685 100.421C116.085 100.421 113.167 103.124 113.167 106.458C113.167 109.791 116.085 112.494 119.685 112.494Z" fill="#FA6B75"/>
<path opacity="0.64" d="M255.96 142.126C259.232 142.126 261.885 139.67 261.885 136.639C261.885 133.608 259.232 131.151 255.96 131.151C252.688 131.151 250.035 133.608 250.035 136.639C250.035 139.67 252.688 142.126 255.96 142.126Z" fill="#FA6B70"/>
<path opacity="0.76" d="M412.973 394.002C418.208 394.002 422.453 390.071 422.453 385.222C422.453 380.373 418.208 376.442 412.973 376.442C407.737 376.442 403.493 380.373 403.493 385.222C403.493 390.071 407.737 394.002 412.973 394.002Z" fill="#FA6B75"/>
<path opacity="0.91" d="M407.64 191.788C410.749 191.788 413.269 189.454 413.269 186.575C413.269 183.696 410.749 181.362 407.64 181.362C404.531 181.362 402.011 183.696 402.011 186.575C402.011 189.454 404.531 191.788 407.64 191.788Z" fill="#FA6B75"/>
<path opacity="0.64" d="M232.26 360.803C236.35 360.803 239.666 357.732 239.666 353.944C239.666 350.156 236.35 347.084 232.26 347.084C228.169 347.084 224.854 350.156 224.854 353.944C224.854 357.732 228.169 360.803 232.26 360.803Z" fill="#FA6B70"/>
<path opacity="0.31" d="M290.325 381.656C294.743 381.656 298.324 378.339 298.324 374.247C298.324 370.156 294.743 366.839 290.325 366.839C285.907 366.839 282.326 370.156 282.326 374.247C282.326 378.339 285.907 381.656 290.325 381.656Z" fill="#FA6B72"/>
<path opacity="0.57" d="M284.4 194.258C287.672 194.258 290.325 191.801 290.325 188.77C290.325 185.74 287.672 183.283 284.4 183.283C281.128 183.283 278.475 185.74 278.475 188.77C278.475 191.801 281.128 194.258 284.4 194.258Z" fill="#FA6B72"/>
<path opacity="0.95" d="M266.625 287.271C270.388 287.271 273.439 284.445 273.439 280.96C273.439 277.475 270.388 274.649 266.625 274.649C262.862 274.649 259.811 277.475 259.811 280.96C259.811 284.445 262.862 287.271 266.625 287.271Z" fill="#FA6B70"/>
<path opacity="0.55" d="M375.645 91.9158C379.081 91.9158 381.866 89.3362 381.866 86.154C381.866 82.9718 379.081 80.3921 375.645 80.3921C372.209 80.3921 369.424 82.9718 369.424 86.154C369.424 89.3362 372.209 91.9158 375.645 91.9158Z" fill="#FA6B72"/>
<path opacity="0.24" d="M31.4025 428.848C33.5295 428.848 35.2538 427.251 35.2538 425.281C35.2538 423.311 33.5295 421.714 31.4025 421.714C29.2755 421.714 27.5513 423.311 27.5513 425.281C27.5513 427.251 29.2755 428.848 31.4025 428.848Z" fill="#FA6B7C"/>
<path opacity="0.87" d="M268.402 35.3944C271.838 35.3944 274.624 32.8147 274.624 29.6325C274.624 26.4503 271.838 23.8706 268.402 23.8706C264.967 23.8706 262.181 26.4503 262.181 29.6325C262.181 32.8147 264.967 35.3944 268.402 35.3944Z" fill="#FA6B6E"/>
<path opacity="0.35" d="M423.638 251.053C427.728 251.053 431.044 247.982 431.044 244.194C431.044 240.406 427.728 237.334 423.638 237.334C419.547 237.334 416.231 240.406 416.231 244.194C416.231 247.982 419.547 251.053 423.638 251.053Z" fill="#FA6B75"/>
<path opacity="0.51" d="M301.583 286.996C305.509 286.996 308.693 284.048 308.693 280.411C308.693 276.774 305.509 273.826 301.583 273.826C297.656 273.826 294.473 276.774 294.473 280.411C294.473 284.048 297.656 286.996 301.583 286.996Z" fill="#FA6B72"/>
<path opacity="0.57" d="M202.043 131.7C206.624 131.7 210.338 128.26 210.338 124.017C210.338 119.775 206.624 116.335 202.043 116.335C197.461 116.335 193.748 119.775 193.748 124.017C193.748 128.26 197.461 131.7 202.043 131.7Z" fill="#FA6B70"/>
<path opacity="0.36" d="M72.8777 161.881C75.4955 161.881 77.6177 159.916 77.6177 157.491C77.6177 155.067 75.4955 153.101 72.8777 153.101C70.2599 153.101 68.1377 155.067 68.1377 157.491C68.1377 159.916 70.2599 161.881 72.8777 161.881Z" fill="#FA6B7A"/>
<path opacity="0.73" d="M272.55 94.1107C277.949 94.1107 282.326 90.0569 282.326 85.0563C282.326 80.0557 277.949 76.002 272.55 76.002C267.151 76.002 262.774 80.0557 262.774 85.0563C262.774 90.0569 267.151 94.1107 272.55 94.1107Z" fill="#FA6B70"/>
<path opacity="0.19" d="M300.99 121.823C306.225 121.823 310.47 117.892 310.47 113.043C310.47 108.194 306.225 104.263 300.99 104.263C295.754 104.263 291.51 108.194 291.51 113.043C291.51 117.892 295.754 121.823 300.99 121.823Z" fill="#FA6B72"/>
<path opacity="0.53" d="M414.75 57.8931C419.822 57.8931 423.934 54.085 423.934 49.3875C423.934 44.6899 419.822 40.8818 414.75 40.8818C409.678 40.8818 405.566 44.6899 405.566 49.3875C405.566 54.085 409.678 57.8931 414.75 57.8931Z" fill="#FA6B70"/>
<path opacity="0.47" d="M231.075 55.9726C235.329 55.9726 238.778 52.7787 238.778 48.8388C238.778 44.899 235.329 41.7051 231.075 41.7051C226.821 41.7051 223.373 44.899 223.373 48.8388C223.373 52.7787 226.821 55.9726 231.075 55.9726Z" fill="#FA6B70"/>
<path opacity="0.86" d="M35.5499 75.7277C37.186 75.7277 38.5124 74.4993 38.5124 72.984C38.5124 71.4687 37.186 70.2402 35.5499 70.2402C33.9138 70.2402 32.5874 71.4687 32.5874 72.984C32.5874 74.4993 33.9138 75.7277 35.5499 75.7277Z" fill="#FA6B7E"/>
<path opacity="0.39" d="M159.382 434.884C163.473 434.884 166.789 431.813 166.789 428.025C166.789 424.237 163.473 421.166 159.382 421.166C155.292 421.166 151.976 424.237 151.976 428.025C151.976 431.813 155.292 434.884 159.382 434.884Z" fill="#FA6B70"/>
<path opacity="0.13" d="M132.72 428.848C136.156 428.848 138.941 426.268 138.941 423.086C138.941 419.904 136.156 417.324 132.72 417.324C129.284 417.324 126.499 419.904 126.499 423.086C126.499 426.268 129.284 428.848 132.72 428.848Z" fill="#FA6B72"/>
<path opacity="0.39" d="M223.965 311.141C228.546 311.141 232.26 307.702 232.26 303.459C232.26 299.216 228.546 295.776 223.965 295.776C219.384 295.776 215.67 299.216 215.67 303.459C215.67 307.702 219.384 311.141 223.965 311.141Z" fill="#FA6B70"/>
<path opacity="0.98" d="M453.262 373.15C456.535 373.15 459.187 370.693 459.187 367.662C459.187 364.632 456.535 362.175 453.262 362.175C449.99 362.175 447.337 364.632 447.337 367.662C447.337 370.693 449.99 373.15 453.262 373.15Z" fill="#FA6B75"/>
<path opacity="0.61" d="M423.045 215.659C427.299 215.659 430.748 212.465 430.748 208.525C430.748 204.585 427.299 201.391 423.045 201.391C418.791 201.391 415.343 204.585 415.343 208.525C415.343 212.465 418.791 215.659 423.045 215.659Z" fill="#FA6B75"/>
<path opacity="0.61" d="M225.15 416.227C227.931 416.227 230.186 414.138 230.186 411.562C230.186 408.986 227.931 406.898 225.15 406.898C222.369 406.898 220.114 408.986 220.114 411.562C220.114 414.138 222.369 416.227 225.15 416.227Z" fill="#FA6B70"/>
<path opacity="0.17" d="M227.52 198.099C231.119 198.099 234.037 195.396 234.037 192.063C234.037 188.729 231.119 186.026 227.52 186.026C223.92 186.026 221.002 188.729 221.002 192.063C221.002 195.396 223.92 198.099 227.52 198.099Z" fill="#FA6B70"/>
<path opacity="0.36" d="M374.46 34.297C377.242 34.297 379.496 32.2087 379.496 29.6326C379.496 27.0566 377.242 24.9683 374.46 24.9683C371.679 24.9683 369.424 27.0566 369.424 29.6326C369.424 32.2087 371.679 34.297 374.46 34.297Z" fill="#FA6B6E"/>
<path opacity="0.82" d="M405.863 313.062C408.317 313.062 410.306 311.219 410.306 308.946C410.306 306.673 408.317 304.831 405.863 304.831C403.408 304.831 401.419 306.673 401.419 308.946C401.419 311.219 403.408 313.062 405.863 313.062Z" fill="#FA6B75"/>
<path opacity="0.13" d="M311.655 178.07C316.4 178.07 320.246 174.507 320.246 170.113C320.246 165.718 316.4 162.156 311.655 162.156C306.91 162.156 303.063 165.718 303.063 170.113C303.063 174.507 306.91 178.07 311.655 178.07Z" fill="#FA6B75"/>
<path opacity="0.17" d="M447.93 398.941C452.184 398.941 455.633 395.747 455.633 391.808C455.633 387.868 452.184 384.674 447.93 384.674C443.676 384.674 440.228 387.868 440.228 391.808C440.228 395.747 443.676 398.941 447.93 398.941Z" fill="#FA6B75"/>
<path opacity="0.37" d="M47.9926 274.649C50.4468 274.649 52.4363 272.807 52.4363 270.534C52.4363 268.261 50.4468 266.418 47.9926 266.418C45.5384 266.418 43.5488 268.261 43.5488 270.534C43.5488 272.807 45.5384 274.649 47.9926 274.649Z" fill="#FA6B7C"/>
<path opacity="0.58" d="M426.6 92.4644C430.69 92.4644 434.006 89.3933 434.006 85.605C434.006 81.8167 430.69 78.7456 426.6 78.7456C422.51 78.7456 419.194 81.8167 419.194 85.605C419.194 89.3933 422.51 92.4644 426.6 92.4644Z" fill="#FA6B72"/>
<path opacity="0.85" d="M451.485 307.3C455.085 307.3 458.003 304.598 458.003 301.264C458.003 297.93 455.085 295.228 451.485 295.228C447.886 295.228 444.968 297.93 444.968 301.264C444.968 304.598 447.886 307.3 451.485 307.3Z" fill="#FA6B75"/>
<path opacity="0.92" d="M177.157 391.259C179.775 391.259 181.897 389.294 181.897 386.869C181.897 384.444 179.775 382.479 177.157 382.479C174.54 382.479 172.417 384.444 172.417 386.869C172.417 389.294 174.54 391.259 177.157 391.259Z" fill="#FA6B70"/>
<path opacity="0.92" d="M10.0724 291.112C12.1994 291.112 13.9237 289.515 13.9237 287.545C13.9237 285.575 12.1994 283.978 10.0724 283.978C7.94545 283.978 6.22119 285.575 6.22119 287.545C6.22119 289.515 7.94545 291.112 10.0724 291.112Z" fill="#FA6B7A"/>
<path opacity="0.7" d="M171.233 147.065C175.814 147.065 179.528 143.626 179.528 139.383C179.528 135.14 175.814 131.7 171.233 131.7C166.651 131.7 162.938 135.14 162.938 139.383C162.938 143.626 166.651 147.065 171.233 147.065Z" fill="#FA6B70"/>
<path opacity="0.59" d="M15.9975 177.246C19.597 177.246 22.515 174.544 22.515 171.21C22.515 167.876 19.597 165.174 15.9975 165.174C12.398 165.174 9.47998 167.876 9.47998 171.21C9.47998 174.544 12.398 177.246 15.9975 177.246Z" fill="#FA6B7C"/>
<path opacity="0.54" d="M270.773 214.012C274.699 214.012 277.883 211.064 277.883 207.427C277.883 203.79 274.699 200.842 270.773 200.842C266.846 200.842 263.663 203.79 263.663 207.427C263.663 211.064 266.846 214.012 270.773 214.012Z" fill="#FA6B70"/>
<path opacity="0.55" d="M155.235 284.801C160.471 284.801 164.715 280.87 164.715 276.021C164.715 271.172 160.471 267.241 155.235 267.241C149.999 267.241 145.755 271.172 145.755 276.021C145.755 280.87 149.999 284.801 155.235 284.801Z" fill="#FA6B70"/>
<path opacity="0.9" d="M335.355 334.738C338.954 334.738 341.872 332.035 341.872 328.701C341.872 325.368 338.954 322.665 335.355 322.665C331.755 322.665 328.837 325.368 328.837 328.701C328.837 332.035 331.755 334.738 335.355 334.738Z" fill="#FA6B75"/>
<path opacity="0.9" d="M170.64 124.292C174.73 124.292 178.046 121.221 178.046 117.433C178.046 113.644 174.73 110.573 170.64 110.573C166.55 110.573 163.234 113.644 163.234 117.433C163.234 121.221 166.55 124.292 170.64 124.292Z" fill="#FA6B70"/>
<path opacity="0.2" d="M213.3 226.359C215.427 226.359 217.151 224.762 217.151 222.792C217.151 220.823 215.427 219.226 213.3 219.226C211.173 219.226 209.449 220.823 209.449 222.792C209.449 224.762 211.173 226.359 213.3 226.359Z" fill="#FA6B70"/>
<path opacity="0.86" d="M425.415 117.433C429.342 117.433 432.525 114.484 432.525 110.848C432.525 107.211 429.342 104.263 425.415 104.263C421.488 104.263 418.305 107.211 418.305 110.848C418.305 114.484 421.488 117.433 425.415 117.433Z" fill="#FA6B75"/>
<path opacity="0.64" d="M291.51 63.106C294.455 63.106 296.843 60.8949 296.843 58.1673C296.843 55.4397 294.455 53.2285 291.51 53.2285C288.565 53.2285 286.178 55.4397 286.178 58.1673C286.178 60.8949 288.565 63.106 291.51 63.106Z" fill="#FA6B70"/>
<path opacity="0.12" d="M48.5851 420.068C50.7121 420.068 52.4364 418.471 52.4364 416.501C52.4364 414.532 50.7121 412.935 48.5851 412.935C46.4582 412.935 44.7339 414.532 44.7339 416.501C44.7339 418.471 46.4582 420.068 48.5851 420.068Z" fill="#FA6B7C"/>
<path opacity="0.86" d="M176.565 195.355C182.455 195.355 187.23 190.933 187.23 185.478C187.23 180.022 182.455 175.6 176.565 175.6C170.675 175.6 165.9 180.022 165.9 185.478C165.9 190.933 170.675 195.355 176.565 195.355Z" fill="#FA6B70"/>
<path opacity="0.37" d="M188.415 30.4557C191.197 30.4557 193.451 28.3674 193.451 25.7913C193.451 23.2153 191.197 21.127 188.415 21.127C185.634 21.127 183.379 23.2153 183.379 25.7913C183.379 28.3674 185.634 30.4557 188.415 30.4557Z" fill="#FA6B75"/>
<path opacity="0.87" d="M325.283 70.7886C328.228 70.7886 330.615 68.5775 330.615 65.8499C330.615 63.1223 328.228 60.9111 325.283 60.9111C322.338 60.9111 319.95 63.1223 319.95 65.8499C319.95 68.5775 322.338 70.7886 325.283 70.7886Z" fill="#FA6B70"/>
<path opacity="0.61" d="M4.73977 140.754C5.88507 140.754 6.81352 139.894 6.81352 138.834C6.81352 137.773 5.88507 136.913 4.73977 136.913C3.59447 136.913 2.66602 137.773 2.66602 138.834C2.66602 139.894 3.59447 140.754 4.73977 140.754Z" fill="#FA6B7A"/>
<path opacity="0.56" d="M178.935 375.894C181.88 375.894 184.268 373.682 184.268 370.955C184.268 368.227 181.88 366.016 178.935 366.016C175.99 366.016 173.603 368.227 173.603 370.955C173.603 373.682 175.99 375.894 178.935 375.894Z" fill="#FA6B70"/>
<path opacity="0.25" d="M237 91.3667C243.054 91.3667 247.961 86.8216 247.961 81.2149C247.961 75.6081 243.054 71.063 237 71.063C230.946 71.063 226.039 75.6081 226.039 81.2149C226.039 86.8216 230.946 91.3667 237 91.3667Z" fill="#FA6B70"/>
<path opacity="0.17" d="M151.088 165.997C156.16 165.997 160.271 162.189 160.271 157.491C160.271 152.794 156.16 148.986 151.088 148.986C146.016 148.986 141.904 152.794 141.904 157.491C141.904 162.189 146.016 165.997 151.088 165.997Z" fill="#FA6B70"/>
<path opacity="0.32" d="M459.188 252.7C462.623 252.7 465.409 250.12 465.409 246.938C465.409 243.755 462.623 241.176 459.188 241.176C455.752 241.176 452.966 243.755 452.966 246.938C452.966 250.12 455.752 252.7 459.188 252.7Z" fill="#FA6B75"/>
<path opacity="0.7" d="M322.912 290.014C325.694 290.014 327.948 287.926 327.948 285.35C327.948 282.774 325.694 280.686 322.912 280.686C320.131 280.686 317.876 282.774 317.876 285.35C317.876 287.926 320.131 290.014 322.912 290.014Z" fill="#FA6B75"/>
<path opacity="0.21" d="M190.193 424.732C193.465 424.732 196.118 422.275 196.118 419.245C196.118 416.214 193.465 413.757 190.193 413.757C186.92 413.757 184.268 416.214 184.268 419.245C184.268 422.275 186.92 424.732 190.193 424.732Z" fill="#FA6B70"/>
<path opacity="0.44" d="M392.827 252.425C395.445 252.425 397.567 250.46 397.567 248.035C397.567 245.61 395.445 243.645 392.827 243.645C390.21 243.645 388.087 245.61 388.087 248.035C388.087 250.46 390.21 252.425 392.827 252.425Z" fill="#FA6B75"/>
<path opacity="0.6" d="M132.128 69.4168C135.563 69.4168 138.349 66.8371 138.349 63.6549C138.349 60.4727 135.563 57.8931 132.128 57.8931C128.692 57.8931 125.906 60.4727 125.906 63.6549C125.906 66.8371 128.692 69.4168 132.128 69.4168Z" fill="#FA6B77"/>
<path opacity="0.23" d="M151.68 13.1698C153.971 13.1698 155.828 11.45 155.828 9.32856C155.828 7.20709 153.971 5.4873 151.68 5.4873C149.39 5.4873 147.533 7.20709 147.533 9.32856C147.533 11.45 149.39 13.1698 151.68 13.1698Z" fill="#FA6B7A"/>
<path opacity="0.29" d="M239.963 271.906C242.744 271.906 244.999 269.818 244.999 267.242C244.999 264.665 242.744 262.577 239.963 262.577C237.181 262.577 234.926 264.665 234.926 267.242C234.926 269.818 237.181 271.906 239.963 271.906Z" fill="#FA6B70"/>
<path opacity="0.77" d="M352.537 361.352C355.319 361.352 357.573 359.263 357.573 356.687C357.573 354.111 355.319 352.023 352.537 352.023C349.756 352.023 347.501 354.111 347.501 356.687C347.501 359.263 349.756 361.352 352.537 361.352Z" fill="#FA6B75"/>
<path opacity="0.3" d="M112.575 318.275C115.193 318.275 117.315 316.31 117.315 313.885C117.315 311.461 115.193 309.495 112.575 309.495C109.957 309.495 107.835 311.461 107.835 313.885C107.835 316.31 109.957 318.275 112.575 318.275Z" fill="#FA6B75"/>
<path opacity="0.96" d="M95.9848 200.294C101.875 200.294 106.65 195.871 106.65 190.416C106.65 184.961 101.875 180.539 95.9848 180.539C90.0947 180.539 85.3198 184.961 85.3198 190.416C85.3198 195.871 90.0947 200.294 95.9848 200.294Z" fill="#FA6B77"/>
<path opacity="0.97" d="M133.312 304.008C136.912 304.008 139.83 301.305 139.83 297.971C139.83 294.638 136.912 291.935 133.312 291.935C129.713 291.935 126.795 294.638 126.795 297.971C126.795 301.305 129.713 304.008 133.312 304.008Z" fill="#FA6B72"/>
<path opacity="0.61" d="M456.818 116.061C461.89 116.061 466.001 112.252 466.001 107.555C466.001 102.857 461.89 99.0493 456.818 99.0493C451.745 99.0493 447.634 102.857 447.634 107.555C447.634 112.252 451.745 116.061 456.818 116.061Z" fill="#FA6B75"/>
<path opacity="0.98" d="M372.683 257.09C375.137 257.09 377.126 255.247 377.126 252.974C377.126 250.701 375.137 248.858 372.683 248.858C370.228 248.858 368.239 250.701 368.239 252.974C368.239 255.247 370.228 257.09 372.683 257.09Z" fill="#FA6B75"/>
<path opacity="0.96" d="M409.418 148.162C412.036 148.162 414.158 146.197 414.158 143.772C414.158 141.348 412.036 139.382 409.418 139.382C406.8 139.382 404.678 141.348 404.678 143.772C404.678 146.197 406.8 148.162 409.418 148.162Z" fill="#FA6B75"/>
<path opacity="0.52" d="M101.91 107.006C103.873 107.006 105.465 105.532 105.465 103.714C105.465 101.895 103.873 100.421 101.91 100.421C99.9466 100.421 98.355 101.895 98.355 103.714C98.355 105.532 99.9466 107.006 101.91 107.006Z" fill="#FA6B77"/>
<path opacity="0.64" d="M274.328 176.698C278.581 176.698 282.03 173.504 282.03 169.564C282.03 165.624 278.581 162.43 274.328 162.43C270.074 162.43 266.625 165.624 266.625 169.564C266.625 173.504 270.074 176.698 274.328 176.698Z" fill="#FA6B72"/>
<path opacity="0.72" d="M217.447 22.7733C221.865 22.7733 225.446 19.4566 225.446 15.3652C225.446 11.2738 221.865 7.95703 217.447 7.95703C213.03 7.95703 209.449 11.2738 209.449 15.3652C209.449 19.4566 213.03 22.7733 217.447 22.7733Z" fill="#FA6B72"/>
<path opacity="0.12" d="M210.338 56.7956C214.101 56.7956 217.151 53.9702 217.151 50.4849C217.151 46.9997 214.101 44.1743 210.338 44.1743C206.575 44.1743 203.524 46.9997 203.524 50.4849C203.524 53.9702 206.575 56.7956 210.338 56.7956Z" fill="#FA6B70"/>
<path opacity="0.44" d="M98.9476 159.96C102.056 159.96 104.576 157.626 104.576 154.747C104.576 151.868 102.056 149.534 98.9476 149.534C95.8389 149.534 93.3188 151.868 93.3188 154.747C93.3188 157.626 95.8389 159.96 98.9476 159.96Z" fill="#FA6B77"/>
</svg>
