<svg width="31" height="31" viewBox="0 0 31 31" fill="none" xmlns="http://www.w3.org/2000/svg">
<path d="M6.74611 2.90625C6.10415 2.90625 5.48802 3.162 5.03465 3.61667L3.35548 5.29325C2.48777 6.15935 1.98077 7.32226 1.93672 8.54745C1.89268 9.77264 2.31486 10.969 3.11813 11.8951C3.9214 12.8213 5.046 13.4084 6.2651 13.5381C7.48421 13.6677 8.70713 13.3303 9.68723 12.5938C10.4971 13.2008 11.5033 13.5625 12.5935 13.5625C13.6836 13.5625 14.6911 13.2008 15.4997 12.5938C16.3083 13.2008 17.3158 13.5625 18.406 13.5625C19.4961 13.5625 20.5024 13.2008 21.3122 12.5938C22.2923 13.3303 23.5152 13.6677 24.7344 13.5381C25.9535 13.4084 27.0781 12.8213 27.8813 11.8951C28.6846 10.969 29.1068 9.77264 29.0627 8.54745C29.0187 7.32226 28.5117 6.15935 27.644 5.29325L25.9648 3.61537C25.5108 3.16153 24.8953 2.90647 24.2534 2.90625H6.74611Z" fill="black" fill-opacity="0.6"/>
<path fill-rule="evenodd" clip-rule="evenodd" d="M3.875 26.1562V14.8477C5.70917 15.7183 7.85333 15.717 9.6875 14.8477C10.5957 15.2785 11.5886 15.5013 12.5938 15.5C13.6322 15.5 14.6191 15.2649 15.5 14.8464C16.4081 15.2776 17.401 15.5009 18.4062 15.5C19.4447 15.5 20.4303 15.2649 21.3125 14.8464C23.1467 15.717 25.2908 15.7183 27.125 14.8477V26.1562H28.0938C28.3507 26.1562 28.5971 26.2583 28.7788 26.44C28.9604 26.6217 29.0625 26.8681 29.0625 27.125C29.0625 27.3819 28.9604 27.6283 28.7788 27.81C28.5971 27.9917 28.3507 28.0937 28.0938 28.0937H2.90625C2.64932 28.0937 2.40292 27.9917 2.22124 27.81C2.03956 27.6283 1.9375 27.3819 1.9375 27.125C1.9375 26.8681 2.03956 26.6217 2.22124 26.44C2.40292 26.2583 2.64932 26.1562 2.90625 26.1562H3.875ZM7.75 18.4062C7.75 18.1493 7.85206 17.9029 8.03374 17.7212C8.21542 17.5396 8.46182 17.4375 8.71875 17.4375H12.5938C12.8507 17.4375 13.0971 17.5396 13.2788 17.7212C13.4604 17.9029 13.5625 18.1493 13.5625 18.4062V22.2812C13.5625 22.5382 13.4604 22.7846 13.2788 22.9662C13.0971 23.1479 12.8507 23.25 12.5938 23.25H8.71875C8.46182 23.25 8.21542 23.1479 8.03374 22.9662C7.85206 22.7846 7.75 22.5382 7.75 22.2812V18.4062ZM18.4062 17.4375C18.1493 17.4375 17.9029 17.5396 17.7212 17.7212C17.5396 17.9029 17.4375 18.1493 17.4375 18.4062V25.1875C17.4375 25.7222 17.8715 26.1562 18.4062 26.1562H22.2812C22.5382 26.1562 22.7846 26.0542 22.9663 25.8725C23.1479 25.6908 23.25 25.4444 23.25 25.1875V18.4062C23.25 18.1493 23.1479 17.9029 22.9663 17.7212C22.7846 17.5396 22.5382 17.4375 22.2812 17.4375H18.4062Z" fill="black" fill-opacity="0.6"/>
</svg>
