<?xml version="1.0" encoding="UTF-8"?>
<svg xmlns="http://www.w3.org/2000/svg" xmlns:xlink="http://www.w3.org/1999/xlink" width="600px" height="600px" viewBox="0 0 600 600" version="1.1">
<defs>
<filter id="alpha" filterUnits="objectBoundingBox" x="0%" y="0%" width="100%" height="100%">
  <feColorMatrix type="matrix" in="SourceGraphic" values="0 0 0 0 1 0 0 0 0 1 0 0 0 0 1 0 0 0 1 0"/>
</filter>
<mask id="mask0">
  <g filter="url(#alpha)">
<rect x="0" y="0" width="600" height="600" style="fill:rgb(0%,0%,0%);fill-opacity:0.121569;stroke:none;"/>
  </g>
</mask>
<clipPath id="clip1">
  <rect x="0" y="0" width="600" height="600"/>
</clipPath>
<g id="surface5" clip-path="url(#clip1)">
<path style=" stroke:none;fill-rule:nonzero;fill:rgb(100%,100%,100%);fill-opacity:1;" d="M 74.988281 363.796875 C 91.140625 362.414062 107.355469 364.894531 122.902344 359.664062 C 119.378906 357.535156 118.183594 346.546875 117.5625 342.023438 C 115.847656 329.589844 117.636719 319.59375 115.925781 307.160156 C 101.113281 308.988281 82.652344 306.722656 67.8125 305.242188 C 68.042969 323.980469 69.414062 342.703125 71.910156 361.21875 C 72.003906 361.925781 72.125 362.679688 72.558594 363.191406 C 73.160156 363.890625 74.132812 363.871094 74.988281 363.796875 Z M 74.988281 363.796875 "/>
</g>
</defs>
<g id="surface1">
<path style=" stroke:none;fill-rule:nonzero;fill:rgb(94.901961%,90.588236%,83.92157%);fill-opacity:1;" d="M 118.980469 141.941406 C 117.988281 141.980469 116.972656 142.121094 116.09375 142.558594 C 114.339844 143.441406 113.464844 145.328125 113.082031 147.144531 C 111.511719 154.527344 115.902344 161.777344 120.375 168.058594 C 132.183594 184.648438 146.707031 200.808594 166.675781 208.074219 C 169.835938 209.222656 173.28125 210.144531 176.601562 209.464844 C 179.917969 208.78125 182.945312 206.003906 182.613281 202.871094 C 182.40625 200.925781 181.019531 199.285156 179.691406 197.769531 C 176.84375 194.519531 173.996094 191.269531 171.148438 188.019531 C 160.476562 175.835938 149.792969 163.644531 138.207031 152.203125 C 132.980469 147.039062 126.617188 141.664062 118.980469 141.941406 Z M 118.980469 141.941406 "/>
<path style=" stroke:none;fill-rule:nonzero;fill:rgb(52.549022%,52.549022%,38.82353%);fill-opacity:1;" d="M 23.320312 564.289062 C 17.429688 564.765625 11.378906 563.351562 6.4375 560.347656 C 14.96875 542.5 23.503906 524.65625 32.035156 506.808594 C 34.734375 501.167969 37.445312 495.492188 39.0625 489.5 C 41.046875 482.140625 41.328125 474.492188 41.601562 466.90625 C 42.652344 437.5 43.707031 408.089844 44.757812 378.683594 C 44.847656 376.21875 44.957031 373.671875 46.097656 371.441406 C 49.371094 365.039062 58.796875 364.449219 66.4375 364.785156 C 68.113281 364.859375 69.941406 364.988281 71.167969 366.050781 C 72.570312 367.261719 72.699219 369.242188 72.734375 371.019531 C 73.1875 394.21875 77.480469 373.246094 77.933594 396.445312 C 78.09375 404.605469 74.40625 457.023438 72.605469 465.007812 C 69.425781 479.125 64.667969 493.855469 56.453125 506.109375 C 43.804688 524.972656 35.820312 542.011719 23.320312 564.289062 Z M 23.320312 564.289062 "/>
<path style=" stroke:none;fill-rule:nonzero;fill:rgb(52.549022%,52.549022%,38.82353%);fill-opacity:1;" d="M 90.804688 383.609375 C 101.375 382.375 111.945312 381.140625 122.515625 379.910156 C 123.039062 378.578125 120.414062 379.925781 120.585938 381.332031 C 126.027344 425.714844 126.503906 470.621094 122 515.09375 C 120.0625 534.261719 117.199219 553.527344 119.167969 572.6875 C 114.816406 573.082031 110.46875 573.472656 106.117188 573.867188 C 98.226562 514.078125 90.339844 454.292969 82.449219 394.503906 C 82.050781 391.480469 81.8125 387.992188 84.132812 385.832031 C 85.832031 384.246094 88.410156 383.886719 90.804688 383.609375 Z M 90.804688 383.609375 "/>
<path style=" stroke:none;fill-rule:nonzero;fill:rgb(50.980395%,43.529412%,37.254903%);fill-opacity:1;" d="M 117.183594 582.023438 C 119.144531 583.261719 116.804688 584.601562 115.632812 584.816406 C 113.507812 585.203125 111.265625 585.296875 109.113281 585.019531 C 108.542969 584.945312 107.960938 584.839844 107.476562 584.550781 C 107.097656 584.324219 106.804688 583.996094 106.515625 583.671875 C 105.722656 582.777344 103.917969 581.414062 103.539062 580.328125 C 103.226562 579.429688 103.726562 578.484375 104.101562 577.605469 C 104.898438 575.738281 106.386719 573.757812 106.078125 571.65625 C 110.785156 571.703125 115.09375 569.804688 119.078125 570.613281 C 119.5625 572.085938 120.910156 573.207031 120.46875 574.433594 C 120.757812 573.621094 132.289062 575.210938 133.648438 575.332031 C 135.835938 575.523438 138.027344 575.652344 140.222656 575.632812 C 141.9375 575.617188 145.109375 574.59375 146.230469 576.074219 C 146.628906 576.601562 146.808594 577.238281 146.929688 577.871094 C 147.019531 578.355469 147.078125 578.851562 146.957031 579.328125 C 146.75 580.148438 146.023438 580.792969 145.203125 581.160156 C 136.300781 585.15625 126.554688 581.035156 117.183594 582.023438 Z M 117.183594 582.023438 "/>
<path style=" stroke:none;fill-rule:nonzero;fill:rgb(50.980395%,43.529412%,37.254903%);fill-opacity:1;" d="M 13.835938 573.226562 C 15.1875 575.242188 12.246094 575.621094 10.992188 575.359375 C 8.707031 574.882812 6.449219 574.066406 4.457031 572.925781 C 3.929688 572.625 3.402344 572.28125 3.0625 571.800781 C 2.796875 571.421875 2.660156 570.980469 2.527344 570.542969 C 2.167969 569.339844 1.027344 567.261719 1.167969 566.035156 C 1.28125 565.023438 2.21875 564.292969 3.003906 563.578125 C 4.667969 562.058594 7.578125 559.292969 8.261719 557.09375 C 12.890625 559.042969 19.832031 561.1875 23.382812 563.597656 C 21.726562 564.964844 21.671875 566.03125 20.65625 567.066406 C 21.324219 566.382812 31.957031 572.613281 33.242188 573.28125 C 35.3125 574.355469 37.410156 575.371094 39.589844 576.242188 C 41.289062 576.914062 44.902344 577.1875 45.3125 579.105469 C 45.457031 579.785156 45.335938 580.488281 45.152344 581.160156 C 45.015625 581.675781 44.839844 582.191406 44.496094 582.609375 C 43.902344 583.335938 42.886719 583.675781 41.902344 583.707031 C 31.230469 584.054688 23.554688 576.042969 13.835938 573.226562 Z M 13.835938 573.226562 "/>
<path style=" stroke:none;fill-rule:nonzero;fill:rgb(93.725491%,74.901962%,41.568628%);fill-opacity:1;" d="M 93.410156 111.304688 C 91.332031 109.09375 89.367188 106.800781 86.40625 105.019531 C 75.199219 98.28125 67.601562 102.289062 60.304688 111.53125 C 49.785156 124.859375 44.113281 140.695312 38.660156 156.039062 C 34.613281 167.414062 30.566406 178.800781 27.316406 190.375 C 6.492188 264.515625 19.183594 342.371094 15.730469 418.695312 C 38.871094 421.582031 62.011719 424.46875 85.15625 427.359375 C 98.632812 429.042969 113.550781 430.765625 127.0625 429.777344 C 130.671875 429.511719 162.222656 421.769531 159.164062 416.101562 C 152.835938 404.367188 150 391.433594 147.644531 378.609375 C 137.707031 324.523438 135.261719 269.375 140.386719 214.769531 C 141.992188 197.652344 144.332031 180.351562 141.269531 163.390625 C 139.261719 152.257812 134.648438 141.097656 126.695312 132.171875 C 118.199219 122.628906 108.203125 122.253906 98.09375 115.480469 C 96.257812 114.246094 94.808594 112.796875 93.410156 111.304688 Z M 93.410156 111.304688 "/>
<path style=" stroke:none;fill-rule:nonzero;fill:rgb(94.901961%,90.588236%,83.92157%);fill-opacity:1;" d="M 88.558594 61.359375 C 89.878906 57.941406 91.441406 54.59375 93.484375 51.496094 C 100.617188 40.699219 119.832031 27.550781 133.351562 37.066406 C 136.496094 39.277344 138.746094 42.386719 140.8125 45.503906 C 142.933594 48.703125 144.941406 51.988281 146.386719 55.496094 C 149.121094 62.121094 149.957031 69.84375 148.160156 76.78125 C 146.484375 83.234375 142.242188 89.324219 138.285156 94.765625 C 133.046875 101.984375 126.449219 109.214844 117.320312 111.269531 C 105.175781 114 92.351562 105.949219 87.503906 95.277344 C 82.652344 84.605469 84.34375 72.261719 88.558594 61.359375 Z M 88.558594 61.359375 "/>
<path style=" stroke:none;fill-rule:nonzero;fill:rgb(32.549021%,27.843139%,25.490198%);fill-opacity:1;" d="M 130.417969 49.589844 C 125.84375 51.984375 122.753906 56.15625 119.03125 59.589844 C 115.3125 63.023438 110.089844 65.90625 105.027344 64.621094 C 106.800781 62.074219 103.730469 58.453125 100.457031 58.542969 C 97.183594 58.632812 94.554688 61.207031 93.253906 63.992188 C 91.972656 66.734375 91.667969 70.0625 93.347656 72.609375 C 95.027344 75.160156 99.085938 76.382812 101.667969 74.597656 C 104.042969 86.097656 96.722656 97.402344 96.105469 109.101562 C 95.21875 125.949219 107.996094 140.457031 120.03125 153.113281 C 119.394531 155.980469 115.65625 157.488281 112.550781 156.957031 C 109.445312 156.425781 106.886719 154.445312 104.550781 152.472656 C 89.367188 139.644531 76.777344 123.761719 70.519531 105.628906 C 64.261719 87.5 64.761719 67.007812 74.15625 50.078125 C 79.898438 39.730469 89.09375 30.761719 100.722656 26.371094 C 112.351562 21.980469 126.457031 22.664062 136.667969 29.433594 C 141.175781 32.421875 145.066406 37.863281 142.578125 42.453125 C 140.378906 46.503906 134.683594 47.359375 130.417969 49.589844 Z M 130.417969 49.589844 "/>
<path style=" stroke:none;fill-rule:nonzero;fill:rgb(32.549021%,27.843139%,25.490198%);fill-opacity:1;" d="M 138.75 46.378906 C 144.425781 54.066406 145.710938 61.695312 145.21875 71.234375 C 145.050781 74.511719 141.761719 97.855469 136.964844 97.910156 C 144.066406 97.832031 149.136719 91.445312 151.617188 85.28125 C 156.539062 73.046875 158.449219 47.734375 145.523438 38.894531 C 142.910156 37.109375 139.292969 35.90625 136.476562 37.398438 C 135.148438 40.210938 136.566406 43.488281 138.46875 46.003906 C 138.5625 46.128906 138.65625 46.253906 138.75 46.378906 Z M 138.75 46.378906 "/>
<path style=" stroke:none;fill-rule:nonzero;fill:rgb(94.901961%,90.588236%,83.92157%);fill-opacity:1;" d="M 166.074219 191.363281 C 185.136719 191.390625 205.667969 204.839844 221.78125 211.738281 C 222.347656 211.976562 223 212.179688 223.679688 212.378906 C 228 213.167969 233.007812 213.316406 236.246094 212.851562 C 237.1875 212.71875 238.136719 212.542969 239.082031 212.660156 C 240.023438 212.777344 240.976562 213.25 241.347656 214.058594 C 241.71875 214.871094 241.25 215.996094 240.316406 216.152344 C 242.445312 216.65625 244.628906 217.183594 246.398438 218.386719 C 248.171875 219.589844 249.449219 221.644531 248.992188 223.632812 C 248.378906 226.3125 245.070312 227.648438 242.128906 227.921875 C 235.535156 228.539062 226.679688 226.355469 220.636719 223.054688 C 217.007812 222.585938 213.226562 221.519531 210.90625 220.976562 C 200.417969 218.511719 189.925781 216.050781 179.4375 213.585938 C 172.996094 212.074219 158.625 209.253906 154.058594 204.289062 C 148.019531 197.726562 152.980469 192.765625 161.066406 191.6875 C 162.722656 191.464844 164.390625 191.363281 166.074219 191.363281 Z M 166.074219 191.363281 "/>
<use xlink:href="#surface5" mask="url(#mask0)"/>
<path style=" stroke:none;fill-rule:nonzero;fill:rgb(74.117649%,77.254903%,77.64706%);fill-opacity:1;" d="M 109.945312 316.570312 C 109.4375 316.300781 109.089844 316.109375 108.5 316.203125 C 104.902344 316.777344 101.566406 317.75 97.859375 317.980469 C 89.570312 318.492188 81.332031 315.859375 74.542969 311.609375 C 73.667969 311.0625 72.90625 312.339844 73.726562 312.902344 C 79.070312 316.535156 84.703125 318.742188 91.242188 319.808594 C 94.125 320.273438 97.054688 320.257812 99.964844 320.128906 C 101.421875 320.0625 103.035156 319.773438 104.464844 319.550781 L 106.523438 319.113281 C 107.496094 319.164062 108.082031 319.042969 108.363281 318.785156 C 108.820312 319.101562 109.523438 319.023438 109.917969 318.667969 C 110.011719 318.578125 110.109375 318.496094 110.203125 318.40625 C 110.78125 317.882812 110.648438 316.941406 109.945312 316.570312 Z M 109.945312 316.570312 "/>
<path style=" stroke:none;fill-rule:nonzero;fill:rgb(62.352943%,66.274512%,66.666669%);fill-opacity:1;" d="M 122.273438 264.304688 C 91.265625 272.417969 59.003906 272.472656 27.808594 265.15625 C 26.910156 264.945312 26.535156 266.210938 27.425781 266.441406 C 58.660156 274.613281 91.632812 274.285156 122.839844 266.191406 C 124.148438 265.855469 123.589844 263.960938 122.273438 264.304688 Z M 122.273438 264.304688 "/>
<path style=" stroke:none;fill-rule:nonzero;fill:rgb(62.352943%,66.274512%,66.666669%);fill-opacity:1;" d="M 31.460938 275.734375 C 29.347656 275.0625 27.171875 274.355469 24.980469 273.9375 C 24.238281 273.796875 23.660156 274.820312 24.433594 275.140625 C 26.539062 276.007812 28.804688 276.632812 31.011719 277.246094 C 32.066406 277.535156 32.484375 276.058594 31.460938 275.734375 Z M 31.460938 275.734375 "/>
<path style=" stroke:none;fill-rule:nonzero;fill:rgb(62.352943%,66.274512%,66.666669%);fill-opacity:1;" d="M 50.777344 276.152344 C 47.996094 275.914062 45.210938 275.746094 42.425781 275.589844 C 41.480469 275.539062 41.527344 276.824219 42.425781 276.921875 C 45.207031 277.230469 47.988281 277.527344 50.777344 277.75 C 51.886719 277.839844 51.871094 276.246094 50.777344 276.152344 Z M 50.777344 276.152344 "/>
<path style=" stroke:none;fill-rule:nonzero;fill:rgb(62.352943%,66.274512%,66.666669%);fill-opacity:1;" d="M 73.578125 277.929688 C 71.5625 277.925781 69.542969 277.914062 67.527344 277.984375 C 66.585938 278.019531 66.585938 279.304688 67.527344 279.339844 C 69.542969 279.410156 71.5625 279.398438 73.578125 279.394531 C 74.597656 279.390625 74.597656 277.929688 73.578125 277.929688 Z M 73.578125 277.929688 "/>
<path style=" stroke:none;fill-rule:nonzero;fill:rgb(62.352943%,66.274512%,66.666669%);fill-opacity:1;" d="M 95.449219 277.929688 C 93.433594 277.9375 91.417969 277.941406 89.398438 277.949219 C 88.40625 277.953125 88.40625 279.371094 89.398438 279.375 C 91.417969 279.382812 93.433594 279.386719 95.449219 279.394531 C 96.46875 279.398438 96.46875 277.925781 95.449219 277.929688 Z M 95.449219 277.929688 "/>
<path style=" stroke:none;fill-rule:nonzero;fill:rgb(62.352943%,66.274512%,66.666669%);fill-opacity:1;" d="M 118.972656 274.144531 C 116.027344 274.535156 113.105469 275.132812 110.183594 275.648438 C 109.167969 275.832031 109.613281 277.203125 110.601562 277.0625 C 113.550781 276.636719 116.523438 276.289062 119.445312 275.730469 C 120.589844 275.515625 120.078125 274 118.972656 274.144531 Z M 118.972656 274.144531 "/>
<path style=" stroke:none;fill-rule:nonzero;fill:rgb(94.901961%,90.588236%,83.92157%);fill-opacity:1;" d="M 196.984375 248.621094 C 196.484375 249.835938 194.914062 251.21875 195.707031 252.5625 C 196.195312 253.398438 197.027344 254.003906 197.835938 254.585938 C 199.09375 255.492188 200.351562 256.394531 201.609375 257.300781 C 203.925781 258.964844 206.464844 261.019531 206.484375 263.738281 C 206.574219 274.523438 179.574219 262.433594 175.238281 260.789062 C 152.792969 252.285156 125.050781 257.046875 105.519531 243.730469 C 99.589844 239.691406 94.945312 234.261719 90.652344 228.71875 C 70.792969 203.0625 57.027344 173.375 50.613281 142.367188 C 54.71875 138.285156 61.542969 136.773438 67.199219 138.691406 C 72.851562 140.609375 77.011719 145.839844 77.308594 151.410156 C 90.390625 176.125 104.183594 200.511719 118.667969 224.546875 C 120.082031 226.894531 121.570312 229.308594 123.890625 230.921875 C 125.988281 232.378906 128.582031 233.054688 131.113281 233.703125 C 148.34375 238.105469 167.789062 240.203125 183.1875 248.507812 C 183.882812 248.886719 184.59375 249.273438 185.390625 249.40625 C 186.59375 249.605469 187.808594 249.191406 188.945312 248.777344 C 190.5625 248.199219 192.179688 247.621094 193.796875 247.039062 C 194.675781 246.722656 195.742188 246.429688 196.496094 246.949219 C 197.214844 247.445312 197.234375 248.007812 196.984375 248.621094 Z M 196.984375 248.621094 "/>
<path style=" stroke:none;fill-rule:nonzero;fill:rgb(93.725491%,78.039217%,52.549022%);fill-opacity:1;" d="M 50.003906 143.097656 C 51.984375 140.964844 54.890625 139.785156 57.761719 138.867188 C 60.902344 137.859375 64.195312 137.074219 67.515625 137.253906 C 73.941406 137.601562 79.621094 141.59375 83.257812 146.515625 C 86.894531 151.4375 88.828125 157.242188 90.710938 162.945312 C 92.742188 169.097656 94.773438 175.253906 96.800781 181.410156 C 86.601562 186.714844 75.789062 191.011719 64.609375 194.207031 C 60.941406 187.34375 57.269531 180.476562 53.601562 173.613281 C 49.332031 165.628906 44.945312 156.753906 47.347656 148.125 C 47.859375 146.304688 48.679688 144.527344 50.003906 143.097656 Z M 50.003906 143.097656 "/>
<path style=" stroke:none;fill-rule:nonzero;fill:rgb(77.64706%,57.254905%,38.82353%);fill-opacity:1;" d="M 189.085938 160.742188 C 188.027344 168.996094 189.554688 179.433594 189.46875 183.933594 C 189.21875 196.996094 189.226562 210.0625 189.515625 223.125 C 189.675781 230.34375 189.582031 231.277344 198.292969 231.445312 C 206.414062 231.601562 214.542969 231.605469 222.664062 231.605469 C 230.753906 231.609375 313.820312 232.511719 314.363281 229.339844 C 316.964844 214.082031 317.328125 198.617188 316.820312 183.222656 C 316.566406 175.503906 316.160156 167.773438 315.542969 160.074219 C 314.84375 151.296875 312.332031 151.351562 302.457031 151.230469 C 282.210938 150.972656 261.964844 150.714844 241.71875 150.449219 C 231.59375 150.320312 221.472656 150.1875 211.351562 150.054688 C 206.574219 149.996094 201.511719 148.644531 196.753906 149.378906 C 191.894531 150.128906 189.839844 154.886719 189.085938 160.742188 Z M 189.085938 160.742188 "/>
<path style=" stroke:none;fill-rule:nonzero;fill:rgb(84.705883%,77.254903%,68.627453%);fill-opacity:1;" d="M 241.046875 152.003906 C 240.667969 165.164062 240.425781 178.328125 240.324219 191.492188 C 246.582031 191.492188 252.839844 191.488281 259.097656 191.484375 C 259.511719 178.46875 259.925781 165.453125 260.339844 152.4375 C 253.910156 152.292969 247.480469 152.148438 241.046875 152.003906 Z M 241.046875 152.003906 "/>
<path style=" stroke:none;fill-rule:nonzero;fill:rgb(10.196079%,10.196079%,10.196079%);fill-opacity:1;" d="M 456.535156 594.492188 C 454.347656 596.191406 457.320312 597.539062 458.746094 597.664062 C 461.335938 597.894531 464.035156 597.757812 466.570312 597.191406 C 467.242188 597.042969 467.925781 596.851562 468.46875 596.453125 C 468.890625 596.140625 469.199219 595.714844 469.503906 595.296875 C 470.339844 594.136719 472.320312 592.308594 472.636719 590.964844 C 472.894531 589.859375 472.175781 588.785156 471.613281 587.773438 C 470.425781 585.632812 468.386719 583.425781 468.488281 580.875 C 462.863281 581.453125 457.46875 579.652344 452.808594 581.058594 C 452.417969 582.875 450.953125 584.359375 451.632812 585.777344 C 451.183594 584.839844 437.601562 588.007812 435.992188 588.300781 C 433.398438 588.769531 430.792969 589.167969 428.160156 589.382812 C 426.113281 589.550781 422.1875 588.675781 421.035156 590.570312 C 420.625 591.242188 420.492188 592.027344 420.429688 592.796875 C 420.382812 593.382812 420.375 593.988281 420.582031 594.542969 C 420.9375 595.5 421.882812 596.191406 422.910156 596.539062 C 434.074219 600.339844 445.199219 594.34375 456.535156 594.492188 Z M 456.535156 594.492188 "/>
<path style=" stroke:none;fill-rule:nonzero;fill:rgb(10.196079%,10.196079%,10.196079%);fill-opacity:1;" d="M 583.449219 582.632812 C 582.089844 585.191406 585.65625 585.320312 587.125 584.867188 C 589.792969 584.046875 592.386719 582.824219 594.625 581.238281 C 595.21875 580.816406 595.808594 580.355469 596.152344 579.742188 C 596.421875 579.261719 596.527344 578.714844 596.628906 578.179688 C 596.910156 576.699219 598.003906 574.09375 597.679688 572.640625 C 597.414062 571.441406 596.199219 570.671875 595.167969 569.902344 C 592.984375 568.265625 589.148438 565.28125 588.046875 562.722656 C 582.765625 565.5625 574.738281 568.890625 570.800781 572.164062 C 572.957031 573.617188 573.160156 574.882812 574.503906 576.011719 C 573.617188 575.269531 561.703125 583.886719 560.25 584.828125 C 557.914062 586.339844 555.527344 587.785156 553.035156 589.0625 C 551.089844 590.054688 546.800781 590.777344 546.554688 593.117188 C 546.46875 593.945312 546.707031 594.773438 547.007812 595.558594 C 547.238281 596.15625 547.515625 596.753906 547.980469 597.222656 C 548.78125 598.023438 550.042969 598.320312 551.222656 598.25 C 564.035156 597.484375 572.1875 587.066406 583.449219 582.632812 Z M 583.449219 582.632812 "/>
<path style=" stroke:none;fill-rule:nonzero;fill:rgb(30.19608%,30.19608%,30.19608%);fill-opacity:1;" d="M 530.984375 143.332031 C 527.875 140.605469 523.691406 144.652344 526.363281 147.613281 C 539.921875 162.648438 547.824219 179.707031 549.402344 199.304688 C 549.867188 205.042969 559.5625 205.085938 559.097656 199.304688 C 557.429688 178.628906 547.332031 157.644531 530.984375 143.332031 Z M 530.984375 143.332031 "/>
<path style=" stroke:none;fill-rule:nonzero;fill:rgb(27.058825%,27.058825%,28.627452%);fill-opacity:1;" d="M 570.960938 572.980469 C 578.066406 572.90625 585.121094 570.554688 590.652344 566.410156 C 578.160156 546.007812 565.671875 525.601562 553.183594 505.199219 C 549.234375 498.746094 545.261719 492.253906 542.566406 485.269531 C 539.25 476.683594 537.933594 467.566406 536.636719 458.523438 C 531.613281 423.46875 526.59375 388.417969 521.570312 353.363281 C 521.148438 350.425781 520.691406 347.394531 519.042969 344.851562 C 514.304688 337.550781 502.960938 337.878906 493.863281 339.125 C 491.871094 339.398438 489.703125 339.753906 488.371094 341.15625 C 486.847656 342.757812 486.949219 345.144531 487.132812 347.269531 C 489.5625 375.066406 481.742188 350.453125 484.167969 378.25 C 485.023438 388.023438 496.140625 450.304688 499.316406 459.660156 C 504.925781 476.195312 512.5 493.289062 523.894531 507.039062 C 541.433594 528.210938 553.160156 547.710938 570.960938 572.980469 Z M 570.960938 572.980469 "/>
<path style=" stroke:none;fill-rule:nonzero;fill:rgb(27.058825%,27.058825%,28.627452%);fill-opacity:1;" d="M 462.691406 354.304688 C 449.890625 353.988281 437.089844 353.675781 424.292969 353.363281 C 423.492188 351.828125 426.808594 353.152344 426.78125 354.855469 C 425.953125 408.53125 431.132812 462.289062 442.207031 514.980469 C 446.980469 537.6875 452.871094 560.410156 452.96875 583.546875 C 458.21875 583.535156 463.472656 583.53125 468.726562 583.519531 C 470.507812 511.152344 472.292969 438.785156 474.078125 366.417969 C 474.167969 362.757812 474.007812 358.558594 470.957031 356.230469 C 468.71875 354.523438 465.589844 354.375 462.691406 354.304688 Z M 462.691406 354.304688 "/>
<path style=" stroke:none;fill-rule:nonzero;fill:rgb(92.941177%,83.529413%,74.509805%);fill-opacity:1;" d="M 500.652344 79.269531 C 500.625 78.351562 500.277344 77.46875 499.933594 76.605469 C 496.132812 67.105469 492.328125 57.605469 488.527344 48.105469 C 485.804688 41.300781 482.5 33.878906 475.472656 30.675781 C 466.054688 26.378906 455.171875 31.648438 445.203125 34.691406 C 445.492188 46.746094 444.894531 58.816406 443.410156 70.792969 C 442.574219 77.550781 441.457031 84.371094 442.367188 91.121094 C 443.28125 97.871094 446.5625 104.699219 452.71875 108.398438 C 463.164062 114.675781 477.558594 109.695312 486.488281 101.664062 C 492.558594 96.199219 497.234375 89.417969 500.035156 82.019531 C 500.367188 81.128906 500.683594 80.210938 500.652344 79.269531 Z M 500.652344 79.269531 "/>
<path style=" stroke:none;fill-rule:nonzero;fill:rgb(45.09804%,38.82353%,34.117648%);fill-opacity:1;" d="M 485.667969 73.921875 C 486.222656 71.351562 488.417969 69.050781 491.199219 68.578125 C 493.976562 68.101562 497.105469 69.753906 497.742188 72.308594 C 498.507812 75.398438 495.859375 78.191406 494.167969 80.949219 C 488.683594 89.898438 492.972656 101.066406 497.332031 110.53125 C 501.324219 103.957031 506.730469 98.125 513.140625 93.476562 C 518.160156 89.832031 524.25 86.289062 525.496094 80.496094 C 526.171875 77.351562 525.234375 74.054688 525.902344 70.910156 C 526.828125 66.550781 530.699219 63.058594 531.375 58.660156 C 532.109375 53.851562 528.878906 49.347656 525.550781 45.601562 C 517.800781 36.875 508.609375 29.246094 498.398438 23.0625 C 495.480469 21.296875 492.242188 19.359375 491.316406 16.246094 C 490.847656 14.667969 491.035156 12.917969 490.234375 11.457031 C 488.859375 8.9375 485.3125 8.386719 482.273438 8.136719 C 472.902344 7.371094 463.238281 6.632812 454.253906 9.234375 C 451.972656 9.894531 449.703125 10.777344 447.3125 10.785156 C 442.644531 10.796875 438.597656 7.507812 433.941406 7.226562 C 428.738281 6.914062 423.996094 10.585938 421.886719 15.007812 C 419.777344 19.429688 419.78125 24.445312 420.085938 29.269531 C 423.273438 30.558594 426.460938 31.847656 429.652344 33.136719 C 426.824219 37.101562 426.65625 42.554688 429.238281 46.660156 C 435.558594 47.394531 442.097656 46.425781 447.855469 43.902344 C 451.820312 42.164062 455.859375 39.628906 460.183594 40.3125 C 464.570312 41.003906 467.480469 44.71875 470.714844 47.542969 C 473.949219 50.367188 479.332031 52.402344 482.589844 49.597656 C 485.59375 57.347656 486.65625 65.738281 485.667969 73.921875 Z M 485.667969 73.921875 "/>
<path style=" stroke:none;fill-rule:nonzero;fill:rgb(23.529412%,41.176471%,55.686277%);fill-opacity:1;" d="M 503.261719 109.433594 C 517.222656 111.09375 528.054688 118.441406 533.488281 126.640625 C 538.925781 134.839844 539.878906 143.882812 540.761719 152.738281 C 541.898438 164.113281 543.035156 175.484375 544.171875 186.859375 C 546.890625 214.0625 549.609375 241.3125 548.335938 268.558594 C 547.757812 280.972656 546.351562 293.367188 544.945312 305.757812 C 542.050781 331.253906 539.15625 356.753906 536.261719 382.246094 C 498.035156 379.921875 459.8125 377.597656 421.589844 375.273438 C 417.003906 374.992188 412.140625 374.648438 408.511719 372.878906 C 401.914062 369.660156 402.308594 363.460938 403.363281 358.277344 C 416.527344 293.453125 427.054688 228.585938 433.332031 163.183594 C 434.195312 154.164062 431.640625 126.765625 437.648438 119.984375 C 444.667969 112.0625 490.160156 107.871094 503.261719 109.433594 Z M 503.261719 109.433594 "/>
<path style=" stroke:none;fill-rule:nonzero;fill:rgb(23.529412%,41.176471%,55.686277%);fill-opacity:1;" d="M 436.363281 31.921875 C 449.355469 46.449219 467.417969 51.570312 484.785156 54.390625 C 499.761719 56.820312 514.878906 57.941406 529.984375 57.738281 C 534.285156 40.890625 525.765625 22.160156 513.574219 12.957031 C 501.382812 3.753906 486.476562 2.125 472.191406 2.125 C 464.417969 2.125 456.242188 2.679688 449.625 7.734375 C 442.765625 12.96875 438.605469 22.347656 436.363281 31.921875 Z M 436.363281 31.921875 "/>
<path style=" stroke:none;fill-rule:nonzero;fill:rgb(23.529412%,41.176471%,55.686277%);fill-opacity:1;" d="M 459.265625 32.878906 C 457.96875 30.871094 456.671875 28.863281 455.375 26.855469 C 453.488281 23.929688 451.5 20.90625 448.429688 19.019531 C 445.90625 17.46875 442.867188 16.835938 439.886719 16.316406 C 427.265625 14.132812 413.496094 13.765625 402.355469 19.671875 C 396.898438 22.5625 391.945312 28.394531 394.296875 33.792969 C 396.253906 38.289062 402.101562 39.914062 407.203125 40.984375 C 412.898438 42.175781 418.589844 43.371094 424.285156 44.5625 C 427.089844 45.152344 429.894531 45.738281 432.699219 46.328125 C 438.285156 47.496094 443.871094 48.667969 449.488281 49.707031 C 453.25 50.40625 457.589844 50.917969 460.542969 48.648438 C 462.941406 46.804688 463.632812 43.570312 463.0625 40.734375 C 462.492188 37.898438 460.863281 35.351562 459.265625 32.878906 Z M 459.265625 32.878906 "/>
<path style=" stroke:none;fill-rule:nonzero;fill:rgb(30.19608%,30.19608%,30.19608%);fill-opacity:1;" d="M 487.757812 351.105469 C 489.375 354.71875 491.429688 358.691406 495.410156 359.996094 C 498.519531 361.015625 501.949219 360.082031 505.046875 359.023438 C 544.882812 345.402344 574.765625 309.585938 578.953125 270.4375 C 580.726562 253.832031 578.230469 237.089844 574.9375 220.679688 C 573.253906 212.28125 571.28125 203.730469 566.488281 196.433594 C 561.699219 189.132812 553.523438 183.203125 544.308594 182.949219 C 543.179688 202.476562 533.578125 220.925781 520.738281 236.445312 C 507.898438 251.96875 491.878906 264.9375 476.007812 277.832031 C 471.945312 281.140625 467.6875 284.71875 466.222656 289.542969 C 464.667969 294.664062 466.589844 300.074219 468.527344 305.082031 C 474.535156 320.566406 480.945312 335.914062 487.757812 351.105469 Z M 487.757812 351.105469 "/>
<path style=" stroke:none;fill-rule:nonzero;fill:rgb(34.901962%,34.901962%,34.901962%);fill-opacity:1;" d="M 576.445312 218.660156 C 574.628906 209.613281 572.507812 200.402344 567.34375 192.542969 C 562.183594 184.679688 553.378906 178.292969 543.453125 178.023438 C 542.238281 199.054688 531.898438 218.925781 518.066406 235.644531 C 516.507812 237.527344 514.898438 239.375 513.257812 241.191406 C 513.320312 241.296875 513.382812 241.402344 513.445312 241.503906 C 516.441406 246.40625 518.746094 251.648438 520.519531 257.035156 C 524.214844 268.246094 525.71875 279.785156 528.238281 291.226562 C 531.097656 304.214844 533.847656 317.300781 535.550781 330.464844 C 536.273438 336.066406 536.863281 341.726562 538.046875 347.269531 C 561.628906 328.285156 577.683594 301.113281 580.769531 272.257812 C 582.683594 254.367188 579.992188 236.332031 576.445312 218.660156 Z M 576.445312 218.660156 "/>
<path style=" stroke:none;fill-rule:nonzero;fill:rgb(30.19608%,30.19608%,30.19608%);fill-opacity:1;" d="M 504.933594 107.300781 C 496.363281 100.59375 485.332031 107.109375 478.628906 113.160156 C 470.171875 120.789062 464.339844 131.515625 459.140625 141.1875 C 448.082031 161.761719 441.386719 184.171875 438.667969 206.964844 C 435.960938 229.65625 436.355469 253.75 441.511719 276.128906 C 444.179688 287.683594 449.964844 297.960938 458.164062 306.945312 C 466.113281 315.65625 476.039062 321.59375 485.929688 328.171875 C 488.839844 330.105469 492.324219 325.8125 489.726562 323.613281 C 474.710938 310.90625 459.824219 295.09375 454.292969 276.625 C 451.253906 266.476562 450.554688 255.671875 449.9375 245.203125 C 449.347656 235.222656 449.476562 225.21875 450.171875 215.25 C 451.519531 196.078125 455.277344 176.578125 462.378906 158.492188 C 466.082031 149.070312 470.867188 140.066406 476.480469 131.503906 C 479.210938 127.332031 482.164062 123.34375 485.789062 119.792969 C 488.441406 117.195312 497.820312 110.769531 502.71875 110.53125 C 507.960938 110.277344 509.191406 110.632812 504.933594 107.300781 Z M 504.933594 107.300781 "/>
<path style=" stroke:none;fill-rule:nonzero;fill:rgb(92.941177%,83.529413%,74.509805%);fill-opacity:1;" d="M 288.953125 241.464844 C 290.992188 241.914062 293.136719 242.007812 295.273438 242.070312 C 300.90625 242.242188 306.558594 242.246094 312.222656 242.078125 C 312.960938 242.054688 313.839844 241.960938 314.25 241.378906 C 314.503906 241.015625 314.488281 240.570312 314.449219 240.160156 C 314.210938 237.601562 313.558594 235.101562 312.523438 232.765625 C 311.734375 230.980469 310.636719 229.21875 308.800781 228.265625 C 306.667969 227.160156 303.957031 227.335938 301.429688 227.191406 C 296.640625 226.914062 292.066406 225.355469 288.4375 222.753906 C 287.261719 223.039062 286.714844 224.425781 287.066406 225.421875 C 287.414062 226.421875 288.363281 227.109375 289.265625 227.746094 C 286.910156 228.742188 284.410156 227.457031 281.941406 227.144531 C 279.824219 226.878906 277.625 227.351562 275.484375 227.820312 C 274.890625 227.949219 274.261719 228.097656 273.820312 228.496094 C 272.6875 229.527344 273.683594 231.117188 274.683594 232.101562 C 278.710938 236.046875 283.042969 240.160156 288.953125 241.464844 Z M 288.953125 241.464844 "/>
<path style=" stroke:none;fill-rule:nonzero;fill:rgb(29.411766%,48.235294%,60.784316%);fill-opacity:1;" d="M 497.5625 188.722656 C 502.449219 184.332031 507.277344 179.625 509.835938 173.785156 C 512.394531 167.945312 512.230469 160.675781 507.75 155.929688 C 503.761719 151.703125 497.113281 150.285156 491.121094 151.117188 C 485.128906 151.949219 479.667969 154.722656 474.578125 157.765625 C 452.738281 170.828125 435.277344 189.636719 412.757812 201.671875 C 379.695312 219.347656 339.796875 220.53125 302.125 226.25 C 301.078125 226.410156 299.964844 226.605469 299.210938 227.292969 C 298.355469 228.070312 298.1875 229.269531 298.070312 230.375 C 297.625 234.453125 297.183594 238.53125 296.738281 242.609375 C 318.4375 245.554688 340.308594 247.429688 362.222656 248.222656 C 385.488281 249.070312 409.84375 248.464844 430.410156 238.347656 C 438.292969 234.46875 445.347656 229.3125 452.347656 224.1875 C 467.851562 212.839844 483.386719 201.46875 497.5625 188.722656 Z M 497.5625 188.722656 "/>
<path style=" stroke:none;fill-rule:nonzero;fill:rgb(20%,20%,20%);fill-opacity:1;" d="M 513.691406 299.226562 C 514.492188 301.566406 515.296875 303.902344 516.097656 306.242188 C 516.945312 306.066406 517.726562 305.695312 518.5 305.332031 C 523.78125 302.824219 529.066406 300.316406 534.351562 297.808594 C 535.039062 294.019531 534.539062 290.046875 532.925781 286.5 C 527.25 290.753906 521.476562 295.058594 514.746094 297.675781 C 514.238281 297.875 513.644531 298.15625 513.589844 298.667969 C 513.566406 298.855469 513.628906 299.042969 513.691406 299.226562 Z M 513.691406 299.226562 "/>
</g>
</svg>
