<svg width="34" height="33" viewBox="0 0 34 33" fill="none" xmlns="http://www.w3.org/2000/svg">
<path d="M23 11C25.3869 11 27.6761 11.9482 29.364 13.636C31.0518 15.3239 32 17.6131 32 20V30.5H26V20C26 19.2044 25.6839 18.4413 25.1213 17.8787C24.5587 17.3161 23.7956 17 23 17C22.2044 17 21.4413 17.3161 20.8787 17.8787C20.3161 18.4413 20 19.2044 20 20V30.5H14V20C14 17.6131 14.9482 15.3239 16.636 13.636C18.3239 11.9482 20.6131 11 23 11Z" stroke="white" stroke-width="4" stroke-linecap="round" stroke-linejoin="round"/>
<path d="M8 12.5H2V30.5H8V12.5Z" stroke="white" stroke-width="4" stroke-linecap="round" stroke-linejoin="round"/>
<path d="M5 8C6.65685 8 8 6.65685 8 5C8 3.34315 6.65685 2 5 2C3.34315 2 2 3.34315 2 5C2 6.65685 3.34315 8 5 8Z" stroke="white" stroke-width="4" stroke-linecap="round" stroke-linejoin="round"/>
</svg>
