<svg xmlns="http://www.w3.org/2000/svg" version="1.1" xmlns:xlink="http://www.w3.org/1999/xlink" xmlns:svgjs="http://svgjs.dev/svgjs" viewBox="0 0 700 700"><g fill="hsl(190, 100%, 70%)"><path d="M1072 449H1122C1150 449 1172 471 1172 499H1122C1094 499 1072 477 1072 449Z " transform="matrix(-0.026616296424552086,-0.5078691901979654,0.5078691901979654,-0.026616296424552086,911.1334884345118,1056.445355907355)" opacity="0.78"></path><path d="M1298 188H1348C1376 188 1398 210 1398 238H1348C1320 238 1298 216 1298 188Z " transform="matrix(0.07292575329817735,-0.5188936969999114,0.5188936969999114,0.07292575329817735,1139.1717270930758,896.9355181033688)" opacity="0.81"></path><path d="M776 46H826C854 46 876 68 876 96H826C798 96 776 74 776 46Z " transform="matrix(0.12923324526794688,-0.5183262360996435,0.5183262360996435,0.12923324526794688,682.4521766456012,489.9619106042813)" opacity="0.82"></path><path d="M255 49H305C333 49 355 71 355 99H305C277 99 255 77 255 49Z " transform="matrix(-0.38064173885556235,-0.13854226286275362,0.13854226286275362,-0.38064173885556235,410.84360289910273,144.42287884845146)" opacity="0.62"></path><path d="M628 180H678C706 180 728 202 728 230H678C650 230 628 208 628 180Z " transform="matrix(-0.3746393560760225,4.5880088825312645e-17,-4.5880088825312645e-17,-0.3746393560760225,932.0054834195432,281.80106799558456)" opacity="0.57"></path><path d="M1302 594H1352C1380 594 1402 616 1402 644H1352C1324 644 1302 622 1302 594Z " transform="matrix(0.07292575329817735,-0.5188936969999114,0.5188936969999114,0.07292575329817735,932.2091830979191,1275.4032370523087)" opacity="0.81"></path><path d="M8 545H58C86 545 108 567 108 595H58C30 595 8 573 8 545Z " transform="matrix(0.19532140073721727,-0.5088296451612017,0.5088296451612017,0.19532140073721727,-243.36153898464352,488.17892099913587)" opacity="0.84"></path><path d="M621 710H671C699 710 721 732 721 760H671C643 760 621 738 621 710Z " transform="matrix(-0.3746393560760225,4.5880088825312645e-17,-4.5880088825312645e-17,-0.3746393560760225,922.383007927011,1010.3599267158766)" opacity="0.57"></path><path d="M1198 459H1248C1276 459 1298 481 1298 509H1248C1220 509 1198 487 1198 459Z " transform="matrix(0.14789567051597516,-0.5157734975389473,0.5157734975389473,0.14789567051597516,813.7918303872125,1056.1038203988742)" opacity="0.82"></path><path d="M315 321H365C393 321 415 343 415 371H365C337 371 315 349 315 321Z " transform="matrix(-0.3163270862304731,0.12780443877913034,-0.12780443877913034,-0.3163270862304731,524.6797222917018,408.8005516813612)" opacity="0.52"></path><path d="M1309 47H1359C1387 47 1409 69 1409 97H1359C1331 97 1309 75 1309 47Z " transform="matrix(0.01797178876210285,-0.514644694938629,0.514644694938629,0.01797178876210285,1297.5219210367209,770.1081716307253)" opacity="0.79"></path><path d="M680 457H730C758 457 780 479 780 507H730C702 507 680 485 680 457Z " transform="matrix(-0.3817627934296991,-0.13145147150444383,0.13145147150444383,-0.3817627934296991,945.3272299385385,761.969240631359)" opacity="0.62"></path><path d="M310 714H360C388 714 410 736 410 764H360C332 764 310 742 310 714Z " transform="matrix(-0.3163270862304731,0.12780443877913034,-0.12780443877913034,-0.3163270862304731,568.3252313007476,926.7561187638328)" opacity="0.52"></path><path d="M275 445H325C353 445 375 467 375 495H325C297 495 275 473 275 445Z " transform="matrix(-0.3821280502272324,-0.0469194248558339,0.0469194248558339,-0.3821280502272324,427.1394866416086,664.8489966849453)" opacity="0.59"></path></g><g fill="none" stroke-width="3" stroke="hsl(190, 100%, 70%)"><path d="M419 251H469C497 251 519 273 519 301H469C441 301 419 279 419 251Z " transform="matrix(-0.22094752042688148,0.21336654029769608,-0.21336654029769608,-0.22094752042688148,631.5135522023716,236.91260823819982)" opacity="0.47"></path><path d="M948 713H998C1026 713 1048 735 1048 763H998C970 763 948 741 948 713Z " transform="matrix(-0.17933741725007368,-0.44387568376128983,0.44387568376128983,-0.17933741725007368,849.3984877997416,1313.3389463243216)" opacity="0.74"></path><path d="M1155 591H1205C1233 591 1255 613 1255 641H1205C1177 641 1155 619 1155 591Z " transform="matrix(0.11039789045598461,-0.5193812394621313,0.5193812394621313,0.11039789045598461,752.0316984918657,1173.8492930309817)" opacity="0.82"></path><path d="M18 702H68C96 702 118 724 118 752H68C40 752 18 730 18 702Z " transform="matrix(0.16674255494927073,-0.5131808163139109,0.5131808163139109,0.16674255494927073,-316.4209471967637,640.6744580612261)" opacity="0.83"></path><path d="M1181 43H1231C1259 43 1281 65 1281 93H1231C1203 93 1181 71 1181 43Z " transform="matrix(0.10103727864272112,-0.5197917376041238,0.5197917376041238,0.10103727864272112,1071.2772718337299,700.9930940429713)" opacity="0.81"></path><path d="M779 715H829C857 715 879 737 879 765H829C801 765 779 743 779 715Z " transform="matrix(-0.3308619444840428,-0.2876139003880671,0.2876139003880671,-0.3308619444840428,890.4502656901018,1223.2697623398994)" opacity="0.67"></path><path d="M1056 307H1106C1134 307 1156 329 1156 357H1106C1078 357 1056 335 1056 307Z " transform="matrix(-0.026616296424552086,-0.5078691901979654,0.5078691901979654,-0.026616296424552086,966.8250526998302,902.539934771901)" opacity="0.78"></path><path d="M550 442H600C628 442 650 464 650 492H600C572 492 550 470 550 442Z " transform="matrix(-0.32331955457649525,0.11767869402205124,-0.11767869402205124,-0.32331955457649525,848.947682854195,547.3830155739926)" opacity="0.53"></path><path d="M1316 464H1366C1394 464 1416 486 1416 514H1366C1338 514 1316 492 1316 464Z " transform="matrix(0.008980533270414176,-0.5144944064857979,0.5144944064857979,0.008980533270414176,1102.144826781059,1187.4078784903672)" opacity="0.79"></path></g></svg>