<?xml version="1.0" encoding="UTF-8"?>
<svg xmlns="http://www.w3.org/2000/svg" xmlns:xlink="http://www.w3.org/1999/xlink" width="40px" height="1000px" viewBox="0 0 40 1000" version="1.1">
<g id="surface1">
<path style="fill:none;stroke-width:18;stroke-linecap:round;stroke-linejoin:round;stroke:rgb(98.039216%,41.960785%,45.882353%);stroke-opacity:0.65098;stroke-miterlimit:4;" d="M 32 32.008138 L 32 1555.992486 " transform="matrix(0.625,0,0,0.629723,0,0)"/>
<path style="fill:none;stroke-width:5;stroke-linecap:round;stroke-linejoin:round;stroke:rgb(40.784314%,40.784314%,40.784314%);stroke-opacity:0.709804;stroke-dasharray:10,10;stroke-miterlimit:4;" d="M 32 32.008138 L 32 1555.992486 " transform="matrix(0.625,0,0,0.629723,0,0)"/>
<path style=" stroke:none;fill-rule:nonzero;fill:rgb(98.823529%,62.352943%,64.705884%);fill-opacity:1;" d="M 40 20.15625 C 40 9.011719 31.046875 0 20 0 C 8.953125 0 0 9.011719 0 20.15625 C 0 31.277344 8.953125 40.3125 20 40.3125 C 31.046875 40.3125 40 31.277344 40 20.15625 Z M 40 20.15625 "/>
<path style=" stroke:none;fill-rule:nonzero;fill:rgb(98.823529%,62.352943%,64.705884%);fill-opacity:1;" d="M 40 340.050781 C 40 328.933594 31.046875 319.894531 20 319.894531 C 8.953125 319.894531 0 328.933594 0 340.050781 C 0 351.171875 8.953125 360.207031 20 360.207031 C 31.046875 360.207031 40 351.171875 40 340.050781 Z M 40 340.050781 "/>
<path style=" stroke:none;fill-rule:nonzero;fill:rgb(98.823529%,62.352943%,64.705884%);fill-opacity:1;" d="M 40 659.949219 C 40 648.828125 31.046875 639.792969 20 639.792969 C 8.953125 639.792969 0 648.828125 0 659.949219 C 0 671.066406 8.953125 680.105469 20 680.105469 C 31.046875 680.105469 40 671.066406 40 659.949219 Z M 40 659.949219 "/>
<path style=" stroke:none;fill-rule:nonzero;fill:rgb(98.823529%,62.352943%,64.705884%);fill-opacity:1;" d="M 40 979.84375 C 40 968.722656 31.046875 959.6875 20 959.6875 C 8.953125 959.6875 0 968.722656 0 979.84375 C 0 990.988281 8.953125 1000 20 1000 C 31.046875 1000 40 990.988281 40 979.84375 Z M 40 979.84375 "/>
<path style=" stroke:none;fill-rule:nonzero;fill:rgb(100%,100%,100%);fill-opacity:1;" d="M 18.324219 31.457031 L 18.324219 11.171875 L 14.75 13.152344 L 14.75 11.042969 L 21.109375 7.96875 L 21.253906 7.96875 L 21.253906 30.128906 L 18.472656 31.457031 Z M 18.324219 31.457031 "/>
<path style=" stroke:none;fill-rule:nonzero;fill:rgb(100%,100%,100%);fill-opacity:1;" d="M 12.113281 350.753906 L 12.113281 350.597656 L 12.800781 349.140625 L 20.667969 341.535156 C 22.925781 339.246094 24.050781 337.109375 24.050781 335.105469 C 24.050781 333.386719 23.722656 332.109375 23.074219 331.328125 C 22.238281 330.3125 21.105469 329.792969 19.65625 329.792969 C 18.261719 329.792969 17.125 330.3125 16.246094 331.328125 C 15.574219 332.109375 15.234375 333.253906 15.234375 334.765625 C 15.234375 335.832031 15.410156 336.667969 15.761719 337.265625 L 13.300781 338.464844 L 13.15625 338.464844 C 12.558594 337.394531 12.261719 336.222656 12.261719 334.972656 C 12.261719 333.28125 12.921875 331.71875 14.238281 330.3125 C 15.578125 328.878906 17.386719 328.175781 19.65625 328.175781 C 21.933594 328.175781 23.738281 328.878906 25.078125 330.3125 C 26.386719 331.71875 27.042969 333.410156 27.042969 335.441406 C 27.03125 337.65625 25.714844 340 23.082031 342.421875 L 15.277344 349.140625 L 27.097656 349.140625 L 27.097656 349.269531 L 26.410156 350.753906 Z M 12.113281 350.753906 "/>
<path style=" stroke:none;fill-rule:nonzero;fill:rgb(100%,100%,100%);fill-opacity:1;" d="M 12.292969 663.566406 L 15.074219 662.238281 L 15.21875 662.238281 L 15.21875 664.609375 C 15.21875 665.886719 15.574219 666.953125 16.277344 667.8125 C 17.125 668.828125 18.261719 669.324219 19.6875 669.324219 C 21.082031 669.324219 22.222656 668.828125 23.097656 667.8125 C 23.792969 667.003906 24.140625 665.652344 24.140625 663.722656 C 24.140625 662.003906 23.859375 660.808594 23.292969 660.15625 C 22.488281 659.21875 21.285156 658.75 19.671875 658.75 C 18.207031 658.75 17.222656 659.089844 16.730469 659.714844 L 21.871094 650 L 13.59375 650 L 13.59375 649.84375 L 14.28125 648.359375 L 25.796875 648.359375 L 20.769531 657.214844 C 22.488281 657.238281 23.925781 657.761719 25.078125 658.777344 C 26.40625 659.949219 27.074219 661.589844 27.074219 663.699219 C 27.074219 665.703125 26.417969 667.394531 25.109375 668.800781 C 23.769531 670.234375 21.964844 670.964844 19.6875 670.964844 C 17.410156 670.964844 15.605469 670.234375 14.265625 668.800781 C 12.949219 667.394531 12.292969 665.652344 12.292969 663.566406 Z M 12.292969 663.566406 "/>
<path style=" stroke:none;fill-rule:nonzero;fill:rgb(100%,100%,100%);fill-opacity:1;" d="M 21.796875 991.144531 L 21.796875 982.863281 L 11.058594 982.863281 L 11.058594 982.707031 L 11.75 981.222656 L 21.796875 969.011719 L 24.578125 967.683594 L 24.730469 967.683594 L 24.730469 981.222656 L 26.777344 981.222656 L 26.777344 981.378906 L 26.089844 982.863281 L 24.730469 982.863281 L 24.730469 989.816406 L 21.941406 991.144531 Z M 21.796875 981.222656 L 21.796875 971.277344 L 13.769531 981.222656 Z M 21.796875 981.222656 "/>
</g>
</svg>
