<svg width="1433" height="2159" viewBox="0 0 1433 2159" fill="none" xmlns="http://www.w3.org/2000/svg">
<path d="M31.4397 1.99996C1091.31 361.167 1326.84 720.333 738.02 1079.5C149.203 1438.67 -86.3237 1797.83 31.4396 2157" stroke="url(#paint0_linear_759_1732)" stroke-width="2.5" stroke-linecap="round"/>
<path opacity="0.97" d="M71.0948 1.99996C1104.53 361.167 1326.84 720.333 738.02 1079.5C149.203 1438.67 -73.1053 1797.83 71.0947 2157" stroke="url(#paint1_linear_759_1732)" stroke-width="2.5" stroke-linecap="round"/>
<path opacity="0.95" d="M110.749 1.99996C1117.75 361.167 1326.84 720.333 738.019 1079.5C149.203 1438.67 -59.8873 1797.83 110.749 2157" stroke="url(#paint2_linear_759_1732)" stroke-width="2.5" stroke-linecap="round"/>
<path opacity="0.92" d="M150.405 1.99996C1130.97 361.167 1326.84 720.333 738.02 1079.5C149.203 1438.67 -46.6683 1797.83 150.405 2157" stroke="url(#paint3_linear_759_1732)" stroke-width="2.5" stroke-linecap="round"/>
<path opacity="0.89" d="M190.06 1.99996C1144.18 361.167 1326.84 720.333 738.02 1079.5C149.203 1438.67 -33.45 1797.83 190.06 2157" stroke="url(#paint4_linear_759_1732)" stroke-width="2.5" stroke-linecap="round"/>
<path opacity="0.86" d="M229.714 1.99996C1157.4 361.167 1326.84 720.333 738.019 1079.5C149.203 1438.67 -20.2325 1797.83 229.714 2157" stroke="url(#paint5_linear_759_1732)" stroke-width="2.5" stroke-linecap="round"/>
<path opacity="0.84" d="M269.371 1.99996C1170.62 361.167 1326.84 720.333 738.021 1079.5C149.204 1438.67 -7.01248 1797.83 269.371 2157" stroke="url(#paint6_linear_759_1732)" stroke-width="2.5" stroke-linecap="round"/>
<path opacity="0.81" d="M309.024 1.99997C1183.84 361.167 1326.84 720.333 738.019 1079.5C149.203 1438.67 6.20443 1797.83 309.024 2157" stroke="url(#paint7_linear_759_1732)" stroke-width="2.5" stroke-linecap="round"/>
<path opacity="0.78" d="M348.681 1.99997C1197.06 361.167 1326.84 720.333 738.021 1079.5C149.204 1438.67 19.4239 1797.83 348.681 2157" stroke="url(#paint8_linear_759_1732)" stroke-width="2.5" stroke-linecap="round"/>
<path opacity="0.76" d="M388.336 1.99997C1210.28 361.167 1326.84 720.333 738.021 1079.5C149.204 1438.67 32.6426 1797.83 388.336 2157" stroke="url(#paint9_linear_759_1732)" stroke-width="2.5" stroke-linecap="round"/>
<path opacity="0.73" d="M427.99 1.99997C1223.49 361.167 1326.84 720.333 738.02 1079.5C149.203 1438.67 45.86 1797.83 427.99 2157" stroke="url(#paint10_linear_759_1732)" stroke-width="2.5" stroke-linecap="round"/>
<path opacity="0.7" d="M467.645 1.99997C1236.71 361.167 1326.84 720.333 738.02 1079.5C149.204 1438.67 59.0787 1797.83 467.645 2157" stroke="url(#paint11_linear_759_1732)" stroke-width="2.5" stroke-linecap="round"/>
<path opacity="0.67" d="M507.299 1.99997C1249.93 361.167 1326.84 720.333 738.019 1079.5C149.203 1438.67 72.296 1797.83 507.299 2157" stroke="url(#paint12_linear_759_1732)" stroke-width="2.5" stroke-linecap="round"/>
<path opacity="0.65" d="M546.956 1.99997C1263.15 361.167 1326.84 720.333 738.021 1079.5C149.204 1438.67 85.5158 1797.83 546.956 2157" stroke="url(#paint13_linear_759_1732)" stroke-width="2.5" stroke-linecap="round"/>
<path opacity="0.62" d="M586.609 1.99998C1276.37 361.167 1326.84 720.333 738.019 1079.5C149.203 1438.67 98.7326 1797.83 586.609 2157" stroke="url(#paint14_linear_759_1732)" stroke-width="2.5" stroke-linecap="round"/>
<path opacity="0.59" d="M626.264 1.99998C1289.58 361.167 1326.84 720.333 738.019 1079.5C149.203 1438.67 111.951 1797.83 626.264 2157" stroke="url(#paint15_linear_759_1732)" stroke-width="2.5" stroke-linecap="round"/>
<path opacity="0.57" d="M665.92 1.99998C1302.8 361.167 1326.84 720.333 738.02 1079.5C149.204 1438.67 125.17 1797.83 665.92 2157" stroke="url(#paint16_linear_759_1732)" stroke-width="2.5" stroke-linecap="round"/>
<path opacity="0.54" d="M705.576 1.99998C1316.02 361.167 1326.84 720.333 738.02 1079.5C149.204 1438.67 138.389 1797.83 705.575 2157" stroke="url(#paint17_linear_759_1732)" stroke-width="2.5" stroke-linecap="round"/>
<path opacity="0.51" d="M745.231 1.99998C1329.24 361.167 1326.84 720.333 738.021 1079.5C149.204 1438.67 151.608 1797.83 745.231 2157" stroke="url(#paint18_linear_759_1732)" stroke-width="2.5" stroke-linecap="round"/>
<path opacity="0.48" d="M784.885 1.99998C1342.46 361.167 1326.84 720.333 738.02 1079.5C149.203 1438.67 164.825 1797.83 784.885 2157" stroke="url(#paint19_linear_759_1732)" stroke-width="2.5" stroke-linecap="round"/>
<path opacity="0.46" d="M824.541 1.99998C1355.68 361.167 1326.84 720.333 738.02 1079.5C149.204 1438.67 178.044 1797.83 824.54 2157" stroke="url(#paint20_linear_759_1732)" stroke-width="2.5" stroke-linecap="round"/>
<path opacity="0.43" d="M864.196 1.99998C1368.9 361.167 1326.84 720.333 738.021 1079.5C149.204 1438.67 191.262 1797.83 864.196 2157" stroke="url(#paint21_linear_759_1732)" stroke-width="2.5" stroke-linecap="round"/>
<path opacity="0.4" d="M903.85 1.99999C1382.11 361.167 1326.84 720.333 738.02 1079.5C149.203 1438.67 204.48 1797.83 903.85 2157" stroke="url(#paint22_linear_759_1732)" stroke-width="2.5" stroke-linecap="round"/>
<path opacity="0.38" d="M943.504 1.99999C1395.33 361.167 1326.84 720.333 738.019 1079.5C149.203 1438.67 217.698 1797.83 943.504 2157" stroke="url(#paint23_linear_759_1732)" stroke-width="2.5" stroke-linecap="round"/>
<path opacity="0.35" d="M983.16 1.99999C1408.55 361.167 1326.84 720.333 738.02 1079.5C149.204 1438.67 230.917 1797.83 983.16 2157" stroke="url(#paint24_linear_759_1732)" stroke-width="2.5" stroke-linecap="round"/>
<path opacity="0.32" d="M1022.82 1.99999C1421.77 361.167 1326.84 720.333 738.021 1079.5C149.204 1438.67 244.136 1797.83 1022.82 2157" stroke="url(#paint25_linear_759_1732)" stroke-width="2.5" stroke-linecap="round"/>
<path opacity="0.29" d="M1062.47 1.99999C1434.99 361.167 1326.84 720.333 738.021 1079.5C149.204 1438.67 257.354 1797.83 1062.47 2157" stroke="url(#paint26_linear_759_1732)" stroke-width="2.5" stroke-linecap="round"/>
<path opacity="0.27" d="M1102.13 1.99999C1448.21 361.167 1326.84 720.333 738.02 1079.5C149.204 1438.67 270.572 1797.83 1102.13 2157" stroke="url(#paint27_linear_759_1732)" stroke-width="2.5" stroke-linecap="round"/>
<path opacity="0.24" d="M1141.78 1.99999C1461.42 361.167 1326.84 720.333 738.02 1079.5C149.203 1438.67 283.79 1797.83 1141.78 2157" stroke="url(#paint28_linear_759_1732)" stroke-width="2.5" stroke-linecap="round"/>
<path opacity="0.21" d="M1181.43 1.99999C1474.64 361.167 1326.84 720.333 738.02 1079.5C149.203 1438.67 297.008 1797.83 1181.43 2157" stroke="url(#paint29_linear_759_1732)" stroke-width="2.5" stroke-linecap="round"/>
<path opacity="0.19" d="M1221.09 1.99999C1487.86 361.167 1326.84 720.333 738.02 1079.5C149.203 1438.67 310.227 1797.83 1221.09 2157" stroke="url(#paint30_linear_759_1732)" stroke-width="2.5" stroke-linecap="round"/>
<path opacity="0.16" d="M1260.75 2C1501.08 361.167 1326.84 720.333 738.021 1079.5C149.204 1438.67 323.446 1797.83 1260.75 2157" stroke="url(#paint31_linear_759_1732)" stroke-width="2.5" stroke-linecap="round"/>
<path opacity="0.13" d="M1300.4 2C1514.3 361.167 1326.84 720.333 738.02 1079.5C149.203 1438.67 336.663 1797.83 1300.4 2157" stroke="url(#paint32_linear_759_1732)" stroke-width="2.5" stroke-linecap="round"/>
<path opacity="0.1" d="M1340.06 2C1527.52 361.167 1326.84 720.333 738.021 1079.5C149.204 1438.67 349.882 1797.83 1340.06 2157" stroke="url(#paint33_linear_759_1732)" stroke-width="2.5" stroke-linecap="round"/>
<path opacity="0.08" d="M1379.71 2C1540.73 361.167 1326.84 720.333 738.02 1079.5C149.203 1438.67 363.1 1797.83 1379.71 2157" stroke="url(#paint34_linear_759_1732)" stroke-width="2.5" stroke-linecap="round"/>
<defs>
<linearGradient id="paint0_linear_759_1732" x1="1053.45" y1="107752" x2="-104092" y2="107752" gradientUnits="userSpaceOnUse">
<stop stop-color="#20ACAC"/>
<stop offset="1" stop-color="#53DFDF"/>
</linearGradient>
<linearGradient id="paint1_linear_759_1732" x1="1058.59" y1="107752" x2="-101947" y2="107752" gradientUnits="userSpaceOnUse">
<stop stop-color="#20ACAC"/>
<stop offset="1" stop-color="#53DFDF"/>
</linearGradient>
<linearGradient id="paint2_linear_759_1732" x1="1063.9" y1="107752" x2="-100003" y2="107752" gradientUnits="userSpaceOnUse">
<stop stop-color="#20ACAC"/>
<stop offset="1" stop-color="#53DFDF"/>
</linearGradient>
<linearGradient id="paint3_linear_759_1732" x1="1069.39" y1="107752" x2="-98242.8" y2="107752" gradientUnits="userSpaceOnUse">
<stop stop-color="#20ACAC"/>
<stop offset="1" stop-color="#53DFDF"/>
</linearGradient>
<linearGradient id="paint4_linear_759_1732" x1="1075.07" y1="107752" x2="-96651.3" y2="107752" gradientUnits="userSpaceOnUse">
<stop stop-color="#20ACAC"/>
<stop offset="1" stop-color="#53DFDF"/>
</linearGradient>
<linearGradient id="paint5_linear_759_1732" x1="1080.95" y1="107752" x2="-95215.2" y2="107752" gradientUnits="userSpaceOnUse">
<stop stop-color="#20ACAC"/>
<stop offset="1" stop-color="#53DFDF"/>
</linearGradient>
<linearGradient id="paint6_linear_759_1732" x1="1087.03" y1="107752" x2="-93923" y2="107752" gradientUnits="userSpaceOnUse">
<stop stop-color="#20ACAC"/>
<stop offset="1" stop-color="#53DFDF"/>
</linearGradient>
<linearGradient id="paint7_linear_759_1732" x1="1093.34" y1="107752" x2="-92764.9" y2="107752" gradientUnits="userSpaceOnUse">
<stop stop-color="#20ACAC"/>
<stop offset="1" stop-color="#53DFDF"/>
</linearGradient>
<linearGradient id="paint8_linear_759_1732" x1="1099.87" y1="107752" x2="-91732.4" y2="107752" gradientUnits="userSpaceOnUse">
<stop stop-color="#20ACAC"/>
<stop offset="1" stop-color="#53DFDF"/>
</linearGradient>
<linearGradient id="paint9_linear_759_1732" x1="1106.65" y1="107752" x2="-90818.2" y2="107752" gradientUnits="userSpaceOnUse">
<stop stop-color="#20ACAC"/>
<stop offset="1" stop-color="#53DFDF"/>
</linearGradient>
<linearGradient id="paint10_linear_759_1732" x1="1113.69" y1="107752" x2="-90015.9" y2="107752" gradientUnits="userSpaceOnUse">
<stop stop-color="#20ACAC"/>
<stop offset="1" stop-color="#53DFDF"/>
</linearGradient>
<linearGradient id="paint11_linear_759_1732" x1="1121.01" y1="107752" x2="-89320.3" y2="107752" gradientUnits="userSpaceOnUse">
<stop stop-color="#20ACAC"/>
<stop offset="1" stop-color="#53DFDF"/>
</linearGradient>
<linearGradient id="paint12_linear_759_1732" x1="1128.61" y1="107752" x2="-88726.8" y2="107752" gradientUnits="userSpaceOnUse">
<stop stop-color="#20ACAC"/>
<stop offset="1" stop-color="#53DFDF"/>
</linearGradient>
<linearGradient id="paint13_linear_759_1732" x1="1136.52" y1="107752" x2="-88231.5" y2="107752" gradientUnits="userSpaceOnUse">
<stop stop-color="#20ACAC"/>
<stop offset="1" stop-color="#53DFDF"/>
</linearGradient>
<linearGradient id="paint14_linear_759_1732" x1="1144.76" y1="107752" x2="-87831.4" y2="107752" gradientUnits="userSpaceOnUse">
<stop stop-color="#20ACAC"/>
<stop offset="1" stop-color="#53DFDF"/>
</linearGradient>
<linearGradient id="paint15_linear_759_1732" x1="1153.35" y1="107752" x2="-87524.1" y2="107752" gradientUnits="userSpaceOnUse">
<stop stop-color="#20ACAC"/>
<stop offset="1" stop-color="#53DFDF"/>
</linearGradient>
<linearGradient id="paint16_linear_759_1732" x1="1162.31" y1="107752" x2="-87307.6" y2="107752" gradientUnits="userSpaceOnUse">
<stop stop-color="#20ACAC"/>
<stop offset="1" stop-color="#53DFDF"/>
</linearGradient>
<linearGradient id="paint17_linear_759_1732" x1="1171.66" y1="107752" x2="-87180.6" y2="107752" gradientUnits="userSpaceOnUse">
<stop stop-color="#20ACAC"/>
<stop offset="1" stop-color="#53DFDF"/>
</linearGradient>
<linearGradient id="paint18_linear_759_1732" x1="1181.44" y1="107752" x2="-87142.5" y2="107752" gradientUnits="userSpaceOnUse">
<stop stop-color="#20ACAC"/>
<stop offset="1" stop-color="#53DFDF"/>
</linearGradient>
<linearGradient id="paint19_linear_759_1732" x1="1191.66" y1="107752" x2="-87193" y2="107752" gradientUnits="userSpaceOnUse">
<stop stop-color="#20ACAC"/>
<stop offset="1" stop-color="#53DFDF"/>
</linearGradient>
<linearGradient id="paint20_linear_759_1732" x1="1202.37" y1="107752" x2="-87332.5" y2="107752" gradientUnits="userSpaceOnUse">
<stop stop-color="#20ACAC"/>
<stop offset="1" stop-color="#53DFDF"/>
</linearGradient>
<linearGradient id="paint21_linear_759_1732" x1="1213.6" y1="107752" x2="-87561.8" y2="107752" gradientUnits="userSpaceOnUse">
<stop stop-color="#20ACAC"/>
<stop offset="1" stop-color="#53DFDF"/>
</linearGradient>
<linearGradient id="paint22_linear_759_1732" x1="1225.38" y1="107752" x2="-87882.4" y2="107752" gradientUnits="userSpaceOnUse">
<stop stop-color="#20ACAC"/>
<stop offset="1" stop-color="#53DFDF"/>
</linearGradient>
<linearGradient id="paint23_linear_759_1732" x1="1237.76" y1="107752" x2="-88296.3" y2="107752" gradientUnits="userSpaceOnUse">
<stop stop-color="#20ACAC"/>
<stop offset="1" stop-color="#53DFDF"/>
</linearGradient>
<linearGradient id="paint24_linear_759_1732" x1="1250.79" y1="107752" x2="-88806.1" y2="107752" gradientUnits="userSpaceOnUse">
<stop stop-color="#20ACAC"/>
<stop offset="1" stop-color="#53DFDF"/>
</linearGradient>
<linearGradient id="paint25_linear_759_1732" x1="1264.51" y1="107752" x2="-89415" y2="107752" gradientUnits="userSpaceOnUse">
<stop stop-color="#20ACAC"/>
<stop offset="1" stop-color="#53DFDF"/>
</linearGradient>
<linearGradient id="paint26_linear_759_1732" x1="1278.99" y1="107752" x2="-90127.2" y2="107752" gradientUnits="userSpaceOnUse">
<stop stop-color="#20ACAC"/>
<stop offset="1" stop-color="#53DFDF"/>
</linearGradient>
<linearGradient id="paint27_linear_759_1732" x1="1294.29" y1="107752" x2="-90947.2" y2="107752" gradientUnits="userSpaceOnUse">
<stop stop-color="#20ACAC"/>
<stop offset="1" stop-color="#53DFDF"/>
</linearGradient>
<linearGradient id="paint28_linear_759_1732" x1="1310.48" y1="107752" x2="-91880.8" y2="107752" gradientUnits="userSpaceOnUse">
<stop stop-color="#20ACAC"/>
<stop offset="1" stop-color="#53DFDF"/>
</linearGradient>
<linearGradient id="paint29_linear_759_1732" x1="1327.63" y1="107752" x2="-92934.4" y2="107752" gradientUnits="userSpaceOnUse">
<stop stop-color="#20ACAC"/>
<stop offset="1" stop-color="#53DFDF"/>
</linearGradient>
<linearGradient id="paint30_linear_759_1732" x1="1345.85" y1="107752" x2="-94115.8" y2="107752" gradientUnits="userSpaceOnUse">
<stop stop-color="#20ACAC"/>
<stop offset="1" stop-color="#53DFDF"/>
</linearGradient>
<linearGradient id="paint31_linear_759_1732" x1="1365.23" y1="107752" x2="-95433.7" y2="107752" gradientUnits="userSpaceOnUse">
<stop stop-color="#20ACAC"/>
<stop offset="1" stop-color="#53DFDF"/>
</linearGradient>
<linearGradient id="paint32_linear_759_1732" x1="1385.89" y1="107752" x2="-96898.5" y2="107752" gradientUnits="userSpaceOnUse">
<stop stop-color="#20ACAC"/>
<stop offset="1" stop-color="#53DFDF"/>
</linearGradient>
<linearGradient id="paint33_linear_759_1732" x1="1407.95" y1="107752" x2="-98522" y2="107752" gradientUnits="userSpaceOnUse">
<stop stop-color="#20ACAC"/>
<stop offset="1" stop-color="#53DFDF"/>
</linearGradient>
<linearGradient id="paint34_linear_759_1732" x1="1431.57" y1="107752" x2="-100318" y2="107752" gradientUnits="userSpaceOnUse">
<stop stop-color="#20ACAC"/>
<stop offset="1" stop-color="#53DFDF"/>
</linearGradient>
</defs>
</svg>
