<svg width="387" height="387" viewBox="0 0 387 387" fill="none" xmlns="http://www.w3.org/2000/svg">
<g clip-path="url(#clip0_325_1410)">
<path d="M166.485 208.334C166.485 208.334 151.054 243.235 144.737 239.963C138.42 236.69 164.736 202.312 164.736 202.312C164.736 202.312 145.514 168.749 133.494 162.091C133.494 162.091 130.56 204.514 125.243 199.788C119.926 195.061 120.929 150.774 120.929 150.774C120.929 150.774 95.2305 125.073 78.5057 139.274C61.781 153.475 63.4162 167.449 67.0289 171.54C70.6415 175.63 98.885 194.514 95.6582 197.65C92.4314 200.785 69.5272 193.604 61.2339 183.083C61.2339 183.083 53.1197 219.802 69.3888 228.847C85.6579 237.892 96.8832 231.689 106.836 237.461C116.788 243.233 121.946 250.528 115.469 249.823C108.993 249.118 94.1736 236.409 82.0762 237.65C69.9788 238.891 61.0488 238.64 73.2276 251.298C85.4063 263.955 112.105 279.635 124.694 272.228C125.243 271.905 125.766 271.597 126.268 271.302C125.341 271.992 124.694 272.228 124.694 272.228C126.26 275.553 125.18 285.526 124.063 292.98C123.798 294.196 123.508 295.933 123.192 298.345C123.007 299.406 122.849 300.27 122.736 300.871C119.136 316.813 101.64 336.587 101.64 336.587L104.11 339.483C125.786 322.335 126.306 296.36 126.306 296.36C128.42 276.932 137.283 264.822 137.283 264.822C137.283 264.822 175.048 268.3 176.572 238.829C176.572 238.828 175.142 219.105 166.485 208.334Z" fill="#DFEBFD"/>
<path d="M277.241 192.993C277.241 192.993 258.814 229.857 240.096 255.304C232.648 265.432 225.154 273.75 218.758 277.219C212.497 280.614 207.197 285.889 202.811 291.733C191.452 306.866 186.21 325.812 186.21 325.812L138.346 253.399C138.346 253.399 139.979 182.614 145.726 170.774C154.102 153.519 158.148 118.656 161.366 111.716C163.753 106.567 170.57 79.9703 171.224 78.016C171.508 77.1737 173.776 75.8824 176.722 75.8848C179.086 75.8848 183.099 78.1696 184.112 82.8649C189.23 106.597 183.069 122.251 183.139 122.946C184.945 141.185 179.516 154.724 183.323 158.31C183.465 158.442 183.728 158.379 184.1 158.142C190.698 153.905 231.653 94.198 236.697 92.9089C242.025 91.5503 277.241 192.993 277.241 192.993Z" fill="#EFA26F"/>
<path d="M200.61 311.481C200.61 311.481 199.958 343.66 198.092 387H77.3579C104.955 328.149 128.948 278.616 128.948 278.616C128.948 278.616 197.692 280.715 200.61 311.481Z" fill="#F99746"/>
<path d="M319.089 68.2331L304.267 89.9624L289.722 111.287C288.836 112.357 287.809 112.729 286.698 112.622C283.208 112.29 278.889 107.256 275.524 104.469L275.182 104.189C270.744 100.517 270.117 93.8833 273.789 89.4477L296.02 62.5746V62.5721L302.613 54.6028C306.285 50.1646 312.919 49.5379 317.355 53.2092L317.696 53.4894C322.134 57.1608 322.761 63.795 319.089 68.2331Z" fill="#FFB27D"/>
<path d="M304.267 89.9625L289.722 111.287C288.835 112.357 287.808 112.729 286.698 112.622L296.02 62.5747C296.04 62.8551 297.625 85.3104 304.267 89.9625Z" fill="#EFA26F"/>
<path d="M240.096 255.304C232.648 265.432 225.153 273.75 218.758 277.219C212.497 280.614 207.196 285.888 202.811 291.733C197.766 289.382 192.015 286.622 186.395 283.89C179.55 280.564 179.288 270.845 185.992 267.244C186.057 267.208 186.121 267.173 186.184 267.137C192.466 263.542 198.903 250.85 198.903 250.85L240.096 255.304Z" fill="#D38254"/>
<path d="M170.89 79.1172L167.012 94.7742C167.012 94.7742 170.403 96.1613 172.58 95.0844C174.757 94.0074 176.534 79.9601 170.89 79.1172Z" fill="#FFC197"/>
<path d="M282.42 262.703H199.026C190.823 262.703 184.111 255.991 184.111 247.788V64.4832C184.111 56.2804 190.823 49.5688 199.026 49.5688H282.42C290.623 49.5688 297.334 56.2804 297.334 64.4832V247.788C297.334 255.991 290.623 262.703 282.42 262.703Z" fill="#2B478B"/>
<path d="M291.723 65.8953V244.952C291.723 251.026 286.788 255.995 280.76 255.995H200.685C194.657 255.995 189.724 251.026 189.724 244.952V65.8953C189.724 59.8207 194.657 54.8521 200.685 54.8521H280.76C286.788 54.8519 291.723 59.8206 291.723 65.8953Z" fill="#C0D8FB"/>
<path d="M280.76 54.8516L201.676 255.995H200.685C194.657 255.995 189.724 251.026 189.724 244.951V65.895C189.724 59.8204 194.657 54.8518 200.685 54.8518L280.76 54.8516Z" fill="#CBE1FD"/>
<path d="M257.457 61.5105H223.99C221.264 61.5105 219.033 59.28 219.033 56.5538V55.7746C219.033 53.0483 221.264 50.8179 223.99 50.8179H257.457C260.183 50.8179 262.413 53.0483 262.413 55.7746V56.5538C262.414 59.2798 260.183 61.5105 257.457 61.5105Z" fill="#2B478B"/>
<path d="M311.711 150.291L309.5 151.131L294.636 156.779C294.288 156.912 293.935 157.025 293.583 157.113C288.661 158.392 283.424 155.769 281.579 150.912L281.361 150.341C279.383 145.136 282.023 139.259 287.228 137.281L301.085 132.016L302.092 131.633L304.302 130.793C309.507 128.815 315.382 131.455 317.36 136.66L317.578 137.231C319.555 142.436 316.916 148.313 311.711 150.291Z" fill="#FFB27D"/>
<path d="M299.64 150.632C297.159 151.572 292.668 153.24 290.267 153.585C289.587 153.683 288.335 153.313 287.167 152.034C286.465 151.268 285.794 150.175 285.297 148.662C285.064 147.95 284.871 147.241 284.789 146.51C284.697 145.654 284.721 144.798 284.871 143.951C285.007 143.187 285.528 142.492 286.289 142.125C286.292 142.122 286.297 142.122 286.3 142.12C288.854 140.9 292.296 139.414 295.315 138.585C297.401 138.009 299.512 138.93 300.172 140.756L300.485 141.609L302.08 145.978C302.74 147.793 301.667 149.869 299.64 150.632Z" fill="#FFD3B6"/>
<path d="M299.64 150.632C297.16 151.572 292.668 153.24 290.267 153.585C289.587 153.683 288.335 153.313 287.167 152.033C287.042 151.743 286.927 151.436 286.819 151.107C286.585 150.395 286.392 149.686 286.311 148.955C286.218 148.099 286.243 147.243 286.392 146.396C286.528 145.632 287.05 144.937 287.81 144.57C287.813 144.567 287.818 144.567 287.821 144.564C290.375 143.345 293.818 141.858 296.836 141.03C298.173 140.66 299.518 140.905 300.485 141.608L302.08 145.977C302.74 147.793 301.667 149.868 299.64 150.632Z" fill="#FFC197"/>
<path d="M304.966 171.188L293.504 174.308C290.021 175.256 286.396 173.183 285.447 169.7L285.094 168.402C284.146 164.919 286.219 161.294 289.702 160.345L301.165 157.225C304.648 156.277 308.273 158.35 309.222 161.833L309.575 163.131C310.523 166.614 308.449 170.24 304.966 171.188Z" fill="#FFB27D"/>
<path d="M298.768 170.625C296.662 171.188 292.856 172.18 290.862 172.288C290.136 172.329 288.683 171.715 287.735 169.808C287.501 169.346 287.303 168.811 287.148 168.191C287.009 167.629 286.903 167.072 286.893 166.507C286.879 165.841 286.963 165.186 287.148 164.545C287.313 163.966 287.794 163.466 288.444 163.236C288.449 163.233 288.452 163.233 288.455 163.23C290.639 162.458 293.573 161.537 296.111 161.095C297.863 160.788 299.526 161.63 299.936 163.075L300.232 164.108L301.115 167.208C301.523 168.642 300.488 170.169 298.768 170.625Z" fill="#FFD3B6"/>
<path d="M298.768 170.625C296.662 171.188 292.856 172.179 290.862 172.288C290.136 172.329 288.683 171.715 287.735 169.807C287.607 169.283 287.514 168.759 287.504 168.226C287.49 167.563 287.574 166.906 287.759 166.264C287.925 165.688 288.406 165.186 289.055 164.955C289.06 164.952 289.063 164.952 289.066 164.949C291.25 164.178 294.185 163.257 296.722 162.817C298.173 162.561 299.564 163.097 300.232 164.107L301.115 167.207C301.523 168.642 300.488 170.169 298.768 170.625Z" fill="#FFC197"/>
<path d="M117.194 303.031C117.194 303.031 140.787 325.628 156.692 334.352L168.734 325.811V338.411C168.734 338.411 192.417 342.599 199.887 338.411V304.05L133.369 270.705L117.194 303.031Z" fill="#ED7D2B"/>
<path d="M138.346 250.85C138.346 250.85 123.364 273.264 108.473 297.229C108.473 297.229 139.854 318.817 156.868 325.149L179.184 299.59L175.998 330.357C175.998 330.357 195.748 337.556 204.911 335.676C204.911 335.676 204.332 307.765 204.338 289.479C204.338 289.479 150.047 274.261 138.346 250.85Z" fill="#F3F8FF"/>
<path d="M142.032 307.731C142.051 305.679 143.729 304.032 145.781 304.05C147.832 304.07 149.48 305.748 149.461 307.799C149.442 309.851 147.764 311.498 145.712 311.479C143.661 311.46 142.013 309.782 142.032 307.731Z" fill="#F99746"/>
<path d="M311.349 128.323C311.268 128.353 311.186 128.38 311.102 128.407L296.075 132.265C289.467 133.963 282.634 130.388 280.89 124.321L279.996 121.213C278.32 115.387 281.922 109.296 288.063 107.321L293.024 106.047L303.09 103.463C309.697 101.765 316.53 105.341 318.275 111.407L319.169 114.516C320.82 120.262 317.337 126.263 311.349 128.323Z" fill="#FFB27D"/>
<path d="M304.463 124.128L297.162 127.418C297.152 127.421 297.138 127.424 297.116 127.429C296.823 127.508 296.527 127.568 296.233 127.611C296.111 127.63 295.986 127.644 295.864 127.657C295.812 127.663 295.761 127.663 295.709 127.66C294.905 127.633 294.353 126.78 294.701 126.019C295.391 124.516 295.579 122.778 295.114 121.069L294.94 120.433C294.94 120.427 294.937 120.419 294.935 120.414L294.37 118.341C293.922 116.689 292.968 115.306 291.724 114.306C291.574 114.184 291.419 114.07 291.262 113.961C289.819 112.961 290.186 110.698 291.876 110.228C291.892 110.222 291.905 110.22 291.922 110.214L299.934 109.003C301.914 108.465 303.822 109.989 304.363 111.97L305.006 114.331L306.376 119.365C306.914 121.349 306.444 123.59 304.463 124.128Z" fill="#FFD3B6"/>
<path d="M304.463 124.128L297.162 127.418C297.151 127.421 297.138 127.424 297.116 127.429C296.945 127.461 296.41 127.551 295.709 127.66C294.904 127.633 294.353 126.78 294.701 126.019C295.391 124.516 295.578 122.777 295.114 121.068L294.94 120.433C294.94 120.427 294.937 120.419 294.934 120.414L294.369 118.341C293.921 116.689 292.968 115.306 291.723 114.306C291.981 113.928 292.367 113.63 292.872 113.488C292.886 113.483 292.902 113.48 292.918 113.475L300.93 112.263C302.599 111.809 304.213 112.82 305.006 114.33L306.375 119.365C306.913 121.349 306.443 123.59 304.463 124.128Z" fill="#FFC197"/>
<path d="M184.111 206.488C184.111 206.488 180.833 177.87 177.808 172.291C174.783 166.709 172.224 155.534 176.877 147.23C181.53 138.924 183.138 122.947 183.138 122.947C184.944 141.186 179.516 154.725 183.322 158.31C183.464 158.443 183.727 158.38 184.099 158.142L184.111 206.488Z" fill="#D38254"/>
<path d="M94.9493 312.84C94.9493 312.84 89.3593 297.56 80.0773 290.998C80.0773 290.998 75.7591 322.094 70.0226 320.933C64.2861 319.771 77.3323 286.628 77.3323 286.628C77.3323 286.628 54.5391 264.426 43.5269 261.874C43.5269 261.874 50.7961 296.097 45.5203 293.56C40.2466 291.023 31.0283 255.763 31.0283 255.763C31.0283 255.763 11.7936 245.076 0 251.52V287.397C9.02716 290.97 22.9863 296.201 21.6339 298.556C20.2815 300.912 9.28839 301.267 0 298.74V323.729C2.11031 326.421 4.70882 328.427 7.90622 329.172C22.8206 332.65 30.298 325.205 39.4759 327.523C48.6538 329.839 54.3818 334.442 49.0997 335.348C43.8175 336.255 29.2216 329.55 19.933 333.268C10.6425 336.983 3.52189 338.805 16.0181 346.063C28.5122 353.324 53.1757 359.691 61.46 350.987C61.46 350.987 61.46 350.987 61.4622 350.985C61.8231 350.604 62.1692 350.241 62.4982 349.895C62.5001 349.893 62.5019 349.891 62.5038 349.889C61.9231 350.651 61.4608 350.987 61.4608 350.987C63.4521 353.264 64.8519 361.401 65.6536 367.551C65.7178 368.569 65.8809 370.005 66.1751 371.97C66.2718 372.883 66.3436 373.623 66.3906 374.129C66.6073 378.104 65.9417 382.616 64.8927 387H68.8734C70.1403 377.125 68.1983 369.744 68.1902 369.714L68.1908 369.712C65.4717 353.866 69.7448 342.282 69.7448 342.282V342.282C69.8129 342.269 100.4 336.471 94.9493 312.84Z" fill="#E1EEFB"/>
<path d="M350.708 285.507C345.46 266.132 312.765 272.187 312.765 272.187C312.765 272.187 290.565 306.093 284.107 306.9C277.648 307.707 297.427 274.205 297.427 274.205C284.914 272.994 253.026 288.333 253.026 288.333C253.026 288.333 255.044 327.89 248.586 327.083C242.128 326.275 248.586 291.966 248.586 291.966C236.477 295.598 225.175 309.726 225.175 309.726C211.047 332.734 241.32 349.687 241.32 349.687C241.32 349.687 241.724 363.411 233.248 379.152L233.247 379.153C233.247 379.153 231.334 382.06 229.389 387H232.691C232.961 386.115 233.258 385.259 233.587 384.437C233.587 384.431 233.589 384.427 233.593 384.422C233.598 384.41 233.603 384.399 233.608 384.387C233.834 383.877 234.159 383.151 234.564 382.267C234.564 382.265 234.565 382.264 234.565 382.263C234.565 382.261 234.568 382.261 234.568 382.259C235.576 380.285 236.258 378.826 236.688 377.773C236.69 377.77 236.691 377.766 236.692 377.763C239.714 371.565 244.068 363.49 246.971 361.796C246.971 361.796 246.606 361.282 246.265 360.282C246.49 360.765 246.725 361.268 246.971 361.796C252.622 373.905 280.878 375.923 296.62 372.694C312.362 369.465 305.5 365.025 297.023 357.819C288.547 350.612 270.786 352.512 265.539 349.686C260.292 346.861 267.961 344.036 278.456 344.843C288.95 345.65 294.198 356.145 311.151 357.759C328.104 359.374 341.02 327.486 341.02 327.486C329.315 331.119 308.325 324.661 307.518 320.624C306.711 316.588 337.791 316.992 342.635 315.781C347.479 314.57 355.955 304.882 350.708 285.507Z" fill="#DFEBFD"/>
<ellipse cx="244.5" cy="184" rx="22.5" ry="3" fill="white"/>
<path d="M204.534 129.357L209.325 124.918C209.412 129.598 211.002 130.653 215.134 131.188L210.343 135.626C209.744 131.678 208.7 129.93 204.534 129.357Z" fill="#D9D9D9"/>
<g filter="url(#filter0_i_325_1410)">
<path d="M209.239 172.114C203.914 166.283 201.124 158.576 201.482 150.688C201.84 142.799 205.317 135.377 211.148 130.052C216.98 124.727 224.687 121.937 232.575 122.295C240.463 122.654 247.886 126.131 253.211 131.962L231.225 152.038L209.239 172.114Z" fill="#D9D9D9"/>
</g>
<ellipse cx="231.019" cy="151.806" rx="29.7931" ry="8.35171" transform="rotate(-42.3967 231.019 151.806)" fill="#787878"/>
<ellipse cx="206.695" cy="126.981" rx="3.63354" ry="2.44044" transform="rotate(-43.5334 206.695 126.981)" fill="#D9D9D9"/>
<ellipse cx="244" cy="179" rx="35" ry="6" fill="#D9D9D9"/>
<ellipse cx="244.5" cy="179.5" rx="22.5" ry="3.5" fill="white"/>
<path d="M227.538 166.612C227.538 166.758 227.506 166.861 227.442 166.919C227.384 166.973 227.281 167 227.135 167H225.575C225.428 167 225.323 166.973 225.26 166.919C225.201 166.861 225.172 166.758 225.172 166.612V158.46C225.172 157.972 225.216 157.586 225.304 157.303C225.396 157.015 225.572 156.81 225.831 156.688C226.095 156.561 226.478 156.497 226.981 156.497H228.922C231.471 156.497 232.745 157.476 232.745 159.434C232.745 160.03 232.645 160.518 232.445 160.899C232.245 161.28 231.996 161.578 231.698 161.792C231.4 162.002 231.107 162.161 230.819 162.269V162.305C231.146 162.52 231.456 162.803 231.749 163.155C232.047 163.501 232.315 163.88 232.555 164.29C232.794 164.695 232.997 165.098 233.163 165.499C233.329 165.894 233.443 166.248 233.507 166.561C233.536 166.707 233.536 166.817 233.507 166.89C233.482 166.963 233.399 167 233.258 167H231.566C231.439 167 231.327 166.973 231.229 166.919C231.136 166.866 231.051 166.741 230.973 166.546C230.602 165.613 230.174 164.854 229.691 164.268C229.208 163.677 228.741 163.204 228.292 162.847C228.004 162.618 227.86 162.454 227.86 162.356C227.86 162.278 227.906 162.171 227.999 162.034C228.058 161.951 228.143 161.851 228.255 161.734C228.368 161.617 228.465 161.529 228.548 161.47C228.631 161.412 228.697 161.375 228.746 161.36C228.8 161.346 228.88 161.338 228.988 161.338C229.349 161.338 229.649 161.214 229.889 160.965C230.133 160.716 230.255 160.323 230.255 159.786C230.255 159.278 230.125 158.907 229.867 158.672C229.613 158.433 229.261 158.313 228.812 158.313H228.373C228.05 158.313 227.831 158.382 227.713 158.519C227.596 158.655 227.538 158.89 227.538 159.222V166.612ZM240.831 157.076C241.1 157.452 241.373 157.938 241.651 158.533C241.935 159.124 242.208 159.773 242.472 160.481C242.735 161.189 242.972 161.915 243.182 162.657C243.397 163.394 243.573 164.104 243.709 164.788C243.846 165.472 243.924 166.08 243.944 166.612C243.949 166.871 243.832 167 243.592 167H241.82C241.59 167 241.471 166.885 241.461 166.656C241.441 166.109 241.354 165.445 241.197 164.664H237.198C237.062 165.425 236.983 166.089 236.964 166.656C236.954 166.885 236.83 167 236.59 167H234.854C234.767 167 234.693 166.976 234.635 166.927C234.576 166.873 234.549 166.783 234.554 166.656C234.579 166.114 234.657 165.499 234.789 164.81C234.925 164.117 235.101 163.399 235.316 162.657C235.531 161.915 235.77 161.189 236.034 160.481C236.297 159.769 236.571 159.117 236.854 158.526C237.137 157.935 237.413 157.452 237.682 157.076C237.823 156.875 237.972 156.729 238.128 156.636C238.29 156.543 238.487 156.497 238.722 156.497H239.776C240.016 156.497 240.216 156.543 240.377 156.636C240.538 156.729 240.689 156.875 240.831 157.076ZM239.176 158.812C238.854 159.324 238.558 159.937 238.29 160.65C238.021 161.363 237.789 162.095 237.594 162.847H240.772C240.567 162.095 240.331 161.363 240.062 160.65C239.793 159.937 239.513 159.324 239.22 158.812H239.176ZM247.577 166.421C247.186 165.806 246.803 165.118 246.427 164.356C246.056 163.589 245.719 162.803 245.416 161.998C245.113 161.187 244.872 160.408 244.691 159.661C244.51 158.909 244.42 158.238 244.42 157.647C244.42 157.52 244.447 157.42 244.5 157.347C244.613 157.19 244.75 157.029 244.911 156.863C245.077 156.692 245.272 156.514 245.497 156.329C245.57 156.27 245.638 156.241 245.702 156.241C245.765 156.241 245.829 156.27 245.892 156.329C246.122 156.514 246.317 156.692 246.478 156.863C246.639 157.029 246.776 157.19 246.888 157.347C246.942 157.42 246.969 157.527 246.969 157.669V157.64C246.969 158.055 247.025 158.555 247.137 159.141C247.254 159.722 247.413 160.335 247.613 160.979C247.818 161.619 248.05 162.242 248.309 162.847C248.573 163.448 248.854 163.973 249.151 164.422H249.195C249.522 163.973 249.818 163.45 250.082 162.854C250.35 162.254 250.58 161.634 250.77 160.994C250.965 160.354 251.114 159.744 251.217 159.163C251.324 158.577 251.378 158.072 251.378 157.647V157.669C251.378 157.527 251.402 157.42 251.451 157.347C251.686 157.024 252.008 156.685 252.418 156.329C252.496 156.27 252.564 156.241 252.623 156.241C252.677 156.241 252.74 156.27 252.813 156.329C253.033 156.514 253.221 156.692 253.377 156.863C253.534 157.029 253.668 157.19 253.78 157.347C253.829 157.425 253.854 157.53 253.854 157.662C253.854 158.106 253.79 158.621 253.663 159.207C253.541 159.788 253.373 160.403 253.158 161.053C252.943 161.702 252.699 162.352 252.425 163.001C252.152 163.65 251.864 164.271 251.561 164.861C251.258 165.447 250.956 165.967 250.653 166.421C250.399 166.807 250.052 167 249.613 167H248.602C248.163 167 247.821 166.807 247.577 166.421ZM244.42 157.64V157.647V157.669V157.64ZM253.854 157.647V157.669V157.662V157.647ZM260.138 166.612C260.138 166.758 260.106 166.861 260.042 166.919C259.984 166.973 259.881 167 259.735 167H258.175C258.028 167 257.923 166.973 257.86 166.919C257.801 166.861 257.772 166.758 257.772 166.612V163.309L256.314 161.617C255.968 161.211 255.675 160.848 255.436 160.525C255.201 160.203 255.025 159.871 254.908 159.529C254.791 159.183 254.732 158.777 254.732 158.313V157.669C254.732 157.527 254.757 157.42 254.806 157.347C255.025 157.024 255.333 156.685 255.729 156.329C255.802 156.27 255.868 156.241 255.926 156.241C255.985 156.241 256.046 156.27 256.109 156.329C256.324 156.514 256.505 156.692 256.651 156.863C256.798 157.029 256.925 157.19 257.032 157.347C257.081 157.425 257.105 157.532 257.105 157.669V158.306C257.105 158.624 257.198 158.975 257.384 159.361C257.569 159.747 257.882 160.171 258.321 160.635L259.032 161.382L259.728 160.635C260.123 160.21 260.423 159.805 260.628 159.419C260.838 159.034 260.943 158.665 260.943 158.313V157.669C260.943 157.527 260.968 157.42 261.017 157.347C261.227 157.029 261.524 156.69 261.91 156.329C261.983 156.27 262.044 156.241 262.093 156.241C262.152 156.241 262.213 156.27 262.276 156.329C262.481 156.514 262.655 156.692 262.796 156.863C262.943 157.029 263.067 157.19 263.17 157.347C263.219 157.425 263.243 157.532 263.243 157.669V158.313C263.243 158.851 263.126 159.366 262.892 159.859C262.657 160.347 262.259 160.904 261.698 161.529L260.138 163.265V166.612ZM267.088 166.612C267.088 166.758 267.059 166.861 267 166.919C266.947 166.973 266.849 167 266.708 167H265.235C265.099 167 265.001 166.973 264.942 166.919C264.884 166.861 264.854 166.758 264.854 166.612V157.332C264.854 157.044 264.911 156.834 265.023 156.702C265.135 156.565 265.333 156.497 265.616 156.497H266.297C266.546 156.497 266.781 156.531 267 156.6C267.225 156.663 267.462 156.81 267.711 157.039C267.965 157.269 268.258 157.625 268.59 158.108C268.927 158.587 269.332 159.241 269.806 160.071C270.26 160.862 270.624 161.495 270.897 161.968C271.175 162.442 271.39 162.803 271.542 163.052C271.693 163.301 271.805 163.479 271.878 163.587C271.957 163.694 272.02 163.782 272.069 163.851V157.669C272.069 157.527 272.091 157.42 272.135 157.347C272.345 157.024 272.635 156.685 273.006 156.329C273.08 156.27 273.141 156.241 273.189 156.241C273.243 156.241 273.302 156.27 273.365 156.329C273.565 156.514 273.734 156.692 273.871 156.863C274.012 157.029 274.134 157.19 274.237 157.347C274.281 157.425 274.303 157.532 274.303 157.669V166.392C274.303 166.612 274.261 166.768 274.178 166.861C274.095 166.954 273.944 167 273.724 167H273.021C272.811 167 272.596 166.966 272.376 166.897C272.157 166.824 271.908 166.663 271.629 166.414C271.351 166.16 271.021 165.767 270.641 165.235C270.26 164.703 269.801 163.975 269.264 163.052C268.81 162.266 268.446 161.641 268.172 161.177C267.904 160.713 267.699 160.364 267.557 160.13C267.416 159.891 267.313 159.725 267.25 159.632C267.186 159.534 267.132 159.461 267.088 159.412V166.612Z" fill="white"/>
</g>
<defs>
<filter id="filter0_i_325_1410" x="201.452" y="122.265" width="57.7593" height="51.8496" filterUnits="userSpaceOnUse" color-interpolation-filters="sRGB">
<feFlood flood-opacity="0" result="BackgroundImageFix"/>
<feBlend mode="normal" in="SourceGraphic" in2="BackgroundImageFix" result="shape"/>
<feColorMatrix in="SourceAlpha" type="matrix" values="0 0 0 0 0 0 0 0 0 0 0 0 0 0 0 0 0 0 127 0" result="hardAlpha"/>
<feMorphology radius="18" operator="erode" in="SourceAlpha" result="effect1_innerShadow_325_1410"/>
<feOffset dx="6" dy="2"/>
<feGaussianBlur stdDeviation="2"/>
<feComposite in2="hardAlpha" operator="arithmetic" k2="-1" k3="1"/>
<feColorMatrix type="matrix" values="0 0 0 0 0 0 0 0 0 0 0 0 0 0 0 0 0 0 0.25 0"/>
<feBlend mode="normal" in2="shape" result="effect1_innerShadow_325_1410"/>
</filter>
<clipPath id="clip0_325_1410">
<rect width="387" height="387" fill="white"/>
</clipPath>
</defs>
</svg>
