<?xml version="1.0" encoding="UTF-8"?>
<svg xmlns="http://www.w3.org/2000/svg" xmlns:xlink="http://www.w3.org/1999/xlink" width="1000px" height="700px" viewBox="0 0 1000 700" version="1.1">
<defs>
<filter id="alpha" filterUnits="objectBoundingBox" x="0%" y="0%" width="100%" height="100%">
  <feColorMatrix type="matrix" in="SourceGraphic" values="0 0 0 0 1 0 0 0 0 1 0 0 0 0 1 0 0 0 1 0"/>
</filter>
<mask id="mask0">
  <g filter="url(#alpha)">
<rect x="0" y="0" width="1000" height="700" style="fill:rgb(0%,0%,0%);fill-opacity:0.301961;stroke:none;"/>
  </g>
</mask>
<clipPath id="clip1">
  <rect x="0" y="0" width="1001" height="700"/>
</clipPath>
<g id="surface5" clip-path="url(#clip1)">
<path style=" stroke:none;fill-rule:nonzero;fill:rgb(25.882354%,17.254902%,30.980393%);fill-opacity:1;" d="M 445.015625 157.101562 L 445.835938 161.804688 C 447.15625 169.34375 453.84375 173.984375 460.675781 173.59375 L 451.554688 155.273438 Z M 445.015625 157.101562 "/>
</g>
<linearGradient id="linear0" gradientUnits="userSpaceOnUse" x1="191.201004" y1="43.487301" x2="294.877014" y2="43.487301" gradientTransform="matrix(2.28833,0,0,2.302632,0,0)">
<stop offset="0" style="stop-color:rgb(49.803922%,79.607843%,81.568627%);stop-opacity:0;"/>
<stop offset="0.5443" style="stop-color:rgb(49.803922%,79.607843%,81.568627%);stop-opacity:1;"/>
<stop offset="0.9884" style="stop-color:rgb(49.803922%,79.607843%,81.568627%);stop-opacity:0;"/>
</linearGradient>
<linearGradient id="linear1" gradientUnits="userSpaceOnUse" x1="203.451004" y1="47.5541" x2="307.127014" y2="47.5541" gradientTransform="matrix(2.28833,0,0,2.302632,0,0)">
<stop offset="0" style="stop-color:rgb(49.803922%,79.607843%,81.568627%);stop-opacity:0;"/>
<stop offset="0.5443" style="stop-color:rgb(49.803922%,79.607843%,81.568627%);stop-opacity:1;"/>
<stop offset="0.9884" style="stop-color:rgb(49.803922%,79.607843%,81.568627%);stop-opacity:0;"/>
</linearGradient>
<linearGradient id="linear2" gradientUnits="userSpaceOnUse" x1="118.818001" y1="202.227997" x2="222.494003" y2="202.227997" gradientTransform="matrix(2.28833,0,0,2.302632,0,0)">
<stop offset="0" style="stop-color:rgb(49.803922%,79.607843%,81.568627%);stop-opacity:0;"/>
<stop offset="0.5443" style="stop-color:rgb(49.803922%,79.607843%,81.568627%);stop-opacity:1;"/>
<stop offset="0.9884" style="stop-color:rgb(49.803922%,79.607843%,81.568627%);stop-opacity:0;"/>
</linearGradient>
<linearGradient id="linear3" gradientUnits="userSpaceOnUse" x1="131.067993" y1="206.294998" x2="234.744003" y2="206.294998" gradientTransform="matrix(2.28833,0,0,2.302632,0,0)">
<stop offset="0" style="stop-color:rgb(49.803922%,79.607843%,81.568627%);stop-opacity:0;"/>
<stop offset="0.5443" style="stop-color:rgb(49.803922%,79.607843%,81.568627%);stop-opacity:1;"/>
<stop offset="0.9884" style="stop-color:rgb(49.803922%,79.607843%,81.568627%);stop-opacity:0;"/>
</linearGradient>
<linearGradient id="linear4" gradientUnits="userSpaceOnUse" x1="204.802002" y1="91.955704" x2="308.479004" y2="91.955704" gradientTransform="matrix(2.28833,0,0,2.302632,0,0)">
<stop offset="0" style="stop-color:rgb(49.803922%,79.607843%,81.568627%);stop-opacity:0;"/>
<stop offset="0.5443" style="stop-color:rgb(49.803922%,79.607843%,81.568627%);stop-opacity:1;"/>
<stop offset="0.9884" style="stop-color:rgb(49.803922%,79.607843%,81.568627%);stop-opacity:0;"/>
</linearGradient>
<linearGradient id="linear5" gradientUnits="userSpaceOnUse" x1="210.548004" y1="87.920601" x2="352.825012" y2="87.920601" gradientTransform="matrix(2.28833,0,0,2.302632,0,0)">
<stop offset="0" style="stop-color:rgb(49.803922%,79.607843%,81.568627%);stop-opacity:0;"/>
<stop offset="0.5443" style="stop-color:rgb(49.803922%,79.607843%,81.568627%);stop-opacity:1;"/>
<stop offset="0.9884" style="stop-color:rgb(49.803922%,79.607843%,81.568627%);stop-opacity:0;"/>
</linearGradient>
<linearGradient id="linear6" gradientUnits="userSpaceOnUse" x1="194.660995" y1="83.462402" x2="336.937012" y2="83.462402" gradientTransform="matrix(2.28833,0,0,2.302632,0,0)">
<stop offset="0" style="stop-color:rgb(49.803922%,79.607843%,81.568627%);stop-opacity:0;"/>
<stop offset="0.5443" style="stop-color:rgb(49.803922%,79.607843%,81.568627%);stop-opacity:1;"/>
<stop offset="0.9884" style="stop-color:rgb(49.803922%,79.607843%,81.568627%);stop-opacity:0;"/>
</linearGradient>
<linearGradient id="linear7" gradientUnits="userSpaceOnUse" x1="132.171997" y1="140.169006" x2="235.848007" y2="140.169006" gradientTransform="matrix(2.28833,0,0,2.302632,0,0)">
<stop offset="0" style="stop-color:rgb(49.803922%,79.607843%,81.568627%);stop-opacity:0;"/>
<stop offset="0.5443" style="stop-color:rgb(49.803922%,79.607843%,81.568627%);stop-opacity:1;"/>
<stop offset="0.9884" style="stop-color:rgb(49.803922%,79.607843%,81.568627%);stop-opacity:0;"/>
</linearGradient>
<linearGradient id="linear8" gradientUnits="userSpaceOnUse" x1="137.917999" y1="136.134003" x2="280.194" y2="136.134003" gradientTransform="matrix(2.28833,0,0,2.302632,0,0)">
<stop offset="0" style="stop-color:rgb(49.803922%,79.607843%,81.568627%);stop-opacity:0;"/>
<stop offset="0.5443" style="stop-color:rgb(49.803922%,79.607843%,81.568627%);stop-opacity:1;"/>
<stop offset="0.9884" style="stop-color:rgb(49.803922%,79.607843%,81.568627%);stop-opacity:0;"/>
</linearGradient>
<linearGradient id="linear9" gradientUnits="userSpaceOnUse" x1="122.029999" y1="131.675995" x2="264.306" y2="131.675995" gradientTransform="matrix(2.28833,0,0,2.302632,0,0)">
<stop offset="0" style="stop-color:rgb(49.803922%,79.607843%,81.568627%);stop-opacity:0;"/>
<stop offset="0.5443" style="stop-color:rgb(49.803922%,79.607843%,81.568627%);stop-opacity:1;"/>
<stop offset="0.9884" style="stop-color:rgb(49.803922%,79.607843%,81.568627%);stop-opacity:0;"/>
</linearGradient>
<linearGradient id="linear10" gradientUnits="userSpaceOnUse" x1="295.783997" y1="201.391006" x2="399.459991" y2="201.391006" gradientTransform="matrix(2.28833,0,0,2.302632,0,0)">
<stop offset="0" style="stop-color:rgb(49.803922%,79.607843%,81.568627%);stop-opacity:0;"/>
<stop offset="0.5443" style="stop-color:rgb(49.803922%,79.607843%,81.568627%);stop-opacity:1;"/>
<stop offset="0.9884" style="stop-color:rgb(49.803922%,79.607843%,81.568627%);stop-opacity:0;"/>
</linearGradient>
<linearGradient id="linear11" gradientUnits="userSpaceOnUse" x1="271.394989" y1="197.356003" x2="413.67099" y2="197.356003" gradientTransform="matrix(2.28833,0,0,2.302632,0,0)">
<stop offset="0" style="stop-color:rgb(49.803922%,79.607843%,81.568627%);stop-opacity:0;"/>
<stop offset="0.5443" style="stop-color:rgb(49.803922%,79.607843%,81.568627%);stop-opacity:1;"/>
<stop offset="0.9884" style="stop-color:rgb(49.803922%,79.607843%,81.568627%);stop-opacity:0;"/>
</linearGradient>
<linearGradient id="linear12" gradientUnits="userSpaceOnUse" x1="255.507004" y1="192.897003" x2="397.783997" y2="192.897003" gradientTransform="matrix(2.28833,0,0,2.302632,0,0)">
<stop offset="0" style="stop-color:rgb(49.803922%,79.607843%,81.568627%);stop-opacity:0;"/>
<stop offset="0.5443" style="stop-color:rgb(49.803922%,79.607843%,81.568627%);stop-opacity:1;"/>
<stop offset="0.9884" style="stop-color:rgb(49.803922%,79.607843%,81.568627%);stop-opacity:0;"/>
</linearGradient>
</defs>
<g id="surface1">
<path style=" stroke:none;fill-rule:nonzero;fill:rgb(90.588236%,98.039216%,97.647059%);fill-opacity:1;" d="M 970.824219 604.089844 L 7.003906 604.089844 C -6.570312 587.019531 8.308594 556.136719 25.867188 543.265625 C 43.425781 530.390625 65.570312 523.609375 80.058594 507.320312 C 102.765625 481.800781 99.023438 443.121094 96.90625 408.9375 C 94.785156 374.75 99.46875 333.714844 129.550781 317.6875 C 157.296875 302.902344 192.261719 317.761719 222.363281 308.78125 C 252.101562 299.914062 270.046875 270.597656 288.261719 245.332031 C 349.101562 160.945312 442.496094 100.980469 544.1875 81.015625 C 587.976562 72.417969 634.703125 71.277344 675.859375 88.609375 C 717.015625 105.9375 751.210938 144.726562 753.601562 189.554688 C 755.292969 221.261719 741.648438 251.480469 734.742188 282.464844 C 727.835938 313.449219 729.949219 350.921875 755.03125 370.191406 C 775.335938 385.789062 803.316406 384.058594 828.65625 387.320312 C 853.996094 390.582031 883.089844 405.367188 883.824219 431.0625 C 884.621094 458.941406 850.652344 481.363281 857.609375 508.359375 C 861.863281 524.859375 879.910156 533.644531 896.589844 536.609375 C 913.273438 539.574219 931.003906 539.074219 946.171875 546.660156 C 961.34375 554.253906 980.46875 590.074219 970.824219 604.089844 Z M 970.824219 604.089844 "/>
<path style=" stroke:none;fill-rule:nonzero;fill:rgb(98.431373%,93.333334%,81.960785%);fill-opacity:1;" d="M 315.59375 159.546875 L 63.1875 159.546875 C 60.699219 153.160156 66.089844 146.085938 72.367188 143.414062 C 78.648438 140.742188 85.769531 141.429688 92.566406 142.007812 C 99.359375 142.589844 106.582031 142.929688 112.597656 139.695312 C 124.226562 133.441406 125.796875 117.757812 131.085938 105.605469 C 139.003906 87.410156 158.644531 75.078125 178.367188 75.929688 C 198.089844 76.773438 216.617188 90.742188 222.964844 109.546875 C 226.242188 119.246094 226.90625 130.621094 234.328125 137.632812 C 242.128906 145.007812 254.4375 144.53125 264.765625 141.679688 C 275.085938 138.828125 285.179688 134.050781 295.882812 134.34375 C 306.582031 134.632812 316.320312 148.800781 315.59375 159.546875 Z M 315.59375 159.546875 "/>
<path style=" stroke:none;fill-rule:nonzero;fill:rgb(98.431373%,93.333334%,81.960785%);fill-opacity:1;" d="M 676.972656 43.230469 L 446.21875 43.230469 C 451.394531 31.1875 461.699219 20.519531 474.023438 16.242188 C 486.355469 11.964844 500.445312 13.152344 511.898438 19.425781 C 518.929688 23.28125 525.273438 29.050781 533.195312 30.242188 C 545.671875 32.121094 556.402344 22.273438 566.953125 15.320312 C 584.875 3.515625 607.394531 -1.003906 628.445312 2.972656 C 649.5 6.953125 664.53125 25.683594 676.972656 43.230469 Z M 676.972656 43.230469 "/>
<path style=" stroke:none;fill-rule:nonzero;fill:rgb(98.431373%,93.333334%,81.960785%);fill-opacity:1;" d="M 985.3125 157.667969 L 769.863281 157.667969 C 770.597656 150.679688 775.117188 142.488281 780.777344 138.363281 C 786.4375 134.242188 793.863281 132.671875 800.695312 134.152344 C 806.019531 135.304688 810.9375 138.203125 816.363281 138.734375 C 824.886719 139.570312 832.890625 134.417969 838.988281 128.367188 C 845.089844 122.316406 850.144531 115.125 857.085938 110.078125 C 866.164062 103.484375 878.175781 101.164062 889.03125 103.90625 C 899.886719 106.652344 909.386719 114.40625 914.289062 124.53125 C 916.394531 128.882812 917.679688 133.601562 919.871094 137.910156 C 922.0625 142.21875 925.429688 146.257812 930.039062 147.640625 C 937.722656 149.949219 945.277344 144.335938 952.996094 142.148438 C 964.78125 138.800781 979.316406 146.925781 985.3125 157.667969 Z M 985.3125 157.667969 "/>
<path style=" stroke:none;fill-rule:nonzero;fill:rgb(42.352942%,65.882355%,73.725492%);fill-opacity:1;" d="M 485.996094 698.441406 C 683.382812 698.441406 843.398438 693.03125 843.398438 686.351562 C 843.398438 679.675781 683.382812 674.261719 485.996094 674.261719 C 288.605469 674.261719 128.589844 679.675781 128.589844 686.351562 C 128.589844 693.03125 288.605469 698.441406 485.996094 698.441406 Z M 485.996094 698.441406 "/>
<path style=" stroke:none;fill-rule:nonzero;fill:rgb(92.156863%,64.705884%,55.686277%);fill-opacity:1;" d="M 318.53125 301.722656 L 295.855469 301.722656 C 291.632812 301.722656 288.207031 305.164062 288.207031 309.414062 L 288.207031 323.667969 C 288.207031 327.917969 291.632812 331.363281 295.855469 331.363281 L 314.210938 331.363281 L 314.210938 325.6875 C 319.742188 325.6875 325.046875 323.476562 328.960938 319.539062 L 331.71875 316.769531 Z M 318.53125 301.722656 "/>
<path style=" stroke:none;fill-rule:nonzero;fill:rgb(92.156863%,64.705884%,55.686277%);fill-opacity:1;" d="M 318.53125 301.722656 L 331.714844 316.769531 L 388.34375 303.519531 L 380.511719 282.441406 Z M 318.53125 301.722656 "/>
<path style=" stroke:none;fill-rule:nonzero;fill:rgb(86.666667%,54.901963%,46.27451%);fill-opacity:1;" d="M 380.511719 282.441406 L 377.746094 283.300781 L 376.855469 306.210938 L 388.34375 303.519531 Z M 380.511719 282.441406 "/>
<path style=" stroke:none;fill-rule:nonzero;fill:rgb(32.156864%,59.215689%,95.686275%);fill-opacity:1;" d="M 488.9375 200.910156 C 481.472656 195.011719 470.714844 196.066406 464.515625 203.300781 L 405.777344 271.863281 L 395.15625 275.460938 L 405.023438 302.007812 L 410.59375 300.796875 C 419.40625 298.871094 427.445312 294.332031 433.660156 287.753906 L 490.84375 227.296875 C 498.066406 219.65625 497.183594 207.417969 488.9375 200.910156 Z M 488.9375 200.910156 "/>
<path style=" stroke:none;fill-rule:nonzero;fill:rgb(22.352941%,52.156866%,84.705883%);fill-opacity:1;" d="M 405.335938 302.851562 L 405.019531 302.007812 L 395.15625 275.460938 L 394.179688 272.835938 C 393.621094 271.332031 391.957031 270.570312 390.460938 271.128906 L 380.753906 274.78125 C 379.257812 275.347656 378.5 277.019531 379.058594 278.527344 L 379.847656 280.652344 L 389.074219 305.484375 L 390.210938 308.542969 C 390.773438 310.042969 392.4375 310.808594 393.933594 310.246094 L 403.644531 306.59375 C 405.136719 306.03125 405.894531 304.355469 405.335938 302.851562 Z M 405.335938 302.851562 "/>
<path style=" stroke:none;fill-rule:nonzero;fill:rgb(36.470589%,67.058825%,100%);fill-opacity:1;" d="M 468.230469 206.15625 C 473.695312 199.777344 482.816406 198.0625 490.195312 202.015625 C 489.796875 201.632812 489.382812 201.257812 488.9375 200.910156 C 481.472656 195.011719 470.714844 196.066406 464.515625 203.300781 L 405.777344 271.863281 L 395.15625 275.460938 L 396.742188 279.722656 L 408.664062 275.675781 Z M 468.230469 206.15625 "/>
<path style=" stroke:none;fill-rule:nonzero;fill:rgb(25.882354%,17.254902%,30.980393%);fill-opacity:1;" d="M 468.496094 343.574219 L 346.058594 376.363281 C 324.894531 382.03125 315.023438 406.523438 326.289062 425.425781 L 397.660156 545.167969 L 437.394531 527.425781 L 380.289062 418.152344 L 496.582031 393.695312 C 519.082031 388.964844 532.328125 365.421875 524.792969 343.574219 Z M 468.496094 343.574219 "/>
<path style=" stroke:none;fill-rule:nonzero;fill:rgb(92.156863%,64.705884%,55.686277%);fill-opacity:1;" d="M 432.25 535.59375 L 429.269531 531.050781 L 406.6875 541.132812 L 412.003906 550.871094 L 437.171875 543.765625 C 435.628906 540.988281 434 538.257812 432.25 535.59375 Z M 432.25 535.59375 "/>
<path style=" stroke:none;fill-rule:nonzero;fill:rgb(100%,100%,100%);fill-opacity:1;" d="M 426.042969 555.207031 L 423.941406 560.589844 L 426.746094 558.605469 C 427.859375 557.816406 429.183594 557.394531 430.546875 557.394531 L 443.730469 557.394531 C 441.808594 552.726562 439.625 548.175781 437.175781 543.761719 L 412.003906 550.867188 L 413.523438 553.652344 L 424.992188 553.652344 C 425.789062 553.652344 426.335938 554.460938 426.042969 555.207031 Z M 426.042969 555.207031 "/>
<path style=" stroke:none;fill-rule:nonzero;fill:rgb(25.882354%,17.254902%,30.980393%);fill-opacity:1;" d="M 397.109375 578.40625 L 450.453125 578.40625 L 449.480469 574.613281 C 447.976562 568.734375 446.035156 562.988281 443.730469 557.394531 L 430.546875 557.394531 C 429.183594 557.394531 427.859375 557.816406 426.746094 558.605469 L 423.941406 560.589844 L 426.042969 555.207031 C 426.335938 554.460938 425.789062 553.652344 424.992188 553.652344 L 413.523438 553.652344 L 405.050781 561.667969 C 401.210938 565.296875 396.140625 567.316406 390.871094 567.316406 L 385.097656 567.316406 C 379.441406 567.316406 374.507812 570.492188 371.96875 575.179688 L 382.96875 577.148438 C 387.632812 577.984375 392.367188 578.40625 397.109375 578.40625 Z M 397.109375 578.40625 "/>
<path style=" stroke:none;fill-rule:nonzero;fill:rgb(100%,100%,100%);fill-opacity:1;" d="M 397.109375 578.40625 C 392.367188 578.40625 387.636719 577.984375 382.96875 577.148438 L 371.96875 575.179688 C 370.890625 577.171875 370.234375 579.429688 370.152344 581.84375 L 386.957031 583.375 C 389.617188 583.617188 392.28125 583.738281 394.949219 583.738281 L 451.820312 583.738281 L 450.453125 578.40625 Z M 397.109375 578.40625 "/>
<path style=" stroke:none;fill-rule:nonzero;fill:rgb(25.882354%,17.254902%,30.980393%);fill-opacity:1;" d="M 429.269531 531.050781 L 406.691406 541.132812 L 409.128906 545.601562 L 433.714844 537.882812 Z M 429.269531 531.050781 "/>
<path style=" stroke:none;fill-rule:nonzero;fill:rgb(63.921571%,25.882354%,38.431373%);fill-opacity:1;" d="M 279.597656 332.546875 L 273.816406 332.546875 L 258.941406 385.5 C 247.296875 426.953125 252.019531 471.285156 272.03125 509.277344 L 279.28125 512.027344 Z M 279.597656 332.546875 "/>
<path style=" stroke:none;fill-rule:nonzero;fill:rgb(87.450981%,25.882354%,40.784314%);fill-opacity:1;" d="M 258.941406 385.5 L 273.816406 332.546875 L 268.398438 332.546875 L 237.863281 446.589844 C 235.117188 456.859375 225.859375 463.992188 215.292969 463.992188 C 214.496094 463.992188 213.847656 464.644531 213.847656 465.445312 L 213.847656 487.214844 L 272.03125 509.277344 C 252.019531 471.285156 247.296875 426.953125 258.941406 385.5 Z M 258.941406 385.5 "/>
<path style=" stroke:none;fill-rule:nonzero;fill:rgb(25.882354%,17.254902%,30.980393%);fill-opacity:1;" d="M 209.875 683.53125 C 254.765625 683.53125 291.15625 646.914062 291.15625 601.738281 C 291.15625 556.566406 254.765625 519.949219 209.875 519.949219 C 164.980469 519.949219 128.589844 556.566406 128.589844 601.738281 C 128.589844 646.914062 164.980469 683.53125 209.875 683.53125 Z M 209.875 683.53125 "/>
<path style=" stroke:none;fill-rule:nonzero;fill:rgb(28.627452%,32.549021%,45.882353%);fill-opacity:1;" d="M 209.875 660.628906 C 242.195312 660.628906 268.398438 634.265625 268.398438 601.738281 C 268.398438 569.214844 242.195312 542.851562 209.875 542.851562 C 177.550781 542.851562 151.347656 569.214844 151.347656 601.738281 C 151.347656 634.265625 177.550781 660.628906 209.875 660.628906 Z M 209.875 660.628906 "/>
<path style=" stroke:none;fill-rule:nonzero;fill:rgb(78.039217%,82.352942%,84.313726%);fill-opacity:1;" d="M 209.875 649.824219 C 236.265625 649.824219 257.660156 628.296875 257.660156 601.738281 C 257.660156 575.183594 236.265625 553.652344 209.875 553.652344 C 183.480469 553.652344 162.085938 575.183594 162.085938 601.738281 C 162.085938 628.296875 183.480469 649.824219 209.875 649.824219 Z M 209.875 649.824219 "/>
<path style=" stroke:none;fill-rule:nonzero;fill:rgb(60.000002%,63.921571%,69.01961%);fill-opacity:1;" d="M 209.875 553.652344 C 200.851562 553.652344 192.410156 556.171875 185.210938 560.546875 C 188.535156 559.699219 192.011719 559.25 195.597656 559.25 C 218.917969 559.25 237.820312 578.269531 237.820312 601.738281 C 237.820312 625.207031 218.917969 644.230469 195.597656 644.230469 C 192.011719 644.230469 188.535156 643.777344 185.210938 642.929688 C 192.410156 647.304688 200.851562 649.824219 209.875 649.824219 C 236.265625 649.824219 257.660156 628.296875 257.660156 601.738281 C 257.660156 575.183594 236.269531 553.652344 209.875 553.652344 Z M 209.875 553.652344 "/>
<path style=" stroke:none;fill-rule:nonzero;fill:rgb(60.000002%,63.921571%,69.01961%);fill-opacity:1;" d="M 209.875 622.945312 C 221.511719 622.945312 230.949219 613.449219 230.949219 601.738281 C 230.949219 590.027344 221.511719 580.535156 209.875 580.535156 C 198.234375 580.535156 188.800781 590.027344 188.800781 601.738281 C 188.800781 613.449219 198.234375 622.945312 209.875 622.945312 Z M 209.875 622.945312 "/>
<path style=" stroke:none;fill-rule:nonzero;fill:rgb(63.921571%,25.882354%,38.431373%);fill-opacity:1;" d="M 219.960938 611.898438 C 225.539062 606.285156 225.539062 597.191406 219.960938 591.578125 C 214.386719 585.96875 205.347656 585.96875 199.773438 591.578125 C 194.195312 597.191406 194.195312 606.285156 199.773438 611.898438 C 205.347656 617.507812 214.386719 617.507812 219.960938 611.898438 Z M 219.960938 611.898438 "/>
<path style=" stroke:none;fill-rule:nonzero;fill:rgb(25.882354%,17.254902%,30.980393%);fill-opacity:1;" d="M 627.390625 683.53125 C 672.28125 683.53125 708.675781 646.914062 708.675781 601.738281 C 708.675781 556.566406 672.28125 519.949219 627.390625 519.949219 C 582.5 519.949219 546.109375 556.566406 546.109375 601.738281 C 546.109375 646.914062 582.5 683.53125 627.390625 683.53125 Z M 627.390625 683.53125 "/>
<path style=" stroke:none;fill-rule:nonzero;fill:rgb(28.627452%,32.549021%,45.882353%);fill-opacity:1;" d="M 627.390625 660.628906 C 659.714844 660.628906 685.914062 634.265625 685.914062 601.738281 C 685.914062 569.214844 659.714844 542.851562 627.390625 542.851562 C 595.070312 542.851562 568.867188 569.214844 568.867188 601.738281 C 568.867188 634.265625 595.070312 660.628906 627.390625 660.628906 Z M 627.390625 660.628906 "/>
<path style=" stroke:none;fill-rule:nonzero;fill:rgb(78.039217%,82.352942%,84.313726%);fill-opacity:1;" d="M 627.390625 649.824219 C 653.78125 649.824219 675.179688 628.296875 675.179688 601.738281 C 675.179688 575.183594 653.78125 553.652344 627.390625 553.652344 C 600.996094 553.652344 579.605469 575.183594 579.605469 601.738281 C 579.605469 628.296875 600.996094 649.824219 627.390625 649.824219 Z M 627.390625 649.824219 "/>
<path style=" stroke:none;fill-rule:nonzero;fill:rgb(60.000002%,63.921571%,69.01961%);fill-opacity:1;" d="M 627.390625 553.652344 C 618.367188 553.652344 609.929688 556.171875 602.730469 560.546875 C 606.050781 559.699219 609.53125 559.25 613.113281 559.25 C 636.433594 559.25 655.339844 578.269531 655.339844 601.738281 C 655.339844 625.207031 636.433594 644.230469 613.113281 644.230469 C 609.53125 644.230469 606.050781 643.777344 602.730469 642.929688 C 609.929688 647.304688 618.367188 649.824219 627.390625 649.824219 C 653.78125 649.824219 675.179688 628.296875 675.179688 601.738281 C 675.179688 575.183594 653.785156 553.652344 627.390625 553.652344 Z M 627.390625 553.652344 "/>
<path style=" stroke:none;fill-rule:nonzero;fill:rgb(60.000002%,63.921571%,69.01961%);fill-opacity:1;" d="M 627.390625 622.945312 C 639.03125 622.945312 648.464844 613.449219 648.464844 601.738281 C 648.464844 590.027344 639.03125 580.535156 627.390625 580.535156 C 615.753906 580.535156 606.316406 590.027344 606.316406 601.738281 C 606.316406 613.449219 615.753906 622.945312 627.390625 622.945312 Z M 627.390625 622.945312 "/>
<path style=" stroke:none;fill-rule:nonzero;fill:rgb(63.921571%,25.882354%,38.431373%);fill-opacity:1;" d="M 637.476562 611.898438 C 643.050781 606.289062 643.050781 597.191406 637.476562 591.582031 C 631.902344 585.972656 622.859375 585.972656 617.285156 591.582031 C 611.710938 597.191406 611.710938 606.289062 617.285156 611.898438 C 622.859375 617.507812 631.902344 617.507812 637.476562 611.898438 Z M 637.476562 611.898438 "/>
<path style=" stroke:none;fill-rule:nonzero;fill:rgb(100%,100%,100%);fill-opacity:1;" d="M 213.792969 493.414062 C 255.660156 494.738281 291.464844 524.222656 302.605469 564.855469 L 304.417969 571.453125 L 306.382812 572.425781 L 302.605469 558.65625 C 291.464844 518.023438 255.660156 488.539062 213.792969 487.214844 C 212.710938 487.179688 211.628906 487.164062 210.542969 487.164062 C 192.519531 487.164062 175.230469 491.894531 160.035156 500.726562 L 162.800781 505.375 C 177.316406 497.539062 193.605469 493.363281 210.542969 493.363281 C 211.628906 493.359375 212.710938 493.378906 213.792969 493.414062 Z M 213.792969 493.414062 "/>
<path style=" stroke:none;fill-rule:nonzero;fill:rgb(94.901961%,78.431374%,76.078433%);fill-opacity:1;" d="M 221.4375 530.421875 L 304.414062 571.453125 L 302.605469 564.855469 C 291.460938 524.222656 255.660156 494.738281 213.792969 493.414062 C 212.710938 493.378906 211.628906 493.359375 210.539062 493.359375 C 193.601562 493.359375 177.3125 497.539062 162.796875 505.371094 L 177.703125 530.421875 Z M 221.4375 530.421875 "/>
<path style=" stroke:none;fill-rule:nonzero;fill:rgb(87.450981%,25.882354%,40.784314%);fill-opacity:1;" d="M 310.304688 578.625 L 271.523438 578.625 C 254.085938 578.625 237.367188 571.652344 225.039062 559.246094 C 212.707031 546.839844 195.988281 539.871094 178.554688 539.871094 L 132.566406 539.871094 L 147.117188 525.230469 C 163.941406 508.304688 186.753906 498.796875 210.542969 498.796875 C 241.179688 498.796875 269.699219 514.53125 286.171875 540.53125 Z M 310.304688 578.625 "/>
<path style=" stroke:none;fill-rule:nonzero;fill:rgb(87.450981%,25.882354%,40.784314%);fill-opacity:1;" d="M 279.597656 332.546875 L 264.722656 385.503906 C 252.792969 427.957031 258.023438 473.4375 279.28125 512.027344 L 286.707031 525.511719 C 307.730469 563.6875 347.691406 587.375 391.066406 587.375 L 757.175781 587.375 L 744.0625 539.476562 C 731.128906 492.21875 700.925781 451.628906 659.503906 425.835938 L 635.792969 411.070312 L 432.121094 411.070312 L 432.121094 420.023438 C 432.121094 425.96875 435.890625 431.25 441.492188 433.148438 C 463.285156 440.539062 478.925781 459.855469 481.722656 482.820312 C 486.078125 518.65625 458.289062 550.25 422.410156 550.25 L 392.632812 550.25 C 364.085938 550.25 337.519531 535.558594 322.214844 511.308594 L 308.40625 489.429688 C 293.183594 465.300781 287.976562 436.125 293.902344 408.171875 L 309.941406 332.546875 Z M 279.597656 332.546875 "/>
<path style=" stroke:none;fill-rule:nonzero;fill:rgb(25.882354%,17.254902%,30.980393%);fill-opacity:1;" d="M 635.796875 411.066406 L 415.671875 411.066406 L 415.671875 384.773438 L 591.207031 384.773438 C 603.410156 384.773438 615.101562 389.730469 623.628906 398.519531 Z M 635.796875 411.066406 "/>
<path style=" stroke:none;fill-rule:nonzero;fill:rgb(94.901961%,78.431374%,76.078433%);fill-opacity:1;" d="M 507.816406 591.007812 L 408.984375 591.007812 C 364.316406 591.007812 323.117188 566.585938 301.464844 527.273438 L 294.035156 513.789062 C 272.175781 474.09375 266.890625 428.183594 279.15625 384.507812 C 283.105469 370.457031 281.273438 355.113281 274.128906 342.402344 C 273.144531 340.65625 273.757812 338.4375 275.496094 337.449219 C 277.234375 336.457031 279.4375 337.078125 280.417969 338.824219 C 288.503906 353.210938 290.578125 370.582031 286.113281 386.488281 C 274.367188 428.300781 279.425781 472.257812 300.355469 510.261719 L 307.78125 523.746094 C 328.164062 560.75 366.9375 583.738281 408.980469 583.738281 L 507.816406 583.738281 C 509.808594 583.738281 511.425781 585.367188 511.425781 587.371094 C 511.425781 589.378906 509.8125 591.007812 507.816406 591.007812 Z M 507.816406 591.007812 "/>
<path style=" stroke:none;fill-rule:nonzero;fill:rgb(63.921571%,25.882354%,38.431373%);fill-opacity:1;" d="M 511.394531 573.136719 L 737.847656 573.136719 L 734.382812 576.625 C 728.84375 582.199219 721.332031 585.328125 713.5 585.328125 L 535.246094 585.328125 C 525.820312 585.328125 516.957031 580.800781 511.394531 573.136719 Z M 511.394531 573.136719 "/>
<path style=" stroke:none;fill-rule:nonzero;fill:rgb(60.000002%,63.921571%,69.01961%);fill-opacity:1;" d="M 610.296875 610.585938 C 637.347656 610.585938 659.277344 588.519531 659.277344 561.296875 C 659.277344 534.074219 637.347656 512.007812 610.296875 512.007812 C 583.242188 512.007812 561.3125 534.074219 561.3125 561.296875 C 561.3125 588.519531 583.242188 610.585938 610.296875 610.585938 Z M 610.296875 610.585938 "/>
<path style=" stroke:none;fill-rule:nonzero;fill:rgb(28.627452%,32.549021%,45.882353%);fill-opacity:1;" d="M 610.296875 599.203125 C 589.523438 599.203125 572.621094 582.199219 572.621094 561.296875 C 572.621094 540.394531 589.523438 523.390625 610.296875 523.390625 C 631.070312 523.390625 647.96875 540.394531 647.96875 561.296875 C 647.96875 582.199219 631.070312 599.203125 610.296875 599.203125 Z M 610.296875 527.425781 C 591.730469 527.425781 576.632812 542.621094 576.632812 561.296875 C 576.632812 579.976562 591.730469 595.171875 610.296875 595.171875 C 628.859375 595.171875 643.957031 579.976562 643.957031 561.296875 C 643.957031 542.621094 628.859375 527.425781 610.296875 527.425781 Z M 610.296875 527.425781 "/>
<path style=" stroke:none;fill-rule:nonzero;fill:rgb(28.627452%,32.549021%,45.882353%);fill-opacity:1;" d="M 634.757812 563.3125 L 585.832031 563.3125 C 584.726562 563.3125 583.828125 562.410156 583.828125 561.296875 C 583.828125 560.183594 584.726562 559.28125 585.832031 559.28125 L 634.757812 559.28125 C 635.867188 559.28125 636.765625 560.183594 636.765625 561.296875 C 636.765625 562.410156 635.863281 563.3125 634.757812 563.3125 Z M 634.757812 563.3125 "/>
<path style=" stroke:none;fill-rule:nonzero;fill:rgb(28.627452%,32.549021%,45.882353%);fill-opacity:1;" d="M 630.546875 555.246094 L 590.042969 555.246094 C 588.9375 555.246094 588.042969 554.34375 588.042969 553.230469 C 588.042969 552.117188 588.9375 551.214844 590.042969 551.214844 L 630.546875 551.214844 C 631.65625 551.214844 632.550781 552.117188 632.550781 553.230469 C 632.550781 554.34375 631.652344 555.246094 630.546875 555.246094 Z M 630.546875 555.246094 "/>
<path style=" stroke:none;fill-rule:nonzero;fill:rgb(28.627452%,32.549021%,45.882353%);fill-opacity:1;" d="M 624.890625 547.179688 L 595.699219 547.179688 C 594.59375 547.179688 593.695312 546.277344 593.695312 545.167969 C 593.695312 544.050781 594.59375 543.148438 595.699219 543.148438 L 624.890625 543.148438 C 625.996094 543.148438 626.890625 544.050781 626.890625 545.167969 C 626.890625 546.277344 625.996094 547.179688 624.890625 547.179688 Z M 624.890625 547.179688 "/>
<path style=" stroke:none;fill-rule:nonzero;fill:rgb(28.627452%,32.549021%,45.882353%);fill-opacity:1;" d="M 618.160156 539.117188 L 602.429688 539.117188 C 601.324219 539.117188 600.429688 538.214844 600.429688 537.101562 C 600.429688 535.988281 601.324219 535.085938 602.429688 535.085938 L 618.160156 535.085938 C 619.265625 535.085938 620.164062 535.988281 620.164062 537.101562 C 620.164062 538.214844 619.265625 539.117188 618.160156 539.117188 Z M 618.160156 539.117188 "/>
<path style=" stroke:none;fill-rule:nonzero;fill:rgb(28.627452%,32.549021%,45.882353%);fill-opacity:1;" d="M 630.546875 571.378906 L 590.042969 571.378906 C 588.9375 571.378906 588.042969 570.476562 588.042969 569.363281 C 588.042969 568.246094 588.9375 567.34375 590.042969 567.34375 L 630.546875 567.34375 C 631.65625 567.34375 632.550781 568.246094 632.550781 569.363281 C 632.550781 570.476562 631.652344 571.378906 630.546875 571.378906 Z M 630.546875 571.378906 "/>
<path style=" stroke:none;fill-rule:nonzero;fill:rgb(28.627452%,32.549021%,45.882353%);fill-opacity:1;" d="M 624.890625 579.445312 L 595.699219 579.445312 C 594.59375 579.445312 593.695312 578.539062 593.695312 577.429688 C 593.695312 576.3125 594.59375 575.410156 595.699219 575.410156 L 624.890625 575.410156 C 625.996094 575.410156 626.890625 576.3125 626.890625 577.429688 C 626.890625 578.539062 625.996094 579.445312 624.890625 579.445312 Z M 624.890625 579.445312 "/>
<path style=" stroke:none;fill-rule:nonzero;fill:rgb(28.627452%,32.549021%,45.882353%);fill-opacity:1;" d="M 618.160156 587.507812 L 602.429688 587.507812 C 601.324219 587.507812 600.429688 586.605469 600.429688 585.496094 C 600.429688 584.378906 601.324219 583.476562 602.429688 583.476562 L 618.160156 583.476562 C 619.265625 583.476562 620.164062 584.378906 620.164062 585.496094 C 620.164062 586.605469 619.265625 587.507812 618.160156 587.507812 Z M 618.160156 587.507812 "/>
<path style=" stroke:none;fill-rule:nonzero;fill:rgb(89.019608%,43.137255%,56.470591%);fill-opacity:1;" d="M 663.15625 454.546875 C 639.855469 440.296875 613.105469 432.757812 585.835938 432.757812 L 576.695312 432.757812 C 530.242188 432.757812 490.851562 470.988281 490.882812 517.734375 C 490.898438 538.917969 498.636719 558.269531 511.398438 573.136719 L 737.847656 573.136719 L 729.171875 542.054688 C 718.972656 505.527344 695.382812 474.253906 663.15625 454.546875 Z M 663.15625 454.546875 "/>
<path style=" stroke:none;fill-rule:nonzero;fill:rgb(87.450981%,25.882354%,40.784314%);fill-opacity:1;" d="M 650.097656 486.296875 C 633.03125 475.859375 613.445312 470.339844 593.472656 470.339844 L 586.777344 470.339844 C 552.761719 470.339844 523.917969 498.335938 523.941406 532.566406 C 523.953125 548.078125 529.621094 562.25 538.964844 573.136719 L 704.789062 573.136719 L 698.433594 550.378906 C 690.96875 523.628906 673.695312 500.726562 650.097656 486.296875 Z M 650.097656 486.296875 "/>
<path style=" stroke:none;fill-rule:nonzero;fill:rgb(28.627452%,32.549021%,45.882353%);fill-opacity:1;" d="M 651.132812 560.585938 L 574.902344 560.585938 C 573.707031 560.585938 572.738281 559.609375 572.738281 558.402344 C 572.738281 557.199219 573.707031 556.222656 574.902344 556.222656 L 651.132812 556.222656 C 652.328125 556.222656 653.300781 557.199219 653.300781 558.402344 C 653.300781 559.609375 652.328125 560.585938 651.132812 560.585938 Z M 651.132812 560.585938 "/>
<path style=" stroke:none;fill-rule:nonzero;fill:rgb(28.627452%,32.549021%,45.882353%);fill-opacity:1;" d="M 648.785156 551.949219 L 572.554688 551.949219 C 571.355469 551.949219 570.386719 550.972656 570.386719 549.769531 C 570.386719 548.566406 571.355469 547.589844 572.554688 547.589844 L 648.785156 547.589844 C 649.980469 547.589844 650.953125 548.566406 650.953125 549.769531 C 650.953125 550.972656 649.980469 551.949219 648.785156 551.949219 Z M 648.785156 551.949219 "/>
<path style=" stroke:none;fill-rule:nonzero;fill:rgb(28.627452%,32.549021%,45.882353%);fill-opacity:1;" d="M 646.433594 543.316406 L 570.207031 543.316406 C 569.007812 543.316406 568.039062 542.339844 568.039062 541.132812 C 568.039062 539.929688 569.007812 538.953125 570.207031 538.953125 L 646.433594 538.953125 C 647.632812 538.953125 648.601562 539.929688 648.601562 541.132812 C 648.601562 542.339844 647.632812 543.316406 646.433594 543.316406 Z M 646.433594 543.316406 "/>
<path style=" stroke:none;fill-rule:nonzero;fill:rgb(28.627452%,32.549021%,45.882353%);fill-opacity:1;" d="M 644.085938 534.679688 L 567.859375 534.679688 C 566.660156 534.679688 565.691406 533.703125 565.691406 532.5 C 565.691406 531.296875 566.660156 530.320312 567.859375 530.320312 L 644.085938 530.320312 C 645.285156 530.320312 646.257812 531.296875 646.257812 532.5 C 646.257812 533.703125 645.285156 534.679688 644.085938 534.679688 Z M 644.085938 534.679688 "/>
<path style=" stroke:none;fill-rule:nonzero;fill:rgb(28.627452%,32.549021%,45.882353%);fill-opacity:1;" d="M 641.738281 526.042969 L 565.511719 526.042969 C 564.3125 526.042969 563.34375 525.066406 563.34375 523.863281 C 563.34375 522.660156 564.3125 521.683594 565.511719 521.683594 L 641.738281 521.683594 C 642.9375 521.683594 643.90625 522.660156 643.90625 523.863281 C 643.90625 525.066406 642.9375 526.042969 641.738281 526.042969 Z M 641.738281 526.042969 "/>
<path style=" stroke:none;fill-rule:nonzero;fill:rgb(63.921571%,25.882354%,38.431373%);fill-opacity:1;" d="M 432.125 411.066406 L 635.796875 411.066406 C 631.289062 415.605469 625.175781 418.152344 618.796875 418.152344 L 450.976562 418.152344 C 444.050781 418.152344 437.355469 415.636719 432.125 411.066406 Z M 432.125 411.066406 "/>
<path style=" stroke:none;fill-rule:nonzero;fill:rgb(87.450981%,25.882354%,40.784314%);fill-opacity:1;" d="M 309.941406 332.546875 L 249.25 332.546875 L 249.25 293.410156 L 262.425781 293.410156 C 273.734375 293.410156 284.90625 295.902344 295.15625 300.714844 L 304.90625 305.296875 C 311.167969 308.238281 314.449219 315.265625 312.695312 321.992188 Z M 309.941406 332.546875 "/>
<path style=" stroke:none;fill-rule:nonzero;fill:rgb(94.901961%,78.431374%,76.078433%);fill-opacity:1;" d="M 249.25 293.410156 L 242.871094 293.410156 L 242.871094 332.546875 L 249.25 332.546875 Z M 249.25 293.410156 "/>
<path style=" stroke:none;fill-rule:nonzero;fill:rgb(100%,100%,100%);fill-opacity:1;" d="M 242.871094 293.410156 L 239.617188 293.410156 L 239.617188 332.546875 L 242.871094 332.546875 Z M 242.871094 293.410156 "/>
<path style=" stroke:none;fill-rule:nonzero;fill:rgb(78.039217%,82.352942%,84.313726%);fill-opacity:1;" d="M 731.738281 405.457031 C 732.585938 404.605469 732.585938 403.226562 731.738281 402.375 C 730.890625 401.523438 729.519531 401.523438 728.671875 402.375 L 710.519531 420.640625 L 716.648438 420.640625 Z M 731.738281 405.457031 "/>
<path style=" stroke:none;fill-rule:nonzero;fill:rgb(100%,100%,100%);fill-opacity:1;" d="M 710.523438 420.640625 L 681.117188 450.226562 C 680.273438 451.082031 680.273438 452.460938 681.117188 453.3125 C 681.542969 453.738281 682.097656 453.949219 682.652344 453.949219 C 683.207031 453.949219 683.761719 453.738281 684.183594 453.3125 L 716.652344 420.640625 Z M 710.523438 420.640625 "/>
<path style=" stroke:none;fill-rule:nonzero;fill:rgb(100%,100%,100%);fill-opacity:1;" d="M 621.734375 428.9375 L 499.570312 428.9375 C 497.578125 428.9375 495.960938 427.3125 495.960938 425.304688 C 495.960938 423.296875 497.578125 421.667969 499.570312 421.667969 L 621.734375 421.667969 C 630.460938 421.667969 638.664062 418.25 644.835938 412.042969 C 652.371094 404.460938 662.386719 400.28125 673.042969 400.28125 L 791.859375 400.28125 C 793.855469 400.28125 795.472656 401.910156 795.472656 403.917969 C 795.472656 405.925781 793.855469 407.550781 791.859375 407.550781 L 673.042969 407.550781 C 664.316406 407.550781 656.113281 410.972656 649.941406 417.179688 C 642.40625 424.761719 632.390625 428.9375 621.734375 428.9375 Z M 621.734375 428.9375 "/>
<path style=" stroke:none;fill-rule:nonzero;fill:rgb(63.921571%,25.882354%,38.431373%);fill-opacity:1;" d="M 279.597656 332.546875 L 309.941406 332.546875 L 309.242188 335.839844 L 278.671875 335.839844 Z M 279.597656 332.546875 "/>
<path style=" stroke:none;fill-rule:nonzero;fill:rgb(94.117647%,74.901962%,42.352942%);fill-opacity:1;" d="M 843.402344 241.304688 L 629.796875 241.304688 L 629.796875 400.28125 L 843.402344 400.28125 Z M 843.402344 241.304688 "/>
<path style=" stroke:none;fill-rule:nonzero;fill:rgb(94.117647%,74.901962%,42.352942%);fill-opacity:1;" d="M 849.515625 215.367188 L 623.679688 215.367188 L 623.679688 241.304688 L 849.515625 241.304688 Z M 849.515625 215.367188 "/>
<path style=" stroke:none;fill-rule:nonzero;fill:rgb(92.156863%,63.529414%,36.470589%);fill-opacity:1;" d="M 843.402344 241.304688 L 629.796875 241.304688 L 629.796875 253.90625 L 843.402344 253.90625 Z M 843.402344 241.304688 "/>
<path style=" stroke:none;fill-rule:nonzero;fill:rgb(80.000001%,38.039216%,39.215687%);fill-opacity:1;" d="M 652.367188 322.472656 L 658.808594 290.042969 L 673.359375 290.042969 C 676.765625 290.042969 679.699219 290.601562 682.152344 291.714844 C 684.609375 292.824219 686.496094 294.414062 687.816406 296.484375 C 689.136719 298.523438 689.796875 300.964844 689.796875 303.804688 C 689.796875 306.679688 689.289062 309.257812 688.277344 311.542969 C 687.296875 313.828125 685.898438 315.789062 684.085938 317.425781 C 682.304688 319.0625 680.191406 320.3125 677.734375 321.179688 C 675.277344 322.042969 672.578125 322.472656 669.632812 322.472656 Z M 664.933594 313.949219 L 670 313.949219 C 671.933594 313.949219 673.542969 313.535156 674.832031 312.699219 C 676.152344 311.835938 677.152344 310.691406 677.824219 309.269531 C 678.5 307.820312 678.839844 306.214844 678.839844 304.453125 C 678.839844 303.1875 678.578125 302.121094 678.058594 301.253906 C 677.566406 300.390625 676.8125 299.730469 675.800781 299.265625 C 674.820312 298.800781 673.589844 298.570312 672.117188 298.570312 L 667.972656 298.570312 Z M 704.402344 302.089844 L 718.765625 302.089844 L 717.199219 309.964844 L 702.835938 309.964844 Z M 702.695312 314.230469 L 718.855469 314.230469 L 717.199219 322.472656 L 690.402344 322.472656 L 696.847656 290.042969 L 723.046875 290.042969 L 721.390625 298.292969 L 705.871094 298.292969 Z M 721.382812 322.472656 L 727.828125 290.042969 L 738.695312 290.042969 L 733.953125 313.996094 L 748.5 313.996094 L 746.796875 322.472656 Z M 749.796875 322.472656 L 756.242188 290.042969 L 767.109375 290.042969 L 760.664062 322.472656 Z M 776.023438 322.472656 L 768.839844 290.042969 L 779.980469 290.042969 L 785.785156 317.519531 L 778.695312 317.519531 L 795.636719 290.042969 L 806.777344 290.042969 L 786.703125 322.472656 Z M 666.363281 359.65625 L 680.726562 359.65625 L 679.160156 367.53125 L 664.796875 367.53125 Z M 664.660156 371.792969 L 680.820312 371.792969 L 679.160156 380.039062 L 652.367188 380.039062 L 658.808594 347.609375 L 685.007812 347.609375 L 683.351562 355.859375 L 667.835938 355.859375 Z M 683.34375 380.039062 L 689.789062 347.609375 L 704.246094 347.609375 C 708.511719 347.609375 711.8125 348.554688 714.144531 350.4375 C 716.476562 352.292969 717.644531 354.898438 717.644531 358.265625 C 717.644531 360.984375 716.96875 363.363281 715.617188 365.398438 C 714.300781 367.441406 712.410156 369.03125 709.957031 370.171875 C 707.53125 371.316406 704.660156 371.886719 701.34375 371.886719 L 690.941406 371.886719 L 696.742188 367.300781 L 694.210938 380.039062 Z M 703.050781 380.039062 L 696.417969 368.226562 L 707.609375 368.226562 L 714.328125 380.039062 Z M 696.46875 368.597656 L 692.644531 363.640625 L 701.898438 363.640625 C 703.402344 363.640625 704.570312 363.269531 705.398438 362.527344 C 706.226562 361.757812 706.640625 360.691406 706.640625 359.332031 C 706.640625 358.160156 706.273438 357.324219 705.535156 356.828125 C 704.832031 356.304688 703.847656 356.042969 702.589844 356.042969 L 694.164062 356.042969 L 699.964844 350.945312 Z M 725.488281 380.039062 L 728.296875 365.820312 L 729.496094 372.347656 L 719.777344 347.609375 L 730.691406 347.609375 L 737.320312 364.613281 L 730.460938 364.613281 L 744.042969 347.609375 L 754.953125 347.609375 L 735.476562 372.347656 L 739.164062 365.820312 L 736.351562 380.039062 Z M 725.488281 380.039062 "/>
<path style=" stroke:none;fill-rule:nonzero;fill:rgb(80.000001%,38.039216%,39.215687%);fill-opacity:1;" d="M 665.164062 359.699219 C 663.261719 359.699219 661.433594 359.558594 659.6875 359.28125 C 657.9375 359.003906 656.339844 358.617188 654.898438 358.125 C 653.484375 357.597656 652.257812 357.027344 651.214844 356.410156 L 655.40625 348.347656 C 656.601562 349.027344 657.796875 349.597656 658.996094 350.066406 C 660.222656 350.496094 661.433594 350.820312 662.632812 351.035156 C 663.859375 351.253906 665.074219 351.359375 666.269531 351.359375 C 667.222656 351.359375 668.003906 351.28125 668.617188 351.128906 C 669.261719 350.972656 669.738281 350.757812 670.046875 350.480469 C 670.382812 350.171875 670.550781 349.832031 670.550781 349.460938 C 670.550781 348.964844 670.273438 348.566406 669.722656 348.257812 C 669.167969 347.949219 668.433594 347.667969 667.511719 347.421875 C 666.621094 347.175781 665.625 346.929688 664.519531 346.683594 C 663.445312 346.402344 662.355469 346.066406 661.25 345.660156 C 660.144531 345.230469 659.132812 344.691406 658.210938 344.039062 C 657.324219 343.390625 656.601562 342.574219 656.046875 341.585938 C 655.496094 340.597656 655.21875 339.390625 655.21875 337.972656 C 655.21875 335.5 655.863281 333.355469 657.152344 331.53125 C 658.472656 329.710938 660.34375 328.304688 662.769531 327.316406 C 665.226562 326.296875 668.140625 325.789062 671.519531 325.789062 C 673.914062 325.789062 676.136719 326.035156 678.195312 326.527344 C 680.28125 326.992188 682.078125 327.671875 683.582031 328.566406 L 679.667969 336.535156 C 678.378906 335.734375 676.964844 335.128906 675.433594 334.730469 C 673.929688 334.328125 672.394531 334.125 670.828125 334.125 C 669.785156 334.125 668.910156 334.234375 668.203125 334.449219 C 667.496094 334.636719 666.960938 334.898438 666.59375 335.238281 C 666.253906 335.578125 666.085938 335.933594 666.085938 336.304688 C 666.085938 336.800781 666.363281 337.214844 666.914062 337.554688 C 667.46875 337.863281 668.203125 338.140625 669.125 338.386719 C 670.046875 338.605469 671.042969 338.851562 672.117188 339.128906 C 673.222656 339.378906 674.3125 339.699219 675.386719 340.101562 C 676.492188 340.472656 677.503906 340.984375 678.425781 341.632812 C 679.34375 342.25 680.082031 343.054688 680.632812 344.039062 C 681.1875 345 681.460938 346.1875 681.460938 347.609375 C 681.460938 350.015625 680.804688 352.132812 679.484375 353.957031 C 678.164062 355.746094 676.277344 357.152344 673.820312 358.171875 C 671.394531 359.191406 668.511719 359.699219 665.164062 359.699219 Z M 696.621094 338.574219 L 710.984375 338.574219 L 709.421875 346.449219 L 695.054688 346.449219 Z M 694.917969 350.710938 L 711.078125 350.710938 L 709.421875 358.960938 L 682.625 358.960938 L 689.070312 326.527344 L 715.269531 326.527344 L 713.609375 334.773438 L 698.09375 334.773438 Z M 713.605469 358.960938 L 720.050781 326.527344 L 734.503906 326.527344 C 738.773438 326.527344 742.074219 327.472656 744.40625 329.355469 C 746.738281 331.207031 747.902344 333.816406 747.902344 337.183594 C 747.902344 339.902344 747.230469 342.277344 745.878906 344.320312 C 744.558594 346.355469 742.671875 347.949219 740.214844 349.089844 C 737.789062 350.234375 734.917969 350.804688 731.605469 350.804688 L 721.203125 350.804688 L 727.003906 346.21875 L 724.46875 358.960938 Z M 733.308594 358.960938 L 726.679688 347.144531 L 737.867188 347.144531 L 744.589844 358.960938 Z M 726.726562 347.515625 L 722.902344 342.558594 L 732.15625 342.558594 C 733.660156 342.558594 734.828125 342.1875 735.65625 341.445312 C 736.484375 340.675781 736.898438 339.609375 736.898438 338.25 C 736.898438 337.074219 736.53125 336.242188 735.796875 335.75 C 735.089844 335.222656 734.109375 334.960938 732.847656 334.960938 L 724.421875 334.960938 L 730.222656 329.863281 Z M 758.039062 358.960938 L 750.855469 326.527344 L 761.996094 326.527344 L 767.796875 354.003906 L 760.710938 354.003906 L 777.652344 326.527344 L 788.792969 326.527344 L 768.722656 358.960938 Z M 652.367188 416.523438 L 658.808594 384.09375 L 669.675781 384.09375 L 663.230469 416.523438 Z M 686.789062 417.265625 C 683.472656 417.265625 680.570312 416.664062 678.085938 415.460938 C 675.597656 414.222656 673.664062 412.527344 672.285156 410.363281 C 670.933594 408.167969 670.257812 405.636719 670.257812 402.765625 C 670.257812 399.921875 670.75 397.316406 671.730469 394.9375 C 672.742188 392.558594 674.15625 390.503906 675.964844 388.773438 C 677.777344 387.042969 679.925781 385.714844 682.410156 384.789062 C 684.898438 383.832031 687.628906 383.355469 690.605469 383.355469 C 693.707031 383.355469 696.457031 383.910156 698.847656 385.019531 C 701.242188 386.132812 703.023438 387.738281 704.191406 389.839844 L 696.363281 396.003906 C 695.6875 394.796875 694.8125 393.871094 693.738281 393.21875 C 692.664062 392.542969 691.390625 392.203125 689.917969 392.203125 C 688.628906 392.203125 687.445312 392.449219 686.371094 392.945312 C 685.328125 393.40625 684.421875 394.085938 683.65625 394.980469 C 682.886719 395.84375 682.289062 396.882812 681.859375 398.085938 C 681.429688 399.289062 681.214844 400.617188 681.214844 402.070312 C 681.214844 403.335938 681.492188 404.449219 682.042969 405.40625 C 682.597656 406.363281 683.363281 407.105469 684.34375 407.628906 C 685.359375 408.15625 686.527344 408.417969 687.84375 408.417969 C 689.101562 408.417969 690.332031 408.121094 691.527344 407.535156 C 692.753906 406.949219 693.921875 405.992188 695.027344 404.664062 L 701.429688 410.828125 C 699.460938 413.234375 697.269531 414.917969 694.84375 415.875 C 692.449219 416.800781 689.765625 417.265625 686.789062 417.265625 Z M 716.71875 396.140625 L 731.085938 396.140625 L 729.519531 404.015625 L 715.152344 404.015625 Z M 715.015625 408.277344 L 731.175781 408.277344 L 729.519531 416.523438 L 702.722656 416.523438 L 709.167969 384.09375 L 735.367188 384.09375 L 733.710938 392.339844 L 718.191406 392.339844 Z M 715.015625 408.277344 "/>
<path style=" stroke:none;fill-rule:nonzero;fill:rgb(80.000001%,38.039216%,39.215687%);fill-opacity:1;" d="M 656.449219 272.949219 L 655.484375 277.046875 L 736.597656 277.046875 L 765.648438 272.949219 Z M 656.449219 272.949219 "/>
<path style=" stroke:none;fill-rule:nonzero;fill:rgb(80.000001%,38.039216%,39.215687%);fill-opacity:1;" d="M 657.90625 266.507812 L 656.941406 270.609375 L 799.175781 270.609375 L 828.226562 266.507812 Z M 657.90625 266.507812 "/>
<path style=" stroke:none;fill-rule:nonzero;fill:rgb(80.000001%,38.039216%,39.215687%);fill-opacity:1;" d="M 656.449219 360.917969 L 655.484375 365.019531 L 736.597656 365.019531 L 765.648438 360.917969 Z M 656.449219 360.917969 "/>
<path style=" stroke:none;fill-rule:nonzero;fill:rgb(80.000001%,38.039216%,39.215687%);fill-opacity:1;" d="M 657.90625 354.476562 L 656.941406 358.578125 L 799.175781 358.578125 L 828.226562 354.476562 Z M 657.90625 354.476562 "/>
<path style=" stroke:none;fill-rule:nonzero;fill:rgb(27.058825%,30.980393%,41.960785%);fill-opacity:1;" d="M 468.496094 343.574219 L 366.386719 374.285156 C 343.800781 381.078125 333.628906 407.464844 345.75 427.808594 L 415.699219 545.167969 L 455.4375 527.421875 L 398.332031 418.152344 L 514.621094 393.695312 C 537.121094 388.960938 550.371094 365.421875 542.835938 343.574219 Z M 468.496094 343.574219 "/>
<path style=" stroke:none;fill-rule:nonzero;fill:rgb(94.901961%,78.823531%,67.843139%);fill-opacity:1;" d="M 450.292969 535.59375 L 447.3125 531.050781 L 424.730469 541.132812 L 430.046875 550.871094 L 455.214844 543.765625 C 453.671875 540.988281 452.042969 538.257812 450.292969 535.59375 Z M 450.292969 535.59375 "/>
<path style=" stroke:none;fill-rule:nonzero;fill:rgb(100%,100%,100%);fill-opacity:1;" d="M 444.085938 555.207031 L 441.980469 560.589844 L 444.789062 558.605469 C 445.898438 557.816406 447.230469 557.394531 448.589844 557.394531 L 461.773438 557.394531 C 459.851562 552.726562 457.664062 548.175781 455.214844 543.761719 L 430.046875 550.867188 L 431.566406 553.652344 L 443.03125 553.652344 C 443.832031 553.652344 444.378906 554.460938 444.085938 555.207031 Z M 444.085938 555.207031 "/>
<path style=" stroke:none;fill-rule:nonzero;fill:rgb(25.882354%,17.254902%,30.980393%);fill-opacity:1;" d="M 415.148438 578.40625 L 468.492188 578.40625 L 467.519531 574.613281 C 466.015625 568.734375 464.074219 562.988281 461.773438 557.394531 L 448.585938 557.394531 C 447.226562 557.394531 445.898438 557.816406 444.789062 558.605469 L 441.980469 560.589844 L 444.082031 555.207031 C 444.375 554.460938 443.828125 553.652344 443.03125 553.652344 L 431.5625 553.652344 L 423.089844 561.667969 C 419.25 565.296875 414.179688 567.316406 408.914062 567.316406 L 403.136719 567.316406 C 397.480469 567.316406 392.546875 570.492188 390.007812 575.179688 L 401.007812 577.148438 C 405.675781 577.984375 410.40625 578.40625 415.148438 578.40625 Z M 415.148438 578.40625 "/>
<path style=" stroke:none;fill-rule:nonzero;fill:rgb(100%,100%,100%);fill-opacity:1;" d="M 415.144531 578.40625 C 410.40625 578.40625 405.675781 577.984375 401.007812 577.148438 L 390.007812 575.179688 C 388.929688 577.171875 388.273438 579.429688 388.191406 581.84375 L 404.996094 583.375 C 407.65625 583.617188 410.320312 583.738281 412.992188 583.738281 L 469.859375 583.738281 L 468.496094 578.40625 Z M 415.144531 578.40625 "/>
<path style=" stroke:none;fill-rule:nonzero;fill:rgb(25.882354%,17.254902%,30.980393%);fill-opacity:1;" d="M 447.3125 531.050781 L 424.730469 541.132812 L 427.167969 545.601562 L 451.757812 537.882812 Z M 447.3125 531.050781 "/>
<path style=" stroke:none;fill-rule:nonzero;fill:rgb(94.901961%,78.823531%,67.843139%);fill-opacity:1;" d="M 445.839844 161.804688 L 442.75 144.160156 C 441.710938 138.253906 436.613281 133.949219 430.652344 133.949219 L 413.058594 133.949219 L 414.632812 142.324219 C 415.769531 148.394531 415.660156 154.628906 414.304688 160.652344 L 413.535156 164.074219 C 413.210938 165.527344 414.304688 166.90625 415.785156 166.90625 L 419.339844 166.90625 C 423.886719 183.445312 443.867188 190.496094 457.742188 179.769531 L 479.5625 162.90625 L 467.980469 171.046875 C 459.460938 177.039062 447.644531 172.105469 445.839844 161.804688 Z M 445.839844 161.804688 "/>
<path style=" stroke:none;fill-rule:nonzero;fill:rgb(92.156863%,64.705884%,55.686277%);fill-opacity:1;" d="M 411.925781 127.902344 L 413.058594 133.949219 L 430.652344 133.949219 C 436.613281 133.949219 441.710938 138.253906 442.75 144.160156 L 445.839844 161.808594 C 447.644531 172.105469 459.460938 177.039062 467.980469 171.050781 L 479.566406 162.90625 L 479.566406 127.902344 Z M 411.925781 127.902344 "/>
<path style=" stroke:none;fill-rule:nonzero;fill:rgb(25.882354%,17.254902%,30.980393%);fill-opacity:1;" d="M 479.566406 162.90625 L 457.742188 179.773438 L 460.648438 188.160156 Z M 479.566406 162.90625 "/>
<path style=" stroke:none;fill-rule:nonzero;fill:rgb(94.901961%,78.823531%,67.843139%);fill-opacity:1;" d="M 494.839844 186.199219 L 479.566406 162.90625 L 460.648438 188.160156 L 465.597656 202.449219 Z M 494.839844 186.199219 "/>
<path style=" stroke:none;fill-rule:nonzero;fill:rgb(25.882354%,17.254902%,30.980393%);fill-opacity:1;" d="M 426.183594 147.867188 C 426.511719 149.886719 425.902344 151.667969 424.820312 151.851562 C 423.738281 152.027344 422.589844 150.539062 422.261719 148.519531 C 421.929688 146.5 422.539062 144.71875 423.625 144.539062 C 424.703125 144.359375 425.851562 145.847656 426.183594 147.867188 Z M 426.183594 147.867188 "/>
<path style=" stroke:none;fill-rule:nonzero;fill:rgb(25.882354%,17.254902%,30.980393%);fill-opacity:1;" d="M 421.007812 140.761719 C 422.820312 139.730469 424.851562 139.871094 426.574219 141.015625 C 428.269531 142.148438 429.847656 139.402344 428.164062 138.28125 C 425.523438 136.519531 422.160156 136.464844 419.417969 138.027344 C 417.652344 139.027344 419.242188 141.769531 421.007812 140.761719 Z M 421.007812 140.761719 "/>
<path style=" stroke:none;fill-rule:nonzero;fill:rgb(100%,100%,100%);fill-opacity:1;" d="M 425.289062 160.203125 L 428.816406 161.425781 C 433.980469 163.21875 439.5625 163.386719 444.824219 161.917969 L 453.621094 159.421875 L 451.554688 155.273438 L 444.824219 157.15625 C 439.5625 158.628906 433.980469 158.457031 428.816406 156.667969 L 425.289062 155.445312 C 422.175781 154.363281 418.976562 153.53125 415.730469 152.953125 L 414.464844 152.730469 L 413.316406 157.339844 L 415.730469 157.714844 C 418.976562 158.289062 422.175781 159.121094 425.289062 160.203125 Z M 425.289062 160.203125 "/>
<path style=" stroke:none;fill-rule:nonzero;fill:rgb(50.588238%,82.745099%,81.176472%);fill-opacity:1;" d="M 453.621094 159.421875 L 444.824219 161.914062 C 439.5625 163.386719 433.980469 163.214844 428.816406 161.425781 L 425.289062 160.203125 C 422.175781 159.121094 418.976562 158.289062 415.730469 157.714844 L 413.316406 157.335938 L 412.933594 158.859375 C 412.277344 161.496094 412.417969 164.273438 413.339844 166.828125 L 415.3125 172.308594 C 418.78125 181.921875 427.609375 188.523438 437.757812 189.082031 C 444.078125 189.433594 450.296875 187.390625 455.195312 183.363281 L 462.53125 177.328125 Z M 453.621094 159.421875 "/>
<use xlink:href="#surface5" mask="url(#mask0)"/>
<path style=" stroke:none;fill-rule:nonzero;fill:rgb(27.058825%,30.980393%,41.960785%);fill-opacity:1;" d="M 457.742188 166.785156 L 451.082031 185.894531 C 450.859375 186.527344 451.375 187.171875 452.035156 187.09375 C 457.015625 186.492188 461.421875 183.566406 463.929688 179.195312 L 472.386719 164.445312 Z M 457.742188 166.785156 "/>
<path style=" stroke:none;fill-rule:nonzero;fill:rgb(87.450981%,25.882354%,40.784314%);fill-opacity:1;" d="M 451.230469 137.574219 L 454.902344 158.515625 C 455.527344 162.089844 459.21875 164.21875 462.601562 162.957031 L 498.78125 149.476562 L 498.78125 123.417969 C 498.78125 96.644531 477.210938 74.9375 450.601562 74.9375 C 424.480469 74.9375 403.230469 95.859375 402.460938 121.957031 L 432.726562 121.957031 C 441.84375 121.957031 449.644531 128.542969 451.230469 137.574219 Z M 451.230469 137.574219 "/>
<path style=" stroke:none;fill-rule:nonzero;fill:rgb(100%,100%,100%);fill-opacity:1;" d="M 480.527344 114.296875 C 478.183594 114.296875 475.917969 113.015625 474.757812 110.78125 C 470.03125 101.675781 460.777344 96.019531 450.605469 96.019531 C 447.015625 96.019531 444.101562 93.089844 444.101562 89.476562 C 444.101562 85.859375 447.015625 82.929688 450.605469 82.929688 C 465.636719 82.929688 479.304688 91.28125 486.285156 104.722656 C 487.949219 107.925781 486.714844 111.878906 483.53125 113.550781 C 482.570312 114.058594 481.539062 114.296875 480.527344 114.296875 Z M 480.527344 114.296875 "/>
<path style=" stroke:none;fill-rule:nonzero;fill:rgb(100%,100%,100%);fill-opacity:1;" d="M 430.707031 102.484375 C 428.703125 102.484375 426.726562 101.554688 425.453125 99.804688 C 423.335938 96.886719 423.964844 92.792969 426.863281 90.660156 L 427.167969 90.441406 C 430.085938 88.335938 434.144531 89.007812 436.238281 91.949219 C 438.332031 94.886719 437.660156 98.972656 434.742188 101.078125 L 434.539062 101.226562 C 433.382812 102.078125 432.035156 102.484375 430.707031 102.484375 Z M 430.707031 102.484375 "/>
<path style=" stroke:none;fill-rule:nonzero;fill:rgb(63.921571%,25.882354%,38.431373%);fill-opacity:1;" d="M 462.597656 162.960938 C 459.21875 164.21875 455.527344 162.089844 454.902344 158.515625 L 451.226562 137.574219 C 449.644531 128.542969 441.84375 121.957031 432.726562 121.957031 L 402.460938 121.957031 C 402.445312 122.445312 402.421875 122.929688 402.421875 123.417969 L 402.421875 127.902344 L 431.121094 127.902344 C 438.132812 127.902344 444.132812 132.964844 445.351562 139.914062 L 448.996094 160.691406 C 450.296875 168.113281 458.164062 172.351562 465.023438 169.324219 L 495.320312 155.953125 C 497.421875 155.027344 498.78125 152.933594 498.78125 150.625 L 498.78125 149.476562 Z M 462.597656 162.960938 "/>
<path style=" stroke:none;fill-rule:nonzero;fill:rgb(36.470589%,67.058825%,100%);fill-opacity:1;" d="M 459.636719 332.394531 L 468.496094 293.410156 L 455.777344 223.292969 C 454.261719 214.941406 458.21875 206.554688 465.597656 202.449219 L 494.839844 186.199219 C 498.671875 184.070312 503.410156 184.558594 506.730469 187.425781 C 530.820312 208.199219 545.890625 237.621094 548.730469 269.414062 L 554.234375 331.023438 C 554.839844 337.765625 549.5625 343.574219 542.835938 343.574219 L 468.496094 343.574219 C 462.65625 343.574219 458.335938 338.117188 459.636719 332.394531 Z M 459.636719 332.394531 "/>
<path style=" stroke:none;fill-rule:nonzero;fill:rgb(32.156864%,59.215689%,95.686275%);fill-opacity:1;" d="M 503.726562 215.34375 L 503.972656 216.296875 C 507.046875 228.210938 504.796875 240.878906 497.816406 250.984375 L 468.496094 293.410156 L 462.535156 260.554688 Z M 503.726562 215.34375 "/>
<path style=" stroke:none;fill-rule:nonzero;fill:rgb(36.470589%,67.058825%,100%);fill-opacity:1;" d="M 462.855469 194.535156 L 454.824219 198.714844 L 462.855469 207.4375 L 465.597656 202.449219 Z M 462.855469 194.535156 "/>
<path style=" stroke:none;fill-rule:nonzero;fill:rgb(32.156864%,59.215689%,95.686275%);fill-opacity:1;" d="M 454.824219 198.714844 L 453 213.617188 L 461.277344 205.722656 Z M 454.824219 198.714844 "/>
<path style=" stroke:none;fill-rule:nonzero;fill:rgb(41.960785%,77.254903%,100%);fill-opacity:1;" d="M 499.570312 184.882812 L 491.050781 177.328125 L 460.648438 194.046875 L 464.800781 211.738281 Z M 499.570312 184.882812 "/>
<path style=" stroke:none;fill-rule:nonzero;fill:rgb(94.901961%,78.823531%,67.843139%);fill-opacity:1;" d="M 327.90625 309.015625 L 305.230469 309.015625 C 301.007812 309.015625 297.582031 312.460938 297.582031 316.707031 L 297.582031 330.964844 C 297.582031 335.214844 301.007812 338.65625 305.230469 338.65625 L 323.585938 338.65625 L 323.585938 332.984375 C 329.117188 332.984375 334.421875 330.773438 338.335938 326.835938 L 341.09375 324.0625 Z M 327.90625 309.015625 "/>
<path style=" stroke:none;fill-rule:nonzero;fill:rgb(94.901961%,78.823531%,67.843139%);fill-opacity:1;" d="M 327.90625 309.015625 L 341.089844 324.0625 L 397.722656 310.816406 L 389.886719 289.734375 Z M 327.90625 309.015625 "/>
<path style=" stroke:none;fill-rule:nonzero;fill:rgb(92.156863%,64.705884%,55.686277%);fill-opacity:1;" d="M 389.886719 289.734375 L 387.125 290.59375 L 386.226562 313.503906 L 397.722656 310.816406 Z M 389.886719 289.734375 "/>
<path style=" stroke:none;fill-rule:nonzero;fill:rgb(36.470589%,67.058825%,100%);fill-opacity:1;" d="M 498.3125 208.203125 C 490.847656 202.304688 480.089844 203.359375 473.890625 210.59375 L 415.148438 279.15625 L 404.53125 282.757812 L 414.394531 309.300781 L 419.964844 308.085938 C 428.78125 306.167969 436.820312 301.625 443.035156 295.050781 L 500.21875 234.589844 C 507.441406 226.953125 506.558594 214.710938 498.3125 208.203125 Z M 498.3125 208.203125 "/>
<path style=" stroke:none;fill-rule:nonzero;fill:rgb(32.156864%,59.215689%,95.686275%);fill-opacity:1;" d="M 414.710938 310.148438 L 414.394531 309.304688 L 404.53125 282.757812 L 403.558594 280.132812 C 402.996094 278.628906 401.332031 277.863281 399.835938 278.425781 L 390.128906 282.078125 C 388.632812 282.640625 387.875 284.316406 388.433594 285.820312 L 389.226562 287.949219 L 398.453125 312.777344 L 399.589844 315.839844 C 400.148438 317.339844 401.8125 318.105469 403.308594 317.542969 L 413.019531 313.890625 C 414.511719 313.328125 415.269531 311.652344 414.710938 310.148438 Z M 414.710938 310.148438 "/>
<path style=" stroke:none;fill-rule:nonzero;fill:rgb(41.960785%,77.254903%,100%);fill-opacity:1;" d="M 477.605469 213.449219 C 483.066406 207.074219 492.191406 205.359375 499.570312 209.3125 C 499.167969 208.929688 498.757812 208.554688 498.3125 208.203125 C 490.847656 202.308594 480.089844 203.359375 473.890625 210.59375 L 415.148438 279.15625 L 404.53125 282.757812 L 406.113281 287.015625 L 418.039062 282.972656 Z M 477.605469 213.449219 "/>
<path style=" stroke:none;fill-rule:nonzero;fill:rgb(25.882354%,17.254902%,30.980393%);fill-opacity:1;" d="M 331.035156 332.953125 C 332.757812 329.78125 336.710938 328.621094 339.863281 330.355469 L 339.886719 330.371094 C 339.753906 330.285156 339.640625 330.179688 339.5 330.105469 L 324.960938 322.085938 C 321.808594 320.347656 317.855469 321.511719 316.132812 324.679688 C 314.40625 327.847656 315.5625 331.828125 318.710938 333.5625 L 333.226562 341.566406 C 330.386719 339.722656 329.382812 335.980469 331.035156 332.953125 Z M 331.035156 332.953125 "/>
<path style=" stroke:none;fill-rule:nonzero;fill:rgb(28.627452%,32.549021%,45.882353%);fill-opacity:1;" d="M 336.371094 342.386719 C 338.667969 342.386719 340.898438 341.160156 342.078125 338.988281 C 343.726562 335.957031 342.726562 332.214844 339.882812 330.371094 L 339.859375 330.359375 C 336.710938 328.621094 332.753906 329.78125 331.03125 332.953125 C 329.382812 335.980469 330.386719 339.726562 333.226562 341.566406 L 333.25 341.582031 C 334.242188 342.128906 335.3125 342.386719 336.371094 342.386719 Z M 336.371094 342.386719 "/>
<path style=" stroke:none;fill-rule:nonzero;fill:rgb(98.431373%,93.333334%,81.960785%);fill-opacity:1;" d="M 743.980469 654.761719 C 746.953125 645.003906 748.511719 640.851562 768.433594 639.164062 C 773.886719 638.699219 779.367188 640.527344 784.804688 639.910156 C 790.242188 639.285156 796.03125 635.484375 796.109375 629.976562 C 796.195312 624.078125 789.792969 618.84375 791.695312 613.265625 C 793.09375 609.152344 798.246094 607.773438 802.5625 608.027344 C 806.875 608.28125 811.328125 609.507812 815.421875 608.113281 C 820.4375 606.402344 823.523438 601.015625 824.015625 595.710938 C 824.511719 590.398438 822.894531 585.136719 821.070312 580.128906 C 819.246094 575.125 817.167969 570.117188 816.6875 564.808594 C 815.660156 553.511719 822.113281 542.660156 830.554688 535.144531 C 842.195312 524.785156 858.007812 519.316406 873.519531 520.296875 C 888.683594 521.257812 907.304688 526.988281 915.980469 540.417969 C 921.074219 548.296875 922.921875 558.230469 921.007812 567.429688 C 920.203125 571.316406 918.753906 575.316406 919.816406 579.136719 C 921.367188 584.726562 927.457031 587.476562 932.824219 589.597656 C 938.191406 591.722656 944.234375 594.757812 945.394531 600.441406 C 946.449219 605.59375 942.746094 610.6875 938.214844 613.3125 C 933.683594 615.9375 928.394531 616.804688 923.414062 618.40625 C 918.433594 620.007812 913.355469 622.722656 911.144531 627.492188 C 909.257812 631.566406 909.8125 636.414062 908.171875 640.597656 C 905.40625 647.667969 896.871094 651.015625 889.371094 650.121094 C 881.871094 649.226562 875.203125 645.054688 868.921875 640.832031 C 865.796875 638.734375 862.644531 636.574219 859.070312 635.421875 C 855.492188 634.269531 851.355469 634.253906 848.207031 636.308594 C 844.269531 638.875 842.195312 644.324219 837.605469 645.292969 C 833.152344 646.234375 829.296875 642.402344 825.917969 639.339844 C 822.539062 636.273438 817.113281 633.722656 813.789062 636.847656 C 812.328125 638.214844 811.808594 640.285156 810.917969 642.082031 C 807.417969 649.164062 798.300781 651.496094 790.492188 650.617188 C 782.683594 649.738281 775.269531 646.5 767.449219 645.695312 C 759.632812 644.890625 745.914062 648.40625 743.980469 654.761719 Z M 743.980469 654.761719 "/>
<path style=" stroke:none;fill-rule:nonzero;fill:rgb(98.431373%,93.333334%,81.960785%);fill-opacity:1;" d="M 935.816406 634.03125 C 942.542969 631.816406 950.460938 633.84375 955.3125 639.027344 C 958.410156 642.335938 960.183594 647.6875 957.589844 651.40625 C 955.40625 654.53125 951.003906 655.242188 947.289062 654.476562 C 943.578125 653.707031 940.207031 651.78125 936.589844 650.632812 C 932.976562 649.476562 928.710938 649.21875 925.6875 651.515625 C 924.9375 652.085938 924.277344 652.796875 923.425781 653.191406 C 918.109375 655.625 923.980469 645.46875 924.660156 644.085938 C 926.953125 639.4375 930.867188 635.664062 935.816406 634.03125 Z M 935.816406 634.03125 "/>
<path style=" stroke:none;fill-rule:nonzero;fill:rgb(98.431373%,93.333334%,81.960785%);fill-opacity:1;" d="M 988.0625 577.882812 C 991.480469 577.078125 995.570312 578.039062 997.382812 581.058594 C 999.515625 584.597656 997.582031 589.484375 994.222656 591.871094 C 990.058594 594.835938 975.476562 598.007812 972.429688 591.609375 C 969.992188 586.488281 983.710938 578.910156 988.0625 577.882812 Z M 988.0625 577.882812 "/>
<path style=" stroke:none;fill-rule:nonzero;fill:rgb(98.431373%,93.333334%,81.960785%);fill-opacity:1;" d="M 938.53125 568.964844 C 939.296875 570.386719 940.847656 571.234375 942.421875 571.535156 C 944 571.835938 945.621094 571.660156 947.214844 571.480469 C 950.03125 571.171875 952.9375 570.828125 955.382812 569.390625 C 957.824219 567.957031 959.691406 565.109375 959.089844 562.324219 C 956.792969 551.734375 933.457031 559.53125 938.53125 568.964844 Z M 938.53125 568.964844 "/>
<path style=" stroke:none;fill-rule:nonzero;fill:rgb(98.431373%,93.333334%,81.960785%);fill-opacity:1;" d="M 801.421875 511.933594 C 798.902344 513.0625 796.671875 515.476562 796.820312 518.25 C 796.929688 520.308594 798.359375 522.132812 800.140625 523.164062 C 801.917969 524.191406 804.007812 524.53125 806.058594 524.648438 C 808.628906 524.792969 811.433594 524.523438 813.34375 522.785156 C 814.570312 521.671875 815.261719 520.09375 816.195312 518.722656 C 817.871094 516.261719 820.417969 514.417969 823.269531 513.59375 C 824.945312 513.113281 827.503906 512.636719 827.558594 510.417969 C 827.613281 508.199219 824.636719 506.632812 822.792969 506.230469 C 821.058594 505.847656 819.503906 506.476562 817.929688 507.160156 C 815.511719 508.210938 813.132812 509.230469 810.558594 509.839844 C 807.523438 510.558594 804.300781 510.644531 801.421875 511.933594 Z M 801.421875 511.933594 "/>
<path style=" stroke:none;fill-rule:nonzero;fill:url(#linear0);" d="M 674.777344 97.785156 L 437.53125 97.785156 L 437.53125 102.484375 L 674.777344 102.484375 Z M 674.777344 97.785156 "/>
<path style=" stroke:none;fill-rule:nonzero;fill:url(#linear1);" d="M 702.808594 107.148438 L 465.5625 107.148438 L 465.5625 111.851562 L 702.808594 111.851562 Z M 702.808594 107.148438 "/>
<path style=" stroke:none;fill-rule:nonzero;fill:url(#linear2);" d="M 509.140625 463.308594 L 271.890625 463.308594 L 271.890625 468.007812 L 509.140625 468.007812 Z M 509.140625 463.308594 "/>
<path style=" stroke:none;fill-rule:nonzero;fill:url(#linear3);" d="M 537.171875 472.671875 L 299.925781 472.671875 L 299.925781 477.371094 L 537.171875 477.371094 Z M 537.171875 472.671875 "/>
<path style=" stroke:none;fill-rule:nonzero;fill:url(#linear4);" d="M 705.902344 209.390625 L 468.65625 209.390625 L 468.65625 214.089844 L 705.902344 214.089844 Z M 705.902344 209.390625 "/>
<path style=" stroke:none;fill-rule:nonzero;fill:url(#linear5);" d="M 807.378906 200.097656 L 481.804688 200.097656 L 481.804688 204.800781 L 807.378906 204.800781 Z M 807.378906 200.097656 "/>
<path style=" stroke:none;fill-rule:nonzero;fill:url(#linear6);" d="M 771.023438 189.832031 L 445.449219 189.832031 L 445.449219 194.535156 L 771.023438 194.535156 Z M 771.023438 189.832031 "/>
<path style=" stroke:none;fill-rule:nonzero;fill:url(#linear7);" d="M 539.699219 320.40625 L 302.453125 320.40625 L 302.453125 325.109375 L 539.699219 325.109375 Z M 539.699219 320.40625 "/>
<path style=" stroke:none;fill-rule:nonzero;fill:url(#linear8);" d="M 641.175781 311.117188 L 315.597656 311.117188 L 315.597656 315.816406 L 641.175781 315.816406 Z M 641.175781 311.117188 "/>
<path style=" stroke:none;fill-rule:nonzero;fill:url(#linear9);" d="M 604.820312 300.847656 L 279.246094 300.847656 L 279.246094 305.550781 L 604.820312 305.550781 Z M 604.820312 300.847656 "/>
<path style=" stroke:none;fill-rule:nonzero;fill:url(#linear10);" d="M 914.097656 461.378906 L 676.851562 461.378906 L 676.851562 466.082031 L 914.097656 466.082031 Z M 914.097656 461.378906 "/>
<path style=" stroke:none;fill-rule:nonzero;fill:url(#linear11);" d="M 946.617188 452.085938 L 621.042969 452.085938 L 621.042969 456.785156 L 946.617188 456.785156 Z M 946.617188 452.085938 "/>
<path style=" stroke:none;fill-rule:nonzero;fill:url(#linear12);" d="M 910.261719 441.820312 L 584.683594 441.820312 L 584.683594 446.523438 L 910.261719 446.523438 Z M 910.261719 441.820312 "/>
</g>
</svg>
