<svg width="22" height="32" viewBox="0 0 22 32" fill="none" xmlns="http://www.w3.org/2000/svg">
<path d="M11 11.9999V15.9999L13 17.9999M17.0133 23.1333L16.5467 28.2399C16.4866 28.9048 16.1793 29.5229 15.6856 29.9722C15.1918 30.4215 14.5476 30.6693 13.88 30.6666H8.10666C7.4391 30.6693 6.7948 30.4215 6.30106 29.9722C5.80733 29.5229 5.50007 28.9048 5.43999 28.2399L4.97332 23.1333M4.98666 8.86661L5.45332 3.75994C5.5132 3.09738 5.81856 2.48112 6.30948 2.03214C6.80039 1.58317 7.44139 1.3339 8.10666 1.33327H13.9067C14.5742 1.33057 15.2185 1.57834 15.7123 2.02764C16.206 2.47694 16.5132 3.09508 16.5733 3.75994L17.04 8.86661M20.3333 15.9999C20.3333 21.1546 16.1546 25.3333 11 25.3333C5.84533 25.3333 1.66666 21.1546 1.66666 15.9999C1.66666 10.8453 5.84533 6.66661 11 6.66661C16.1546 6.66661 20.3333 10.8453 20.3333 15.9999Z" stroke="white" stroke-width="3" stroke-linecap="round" stroke-linejoin="round"/>
</svg>
