<svg width="420" height="809" viewBox="0 0 420 809" fill="none" xmlns="http://www.w3.org/2000/svg">
<g clip-path="url(#clip0_931_3798)">
<path opacity="0.93" d="M420 0L391.65 30.7215" stroke="white" stroke-width="3.5"/>
<path opacity="0.1" d="M420 61.443L391.65 30.7215" stroke="white" stroke-width="3.5"/>
<path opacity="0.65" d="M420 61.443L391.65 92.1646" stroke="white" stroke-width="3.5"/>
<path opacity="0.24" d="M420 92.1646L391.65 122.886" stroke="white" stroke-width="3.5"/>
<path opacity="0.55" d="M420 122.886L391.65 153.608" stroke="white" stroke-width="3.5"/>
<path opacity="0.45" d="M420 184.329L391.65 153.608" stroke="white" stroke-width="3.5"/>
<path opacity="0.88" d="M420 184.329L391.65 215.051" stroke="white" stroke-width="3.5"/>
<path opacity="0.58" d="M420 245.772L391.65 215.051" stroke="white" stroke-width="3.5"/>
<path opacity="0.17" d="M420 245.772L391.65 276.494" stroke="white" stroke-width="3.5"/>
<path opacity="0.13" d="M420 276.494L391.65 307.215" stroke="white" stroke-width="3.5"/>
<path d="M420 337.937L391.65 307.215" stroke="white" stroke-width="3.5"/>
<path opacity="0.54" d="M420 337.937L391.65 368.658" stroke="white" stroke-width="3.5"/>
<path opacity="0.7" d="M420 368.658L391.65 399.38" stroke="white" stroke-width="3.5"/>
<path opacity="0.25" d="M420 399.38L391.65 430.101" stroke="white" stroke-width="3.5"/>
<path opacity="0.9" d="M420 460.823L391.65 430.101" stroke="white" stroke-width="3.5"/>
<path opacity="0.77" d="M420 460.823L391.65 491.544" stroke="white" stroke-width="3.5"/>
<path opacity="0.89" d="M420 491.544L391.65 522.266" stroke="white" stroke-width="3.5"/>
<path opacity="0.13" d="M420 552.987L391.65 522.266" stroke="white" stroke-width="3.5"/>
<path opacity="0.34" d="M420 583.709L391.65 552.987" stroke="white" stroke-width="3.5"/>
<path opacity="0.13" d="M420 614.43L391.65 583.709" stroke="white" stroke-width="3.5"/>
<path opacity="0.36" d="M420 645.152L391.65 614.43" stroke="white" stroke-width="3.5"/>
<path opacity="0.99" d="M420 675.873L391.65 645.152" stroke="white" stroke-width="3.5"/>
<path opacity="0.52" d="M420 675.873L391.65 706.595" stroke="white" stroke-width="3.5"/>
<path opacity="0.23" d="M420 737.316L391.65 706.595" stroke="white" stroke-width="3.5"/>
<path opacity="0.36" d="M420 768.038L391.65 737.316" stroke="white" stroke-width="3.5"/>
<path opacity="0.68" d="M420 798.76L391.65 768.038" stroke="white" stroke-width="3.5"/>
<path opacity="0.84" d="M420 798.759L391.65 829.481" stroke="white" stroke-width="3.5"/>
<path opacity="0.74" d="M391.65 30.7215L363.3 -1.23922e-06" stroke="white" stroke-width="3.5"/>
<path opacity="0.32" d="M391.65 30.7215L363.3 61.443" stroke="white" stroke-width="3.5"/>
<path opacity="0.84" d="M391.65 92.1645L363.3 61.443" stroke="white" stroke-width="3.5"/>
<path opacity="0.22" d="M391.65 122.886L363.3 92.1645" stroke="white" stroke-width="3.5"/>
<path opacity="0.8" d="M391.65 122.886L363.3 153.608" stroke="white" stroke-width="3.5"/>
<path opacity="0.82" d="M391.65 153.608L363.3 184.329" stroke="white" stroke-width="3.5"/>
<path opacity="0.07" d="M391.65 184.329L363.3 215.051" stroke="white" stroke-width="3.5"/>
<path opacity="0.58" d="M391.65 215.051L363.3 245.772" stroke="white" stroke-width="3.5"/>
<path opacity="0.67" d="M391.65 276.494L363.3 245.772" stroke="white" stroke-width="3.5"/>
<path opacity="0.94" d="M391.65 307.215L363.3 276.494" stroke="white" stroke-width="3.5"/>
<path opacity="0.76" d="M391.65 307.215L363.3 337.937" stroke="white" stroke-width="3.5"/>
<path opacity="0.1" d="M391.65 368.658L363.3 337.937" stroke="white" stroke-width="3.5"/>
<path opacity="0.54" d="M391.65 399.38L363.3 368.658" stroke="white" stroke-width="3.5"/>
<path opacity="0.99" d="M391.65 399.38L363.3 430.101" stroke="white" stroke-width="3.5"/>
<path opacity="0.6" d="M391.65 460.823L363.3 430.101" stroke="white" stroke-width="3.5"/>
<path opacity="0.85" d="M391.65 460.823L363.3 491.544" stroke="white" stroke-width="3.5"/>
<path opacity="0.33" d="M391.65 522.266L363.3 491.544" stroke="white" stroke-width="3.5"/>
<path d="M391.65 522.266L363.3 552.987" stroke="white" stroke-width="3.5"/>
<path opacity="0.11" d="M391.65 552.987L363.3 583.709" stroke="white" stroke-width="3.5"/>
<path opacity="0.4" d="M391.65 614.43L363.3 583.709" stroke="white" stroke-width="3.5"/>
<path opacity="0.86" d="M391.65 645.152L363.3 614.43" stroke="white" stroke-width="3.5"/>
<path opacity="0.71" d="M391.65 645.152L363.3 675.873" stroke="white" stroke-width="3.5"/>
<path opacity="0.55" d="M391.65 675.873L363.3 706.595" stroke="white" stroke-width="3.5"/>
<path opacity="0.57" d="M391.65 706.595L363.3 737.316" stroke="white" stroke-width="3.5"/>
<path opacity="0.68" d="M391.65 737.316L363.3 768.038" stroke="white" stroke-width="3.5"/>
<path opacity="0.43" d="M391.65 768.038L363.3 798.76" stroke="white" stroke-width="3.5"/>
<path opacity="0.29" d="M391.65 798.759L363.3 829.481" stroke="white" stroke-width="3.5"/>
<path opacity="0.79" d="M363.3 30.7215L334.95 -5.05392e-06" stroke="white" stroke-width="3.5"/>
<path opacity="0.14" d="M363.3 61.443L334.95 30.7215" stroke="white" stroke-width="3.5"/>
<path opacity="0.75" d="M363.3 92.1645L334.95 61.443" stroke="white" stroke-width="3.5"/>
<path opacity="0.1" d="M363.3 92.1646L334.95 122.886" stroke="white" stroke-width="3.5"/>
<path opacity="0.68" d="M363.3 153.608L334.95 122.886" stroke="white" stroke-width="3.5"/>
<path opacity="0.33" d="M363.3 153.608L334.95 184.329" stroke="white" stroke-width="3.5"/>
<path opacity="0.6" d="M363.3 184.329L334.95 215.051" stroke="white" stroke-width="3.5"/>
<path opacity="0.13" d="M363.3 245.772L334.95 215.051" stroke="white" stroke-width="3.5"/>
<path opacity="0.72" d="M363.3 245.772L334.95 276.494" stroke="white" stroke-width="3.5"/>
<path opacity="0.61" d="M363.3 307.215L334.95 276.494" stroke="white" stroke-width="3.5"/>
<path opacity="0.68" d="M363.3 307.215L334.95 337.937" stroke="white" stroke-width="3.5"/>
<path opacity="0.89" d="M363.3 337.937L334.95 368.658" stroke="white" stroke-width="3.5"/>
<path opacity="0.25" d="M363.3 399.38L334.95 368.658" stroke="white" stroke-width="3.5"/>
<path opacity="0.47" d="M363.3 430.101L334.95 399.38" stroke="white" stroke-width="3.5"/>
<path opacity="0.17" d="M363.3 430.101L334.95 460.823" stroke="white" stroke-width="3.5"/>
<path opacity="0.21" d="M363.3 491.544L334.95 460.823" stroke="white" stroke-width="3.5"/>
<path opacity="0.13" d="M363.3 522.266L334.95 491.544" stroke="white" stroke-width="3.5"/>
<path opacity="0.2" d="M363.3 522.266L334.95 552.987" stroke="white" stroke-width="3.5"/>
<path opacity="0.84" d="M363.3 583.709L334.95 552.987" stroke="white" stroke-width="3.5"/>
<path opacity="0.2" d="M363.3 583.709L334.95 614.43" stroke="white" stroke-width="3.5"/>
<path opacity="0.86" d="M363.3 614.43L334.95 645.152" stroke="white" stroke-width="3.5"/>
<path opacity="0.79" d="M363.3 675.873L334.95 645.152" stroke="white" stroke-width="3.5"/>
<path opacity="0.14" d="M363.3 706.595L334.95 675.873" stroke="white" stroke-width="3.5"/>
<path opacity="0.46" d="M363.3 737.316L334.95 706.595" stroke="white" stroke-width="3.5"/>
<path opacity="0.74" d="M363.3 768.038L334.95 737.316" stroke="white" stroke-width="3.5"/>
<path opacity="0.44" d="M363.3 798.76L334.95 768.038" stroke="white" stroke-width="3.5"/>
<path opacity="0.25" d="M363.3 829.481L334.95 798.759" stroke="white" stroke-width="3.5"/>
<path opacity="0.86" d="M334.95 -3.8147e-06L306.6 30.7215" stroke="white" stroke-width="3.5"/>
<path opacity="0.9" d="M334.95 30.7215L306.6 61.443" stroke="white" stroke-width="3.5"/>
<path opacity="0.35" d="M334.95 92.1645L306.6 61.443" stroke="white" stroke-width="3.5"/>
<path opacity="0.89" d="M334.95 122.886L306.6 92.1645" stroke="white" stroke-width="3.5"/>
<path opacity="0.92" d="M334.95 153.608L306.6 122.886" stroke="white" stroke-width="3.5"/>
<path opacity="0.51" d="M334.95 184.329L306.6 153.608" stroke="white" stroke-width="3.5"/>
<path opacity="0.87" d="M334.95 215.051L306.6 184.329" stroke="white" stroke-width="3.5"/>
<path opacity="0.29" d="M334.95 215.051L306.6 245.772" stroke="white" stroke-width="3.5"/>
<path opacity="0.7" d="M334.95 276.494L306.6 245.772" stroke="white" stroke-width="3.5"/>
<path opacity="0.73" d="M334.95 276.494L306.6 307.215" stroke="white" stroke-width="3.5"/>
<path opacity="0.43" d="M334.95 337.937L306.6 307.215" stroke="white" stroke-width="3.5"/>
<path opacity="0.21" d="M334.95 368.658L306.6 337.937" stroke="white" stroke-width="3.5"/>
<path opacity="0.87" d="M334.95 368.658L306.6 399.38" stroke="white" stroke-width="3.5"/>
<path opacity="0.78" d="M334.95 430.101L306.6 399.38" stroke="white" stroke-width="3.5"/>
<path opacity="0.4" d="M334.95 460.823L306.6 430.101" stroke="white" stroke-width="3.5"/>
<path opacity="0.26" d="M334.95 491.544L306.6 460.823" stroke="white" stroke-width="3.5"/>
<path opacity="0.31" d="M334.95 522.266L306.6 491.544" stroke="white" stroke-width="3.5"/>
<path opacity="0.37" d="M334.95 552.987L306.6 522.266" stroke="white" stroke-width="3.5"/>
<path opacity="0.93" d="M334.95 583.709L306.6 552.987" stroke="white" stroke-width="3.5"/>
<path opacity="0.55" d="M334.95 583.709L306.6 614.43" stroke="white" stroke-width="3.5"/>
<path opacity="0.89" d="M334.95 614.43L306.6 645.152" stroke="white" stroke-width="3.5"/>
<path opacity="0.72" d="M334.95 645.152L306.6 675.873" stroke="white" stroke-width="3.5"/>
<path opacity="0.34" d="M334.95 706.595L306.6 675.873" stroke="white" stroke-width="3.5"/>
<path opacity="0.81" d="M334.95 737.316L306.6 706.595" stroke="white" stroke-width="3.5"/>
<path opacity="0.61" d="M334.95 737.316L306.6 768.038" stroke="white" stroke-width="3.5"/>
<path opacity="0.94" d="M334.95 768.038L306.6 798.76" stroke="white" stroke-width="3.5"/>
<path opacity="0.68" d="M334.95 829.481L306.6 798.759" stroke="white" stroke-width="3.5"/>
<path opacity="0.58" d="M306.6 30.7215L278.25 -5.05392e-06" stroke="white" stroke-width="3.5"/>
<path opacity="0.22" d="M306.6 30.7215L278.25 61.443" stroke="white" stroke-width="3.5"/>
<path opacity="0.44" d="M306.6 92.1645L278.25 61.443" stroke="white" stroke-width="3.5"/>
<path opacity="0.25" d="M306.6 122.886L278.25 92.1645" stroke="white" stroke-width="3.5"/>
<path opacity="0.93" d="M306.6 122.886L278.25 153.608" stroke="white" stroke-width="3.5"/>
<path opacity="0.08" d="M306.6 184.329L278.25 153.608" stroke="white" stroke-width="3.5"/>
<path opacity="0.4" d="M306.6 184.329L278.25 215.051" stroke="white" stroke-width="3.5"/>
<path opacity="0.11" d="M306.6 215.051L278.25 245.772" stroke="white" stroke-width="3.5"/>
<path opacity="0.35" d="M306.6 245.772L278.25 276.494" stroke="white" stroke-width="3.5"/>
<path opacity="0.99" d="M306.6 276.494L278.25 307.215" stroke="white" stroke-width="3.5"/>
<path opacity="0.71" d="M306.6 307.215L278.25 337.937" stroke="white" stroke-width="3.5"/>
<path opacity="0.8" d="M306.6 368.658L278.25 337.937" stroke="white" stroke-width="3.5"/>
<path opacity="0.59" d="M306.6 399.38L278.25 368.658" stroke="white" stroke-width="3.5"/>
<path opacity="0.7" d="M306.6 399.38L278.25 430.101" stroke="white" stroke-width="3.5"/>
<path opacity="0.84" d="M306.6 430.101L278.25 460.823" stroke="white" stroke-width="3.5"/>
<path opacity="0.55" d="M306.6 460.823L278.25 491.544" stroke="white" stroke-width="3.5"/>
<path opacity="0.21" d="M306.6 522.266L278.25 491.544" stroke="white" stroke-width="3.5"/>
<path opacity="0.37" d="M306.6 552.987L278.25 522.266" stroke="white" stroke-width="3.5"/>
<path opacity="0.4" d="M306.6 552.987L278.25 583.709" stroke="white" stroke-width="3.5"/>
<path opacity="0.86" d="M306.6 583.709L278.25 614.43" stroke="white" stroke-width="3.5"/>
<path opacity="0.92" d="M306.6 614.43L278.25 645.152" stroke="white" stroke-width="3.5"/>
<path opacity="0.3" d="M306.6 675.873L278.25 645.152" stroke="white" stroke-width="3.5"/>
<path opacity="0.93" d="M306.6 675.873L278.25 706.595" stroke="white" stroke-width="3.5"/>
<path opacity="0.12" d="M306.6 737.316L278.25 706.595" stroke="white" stroke-width="3.5"/>
<path opacity="0.27" d="M306.6 737.316L278.25 768.038" stroke="white" stroke-width="3.5"/>
<path opacity="0.95" d="M306.6 798.76L278.25 768.038" stroke="white" stroke-width="3.5"/>
<path opacity="0.79" d="M306.6 798.759L278.25 829.481" stroke="white" stroke-width="3.5"/>
<path opacity="0.33" d="M278.25 -7.62939e-06L249.9 30.7215" stroke="white" stroke-width="3.5"/>
<path opacity="0.34" d="M278.25 30.7215L249.9 61.443" stroke="white" stroke-width="3.5"/>
<path opacity="0.15" d="M278.25 61.443L249.9 92.1645" stroke="white" stroke-width="3.5"/>
<path opacity="0.9" d="M278.25 122.886L249.9 92.1645" stroke="white" stroke-width="3.5"/>
<path opacity="0.92" d="M278.25 122.886L249.9 153.608" stroke="white" stroke-width="3.5"/>
<path opacity="0.87" d="M278.25 153.608L249.9 184.329" stroke="white" stroke-width="3.5"/>
<path opacity="0.67" d="M278.25 215.051L249.9 184.329" stroke="white" stroke-width="3.5"/>
<path opacity="0.74" d="M278.25 215.051L249.9 245.772" stroke="white" stroke-width="3.5"/>
<path opacity="0.6" d="M278.25 245.772L249.9 276.494" stroke="white" stroke-width="3.5"/>
<path opacity="0.18" d="M278.25 307.215L249.9 276.494" stroke="white" stroke-width="3.5"/>
<path opacity="0.22" d="M278.25 337.937L249.9 307.215" stroke="white" stroke-width="3.5"/>
<path opacity="0.64" d="M278.25 368.658L249.9 337.937" stroke="white" stroke-width="3.5"/>
<path opacity="0.3" d="M278.25 399.38L249.9 368.658" stroke="white" stroke-width="3.5"/>
<path opacity="0.34" d="M278.25 399.38L249.9 430.101" stroke="white" stroke-width="3.5"/>
<path opacity="0.25" d="M278.25 430.101L249.9 460.823" stroke="white" stroke-width="3.5"/>
<path opacity="0.23" d="M278.25 491.544L249.9 460.823" stroke="white" stroke-width="3.5"/>
<path opacity="0.2" d="M278.25 491.544L249.9 522.266" stroke="white" stroke-width="3.5"/>
<path opacity="0.79" d="M278.25 552.987L249.9 522.266" stroke="white" stroke-width="3.5"/>
<path opacity="0.93" d="M278.25 583.709L249.9 552.987" stroke="white" stroke-width="3.5"/>
<path opacity="0.51" d="M278.25 583.709L249.9 614.43" stroke="white" stroke-width="3.5"/>
<path opacity="0.65" d="M278.25 614.43L249.9 645.152" stroke="white" stroke-width="3.5"/>
<path opacity="0.7" d="M278.25 645.152L249.9 675.873" stroke="white" stroke-width="3.5"/>
<path opacity="0.38" d="M278.25 675.873L249.9 706.595" stroke="white" stroke-width="3.5"/>
<path opacity="0.84" d="M278.25 706.595L249.9 737.316" stroke="white" stroke-width="3.5"/>
<path opacity="0.94" d="M278.25 768.038L249.9 737.316" stroke="white" stroke-width="3.5"/>
<path opacity="0.19" d="M278.25 798.76L249.9 768.038" stroke="white" stroke-width="3.5"/>
<path opacity="0.4" d="M278.25 798.759L249.9 829.481" stroke="white" stroke-width="3.5"/>
<path opacity="0.56" d="M249.9 30.7215L221.55 -8.86861e-06" stroke="white" stroke-width="3.5"/>
<path opacity="0.24" d="M249.9 61.443L221.55 30.7215" stroke="white" stroke-width="3.5"/>
<path opacity="0.52" d="M249.9 92.1645L221.55 61.443" stroke="white" stroke-width="3.5"/>
<path opacity="0.57" d="M249.9 122.886L221.55 92.1645" stroke="white" stroke-width="3.5"/>
<path opacity="0.92" d="M249.9 153.608L221.55 122.886" stroke="white" stroke-width="3.5"/>
<path opacity="0.92" d="M249.9 153.608L221.55 184.329" stroke="white" stroke-width="3.5"/>
<path opacity="0.24" d="M249.9 184.329L221.55 215.051" stroke="white" stroke-width="3.5"/>
<path opacity="0.11" d="M249.9 245.772L221.55 215.051" stroke="white" stroke-width="3.5"/>
<path opacity="0.89" d="M249.9 245.772L221.55 276.494" stroke="white" stroke-width="3.5"/>
<path opacity="0.21" d="M249.9 307.215L221.55 276.494" stroke="white" stroke-width="3.5"/>
<path opacity="0.95" d="M249.9 307.215L221.55 337.937" stroke="white" stroke-width="3.5"/>
<path opacity="0.4" d="M249.9 368.658L221.55 337.937" stroke="white" stroke-width="3.5"/>
<path opacity="0.91" d="M249.9 399.38L221.55 368.658" stroke="white" stroke-width="3.5"/>
<path opacity="0.4" d="M249.9 430.101L221.55 399.38" stroke="white" stroke-width="3.5"/>
<path opacity="0.58" d="M249.9 430.101L221.55 460.823" stroke="white" stroke-width="3.5"/>
<path opacity="0.24" d="M249.9 460.823L221.55 491.544" stroke="white" stroke-width="3.5"/>
<path opacity="0.19" d="M249.9 522.266L221.55 491.544" stroke="white" stroke-width="3.5"/>
<path opacity="0.34" d="M249.9 522.266L221.55 552.987" stroke="white" stroke-width="3.5"/>
<path opacity="0.49" d="M249.9 552.987L221.55 583.709" stroke="white" stroke-width="3.5"/>
<path opacity="0.8" d="M249.9 583.709L221.55 614.43" stroke="white" stroke-width="3.5"/>
<path opacity="0.22" d="M249.9 645.152L221.55 614.43" stroke="white" stroke-width="3.5"/>
<path opacity="0.11" d="M249.9 675.873L221.55 645.152" stroke="white" stroke-width="3.5"/>
<path opacity="0.55" d="M249.9 675.873L221.55 706.595" stroke="white" stroke-width="3.5"/>
<path opacity="0.4" d="M249.9 737.316L221.55 706.595" stroke="white" stroke-width="3.5"/>
<path opacity="0.09" d="M249.9 737.316L221.55 768.038" stroke="white" stroke-width="3.5"/>
<path opacity="0.91" d="M249.9 768.038L221.55 798.76" stroke="white" stroke-width="3.5"/>
<path opacity="0.82" d="M249.9 798.759L221.55 829.481" stroke="white" stroke-width="3.5"/>
<path opacity="0.84" d="M221.55 -7.62939e-06L193.2 30.7215" stroke="white" stroke-width="3.5"/>
<path opacity="0.18" d="M221.55 61.443L193.2 30.7215" stroke="white" stroke-width="3.5"/>
<path opacity="0.8" d="M221.55 92.1645L193.2 61.443" stroke="white" stroke-width="3.5"/>
<path opacity="0.59" d="M221.55 122.886L193.2 92.1645" stroke="white" stroke-width="3.5"/>
<path opacity="0.66" d="M221.55 122.886L193.2 153.608" stroke="white" stroke-width="3.5"/>
<path opacity="0.74" d="M221.55 153.608L193.2 184.329" stroke="white" stroke-width="3.5"/>
<path opacity="0.42" d="M221.55 215.051L193.2 184.329" stroke="white" stroke-width="3.5"/>
<path opacity="0.31" d="M221.55 245.772L193.2 215.051" stroke="white" stroke-width="3.5"/>
<path opacity="0.39" d="M221.55 276.494L193.2 245.772" stroke="white" stroke-width="3.5"/>
<path opacity="0.64" d="M221.55 307.215L193.2 276.494" stroke="white" stroke-width="3.5"/>
<path opacity="0.99" d="M221.55 307.215L193.2 337.937" stroke="white" stroke-width="3.5"/>
<path opacity="0.61" d="M221.55 368.658L193.2 337.937" stroke="white" stroke-width="3.5"/>
<path opacity="0.99" d="M221.55 399.38L193.2 368.658" stroke="white" stroke-width="3.5"/>
<path opacity="0.88" d="M221.55 430.101L193.2 399.38" stroke="white" stroke-width="3.5"/>
<path opacity="0.21" d="M221.55 460.823L193.2 430.101" stroke="white" stroke-width="3.5"/>
<path opacity="0.45" d="M221.55 460.823L193.2 491.544" stroke="white" stroke-width="3.5"/>
<path opacity="0.21" d="M221.55 522.266L193.2 491.544" stroke="white" stroke-width="3.5"/>
<path opacity="0.93" d="M221.55 552.987L193.2 522.266" stroke="white" stroke-width="3.5"/>
<path opacity="0.15" d="M221.55 552.987L193.2 583.709" stroke="white" stroke-width="3.5"/>
<path opacity="0.31" d="M221.55 583.709L193.2 614.43" stroke="white" stroke-width="3.5"/>
<path opacity="0.27" d="M221.55 645.152L193.2 614.43" stroke="white" stroke-width="3.5"/>
<path opacity="0.93" d="M221.55 675.873L193.2 645.152" stroke="white" stroke-width="3.5"/>
<path opacity="0.12" d="M221.55 706.595L193.2 675.873" stroke="white" stroke-width="3.5"/>
<path opacity="0.42" d="M221.55 737.316L193.2 706.595" stroke="white" stroke-width="3.5"/>
<path opacity="0.09" d="M221.55 768.038L193.2 737.316" stroke="white" stroke-width="3.5"/>
<path opacity="0.65" d="M221.55 768.038L193.2 798.76" stroke="white" stroke-width="3.5"/>
<path opacity="0.98" d="M221.55 829.481L193.2 798.759" stroke="white" stroke-width="3.5"/>
<path opacity="0.22" d="M193.2 30.7215L164.85 -1.26833e-05" stroke="white" stroke-width="3.5"/>
<path opacity="0.29" d="M193.2 30.7215L164.85 61.443" stroke="white" stroke-width="3.5"/>
<path opacity="0.99" d="M193.2 61.443L164.85 92.1645" stroke="white" stroke-width="3.5"/>
<path opacity="0.87" d="M193.2 92.1646L164.85 122.886" stroke="white" stroke-width="3.5"/>
<path opacity="0.83" d="M193.2 153.608L164.85 122.886" stroke="white" stroke-width="3.5"/>
<path opacity="0.41" d="M193.2 184.329L164.85 153.608" stroke="white" stroke-width="3.5"/>
<path opacity="0.51" d="M193.2 215.051L164.85 184.329" stroke="white" stroke-width="3.5"/>
<path opacity="0.38" d="M193.2 215.051L164.85 245.772" stroke="white" stroke-width="3.5"/>
<path opacity="0.25" d="M193.2 245.772L164.85 276.494" stroke="white" stroke-width="3.5"/>
<path opacity="0.87" d="M193.2 307.215L164.85 276.494" stroke="white" stroke-width="3.5"/>
<path opacity="0.13" d="M193.2 337.937L164.85 307.215" stroke="white" stroke-width="3.5"/>
<path opacity="0.37" d="M193.2 368.658L164.85 337.937" stroke="white" stroke-width="3.5"/>
<path opacity="0.82" d="M193.2 368.658L164.85 399.38" stroke="white" stroke-width="3.5"/>
<path opacity="0.5" d="M193.2 430.101L164.85 399.38" stroke="white" stroke-width="3.5"/>
<path opacity="0.63" d="M193.2 460.823L164.85 430.101" stroke="white" stroke-width="3.5"/>
<path d="M193.2 491.544L164.85 460.823" stroke="white" stroke-width="3.5"/>
<path opacity="0.19" d="M193.2 522.266L164.85 491.544" stroke="white" stroke-width="3.5"/>
<path opacity="0.33" d="M193.2 522.266L164.85 552.987" stroke="white" stroke-width="3.5"/>
<path opacity="0.09" d="M193.2 552.987L164.85 583.709" stroke="white" stroke-width="3.5"/>
<path opacity="0.51" d="M193.2 583.709L164.85 614.43" stroke="white" stroke-width="3.5"/>
<path opacity="0.92" d="M193.2 614.43L164.85 645.152" stroke="white" stroke-width="3.5"/>
<path opacity="0.12" d="M193.2 675.873L164.85 645.152" stroke="white" stroke-width="3.5"/>
<path opacity="0.81" d="M193.2 675.873L164.85 706.595" stroke="white" stroke-width="3.5"/>
<path opacity="0.44" d="M193.2 706.595L164.85 737.316" stroke="white" stroke-width="3.5"/>
<path opacity="0.32" d="M193.2 737.316L164.85 768.038" stroke="white" stroke-width="3.5"/>
<path opacity="0.8" d="M193.2 768.038L164.85 798.76" stroke="white" stroke-width="3.5"/>
<path opacity="0.53" d="M193.2 798.759L164.85 829.481" stroke="white" stroke-width="3.5"/>
<path opacity="0.78" d="M164.85 -1.14441e-05L136.5 30.7215" stroke="white" stroke-width="3.5"/>
<path opacity="0.17" d="M164.85 30.7215L136.5 61.443" stroke="white" stroke-width="3.5"/>
<path opacity="0.49" d="M164.85 61.443L136.5 92.1645" stroke="white" stroke-width="3.5"/>
<path opacity="0.29" d="M164.85 92.1646L136.5 122.886" stroke="white" stroke-width="3.5"/>
<path opacity="0.46" d="M164.85 122.886L136.5 153.608" stroke="white" stroke-width="3.5"/>
<path opacity="0.9" d="M164.85 184.329L136.5 153.608" stroke="white" stroke-width="3.5"/>
<path opacity="0.65" d="M164.85 184.329L136.5 215.051" stroke="white" stroke-width="3.5"/>
<path opacity="0.18" d="M164.85 215.051L136.5 245.772" stroke="white" stroke-width="3.5"/>
<path opacity="0.34" d="M164.85 245.772L136.5 276.494" stroke="white" stroke-width="3.5"/>
<path opacity="0.51" d="M164.85 307.215L136.5 276.494" stroke="white" stroke-width="3.5"/>
<path opacity="0.3" d="M164.85 307.215L136.5 337.937" stroke="white" stroke-width="3.5"/>
<path opacity="0.41" d="M164.85 368.658L136.5 337.937" stroke="white" stroke-width="3.5"/>
<path opacity="0.1" d="M164.85 399.38L136.5 368.658" stroke="white" stroke-width="3.5"/>
<path opacity="0.42" d="M164.85 399.38L136.5 430.101" stroke="white" stroke-width="3.5"/>
<path opacity="0.61" d="M164.85 430.101L136.5 460.823" stroke="white" stroke-width="3.5"/>
<path opacity="0.67" d="M164.85 491.544L136.5 460.823" stroke="white" stroke-width="3.5"/>
<path opacity="0.81" d="M164.85 522.266L136.5 491.544" stroke="white" stroke-width="3.5"/>
<path opacity="0.98" d="M164.85 552.987L136.5 522.266" stroke="white" stroke-width="3.5"/>
<path opacity="0.44" d="M164.85 552.987L136.5 583.709" stroke="white" stroke-width="3.5"/>
<path opacity="0.34" d="M164.85 583.709L136.5 614.43" stroke="white" stroke-width="3.5"/>
<path opacity="0.31" d="M164.85 645.152L136.5 614.43" stroke="white" stroke-width="3.5"/>
<path opacity="0.32" d="M164.85 675.873L136.5 645.152" stroke="white" stroke-width="3.5"/>
<path opacity="0.78" d="M164.85 706.595L136.5 675.873" stroke="white" stroke-width="3.5"/>
<path opacity="0.88" d="M164.85 706.595L136.5 737.316" stroke="white" stroke-width="3.5"/>
<path opacity="0.49" d="M164.85 737.316L136.5 768.038" stroke="white" stroke-width="3.5"/>
<path opacity="0.07" d="M164.85 768.038L136.5 798.76" stroke="white" stroke-width="3.5"/>
<path opacity="0.67" d="M164.85 829.481L136.5 798.759" stroke="white" stroke-width="3.5"/>
<path opacity="0.87" d="M136.5 30.7215L108.15 -1.26833e-05" stroke="white" stroke-width="3.5"/>
<path opacity="0.6" d="M136.5 61.443L108.15 30.7215" stroke="white" stroke-width="3.5"/>
<path opacity="0.5" d="M136.5 92.1645L108.15 61.443" stroke="white" stroke-width="3.5"/>
<path opacity="0.77" d="M136.5 92.1646L108.15 122.886" stroke="white" stroke-width="3.5"/>
<path opacity="0.76" d="M136.5 153.608L108.15 122.886" stroke="white" stroke-width="3.5"/>
<path opacity="0.71" d="M136.5 184.329L108.15 153.608" stroke="white" stroke-width="3.5"/>
<path opacity="0.78" d="M136.5 215.051L108.15 184.329" stroke="white" stroke-width="3.5"/>
<path opacity="0.25" d="M136.5 245.772L108.15 215.051" stroke="white" stroke-width="3.5"/>
<path opacity="0.89" d="M136.5 245.772L108.15 276.494" stroke="white" stroke-width="3.5"/>
<path opacity="0.5" d="M136.5 276.494L108.15 307.215" stroke="white" stroke-width="3.5"/>
<path opacity="0.99" d="M136.5 307.215L108.15 337.937" stroke="white" stroke-width="3.5"/>
<path opacity="0.94" d="M136.5 337.937L108.15 368.658" stroke="white" stroke-width="3.5"/>
<path opacity="0.34" d="M136.5 368.658L108.15 399.38" stroke="white" stroke-width="3.5"/>
<path opacity="0.94" d="M136.5 430.101L108.15 399.38" stroke="white" stroke-width="3.5"/>
<path opacity="0.95" d="M136.5 430.101L108.15 460.823" stroke="white" stroke-width="3.5"/>
<path opacity="0.97" d="M136.5 491.544L108.15 460.823" stroke="white" stroke-width="3.5"/>
<path opacity="0.64" d="M136.5 522.266L108.15 491.544" stroke="white" stroke-width="3.5"/>
<path opacity="0.12" d="M136.5 552.987L108.15 522.266" stroke="white" stroke-width="3.5"/>
<path opacity="0.86" d="M136.5 552.987L108.15 583.709" stroke="white" stroke-width="3.5"/>
<path opacity="0.85" d="M136.5 614.43L108.15 583.709" stroke="white" stroke-width="3.5"/>
<path opacity="0.24" d="M136.5 645.152L108.15 614.43" stroke="white" stroke-width="3.5"/>
<path opacity="0.75" d="M136.5 645.152L108.15 675.873" stroke="white" stroke-width="3.5"/>
<path opacity="0.59" d="M136.5 706.595L108.15 675.873" stroke="white" stroke-width="3.5"/>
<path opacity="0.62" d="M136.5 706.595L108.15 737.316" stroke="white" stroke-width="3.5"/>
<path opacity="0.42" d="M136.5 737.316L108.15 768.038" stroke="white" stroke-width="3.5"/>
<path opacity="0.84" d="M136.5 798.76L108.15 768.038" stroke="white" stroke-width="3.5"/>
<path opacity="0.3" d="M136.5 829.481L108.15 798.759" stroke="white" stroke-width="3.5"/>
<path opacity="0.98" d="M108.15 30.7215L79.7999 -1.6498e-05" stroke="white" stroke-width="3.5"/>
<path opacity="0.99" d="M108.15 30.7215L79.7999 61.443" stroke="white" stroke-width="3.5"/>
<path opacity="0.62" d="M108.15 92.1645L79.7999 61.443" stroke="white" stroke-width="3.5"/>
<path opacity="0.58" d="M108.15 92.1646L79.7999 122.886" stroke="white" stroke-width="3.5"/>
<path opacity="0.36" d="M108.15 122.886L79.7999 153.608" stroke="white" stroke-width="3.5"/>
<path opacity="0.85" d="M108.15 184.329L79.7999 153.608" stroke="white" stroke-width="3.5"/>
<path opacity="0.31" d="M108.15 215.051L79.7999 184.329" stroke="white" stroke-width="3.5"/>
<path opacity="0.85" d="M108.15 245.772L79.7999 215.051" stroke="white" stroke-width="3.5"/>
<path opacity="0.42" d="M108.15 245.772L79.7999 276.494" stroke="white" stroke-width="3.5"/>
<path opacity="0.26" d="M108.15 276.494L79.7999 307.215" stroke="white" stroke-width="3.5"/>
<path opacity="0.87" d="M108.15 337.937L79.7999 307.215" stroke="white" stroke-width="3.5"/>
<path opacity="0.97" d="M108.15 368.658L79.7999 337.937" stroke="white" stroke-width="3.5"/>
<path opacity="0.31" d="M108.15 399.38L79.7999 368.658" stroke="white" stroke-width="3.5"/>
<path opacity="0.55" d="M108.15 430.101L79.7999 399.38" stroke="white" stroke-width="3.5"/>
<path opacity="0.42" d="M108.15 460.823L79.7999 430.101" stroke="white" stroke-width="3.5"/>
<path opacity="0.78" d="M108.15 460.823L79.7999 491.544" stroke="white" stroke-width="3.5"/>
<path opacity="0.55" d="M108.15 522.266L79.7999 491.544" stroke="white" stroke-width="3.5"/>
<path opacity="0.15" d="M108.15 522.266L79.7999 552.987" stroke="white" stroke-width="3.5"/>
<path opacity="0.76" d="M108.15 583.709L79.7999 552.987" stroke="white" stroke-width="3.5"/>
<path opacity="0.74" d="M108.15 614.43L79.7999 583.709" stroke="white" stroke-width="3.5"/>
<path opacity="0.46" d="M108.15 645.152L79.7999 614.43" stroke="white" stroke-width="3.5"/>
<path opacity="0.19" d="M108.15 645.152L79.7999 675.873" stroke="white" stroke-width="3.5"/>
<path opacity="0.99" d="M108.15 675.873L79.7999 706.595" stroke="white" stroke-width="3.5"/>
<path d="M108.15 737.316L79.7999 706.595" stroke="white" stroke-width="3.5"/>
<path opacity="0.16" d="M108.15 768.038L79.7999 737.316" stroke="white" stroke-width="3.5"/>
<path opacity="0.57" d="M108.15 768.038L79.7999 798.76" stroke="white" stroke-width="3.5"/>
<path opacity="0.9" d="M108.15 798.759L79.7999 829.481" stroke="white" stroke-width="3.5"/>
<path opacity="0.08" d="M79.8 30.7215L51.4501 -1.6498e-05" stroke="white" stroke-width="3.5"/>
<path opacity="0.62" d="M79.8 30.7215L51.45 61.443" stroke="white" stroke-width="3.5"/>
<path opacity="0.74" d="M79.8 92.1645L51.4501 61.443" stroke="white" stroke-width="3.5"/>
<path opacity="0.86" d="M79.8 122.886L51.4501 92.1645" stroke="white" stroke-width="3.5"/>
<path opacity="0.89" d="M79.8 122.886L51.45 153.608" stroke="white" stroke-width="3.5"/>
<path opacity="0.88" d="M79.8 153.608L51.45 184.329" stroke="white" stroke-width="3.5"/>
<path opacity="0.54" d="M79.8 184.329L51.45 215.051" stroke="white" stroke-width="3.5"/>
<path opacity="0.28" d="M79.8 245.772L51.4501 215.051" stroke="white" stroke-width="3.5"/>
<path opacity="0.07" d="M79.8 276.494L51.4501 245.772" stroke="white" stroke-width="3.5"/>
<path opacity="0.75" d="M79.8 307.215L51.4501 276.494" stroke="white" stroke-width="3.5"/>
<path opacity="0.44" d="M79.8 307.215L51.45 337.937" stroke="white" stroke-width="3.5"/>
<path opacity="0.76" d="M79.8 337.937L51.45 368.658" stroke="white" stroke-width="3.5"/>
<path opacity="0.1" d="M79.8 399.38L51.4501 368.658" stroke="white" stroke-width="3.5"/>
<path opacity="0.68" d="M79.8 430.101L51.4501 399.38" stroke="white" stroke-width="3.5"/>
<path opacity="0.9" d="M79.8 460.823L51.4501 430.101" stroke="white" stroke-width="3.5"/>
<path opacity="0.54" d="M79.8 460.823L51.45 491.544" stroke="white" stroke-width="3.5"/>
<path opacity="0.14" d="M79.8 522.266L51.4501 491.544" stroke="white" stroke-width="3.5"/>
<path opacity="0.52" d="M79.8 522.266L51.45 552.987" stroke="white" stroke-width="3.5"/>
<path opacity="0.83" d="M79.8 583.709L51.4501 552.987" stroke="white" stroke-width="3.5"/>
<path opacity="0.18" d="M79.8 614.43L51.4501 583.709" stroke="white" stroke-width="3.5"/>
<path opacity="0.07" d="M79.8 645.152L51.4501 614.43" stroke="white" stroke-width="3.5"/>
<path opacity="0.13" d="M79.8 645.152L51.45 675.873" stroke="white" stroke-width="3.5"/>
<path opacity="0.5" d="M79.8 675.873L51.45 706.595" stroke="white" stroke-width="3.5"/>
<path opacity="0.96" d="M79.8 706.595L51.45 737.316" stroke="white" stroke-width="3.5"/>
<path opacity="0.47" d="M79.8 737.316L51.45 768.038" stroke="white" stroke-width="3.5"/>
<path opacity="0.57" d="M79.8 798.76L51.4501 768.038" stroke="white" stroke-width="3.5"/>
<path opacity="0.22" d="M79.8 829.481L51.4501 798.759" stroke="white" stroke-width="3.5"/>
<path opacity="0.87" d="M51.4499 30.7215L23.1 -1.6498e-05" stroke="white" stroke-width="3.5"/>
<path opacity="0.23" d="M51.45 30.7215L23.1 61.443" stroke="white" stroke-width="3.5"/>
<path opacity="0.58" d="M51.45 61.443L23.1 92.1645" stroke="white" stroke-width="3.5"/>
<path opacity="0.2" d="M51.45 92.1645L23.1 122.886" stroke="white" stroke-width="3.5"/>
<path opacity="0.7" d="M51.45 122.886L23.1 153.608" stroke="white" stroke-width="3.5"/>
<path opacity="0.51" d="M51.4499 184.329L23.1 153.608" stroke="white" stroke-width="3.5"/>
<path opacity="0.26" d="M51.45 184.329L23.1 215.051" stroke="white" stroke-width="3.5"/>
<path opacity="0.34" d="M51.4499 245.772L23.1 215.051" stroke="white" stroke-width="3.5"/>
<path opacity="0.9" d="M51.45 245.772L23.1 276.494" stroke="white" stroke-width="3.5"/>
<path opacity="0.32" d="M51.45 276.494L23.1 307.215" stroke="white" stroke-width="3.5"/>
<path opacity="0.84" d="M51.4499 337.937L23.1 307.215" stroke="white" stroke-width="3.5"/>
<path opacity="0.69" d="M51.4499 368.658L23.1 337.937" stroke="white" stroke-width="3.5"/>
<path opacity="0.19" d="M51.45 368.658L23.1 399.38" stroke="white" stroke-width="3.5"/>
<path opacity="0.67" d="M51.45 399.38L23.1 430.101" stroke="white" stroke-width="3.5"/>
<path opacity="0.43" d="M51.45 430.101L23.1 460.823" stroke="white" stroke-width="3.5"/>
<path opacity="0.62" d="M51.4499 491.544L23.1 460.823" stroke="white" stroke-width="3.5"/>
<path opacity="0.21" d="M51.4499 522.266L23.1 491.544" stroke="white" stroke-width="3.5"/>
<path opacity="0.49" d="M51.45 522.266L23.1 552.987" stroke="white" stroke-width="3.5"/>
<path opacity="0.13" d="M51.45 552.987L23.1 583.709" stroke="white" stroke-width="3.5"/>
<path opacity="0.93" d="M51.45 583.709L23.1 614.43" stroke="white" stroke-width="3.5"/>
<path opacity="0.18" d="M51.45 614.43L23.1 645.152" stroke="white" stroke-width="3.5"/>
<path opacity="0.41" d="M51.45 645.152L23.1 675.873" stroke="white" stroke-width="3.5"/>
<path opacity="0.25" d="M51.45 675.873L23.1 706.595" stroke="white" stroke-width="3.5"/>
<path opacity="0.74" d="M51.4499 737.316L23.1 706.595" stroke="white" stroke-width="3.5"/>
<path opacity="0.44" d="M51.4499 768.038L23.1 737.316" stroke="white" stroke-width="3.5"/>
<path opacity="0.56" d="M51.45 768.038L23.1 798.76" stroke="white" stroke-width="3.5"/>
<path opacity="0.72" d="M51.4499 829.481L23.1 798.759" stroke="white" stroke-width="3.5"/>
<path opacity="0.83" d="M23.1001 -1.90735e-05L-5.2499 30.7215" stroke="white" stroke-width="3.5"/>
<path opacity="0.83" d="M23.1001 61.443L-5.2499 30.7215" stroke="white" stroke-width="3.5"/>
<path opacity="0.5" d="M23.1001 92.1645L-5.2499 61.443" stroke="white" stroke-width="3.5"/>
<path opacity="0.42" d="M23.1001 92.1645L-5.2499 122.886" stroke="white" stroke-width="3.5"/>
<path opacity="0.52" d="M23.1001 153.608L-5.2499 122.886" stroke="white" stroke-width="3.5"/>
<path opacity="0.83" d="M23.1001 153.608L-5.2499 184.329" stroke="white" stroke-width="3.5"/>
<path opacity="0.77" d="M23.1001 215.051L-5.2499 184.329" stroke="white" stroke-width="3.5"/>
<path opacity="0.61" d="M23.1001 215.051L-5.2499 245.772" stroke="white" stroke-width="3.5"/>
<path opacity="0.95" d="M23.1001 276.494L-5.2499 245.772" stroke="white" stroke-width="3.5"/>
<path opacity="0.72" d="M23.1001 307.215L-5.2499 276.494" stroke="white" stroke-width="3.5"/>
<path opacity="0.73" d="M23.1001 307.215L-5.2499 337.937" stroke="white" stroke-width="3.5"/>
<path opacity="0.73" d="M23.1001 337.937L-5.2499 368.658" stroke="white" stroke-width="3.5"/>
<path opacity="0.62" d="M23.1001 399.38L-5.2499 368.658" stroke="white" stroke-width="3.5"/>
<path opacity="0.53" d="M23.1001 399.38L-5.2499 430.101" stroke="white" stroke-width="3.5"/>
<path opacity="0.45" d="M23.1001 430.101L-5.2499 460.823" stroke="white" stroke-width="3.5"/>
<path opacity="0.16" d="M23.1001 460.823L-5.2499 491.544" stroke="white" stroke-width="3.5"/>
<path opacity="0.64" d="M23.1001 491.544L-5.2499 522.266" stroke="white" stroke-width="3.5"/>
<path opacity="0.76" d="M23.1001 552.987L-5.2499 522.266" stroke="white" stroke-width="3.5"/>
<path opacity="0.21" d="M23.1001 552.987L-5.2499 583.709" stroke="white" stroke-width="3.5"/>
<path opacity="0.42" d="M23.1001 614.43L-5.2499 583.709" stroke="white" stroke-width="3.5"/>
<path opacity="0.75" d="M23.1001 645.152L-5.2499 614.43" stroke="white" stroke-width="3.5"/>
<path opacity="0.55" d="M23.1001 645.152L-5.2499 675.873" stroke="white" stroke-width="3.5"/>
<path opacity="0.1" d="M23.1001 675.873L-5.2499 706.595" stroke="white" stroke-width="3.5"/>
<path opacity="0.45" d="M23.1001 706.595L-5.2499 737.316" stroke="white" stroke-width="3.5"/>
<path opacity="0.77" d="M23.1001 768.038L-5.2499 737.316" stroke="white" stroke-width="3.5"/>
<path opacity="0.9" d="M23.1001 768.038L-5.2499 798.76" stroke="white" stroke-width="3.5"/>
<path opacity="0.26" d="M23.1001 829.481L-5.2499 798.759" stroke="white" stroke-width="3.5"/>
</g>
<defs>
<clipPath id="clip0_931_3798">
<rect x="420" width="809" height="420" rx="22" transform="rotate(90 420 0)" fill="white"/>
</clipPath>
</defs>
</svg>
