<svg width="30" height="30" viewBox="0 0 30 30" fill="none" xmlns="http://www.w3.org/2000/svg">
<path d="M20.3333 9.66665V16.3333C20.3333 17.3942 20.7548 18.4116 21.5049 19.1617C22.2551 19.9119 23.2725 20.3333 24.3333 20.3333C25.3942 20.3333 26.4116 19.9119 27.1618 19.1617C27.9119 18.4116 28.3333 17.3942 28.3333 16.3333V15C28.3332 11.9907 27.315 9.06996 25.4444 6.7127C23.5738 4.35543 20.9607 2.70029 18.0302 2.01638C15.0996 1.33248 12.0239 1.66004 9.30313 2.94581C6.58235 4.23158 4.37653 6.39993 3.04435 9.09828C1.71216 11.7966 1.33196 14.8663 1.96556 17.8081C2.59916 20.75 4.2093 23.391 6.53418 25.3017C8.85905 27.2124 11.7619 28.2805 14.7708 28.3322C17.7796 28.3839 20.7175 27.4163 23.1067 25.5867M20.3333 15C20.3333 17.9455 17.9455 20.3333 15 20.3333C12.0545 20.3333 9.66667 17.9455 9.66667 15C9.66667 12.0545 12.0545 9.66665 15 9.66665C17.9455 9.66665 20.3333 12.0545 20.3333 15Z" stroke="white" stroke-width="3" stroke-linecap="round" stroke-linejoin="round"/>
</svg>
