<svg width="96" height="96" viewBox="0 0 96 96" fill="none" xmlns="http://www.w3.org/2000/svg">
<path d="M48.3623 23.2363C34.4899 23.2363 23.2446 34.5342 23.2446 48.4714C23.2446 62.4086 34.4899 73.7065 48.3623 73.7065C62.2347 73.7065 73.48 62.4086 73.48 48.4714C73.48 34.5342 62.2344 23.2363 48.3623 23.2363ZM69.914 54.1267L66.0711 53.9317L65.8811 54.7405L70.161 57.5357L65.1485 56.4297L64.7978 57.1627L67.469 59.9047L63.9199 58.6572L63.7142 58.8878L66.1184 61.9827L62.6426 60.3255L62.1588 60.9993L65.0479 65.226L60.8388 62.2773L60.236 62.8196L61.6593 66.3807L58.8562 63.8637L58.5776 63.9976L59.6201 67.7813L57.04 64.9128L56.3363 65.3495L57.396 70.3654L54.6305 66.0233L53.8663 66.2922L53.8252 70.1294L52.1939 66.7259L51.8864 66.7426L51.408 70.6388L50.1172 66.998L49.2997 67.1305L48.3683 72.1719L47.4675 67.0973L46.6589 67.0513L45.1597 70.581L44.9484 66.8096L44.6572 66.7067L42.7318 70.122L42.9262 66.262L42.1194 66.0706L39.3393 70.3702L40.4393 65.3357L39.7105 64.9828L36.9813 67.6671L38.2221 64.1011L37.9922 63.8954L34.9126 66.309L36.5624 62.8187L35.8908 62.3309L31.6845 65.2344L34.6182 61.0062L34.0788 60.3994L30.536 61.8302L33.0402 59.0128L32.9065 58.7338L29.1413 59.7809L31.9959 57.1899L31.5609 56.4802L26.5681 57.5461L30.8887 54.7677L30.6232 53.9996L26.8041 53.9598L30.1907 52.3194L30.1731 52.0104L26.2963 51.5298L29.9198 50.2342L29.7882 49.4114L24.77 48.4762L29.82 47.5709L29.8668 46.7591L26.3543 45.2536L30.1073 45.0406L30.2091 44.7481L26.811 42.8136L30.6521 43.0081L30.8435 42.1981L26.5633 39.4053L31.574 40.5101L31.9259 39.7789L29.2547 37.0366L32.8035 38.2826L33.0083 38.052L30.6062 34.9577L34.0806 36.6155L34.5658 35.9404L31.6755 31.7144L35.8837 34.6616L36.4874 34.1208L35.0639 30.5611L37.8675 33.0767L38.145 32.9421L37.1039 29.16L39.6828 32.0273L40.3887 31.5903L39.328 26.5744L42.0935 30.915L42.8577 30.647L42.8982 26.8116L44.5304 30.2133L44.8376 30.1957L45.3163 26.3013L46.6062 29.9418L47.4252 29.8096L48.3558 24.7679L49.2563 29.841L50.0639 29.8876L51.5634 26.359L51.7756 30.1296L52.0659 30.2313L53.9916 26.8184L53.797 30.6775L54.6016 30.868L57.3832 26.569L56.2839 31.6043L57.0111 31.957L59.7421 29.273L58.5002 32.8387L58.7309 33.0453L61.8105 30.6281L60.1607 34.1211L60.8311 34.6068L65.0393 31.7045L62.1043 35.9339L62.6429 36.5389L66.1878 35.1102L63.6821 37.9266L63.8155 38.206L67.5821 37.1574L64.7279 39.7505L65.1625 40.4575L70.1554 39.3924L65.8323 42.1718L66.1005 42.9393L69.9187 42.9808L66.5319 44.6198L66.5494 44.9279L70.4281 45.4079L66.8028 46.7062L66.935 47.526L71.9537 48.4624L66.9001 49.3677L66.8567 50.1794L70.3691 51.6859L66.6149 51.8986L66.5134 52.1908L69.914 54.1267Z" fill="white"/>
<path d="M48.3581 54.8643C51.8722 54.8643 54.7209 52.0022 54.7209 48.4717C54.7209 44.9412 51.8722 42.0791 48.3581 42.0791C44.844 42.0791 41.9952 44.9412 41.9952 48.4717C41.9952 52.0022 44.844 54.8643 48.3581 54.8643Z" stroke="white"/>
<path d="M76.9186 48.4713C76.9186 64.3164 64.1345 77.1601 48.3631 77.1601C32.5912 77.1601 19.8071 64.3167 19.8071 48.4713C19.8071 32.6268 32.5906 19.7827 48.3631 19.7827C64.1339 19.7827 76.9186 32.6271 76.9186 48.4713Z" stroke="white"/>
<path d="M12.2744 56.4461C12.2185 56.4772 12.1726 56.496 12.1363 56.5026C12.1003 56.5095 12.0705 56.5041 12.0488 56.4853C12.0267 56.4664 12.0086 56.432 11.9955 56.383C11.9821 56.3339 11.9693 56.267 11.9562 56.1832C11.9434 56.0998 11.9351 56.0322 11.9312 55.9816C11.927 55.9305 11.9279 55.8916 11.9336 55.8644C11.9395 55.8372 11.9493 55.8162 11.9633 55.8016C11.9776 55.7863 11.9958 55.7717 12.0187 55.7579L13.2211 55.1077L12.8817 52.9244L11.5591 52.6911C11.5335 52.6866 11.5109 52.6795 11.4909 52.6687C11.4719 52.6582 11.4537 52.6403 11.4373 52.6167C11.4212 52.5933 11.4064 52.558 11.3939 52.5111C11.3811 52.4644 11.3692 52.4037 11.3572 52.3277C11.345 52.2494 11.3388 52.1845 11.3379 52.1339C11.3367 52.0828 11.3441 52.0457 11.3596 52.0224C11.3757 51.999 11.4016 51.9853 11.4382 51.9805C11.4748 51.976 11.5242 51.9802 11.5871 51.9928L16.716 52.9926C16.7469 52.9989 16.7734 53.0096 16.7958 53.0237C16.8172 53.0381 16.8359 53.0617 16.8517 53.0934C16.8675 53.1251 16.8824 53.1676 16.8946 53.2199C16.9068 53.2722 16.9193 53.3383 16.9315 53.42C16.9452 53.5061 16.9544 53.5782 16.9595 53.6362C16.9643 53.693 16.964 53.7412 16.9586 53.778C16.9526 53.8148 16.9419 53.8447 16.925 53.8665C16.9074 53.8884 16.8854 53.9078 16.8571 53.9227L12.2744 56.4461ZM16.2084 53.5139L16.2078 53.5097L13.4622 53.0132L13.7456 54.8391L16.2084 53.5139Z" fill="white"/>
<path d="M16.1929 60.9341C15.7562 61.0725 15.3567 61.1368 14.9959 61.1273C14.6345 61.1186 14.313 61.0396 14.0311 60.8922C13.7495 60.7444 13.5057 60.5309 13.3014 60.2504C13.0966 59.9704 12.926 59.6139 12.7906 59.1805L12.4545 58.1068C12.436 58.0467 12.4375 57.9836 12.4611 57.9169C12.4849 57.8502 12.5474 57.8015 12.6486 57.7698L17.1491 56.3479C17.2503 56.3162 17.3292 56.3201 17.3866 56.3614C17.4435 56.4024 17.4816 56.4526 17.5007 56.5127L17.86 57.6609C17.9972 58.0997 18.0565 58.4888 18.0389 58.8267C18.0204 59.1656 17.9374 59.4703 17.79 59.7425C17.6421 60.0147 17.434 60.2513 17.1655 60.4522C16.8964 60.6538 16.5725 60.8144 16.1929 60.9341ZM15.9434 60.2339C16.2167 60.1475 16.4599 60.0335 16.674 59.8912C16.888 59.7488 17.058 59.5783 17.1845 59.3791C17.3104 59.1799 17.3869 58.9541 17.414 58.7014C17.4405 58.4484 17.3992 58.1472 17.2899 57.7979L17.075 57.1121L13.1478 58.3521L13.3648 59.0453C13.4661 59.369 13.5923 59.6295 13.7423 59.826C13.8926 60.0222 14.0736 60.1687 14.2874 60.2653C14.5002 60.3616 14.7435 60.4077 15.0176 60.4026C15.2918 60.3984 15.6005 60.3422 15.9434 60.2339Z" fill="white"/>
<path d="M15.2207 65.0185C15.1894 65.0218 15.1608 65.0188 15.1349 65.0104C15.1093 65.0014 15.0843 64.9838 15.0596 64.9575C15.0352 64.9314 15.0096 64.8953 14.9828 64.8495C14.956 64.8031 14.9259 64.7439 14.8908 64.6724C14.8649 64.618 14.8423 64.5702 14.8238 64.5292C14.8054 64.4876 14.7923 64.4511 14.7825 64.4197C14.7729 64.388 14.7661 64.3596 14.7628 64.336C14.7586 64.3123 14.758 64.2905 14.761 64.2705C14.7637 64.2513 14.7696 64.2337 14.7795 64.2181C14.789 64.2029 14.8015 64.187 14.8176 64.1703L18.492 60.4602C18.536 60.4147 18.5747 60.3824 18.6075 60.366C18.6399 60.348 18.67 60.3471 18.6986 60.3603C18.7263 60.3746 18.7545 60.4039 18.7834 60.4518C18.812 60.4984 18.8462 60.5639 18.8867 60.6474C18.9198 60.7162 18.9445 60.7724 18.9602 60.8155C18.9766 60.8582 18.9847 60.8926 18.9853 60.9199C18.9858 60.9468 18.9808 60.9695 18.9707 60.9883C18.9599 61.0069 18.9448 61.0275 18.9248 61.0494L15.5743 64.3656L15.5761 64.3698L20.2204 63.765C20.2513 63.759 20.2766 63.7575 20.299 63.7587C20.3207 63.7602 20.3424 63.771 20.3645 63.7904C20.3865 63.8099 20.4094 63.8416 20.4344 63.8838C20.4594 63.9265 20.4904 63.9849 20.5252 64.0587C20.5621 64.135 20.588 64.1972 20.6035 64.2445C20.619 64.2914 20.6217 64.3273 20.6118 64.3515C20.6026 64.376 20.5806 64.3949 20.5452 64.4072C20.5103 64.4194 20.4612 64.4284 20.3978 64.4356L15.2207 65.0185Z" fill="white"/>
<path d="M18.7387 70.6448C18.7006 70.6959 18.667 70.7324 18.6366 70.7537C18.606 70.7746 18.5777 70.7821 18.5497 70.7734C18.5214 70.7659 18.492 70.7423 18.4595 70.7031C18.4271 70.6639 18.3881 70.6089 18.3416 70.5377C18.2955 70.4665 18.2601 70.4082 18.2359 70.3642C18.2118 70.32 18.1966 70.2832 18.1904 70.2572C18.1841 70.23 18.1841 70.2069 18.1916 70.1878C18.1981 70.1692 18.2094 70.1474 18.2237 70.1247L19.0522 69.0342L17.8457 67.1859L16.5451 67.5224C16.5203 67.5286 16.4965 67.531 16.4742 67.5292C16.4522 67.5275 16.429 67.5194 16.4048 67.5041C16.3801 67.4892 16.3525 67.4628 16.3221 67.4261C16.2914 67.389 16.2548 67.3381 16.2131 67.2738C16.1697 67.2071 16.1372 67.1512 16.1152 67.1057C16.0941 67.0594 16.0845 67.0229 16.0896 66.9948C16.0947 66.9673 16.1122 66.9436 16.1441 66.9251C16.1753 66.9066 16.223 66.8892 16.2849 66.8746L21.3668 65.6585C21.3977 65.6513 21.426 65.6498 21.4519 65.6537C21.4772 65.6582 21.504 65.6719 21.5323 65.6941C21.5603 65.7168 21.5897 65.7497 21.6228 65.7916C21.6555 65.834 21.6939 65.8894 21.7392 65.9588C21.7871 66.032 21.8249 66.0937 21.8529 66.1439C21.8812 66.1944 21.8996 66.2372 21.91 66.2734C21.9199 66.309 21.9222 66.341 21.9154 66.3679C21.9091 66.3951 21.8963 66.4217 21.8773 66.4475L18.7387 70.6448ZM21.1176 66.3422L21.1155 66.3383L18.4104 67.0253L19.419 68.571L21.1176 66.3422Z" fill="white"/>
<path d="M22.2977 74.6935C22.2572 74.73 22.217 74.7539 22.1759 74.7659C22.1354 74.7779 22.0955 74.7815 22.058 74.7752C22.0202 74.7692 21.9845 74.7566 21.952 74.7363C21.9196 74.7166 21.8913 74.6926 21.8666 74.6654L21.7112 74.4917C21.6624 74.4366 21.6252 74.3843 21.5996 74.3331C21.5743 74.282 21.5594 74.2249 21.5561 74.1615C21.5519 74.0981 21.5594 74.0251 21.5769 73.9428C21.5951 73.8606 21.6246 73.7622 21.6666 73.65L22.8267 70.4238C22.8856 70.2564 22.9499 70.0835 23.0193 69.9055C23.0883 69.727 23.1586 69.5565 23.2288 69.3932L23.2235 69.3869C23.0809 69.5227 22.9344 69.6603 22.7841 69.7997C22.6338 69.9387 22.4831 70.0763 22.3334 70.2115L19.9581 72.355C19.9438 72.3679 19.9265 72.3759 19.9057 72.3792C19.8849 72.3828 19.8622 72.3771 19.8363 72.3631C19.8107 72.3487 19.781 72.3275 19.7458 72.2985C19.711 72.2695 19.6705 72.23 19.6244 72.1785C19.5782 72.1268 19.5431 72.0822 19.5184 72.0443C19.4937 72.0063 19.4758 71.9752 19.466 71.9492C19.4556 71.9234 19.4535 71.9004 19.4595 71.8804C19.4654 71.86 19.4744 71.8433 19.4886 71.8304L23.1205 68.5534C23.2011 68.4801 23.28 68.4511 23.3559 68.4663C23.4313 68.4816 23.4941 68.5166 23.5429 68.5716L23.7736 68.8297C23.8284 68.8904 23.8683 68.9467 23.8951 68.9966C23.9216 69.0469 23.9382 69.0992 23.9439 69.1524C23.9501 69.2063 23.9457 69.267 23.9314 69.3343C23.9168 69.4028 23.8936 69.4814 23.8605 69.572L22.9615 72.058C22.9073 72.2108 22.8537 72.3586 22.8005 72.5019C22.7478 72.6451 22.6948 72.7857 22.6415 72.9224C22.5882 73.0596 22.5361 73.1948 22.4849 73.3279C22.434 73.461 22.3819 73.5947 22.3292 73.7275L22.3322 73.7311C22.4882 73.5824 22.6534 73.429 22.8255 73.272C22.9975 73.115 23.1645 72.9639 23.3247 72.8186L25.4597 70.8925C25.474 70.8796 25.4907 70.8725 25.5109 70.8698C25.5312 70.8671 25.5544 70.8725 25.5818 70.8847C25.6092 70.897 25.6392 70.9173 25.6735 70.9475C25.7074 70.9774 25.7488 71.0187 25.7961 71.0725C25.839 71.1198 25.8732 71.1629 25.9 71.2012C25.9265 71.2391 25.9438 71.2714 25.9527 71.2993C25.9607 71.3271 25.9625 71.3507 25.9584 71.3698C25.9542 71.389 25.9447 71.4054 25.9301 71.4183L22.2977 74.6935Z" fill="white"/>
<path d="M26.6812 77.8876C26.6532 77.9211 26.6273 77.9495 26.6047 77.9732C26.5818 77.9968 26.56 78.0162 26.5386 78.03C26.5181 78.0447 26.4963 78.0557 26.4764 78.0632C26.4561 78.0707 26.4264 78.0766 26.388 78.0805C26.3496 78.0844 26.279 78.0793 26.1763 78.0665C26.0733 78.0536 25.9554 78.0258 25.8223 77.9848C25.6887 77.9421 25.5455 77.882 25.3937 77.8033C25.241 77.7237 25.0885 77.6211 24.9355 77.4928C24.6712 77.273 24.4696 77.029 24.33 76.7637C24.1898 76.4972 24.1169 76.2155 24.1097 75.9179C24.1032 75.62 24.1639 75.3107 24.2928 74.9895C24.4217 74.6686 24.6229 74.3426 24.8962 74.0115C25.177 73.6724 25.4705 73.4068 25.7765 73.2136C26.0831 73.0204 26.3906 72.8977 26.7005 72.8451C27.0101 72.7919 27.3144 72.8086 27.6136 72.8948C27.9127 72.9806 28.1955 73.1349 28.4617 73.3568C28.5796 73.4546 28.6846 73.5614 28.7778 73.6757C28.8707 73.7908 28.9502 73.9045 29.0169 74.0169C29.0836 74.1294 29.1348 74.2379 29.172 74.3441C29.2089 74.45 29.2288 74.528 29.2342 74.5801C29.2389 74.6324 29.2395 74.6695 29.2357 74.691C29.2315 74.7123 29.2241 74.7353 29.2131 74.7595C29.2014 74.7838 29.1866 74.8113 29.1672 74.8406C29.1482 74.8711 29.1228 74.9049 29.091 74.9429C29.0565 74.9853 29.0243 75.0191 28.996 75.0452C28.9678 75.0712 28.9401 75.0903 28.9154 75.1035C28.8904 75.1163 28.8686 75.122 28.8487 75.122C28.8293 75.122 28.8109 75.1151 28.7939 75.1011C28.7641 75.0766 28.7397 75.0215 28.7216 74.9366C28.7031 74.8516 28.6724 74.7491 28.6296 74.6309C28.5876 74.5122 28.5239 74.3824 28.4382 74.2415C28.3536 74.1007 28.2274 73.961 28.061 73.8228C27.8797 73.6715 27.6844 73.5698 27.476 73.5183C27.2673 73.4672 27.0515 73.4681 26.8297 73.5213C26.608 73.5749 26.3838 73.6783 26.1575 73.8336C25.9316 73.9888 25.7107 74.1967 25.4949 74.4575C25.28 74.7165 25.1183 74.9689 25.0102 75.2141C24.9016 75.46 24.8435 75.6936 24.8376 75.9143C24.8313 76.135 24.876 76.3435 24.971 76.5382C25.0659 76.7332 25.21 76.9111 25.4011 77.0708C25.5631 77.206 25.7217 77.3044 25.8762 77.3651C26.0307 77.4261 26.1706 77.468 26.2969 77.4893C26.4237 77.5111 26.5303 77.5248 26.6184 77.5311C26.7065 77.5371 26.7657 77.5524 26.7979 77.579C26.8131 77.5915 26.8229 77.605 26.8282 77.6205C26.8339 77.6358 26.8324 77.6546 26.8235 77.6774C26.8149 77.7004 26.7991 77.7294 26.7764 77.7635C26.7526 77.7976 26.7211 77.8389 26.6812 77.8876Z" fill="white"/>
<path d="M29.9832 80.5877C29.9567 80.6295 29.9311 80.6642 29.9067 80.6926C29.8823 80.7214 29.8579 80.742 29.8335 80.7552C29.8087 80.7689 29.7861 80.7752 29.7653 80.7749C29.7444 80.7746 29.7251 80.7686 29.7069 80.7564L27.5639 79.3884C27.5112 79.3552 27.4725 79.3052 27.4481 79.2391C27.4233 79.173 27.4403 79.0953 27.4969 79.0052L30.0272 75.0047C30.0841 74.9141 30.1475 74.8668 30.2175 74.8614C30.2871 74.8555 30.3485 74.8695 30.4014 74.9039L32.5204 76.2561C32.5389 76.2677 32.552 76.2833 32.5615 76.3018C32.5704 76.3204 32.5731 76.3434 32.5686 76.3703C32.5648 76.3972 32.5555 76.4274 32.5421 76.463C32.5282 76.4977 32.5061 76.5387 32.4769 76.5845C32.4505 76.6263 32.4243 76.661 32.399 76.6885C32.3734 76.7161 32.3495 76.7367 32.3287 76.7504C32.307 76.7642 32.2855 76.7705 32.265 76.7705C32.2445 76.7699 32.2242 76.7642 32.206 76.7519L30.4601 75.637L29.57 77.0441L31.0674 78C31.0858 78.0117 31.0992 78.0278 31.1079 78.0476C31.1162 78.067 31.1201 78.0903 31.1189 78.1155C31.1171 78.1409 31.1088 78.1711 31.0927 78.2064C31.0766 78.2414 31.0549 78.2812 31.0272 78.3248C31.0007 78.3667 30.976 78.4008 30.9522 78.4283C30.9287 78.4558 30.9057 78.4744 30.884 78.4863C30.862 78.4983 30.8405 78.5037 30.8209 78.5025C30.8009 78.5004 30.7813 78.4944 30.7631 78.4827L29.2661 77.5272L28.2509 79.132L30.0207 80.2617C30.0392 80.2733 30.0528 80.2889 30.0624 80.3068C30.0713 80.3257 30.0755 80.3496 30.0746 80.3756C30.0737 80.4016 30.0659 80.4327 30.0505 80.4674C30.0344 80.5012 30.0121 80.5416 29.9832 80.5877Z" fill="white"/>
<path d="M36.6583 83.879C36.6499 83.8987 36.6374 83.9148 36.6205 83.925C36.6035 83.9358 36.5803 83.9406 36.5517 83.9382C36.5216 83.9361 36.4853 83.9298 36.443 83.9196C36.3999 83.9089 36.3466 83.8897 36.282 83.8631C36.2227 83.8377 36.173 83.8132 36.1322 83.7886C36.0927 83.7647 36.0623 83.7429 36.0409 83.7234C36.0203 83.7046 36.0075 83.6843 36.0033 83.6657C35.9992 83.6463 36.0016 83.6259 36.0096 83.6062L37.7954 79.3386L37.7883 79.335L34.2758 82.895C34.2607 82.9096 34.2443 82.9201 34.2252 82.9267C34.2062 82.933 34.1815 82.935 34.1511 82.933C34.1207 82.9309 34.0868 82.924 34.049 82.9126C34.0109 82.9013 33.9671 82.8842 33.9168 82.8633C33.8638 82.8411 33.8201 82.8196 33.7844 82.7981C33.7489 82.7774 33.7204 82.7568 33.6992 82.7377C33.6775 82.7188 33.6629 82.6991 33.6549 82.6814C33.6462 82.6629 33.6421 82.6452 33.6438 82.6273L33.7942 77.6479L33.7903 77.6464L32.0045 81.9134C31.9964 81.9334 31.9839 81.949 31.9667 81.9597C31.95 81.9705 31.9271 81.975 31.8979 81.9729C31.8678 81.9705 31.8309 81.9642 31.7874 81.9532C31.7437 81.9421 31.6889 81.9224 31.6243 81.896C31.5621 81.8691 31.5115 81.844 31.4728 81.821C31.4341 81.797 31.4046 81.7755 31.3829 81.7561C31.3623 81.7372 31.3504 81.7175 31.3481 81.6989C31.3451 81.6804 31.3481 81.6604 31.3561 81.6403L33.242 77.1356C33.286 77.0297 33.3465 76.9657 33.4215 76.9432C33.4965 76.9214 33.5688 76.925 33.6379 76.9543L34.0359 77.1224C34.1169 77.1568 34.1853 77.1945 34.2407 77.2357C34.2958 77.277 34.339 77.3234 34.3711 77.3757C34.4027 77.428 34.4238 77.4855 34.4333 77.5492C34.4426 77.6126 34.4449 77.6829 34.4396 77.7609L34.3488 81.8978L34.3675 81.9053L37.2983 78.9824C37.3584 78.9184 37.4159 78.8669 37.4713 78.8278C37.5272 78.7883 37.5805 78.7614 37.6338 78.7467C37.6865 78.7318 37.7398 78.7282 37.7943 78.7344C37.8487 78.7407 37.9074 78.7575 37.972 78.7847L38.3887 78.9611C38.4269 78.9776 38.4608 78.9982 38.4906 79.0242C38.5206 79.0506 38.5424 79.0805 38.5566 79.1149C38.5709 79.1487 38.5778 79.1875 38.5778 79.2309C38.5778 79.2743 38.5668 79.3224 38.545 79.3748L36.6583 83.879Z" fill="white"/>
<path d="M41.4913 84.8632C41.48 84.911 41.4675 84.9526 41.4538 84.9873C41.4404 85.0217 41.4238 85.0498 41.405 85.0704C41.3866 85.0908 41.3669 85.1051 41.3476 85.112C41.3282 85.1183 41.3071 85.1192 41.2859 85.1144L38.8133 84.5342C38.7523 84.5198 38.6996 84.4857 38.6552 84.4313C38.6109 84.3772 38.5996 84.2985 38.6243 84.1941L39.6981 79.5787C39.7222 79.4743 39.7662 79.4085 39.8299 79.3798C39.8936 79.3511 39.9567 79.3442 40.0175 79.3586L42.4621 79.9328C42.483 79.9382 42.5011 79.9481 42.5163 79.9627C42.5315 79.9777 42.541 79.998 42.5464 80.0246C42.5517 80.0509 42.5526 80.0826 42.5517 80.12C42.5499 80.158 42.5434 80.2032 42.5309 80.2567C42.5196 80.3046 42.5065 80.3461 42.4913 80.3802C42.4761 80.4146 42.4603 80.4419 42.4451 80.4616C42.4291 80.4819 42.4115 80.4951 42.3916 80.502C42.3722 80.5082 42.3514 80.5091 42.3299 80.5047L40.3155 80.0315L39.9371 81.6555L41.6652 82.0611C41.686 82.0665 41.7042 82.0766 41.7191 82.0922C41.7331 82.1086 41.7441 82.1284 41.7509 82.1523C41.7575 82.1762 41.7593 82.2082 41.7566 82.2462C41.7527 82.2848 41.7456 82.3288 41.734 82.3793C41.7227 82.4275 41.7101 82.4687 41.697 82.5013C41.6837 82.5345 41.6688 82.5606 41.6521 82.5794C41.6348 82.5979 41.617 82.6105 41.5973 82.6153C41.578 82.621 41.5577 82.621 41.5363 82.6156L39.8082 82.2103L39.3774 84.0616L41.4193 84.5414C41.4401 84.5468 41.4586 84.5563 41.4735 84.5716C41.4881 84.5865 41.4997 84.606 41.5077 84.6323C41.5155 84.658 41.5178 84.6891 41.5149 84.7262C41.5113 84.7645 41.5038 84.8099 41.4913 84.8632Z" fill="white"/>
<path d="M47.051 85.5042C47.046 85.5592 47.0326 85.6044 47.0108 85.6402C46.9897 85.677 46.9626 85.7066 46.9308 85.7285C46.8992 85.7497 46.8641 85.7647 46.8269 85.7721C46.7894 85.7793 46.7524 85.7817 46.7158 85.7784L46.4845 85.7578C46.4113 85.7515 46.3482 85.7383 46.2949 85.718C46.241 85.6983 46.1916 85.666 46.1463 85.6226C46.1005 85.5789 46.0558 85.52 46.0133 85.4476C45.9701 85.3753 45.9261 85.2828 45.8805 85.1713L44.5415 82.0157C44.4721 81.8527 44.401 81.6822 44.331 81.5039C44.2611 81.3254 44.1959 81.1528 44.1372 80.9859L44.1292 80.9847C44.1176 81.1815 44.1033 81.3825 44.0878 81.5877C44.0717 81.7929 44.0557 81.9956 44.0375 82.1975L43.7526 85.3929C43.7505 85.4114 43.7434 85.43 43.7306 85.447C43.7175 85.4638 43.6969 85.4758 43.6687 85.4823C43.6407 85.4889 43.6041 85.4943 43.5588 85.4976C43.5142 85.5006 43.457 85.4988 43.3885 85.4922C43.3201 85.4856 43.2638 85.4769 43.22 85.4665C43.1766 85.4557 43.1415 85.4444 43.1167 85.4324C43.092 85.4207 43.0739 85.4055 43.0643 85.3872C43.0548 85.3687 43.0504 85.3495 43.0521 85.3307L43.488 80.4464C43.4978 80.3372 43.5353 80.2622 43.6011 80.2215C43.6669 80.1802 43.7362 80.1635 43.8092 80.1697L44.1536 80.2008C44.2349 80.2083 44.3022 80.2212 44.356 80.2403C44.4096 80.2589 44.4567 80.2852 44.4971 80.3214C44.5379 80.3564 44.5763 80.4039 44.6117 80.464C44.6475 80.5233 44.6841 80.5974 44.7207 80.686L45.7489 83.1214C45.8129 83.27 45.8737 83.4145 45.9323 83.5562C45.9912 83.6977 46.0475 83.8368 46.1011 83.9738C46.1547 84.1107 46.2083 84.245 46.2616 84.3784C46.3148 84.5103 46.3669 84.6443 46.4184 84.778L46.4226 84.7786C46.4363 84.5621 46.4533 84.3375 46.4723 84.1045C46.4914 83.8712 46.5116 83.6472 46.5307 83.4315L46.7864 80.5594C46.7879 80.5406 46.795 80.523 46.8084 80.5071C46.8215 80.4918 46.8418 80.4793 46.87 80.4694C46.8986 80.4598 46.9352 80.4539 46.9802 80.4527C47.0242 80.4506 47.0835 80.4536 47.1546 80.4595C47.218 80.4658 47.2719 80.473 47.3175 80.482C47.3624 80.4916 47.3981 80.5035 47.4228 80.5185C47.4476 80.5331 47.4645 80.5493 47.4746 80.566C47.4845 80.584 47.4889 80.6019 47.4871 80.6214L47.051 85.5042Z" fill="white"/>
<path d="M51.9768 80.6175C51.9795 80.6699 51.9789 80.7145 51.9753 80.753C51.9715 80.7919 51.9643 80.8224 51.9533 80.8464C51.942 80.8703 51.928 80.8885 51.9104 80.9002C51.8929 80.9121 51.8738 80.9187 51.8524 80.9193L50.3663 80.9932L50.5938 85.5964C50.5946 85.6179 50.5899 85.638 50.5798 85.6541C50.5705 85.6714 50.5515 85.6852 50.5247 85.6963C50.4973 85.707 50.4619 85.7169 50.4178 85.7265C50.3735 85.7354 50.3169 85.742 50.249 85.745C50.1838 85.7486 50.1282 85.748 50.0817 85.7429C50.0353 85.7381 49.9984 85.7322 49.9704 85.7244C49.9427 85.7166 49.9228 85.7046 49.9115 85.6885C49.8995 85.6723 49.893 85.6538 49.8927 85.6323L49.6656 81.0291L48.1789 81.103C48.1575 81.1042 48.1372 81.0997 48.1193 81.0895C48.1009 81.0793 48.0857 81.0632 48.0738 81.0405C48.0616 81.018 48.0515 80.9875 48.0428 80.9492C48.0348 80.9116 48.0288 80.8667 48.0262 80.8147C48.0235 80.7626 48.0247 80.7166 48.0297 80.6765C48.0351 80.6367 48.042 80.6041 48.0515 80.579C48.0604 80.5538 48.0741 80.5353 48.0917 80.523C48.1092 80.5117 48.1283 80.5045 48.1503 80.5042L51.8247 80.3215C51.8464 80.3203 51.867 80.3254 51.8848 80.3349C51.9033 80.3451 51.9185 80.3624 51.9322 80.3861C51.9456 80.41 51.956 80.4423 51.9634 80.4809C51.9688 80.5197 51.9742 80.5655 51.9768 80.6175Z" fill="white"/>
<path d="M59.1724 81.3932C59.2777 81.8101 59.3248 82.1974 59.3117 82.5575C59.2989 82.9167 59.2259 83.2385 59.0914 83.5233C58.9571 83.8077 58.7592 84.0508 58.4981 84.2524C58.2367 84.4537 57.9111 84.6044 57.5208 84.7046C57.1347 84.8033 56.7867 84.8314 56.4762 84.7881C56.1654 84.7444 55.8906 84.6358 55.6513 84.4633C55.4116 84.2901 55.2056 84.0517 55.0333 83.7482C54.8606 83.4443 54.7195 83.0812 54.6126 82.6568C54.509 82.251 54.4644 81.8693 54.4778 81.5128C54.4912 81.1569 54.5665 80.8366 54.7028 80.5546C54.8395 80.2728 55.038 80.0306 55.2994 79.8293C55.5605 79.628 55.8868 79.477 56.277 79.3768C56.6548 79.2802 56.9986 79.2527 57.307 79.2954C57.6157 79.3382 57.8911 79.4444 58.1325 79.6155C58.3743 79.7862 58.582 80.0213 58.755 80.3204C58.9268 80.6186 59.0661 80.9766 59.1724 81.3932ZM58.4636 81.6256C58.3894 81.3337 58.2948 81.0699 58.1796 80.8321C58.0641 80.5946 57.9239 80.399 57.7565 80.2456C57.5892 80.0916 57.3925 79.9893 57.1665 79.937C56.9397 79.8849 56.6783 79.8966 56.383 79.9726C56.088 80.0482 55.8546 80.167 55.6822 80.33C55.5099 80.4927 55.3848 80.6835 55.3068 80.9009C55.2283 81.1189 55.1937 81.3582 55.2024 81.6202C55.2113 81.8825 55.2506 82.1499 55.3202 82.4235C55.397 82.7262 55.4926 82.9981 55.6075 83.2397C55.723 83.482 55.862 83.68 56.0282 83.8331C56.194 83.9874 56.389 84.0894 56.614 84.1406C56.8394 84.1917 57.1025 84.1785 57.4026 84.1014C57.7006 84.0248 57.9369 83.9052 58.112 83.7416C58.2864 83.578 58.4118 83.386 58.488 83.1638C58.5636 82.9427 58.596 82.6999 58.5853 82.4367C58.5749 82.1753 58.5338 81.9043 58.4636 81.6256Z" fill="white"/>
<path d="M62.0123 77.7472C62.0316 77.7947 62.0462 77.8381 62.0557 77.8755C62.0653 77.9132 62.0682 77.9452 62.0641 77.9721C62.0599 77.9987 62.0522 78.0205 62.0397 78.0373C62.0275 78.0549 62.0126 78.0669 61.9953 78.0738L60.2032 78.8152L60.8879 80.4862L62.5815 79.786C62.599 79.7791 62.6175 79.7761 62.6374 79.7785C62.6571 79.7809 62.6779 79.789 62.6988 79.8046C62.719 79.8195 62.7395 79.8428 62.7583 79.8748C62.777 79.9063 62.7982 79.9493 62.819 80.0028C62.8387 80.0507 62.8533 80.0935 62.8625 80.1297C62.8717 80.1659 62.8741 80.1979 62.8699 80.2236C62.8661 80.2505 62.8589 80.2729 62.847 80.2915C62.8354 80.31 62.8199 80.3226 62.8029 80.3294L61.1097 81.0302L61.948 83.0777C61.9548 83.0957 61.9569 83.1145 61.9542 83.1345C61.9504 83.1552 61.9379 83.1758 61.9167 83.1944C61.895 83.2135 61.8649 83.235 61.8274 83.2581C61.7896 83.2811 61.7378 83.3059 61.6723 83.3331C61.6122 83.358 61.5589 83.3768 61.5136 83.3882C61.4687 83.3995 61.4315 83.4064 61.4023 83.407C61.3734 83.4085 61.3505 83.4031 61.3341 83.3909C61.3178 83.3786 61.305 83.3633 61.2984 83.346L59.4337 78.7958C59.3935 78.6971 59.3905 78.6172 59.4271 78.5568C59.4626 78.4961 59.5093 78.4536 59.5679 78.4294L61.7685 77.5199C61.7863 77.513 61.8051 77.5109 61.8253 77.5136C61.8453 77.5175 61.8676 77.5273 61.889 77.5447C61.9111 77.5629 61.9325 77.5884 61.9521 77.6237C61.9727 77.6583 61.9926 77.699 62.0123 77.7472Z" fill="white"/>
<path d="M69.2078 79.0062C69.2367 79.0522 69.2581 79.0932 69.2733 79.127C69.2882 79.1611 69.2971 79.1931 69.3007 79.2209C69.3043 79.2496 69.301 79.2741 69.293 79.2936C69.2846 79.313 69.2695 79.3298 69.2492 79.3426L67.2627 80.5826C67.2094 80.6155 67.1481 80.629 67.0785 80.6233C67.0094 80.617 66.9463 80.5677 66.8894 80.4777L64.3034 76.2986C64.2924 76.28 64.2858 76.2609 64.287 76.2415C64.2873 76.222 64.2965 76.2005 64.315 76.1778C64.3334 76.1553 64.3599 76.129 64.3957 76.0979C64.4311 76.0671 64.4766 76.0351 64.5323 76.0007C64.5904 75.9648 64.6404 75.9373 64.682 75.9196C64.7243 75.9014 64.7594 75.8891 64.7874 75.8829C64.8157 75.8769 64.8389 75.8775 64.8562 75.8861C64.8743 75.8939 64.8886 75.9074 64.9 75.9268L67.3151 79.8301L68.9256 78.824C68.9465 78.8109 68.9685 78.8055 68.9896 78.8061C69.0105 78.8073 69.0331 78.8139 69.056 78.827C69.0783 78.8402 69.1022 78.8614 69.1269 78.8913C69.1522 78.9215 69.179 78.9595 69.2078 79.0062Z" fill="white"/>
<path d="M72.4443 76.5149C72.4753 76.5535 72.5 76.5891 72.5178 76.6211C72.5363 76.6531 72.5485 76.6836 72.5521 76.7117C72.5571 76.7395 72.5556 76.7635 72.5479 76.7826C72.5408 76.8017 72.5291 76.8188 72.5116 76.8325L70.52 78.4135C70.4709 78.4527 70.4114 78.4724 70.3405 78.4739C70.2712 78.4757 70.2027 78.4341 70.1363 78.351L67.2121 74.6313C67.1457 74.5473 67.1222 74.4716 67.14 74.4028C67.1579 74.3346 67.1909 74.2817 67.2401 74.2422L69.2099 72.6786C69.2269 72.6648 69.2456 72.6574 69.2662 72.6544C69.2864 72.652 69.3093 72.6574 69.3328 72.6699C69.3564 72.6825 69.3826 72.701 69.4111 72.7261C69.4397 72.7513 69.4698 72.7842 69.504 72.8278C69.535 72.8664 69.5588 72.9026 69.576 72.9355C69.5933 72.9684 69.6049 72.998 69.6106 73.0231C69.6168 73.048 69.6159 73.0701 69.6085 73.0901C69.6017 73.1096 69.5897 73.1263 69.5719 73.1401L67.9489 74.4288L68.9774 75.7373L70.3703 74.6328C70.3876 74.619 70.4069 74.6116 70.4277 74.6101C70.4492 74.6089 70.4712 74.6134 70.4953 74.6226C70.5191 74.6322 70.5438 74.6507 70.5721 74.6771C70.6001 74.704 70.6293 74.7375 70.6623 74.7787C70.6933 74.8176 70.7168 74.8523 70.7344 74.884C70.7522 74.9151 70.7632 74.9432 70.7662 74.9681C70.7698 74.9929 70.7683 75.0144 70.76 75.0333C70.7525 75.0518 70.74 75.068 70.7225 75.0814L69.3302 76.1859L70.5034 77.678L72.1484 76.372C72.1657 76.3585 72.1841 76.351 72.2044 76.348C72.2252 76.3456 72.2481 76.3492 72.2731 76.3591C72.2981 76.3684 72.324 76.3866 72.3511 76.4123C72.3803 76.4375 72.4104 76.4718 72.4443 76.5149Z" fill="white"/>
<path d="M76.3399 72.7083C76.3974 72.7346 76.4408 72.7601 76.4685 72.7852C76.4956 72.8097 76.5087 72.8372 76.5069 72.8662C76.5054 72.8959 76.4885 72.9302 76.4578 72.9706C76.4268 73.011 76.381 73.0615 76.3223 73.1217C76.2637 73.1827 76.2149 73.2296 76.1771 73.2634C76.1387 73.2966 76.1077 73.3197 76.0827 73.3319C76.058 73.3439 76.0354 73.349 76.0145 73.3457C75.9946 73.343 75.9711 73.3376 75.9464 73.3274L74.7071 72.7505L73.1719 74.3323L73.7792 75.5353C73.7911 75.558 73.7985 75.5807 73.8018 75.6037C73.8051 75.6259 73.8018 75.6504 73.7929 75.6779C73.7839 75.7054 73.764 75.7374 73.7351 75.7757C73.7053 75.8137 73.6649 75.8604 73.6113 75.9154C73.5553 75.9719 73.5077 76.0165 73.4687 76.0476C73.4285 76.0787 73.3945 76.0957 73.3666 76.0969C73.3386 76.0984 73.3115 76.0853 73.2859 76.0583C73.2606 76.0317 73.2341 75.9899 73.2061 75.9315L70.927 71.2084C70.913 71.1794 70.9059 71.1522 70.9047 71.1265C70.9035 71.1002 70.9109 71.0709 70.9264 71.0389C70.9428 71.0071 70.9678 70.9704 71.0014 70.9294C71.0356 70.8878 71.0818 70.8379 71.1383 70.7792C71.1994 70.7167 71.2515 70.6662 71.2937 70.6276C71.3372 70.5893 71.3744 70.5612 71.4072 70.5439C71.4393 70.5256 71.47 70.5173 71.4977 70.5179C71.5262 70.5187 71.5542 70.525 71.5837 70.5382L76.3399 72.7083ZM71.645 71.3035L71.642 71.3065L72.8929 73.8119L74.1769 72.4888L71.645 71.3035Z" fill="white"/>
<path d="M79.3755 68.8802C79.3933 68.8934 79.4061 68.908 79.4145 68.9239C79.4225 68.9403 79.4228 68.963 79.416 68.9915C79.4091 69.0205 79.3924 69.0561 79.3677 69.0985C79.3433 69.1422 79.307 69.1957 79.2585 69.2624C79.2165 69.3195 79.1799 69.365 79.1492 69.3982C79.1183 69.4311 79.09 69.455 79.0638 69.4697C79.0379 69.4849 79.0111 69.4915 78.9846 69.49C78.9581 69.4894 78.9286 69.4837 78.8956 69.473L77.6027 69.1248C77.4548 69.0869 77.3143 69.0573 77.183 69.0366C77.0514 69.0157 76.9258 69.0142 76.8058 69.0309C76.6867 69.0483 76.5742 69.0887 76.4676 69.153C76.3616 69.2176 76.261 69.3145 76.1652 69.4452L75.8862 69.8253L77.7021 71.1652C77.72 71.1783 77.7316 71.1948 77.737 71.2139C77.7432 71.2331 77.7423 71.2573 77.7343 71.283C77.7268 71.3099 77.7126 71.3431 77.6908 71.3835C77.67 71.4245 77.639 71.4723 77.5979 71.5268C77.5578 71.5824 77.5214 71.6258 77.4899 71.6578C77.458 71.6901 77.4298 71.7143 77.4056 71.7307C77.3821 71.7478 77.361 71.755 77.3407 71.7541C77.3217 71.7532 77.3023 71.7466 77.2848 71.7337L73.3377 68.8201C73.2526 68.7567 73.2088 68.6897 73.2076 68.6194C73.2061 68.5497 73.2249 68.4884 73.2621 68.4381L73.9274 67.528C74.0069 67.4201 74.0751 67.3324 74.1325 67.2646C74.1903 67.1961 74.2436 67.1362 74.2924 67.0839C74.4421 66.9397 74.5942 66.827 74.7479 66.7447C74.9027 66.6637 75.0581 66.614 75.2152 66.5982C75.3721 66.5817 75.5281 66.597 75.6808 66.644C75.8344 66.6909 75.9848 66.769 76.1321 66.8775C76.2747 66.9828 76.3881 67.0959 76.4733 67.2188C76.5578 67.3408 76.6165 67.4703 76.651 67.6073C76.6843 67.744 76.6956 67.8875 76.6849 68.0356C76.6748 68.1842 76.6453 68.338 76.5974 68.4959C76.6793 68.4483 76.7653 68.413 76.854 68.39C76.9436 68.3676 77.0392 68.3559 77.1416 68.3547C77.244 68.3535 77.3538 68.3628 77.4717 68.3822C77.5896 68.4011 77.7185 68.4283 77.8581 68.4633L79.0781 68.7725C79.1805 68.8 79.2501 68.821 79.2882 68.8359C79.3299 68.8533 79.3579 68.8667 79.3755 68.8802ZM75.7541 67.5266C75.5867 67.4036 75.4183 67.3366 75.2483 67.3265C75.0786 67.3166 74.9035 67.3815 74.7237 67.5197C74.6678 67.5633 74.6109 67.6178 74.5541 67.6824C74.4972 67.7473 74.4263 67.8361 74.3445 67.9486L73.9935 68.4283L75.4293 69.4888L75.8359 68.9331C75.9455 68.7833 76.0223 68.6403 76.0654 68.5037C76.1089 68.3679 76.1253 68.2393 76.1137 68.1187C76.1023 67.9985 76.0651 67.8881 76.002 67.7891C75.9401 67.6904 75.8571 67.6028 75.7541 67.5266Z" fill="white"/>
<path d="M81.8888 63.9473C81.9371 63.973 81.974 64.0032 81.999 64.037C82.024 64.0711 82.041 64.107 82.0487 64.1447C82.0561 64.1827 82.0564 64.2204 82.0493 64.258C82.0421 64.2954 82.0302 64.3304 82.0127 64.3639L81.9043 64.57C81.8704 64.6355 81.8335 64.6884 81.7948 64.7306C81.7555 64.7722 81.7072 64.806 81.6495 64.8311C81.592 64.8565 81.5206 64.8748 81.4378 64.8873C81.3548 64.8993 81.2527 64.9053 81.1333 64.9047L77.7188 64.9277C77.542 64.9304 77.3583 64.9295 77.1675 64.9253C76.9763 64.9211 76.7927 64.9148 76.6161 64.9056L76.6117 64.9124C76.7879 64.9998 76.9665 65.0898 77.1496 65.1828C77.3318 65.2761 77.5119 65.3703 77.6899 65.4642L80.5132 66.9614C80.5308 66.9701 80.5442 66.9839 80.5546 67.0027C80.5644 67.0213 80.568 67.0455 80.5632 67.0736C80.5585 67.1017 80.5492 67.1382 80.5346 67.1807C80.5192 67.2237 80.4956 67.2749 80.4638 67.3365C80.4322 67.3981 80.4025 67.4469 80.3754 67.4827C80.3486 67.5192 80.3248 67.5471 80.3045 67.565C80.2843 67.5835 80.2632 67.594 80.2423 67.5961C80.2215 67.5982 80.2018 67.5943 80.1855 67.5856L75.8683 65.298C75.7725 65.2468 75.7177 65.1825 75.7055 65.1056C75.6936 65.0291 75.7043 64.9582 75.7379 64.893L75.8996 64.5858C75.9377 64.5138 75.9755 64.4557 76.013 64.4139C76.0514 64.3711 76.0937 64.3385 76.1422 64.3143C76.1904 64.2903 76.2482 64.2727 76.317 64.2631C76.3851 64.2533 76.4679 64.2476 76.5631 64.2473L79.1962 64.2335C79.357 64.232 79.5136 64.2314 79.6663 64.2314C79.819 64.2314 79.9684 64.2329 80.1149 64.2356C80.2611 64.2389 80.4063 64.2413 80.5477 64.2425C80.6903 64.2452 80.832 64.2482 80.9758 64.2515L80.9779 64.2473C80.785 64.1519 80.585 64.0496 80.3775 63.9416C80.1715 63.8339 79.9729 63.729 79.7818 63.6282L77.244 62.2826C77.2267 62.2739 77.2136 62.2605 77.2053 62.2425C77.196 62.224 77.1922 62.2004 77.1943 62.1707C77.1963 62.1402 77.2053 62.1041 77.221 62.0628C77.2374 62.0203 77.2624 61.9677 77.2955 61.9037C77.3252 61.8474 77.3526 61.7999 77.3791 61.7616C77.4053 61.7233 77.43 61.6952 77.4527 61.6785C77.4756 61.6611 77.4967 61.6509 77.517 61.6483C77.5366 61.6459 77.5556 61.6488 77.5726 61.6578L81.8888 63.9473Z" fill="white"/>
<path d="M82.9677 61.7042C82.9877 61.7117 83.0034 61.7237 83.0145 61.7404C83.0258 61.7566 83.0311 61.779 83.0302 61.8086C83.029 61.8376 83.024 61.8744 83.0133 61.9184C83.0034 61.9626 82.9856 62.0174 82.9609 62.0814C82.9371 62.1421 82.9138 62.1935 82.8906 62.2345C82.8674 62.2758 82.8466 62.3066 82.8272 62.3284C82.8088 62.3503 82.7894 62.3634 82.771 62.3679C82.7519 62.3724 82.7317 62.3706 82.7117 62.3616L77.9829 60.5031C77.9629 60.4956 77.9469 60.4828 77.9365 60.4648C77.926 60.4472 77.9213 60.4236 77.9228 60.3937C77.9245 60.3631 77.9296 60.3258 77.9406 60.2815C77.9504 60.2372 77.9665 60.1855 77.9897 60.1263C78.0144 60.0626 78.0383 60.0105 78.0612 59.9711C78.0835 59.931 78.1043 59.9008 78.1231 59.878C78.1416 59.8556 78.1612 59.843 78.18 59.8386C78.1984 59.8341 78.2187 59.8359 78.2386 59.8445L82.9677 61.7042Z" fill="white"/>
<path d="M84.4639 56.0949C84.5172 56.1093 84.5589 56.1296 84.5916 56.1577C84.6235 56.1853 84.6476 56.2164 84.664 56.2514C84.6803 56.2863 84.6884 56.3225 84.6896 56.3614C84.6907 56.3997 84.6863 56.4368 84.6768 56.4721L84.6175 56.6982C84.5991 56.7691 84.5744 56.8292 84.5461 56.8788C84.5175 56.9282 84.4779 56.9721 84.4273 57.0098C84.3767 57.0475 84.3118 57.081 84.2338 57.1118C84.1549 57.1423 84.057 57.1698 83.9409 57.1965L80.618 57.9854C80.4463 58.0276 80.2665 58.0671 80.0801 58.1066C79.8932 58.1457 79.7131 58.1804 79.5386 58.2106L79.5365 58.2184C79.7276 58.2636 79.922 58.3117 80.1206 58.3617C80.3189 58.4119 80.515 58.4634 80.7097 58.5154L83.7947 59.3415C83.8131 59.3466 83.8295 59.3567 83.8435 59.3726C83.8581 59.3884 83.8658 59.4109 83.8679 59.4399C83.8703 59.4692 83.8688 59.506 83.8635 59.5511C83.8581 59.5957 83.8474 59.6522 83.8301 59.7192C83.8117 59.7865 83.7944 59.8403 83.7759 59.8822C83.7575 59.9238 83.7411 59.9555 83.7247 59.9779C83.7084 60.0006 83.6917 60.0153 83.6709 60.0216C83.6509 60.0279 83.631 60.0285 83.6131 60.0243L78.8959 58.7622C78.7905 58.7334 78.7241 58.6835 78.6944 58.6117C78.6652 58.5396 78.661 58.4685 78.6795 58.3967L78.7688 58.0608C78.7893 57.9815 78.8134 57.9175 78.8408 57.8676C78.8682 57.8176 78.9027 57.7758 78.9444 57.7417C78.9861 57.7076 79.0385 57.6777 79.1031 57.6526C79.168 57.6271 79.2463 57.6038 79.3394 57.5826L81.9023 56.9781C82.0589 56.9407 82.2119 56.9049 82.3607 56.8708C82.509 56.837 82.6545 56.8044 82.7989 56.7747C82.9418 56.7442 83.0835 56.7146 83.2222 56.6844C83.3616 56.6545 83.5015 56.6258 83.6411 56.5971L83.6423 56.5929C83.433 56.5427 83.2151 56.4876 82.99 56.4287C82.7641 56.3701 82.548 56.3127 82.3393 56.2573L79.5663 55.5156C79.5478 55.5105 79.5327 55.5004 79.5196 55.4848C79.5068 55.469 79.4981 55.4468 79.4931 55.4166C79.4877 55.3867 79.4886 55.3493 79.4951 55.3051C79.5017 55.2608 79.5136 55.2031 79.5324 55.1334C79.549 55.0724 79.5651 55.0197 79.5824 54.977C79.6002 54.9333 79.6175 54.901 79.6359 54.8795C79.6544 54.8576 79.6735 54.843 79.6919 54.8358C79.7104 54.8292 79.7291 54.828 79.7479 54.8325L84.4639 56.0949Z" fill="white"/>
<path d="M80.9499 49.7904C81.002 49.7958 81.0467 49.803 81.0854 49.8119C81.1244 49.8215 81.1559 49.8329 81.1806 49.8466C81.205 49.8604 81.222 49.8759 81.2312 49.8927C81.2402 49.9103 81.244 49.9286 81.2419 49.948C81.2384 49.9806 81.2074 50.0324 81.1488 50.1038C81.0895 50.1747 81.0219 50.2716 80.946 50.3931C80.8707 50.5145 80.7981 50.6616 80.7287 50.8354C80.6597 51.0083 80.6111 51.217 80.5867 51.4629C80.5564 51.7545 80.5823 52.0213 80.6653 52.2638C80.7475 52.5067 80.8734 52.7181 81.0443 52.8976C81.2143 53.0776 81.4241 53.2236 81.673 53.336C81.9219 53.4485 82.1972 53.52 82.4979 53.5511C82.8343 53.5855 83.1367 53.5696 83.4073 53.5023C83.6774 53.4347 83.9098 53.3273 84.1063 53.1799C84.3022 53.0325 84.4579 52.8485 84.5734 52.6272C84.6889 52.4068 84.7609 52.1588 84.7889 51.8837C84.8059 51.7198 84.8032 51.5532 84.7809 51.3809C84.7592 51.2095 84.7157 51.0477 84.6514 50.8946L83.1186 50.7373L82.9936 51.9635C82.9885 52.0096 82.9626 52.0425 82.9135 52.0601C82.865 52.0787 82.792 52.0829 82.695 52.0727C82.6429 52.0673 82.5994 52.0601 82.564 52.0515C82.5277 52.0422 82.4985 52.0302 82.4771 52.0156C82.4556 52.0009 82.4399 51.9845 82.4306 51.9674C82.4217 51.9498 82.4181 51.9291 82.4205 51.9046L82.5917 50.2256C82.595 50.1954 82.6033 50.1663 82.6173 50.1373C82.6313 50.108 82.6497 50.0826 82.6741 50.0602C82.6985 50.0383 82.7301 50.0222 82.7691 50.0123C82.8087 50.003 82.8522 50.0007 82.901 50.0057L84.9053 50.2118C84.9762 50.2187 85.0357 50.2378 85.0851 50.2677C85.134 50.2979 85.1747 50.3539 85.2057 50.437C85.2367 50.5196 85.2688 50.6266 85.3019 50.7561C85.3352 50.8862 85.3611 51.0196 85.3807 51.1566C85.3992 51.2933 85.4105 51.4306 85.412 51.5684C85.4147 51.7066 85.4084 51.8421 85.3947 51.9755C85.3528 52.3837 85.2527 52.742 85.0941 53.051C84.9354 53.3599 84.7282 53.6127 84.4716 53.8107C84.2165 54.0087 83.9197 54.1495 83.5827 54.2333C83.2448 54.3164 82.876 54.3382 82.4741 54.2967C82.0573 54.2536 81.6855 54.1519 81.3592 53.9904C81.033 53.8289 80.7627 53.6213 80.5474 53.3662C80.3319 53.1108 80.1753 52.8153 80.0765 52.4792C79.9782 52.1427 79.9485 51.7784 79.9887 51.3866C80.0089 51.185 80.0458 50.9972 80.0991 50.824C80.153 50.6506 80.2098 50.4971 80.2712 50.3649C80.3328 50.2327 80.3962 50.1221 80.4614 50.0339C80.5272 49.9456 80.5793 49.8858 80.6171 49.8535C80.6561 49.8224 80.699 49.8015 80.7472 49.7925C80.796 49.7811 80.8633 49.7811 80.9499 49.7904Z" fill="white"/>
<path d="M16.5207 36.4825C16.8276 36.577 17.0881 36.7077 17.3015 36.8728C17.5147 37.0379 17.6793 37.2296 17.7939 37.4488C17.9094 37.6678 17.9734 37.9112 17.9853 38.178C17.9972 38.446 17.9558 38.7325 17.8624 39.0384C17.7766 39.3187 17.6576 39.5609 17.5069 39.7667C17.3551 39.9725 17.1756 40.1331 16.9675 40.2485C16.7591 40.3646 16.5231 40.4301 16.259 40.4456C15.9941 40.4618 15.7071 40.4211 15.3972 40.3254L12.2598 39.354C12.239 39.3477 12.2223 39.336 12.2098 39.3217C12.1973 39.3067 12.1911 39.2843 12.1896 39.2547C12.1884 39.2254 12.1917 39.1895 12.1976 39.1455C12.2039 39.1018 12.217 39.0459 12.2384 38.9777C12.2574 38.9143 12.2777 38.8617 12.2976 38.8198C12.3176 38.7773 12.336 38.745 12.3533 38.7232C12.3703 38.7014 12.3875 38.6876 12.4069 38.6813C12.4253 38.6754 12.4459 38.676 12.4661 38.6828L15.5219 39.6288C15.7559 39.7012 15.9697 39.7356 16.1614 39.7329C16.3537 39.7287 16.5243 39.6907 16.6734 39.6184C16.8225 39.546 16.9502 39.4416 17.0556 39.3067C17.161 39.1721 17.2432 39.0088 17.3018 38.8177C17.3617 38.6215 17.3867 38.4376 17.3768 38.2668C17.3664 38.0963 17.3206 37.9396 17.2378 37.7988C17.1563 37.6573 17.0387 37.5323 16.8865 37.4234C16.7344 37.3154 16.5454 37.2254 16.3185 37.1554L13.2285 36.1984C13.2083 36.1921 13.191 36.181 13.1788 36.1661C13.1663 36.1508 13.1597 36.1287 13.1589 36.0997C13.1574 36.0704 13.1606 36.0333 13.1669 35.9884C13.1731 35.9432 13.1865 35.8879 13.2074 35.8221C13.2264 35.7593 13.2464 35.7073 13.2654 35.6663C13.2851 35.6247 13.3035 35.5936 13.3205 35.5718C13.3378 35.55 13.3553 35.5353 13.375 35.5281C13.3934 35.5215 13.414 35.5212 13.4345 35.5272L16.5207 36.4825Z" fill="white"/>
<path d="M20.3493 32.2303C20.3985 32.2543 20.4354 32.2836 20.4613 32.3171C20.4875 32.3503 20.5047 32.3856 20.514 32.4236C20.5223 32.4609 20.5235 32.4989 20.5172 32.5366C20.511 32.5743 20.4988 32.6099 20.4833 32.6425L20.3794 32.8515C20.347 32.9176 20.3112 32.9715 20.2737 33.0142C20.2359 33.0579 20.1883 33.092 20.1311 33.1189C20.074 33.1458 20.0034 33.1659 19.9204 33.1799C19.8379 33.1934 19.7361 33.2012 19.6164 33.2039L16.2037 33.3085C16.0269 33.3148 15.8432 33.3178 15.6521 33.3187C15.461 33.3199 15.2773 33.3172 15.1005 33.3121L15.0966 33.3193C15.2752 33.4018 15.4559 33.4874 15.6402 33.5768C15.8244 33.6662 16.0066 33.756 16.1873 33.8454L19.0461 35.2747C19.0633 35.2831 19.077 35.2965 19.088 35.3151C19.099 35.3336 19.1023 35.3575 19.0984 35.3857C19.0949 35.4147 19.0859 35.4509 19.0722 35.493C19.0586 35.5367 19.0359 35.5887 19.005 35.6509C18.9746 35.7132 18.9463 35.7625 18.9204 35.7996C18.8945 35.8367 18.8713 35.8648 18.852 35.8833C18.8323 35.9019 18.8109 35.9135 18.79 35.915C18.7692 35.9177 18.7498 35.9144 18.7335 35.9061L14.3634 33.7201C14.2657 33.6716 14.2098 33.6088 14.1961 33.5325C14.1821 33.456 14.191 33.3848 14.2241 33.319L14.3789 33.008C14.4149 32.9347 14.4518 32.8764 14.4884 32.833C14.5253 32.7896 14.5673 32.7552 14.6146 32.7301C14.662 32.7047 14.72 32.6864 14.7879 32.6745C14.856 32.6628 14.9385 32.6559 15.0335 32.6535L17.6651 32.577C17.8261 32.5716 17.9824 32.5677 18.1354 32.5638C18.2878 32.5602 18.4373 32.5578 18.5837 32.5575C18.7302 32.5569 18.8746 32.5557 19.0166 32.5543C19.1592 32.5531 19.3015 32.5525 19.4447 32.5531L19.4461 32.5489C19.2512 32.4573 19.049 32.3601 18.8398 32.257C18.6308 32.1535 18.4292 32.0536 18.2369 31.9579L15.6676 30.6724C15.65 30.6641 15.6372 30.6512 15.628 30.6332C15.6184 30.615 15.614 30.5914 15.6155 30.5615C15.6167 30.5313 15.6244 30.4948 15.6399 30.4529C15.6548 30.4101 15.678 30.3569 15.7101 30.2923C15.7387 30.2358 15.7652 30.187 15.7908 30.149C15.8158 30.1102 15.8399 30.0811 15.8622 30.0644C15.8849 30.0458 15.9063 30.0357 15.926 30.033C15.9456 30.0303 15.9641 30.033 15.9816 30.0414L20.3493 32.2303Z" fill="white"/>
<path d="M21.6047 30.6622C21.6229 30.6742 21.6357 30.6895 21.6437 30.7071C21.6511 30.7256 21.6517 30.7487 21.6452 30.7762C21.6386 30.8046 21.6261 30.8393 21.6068 30.8812C21.5883 30.9233 21.5603 30.9727 21.5234 31.0298C21.488 31.0854 21.455 31.1303 21.4237 31.1656C21.3927 31.2009 21.3663 31.2275 21.343 31.2455C21.3207 31.2637 21.2996 31.2724 21.2796 31.2727C21.2603 31.273 21.2409 31.2667 21.2231 31.2547L16.9625 28.481C16.9441 28.4691 16.9315 28.4532 16.9244 28.4347C16.9176 28.4152 16.9182 28.391 16.925 28.3617C16.9321 28.3321 16.9455 28.2965 16.9646 28.2555C16.983 28.2137 17.0098 28.1664 17.0441 28.1135C17.0813 28.0566 17.1146 28.01 17.145 27.9759C17.1754 27.9421 17.2013 27.9158 17.2248 27.8978C17.248 27.8796 17.2688 27.8709 17.2882 27.8706C17.3078 27.8706 17.3272 27.8766 17.345 27.8886L21.6047 30.6622Z" fill="white"/>
<path d="M23.6272 27.8988C23.6438 27.926 23.6534 27.9536 23.6563 27.9799C23.6596 28.0074 23.6545 28.037 23.6414 28.0711C23.6286 28.1043 23.6072 28.1435 23.5771 28.188C23.5465 28.2317 23.5069 28.2849 23.4578 28.3468C23.4203 28.3938 23.3869 28.4345 23.3572 28.4686C23.3274 28.5024 23.3012 28.5311 23.2765 28.5529C23.2515 28.575 23.2291 28.5936 23.2089 28.6073C23.1896 28.6214 23.1702 28.631 23.1517 28.6376C23.1333 28.6438 23.1145 28.645 23.0967 28.6438C23.0785 28.642 23.0592 28.6376 23.0374 28.6298L18.1252 26.8873C18.0645 26.867 18.0199 26.8449 17.9904 26.823C17.9606 26.8009 17.9463 26.7743 17.9469 26.7423C17.9475 26.7112 17.9627 26.6732 17.9922 26.6259C18.0225 26.5805 18.0666 26.5203 18.124 26.4483C18.172 26.3888 18.2122 26.3424 18.2428 26.3092C18.2741 26.2772 18.3018 26.2542 18.3256 26.2416C18.3494 26.2293 18.3717 26.2237 18.3938 26.2252C18.4149 26.2269 18.4399 26.2314 18.4682 26.2407L22.8871 27.8584L22.8901 27.8549L20.3538 23.9001C20.3353 23.875 20.3228 23.8519 20.3142 23.8316C20.3061 23.8116 20.3064 23.787 20.315 23.7583C20.3234 23.7299 20.3415 23.6958 20.3692 23.6545C20.3972 23.6133 20.4368 23.5612 20.4877 23.4972C20.5407 23.4308 20.5851 23.3806 20.6208 23.3471C20.6571 23.3133 20.6884 23.2947 20.7137 23.2927C20.7393 23.2909 20.7655 23.3031 20.792 23.3294C20.8179 23.3558 20.8479 23.3967 20.8807 23.4512L23.6272 27.8988Z" fill="white"/>
<path d="M27.2578 23.8881C27.2917 23.9237 27.3194 23.9566 27.3406 23.9874C27.3617 24.0185 27.3763 24.0463 27.3837 24.0741C27.3903 24.1014 27.3915 24.1253 27.3867 24.145C27.381 24.1648 27.3703 24.183 27.3554 24.1986L25.5169 25.9575C25.4717 26.0011 25.4139 26.0263 25.3445 26.0346C25.2752 26.043 25.2031 26.008 25.1299 25.9305L21.8758 22.4983C21.8026 22.4205 21.7711 22.3472 21.783 22.2785C21.7943 22.2091 21.8229 22.1522 21.8678 22.1092L23.6852 20.3706C23.7013 20.3551 23.7192 20.3458 23.74 20.3407C23.7599 20.3365 23.7832 20.3395 23.8079 20.3497C23.8329 20.3598 23.8603 20.3763 23.8906 20.3981C23.921 20.42 23.9546 20.4511 23.9924 20.4908C24.0261 20.5264 24.0532 20.5599 24.0737 20.5919C24.0936 20.623 24.1082 20.6511 24.1169 20.6754C24.1243 20.6996 24.1258 20.722 24.121 20.7427C24.1151 20.7624 24.105 20.7806 24.0901 20.7962L22.5921 22.2294L23.737 23.4365L25.0216 22.2076C25.0376 22.1923 25.0558 22.1833 25.0775 22.1798C25.0992 22.1762 25.121 22.1783 25.1457 22.186C25.1698 22.1932 25.1969 22.2088 25.2264 22.2327C25.2573 22.2566 25.2901 22.288 25.3255 22.3257C25.3591 22.3613 25.3865 22.3942 25.4071 22.4235C25.427 22.4531 25.4404 22.4797 25.4467 22.5046C25.4529 22.5288 25.4529 22.55 25.4467 22.5698C25.4404 22.5889 25.4291 22.6062 25.4139 22.6215L24.13 23.8507L25.4353 25.2277L26.9542 23.7751C26.9702 23.7595 26.9878 23.7502 27.0089 23.7454C27.0286 23.7407 27.0524 23.7425 27.0774 23.7505C27.1033 23.7574 27.1307 23.773 27.1599 23.7957C27.1867 23.8172 27.2203 23.8483 27.2578 23.8881Z" fill="white"/>
<path d="M30.9849 21.2948C30.998 21.3128 31.0055 21.3301 31.0087 21.3487C31.012 21.3672 31.0055 21.3887 30.9903 21.4136C30.9742 21.4387 30.9483 21.468 30.912 21.5018C30.8754 21.5347 30.8245 21.5763 30.7587 21.6247C30.7015 21.6672 30.6533 21.6989 30.6137 21.721C30.5741 21.7432 30.5396 21.7575 30.5104 21.7644C30.4809 21.7707 30.4544 21.7698 30.4291 21.7602C30.4041 21.7512 30.3773 21.7369 30.3493 21.7165L29.2199 20.9954C29.0895 20.9144 28.9651 20.8441 28.8454 20.7849C28.726 20.7254 28.6064 20.6856 28.4879 20.6665C28.3691 20.6473 28.2491 20.6518 28.1286 20.6814C28.0083 20.7113 27.883 20.7735 27.7529 20.8686L27.3739 21.1483L28.7061 22.9739C28.7189 22.9918 28.7248 23.0104 28.7245 23.0307C28.7245 23.0507 28.7165 23.0735 28.7016 23.0965C28.6858 23.1192 28.6623 23.1473 28.6302 23.179C28.5983 23.2107 28.5546 23.2475 28.4998 23.2882C28.445 23.3286 28.3971 23.3591 28.3572 23.3806C28.3173 23.4022 28.2831 23.4168 28.2554 23.4246C28.2274 23.433 28.2048 23.4339 28.1866 23.4276C28.1682 23.4213 28.1527 23.409 28.1396 23.3908L25.2442 19.4217C25.1814 19.3355 25.1603 19.2587 25.1799 19.1911C25.1999 19.1232 25.2356 19.0717 25.2859 19.0344L26.1924 18.3671C26.3004 18.2876 26.3918 18.2245 26.4678 18.1772C26.5431 18.1305 26.6115 18.0887 26.6738 18.0534C26.8592 17.9604 27.0384 17.8985 27.2093 17.8679C27.3814 17.8368 27.5442 17.8368 27.6993 17.8688C27.8544 17.9002 27.9982 17.9622 28.1304 18.0528C28.2625 18.1443 28.3834 18.2633 28.4906 18.4111C28.5956 18.5543 28.6704 18.6976 28.7144 18.84C28.7585 18.982 28.7763 19.1229 28.768 19.2641C28.7591 19.4046 28.7275 19.5446 28.673 19.6822C28.6183 19.821 28.545 19.9585 28.4525 20.0946C28.5453 20.0743 28.637 20.0659 28.7293 20.0716C28.8213 20.0776 28.916 20.0946 29.0136 20.1248C29.1115 20.155 29.2137 20.196 29.3205 20.2504C29.4271 20.3046 29.5417 20.3689 29.6647 20.4442L30.7363 21.1067C30.8251 21.1632 30.8858 21.2048 30.9173 21.2302C30.9495 21.2556 30.9724 21.2775 30.9849 21.2948ZM27.9345 18.9123C27.8121 18.7443 27.671 18.6306 27.5118 18.5696C27.3522 18.5089 27.1661 18.5176 26.9533 18.5965C26.8866 18.6219 26.8169 18.656 26.7431 18.7009C26.6687 18.7449 26.5758 18.8083 26.4639 18.8917L25.9861 19.2437L27.0399 20.6883L27.5936 20.2806C27.7428 20.1706 27.8592 20.0572 27.941 19.9403C28.0229 19.8233 28.0771 19.7064 28.1021 19.5874C28.1268 19.4689 28.1241 19.3529 28.094 19.2395C28.0634 19.125 28.0101 19.0164 27.9345 18.9123Z" fill="white"/>
<path d="M33.4557 18.3176C33.5772 18.5356 33.6453 18.7509 33.6602 18.9654C33.6751 19.1801 33.6447 19.3856 33.5688 19.5836C33.4929 19.7813 33.3765 19.9637 33.2178 20.1312C33.0598 20.299 32.8698 20.4447 32.6487 20.5691C32.4936 20.6561 32.3438 20.7237 32.1965 20.7718C32.05 20.8191 31.9143 20.8532 31.7895 20.8735C31.6648 20.8933 31.5561 20.9031 31.463 20.9017C31.3701 20.9005 31.3019 20.8939 31.2584 20.8804C31.215 20.8673 31.1751 20.8421 31.1373 20.8053C31.0995 20.7683 31.0599 20.7126 31.0191 20.6385C30.9893 20.5858 30.9676 20.5416 30.9527 20.5039C30.9387 20.4668 30.9301 20.4351 30.9277 20.4079C30.925 20.3809 30.9286 20.3597 30.9384 20.343C30.9477 20.3262 30.9616 20.3125 30.9816 20.302C31.0146 20.2834 31.0733 20.2772 31.1566 20.2834C31.2394 20.2897 31.3424 20.29 31.4636 20.2852C31.5853 20.279 31.7249 20.2592 31.883 20.2257C32.0402 20.1928 32.2075 20.1258 32.3837 20.0268C32.5165 19.9518 32.6287 19.8656 32.7192 19.7675C32.81 19.6697 32.8764 19.5653 32.9199 19.4547C32.9633 19.3446 32.9791 19.2292 32.9687 19.1098C32.9586 18.9908 32.919 18.8691 32.8511 18.7477C32.7779 18.6167 32.685 18.5204 32.5739 18.4608C32.4623 18.401 32.3385 18.3636 32.2018 18.3478C32.0649 18.3316 31.9181 18.3298 31.7609 18.3415C31.6035 18.3532 31.4427 18.3651 31.2775 18.3777C31.1126 18.3906 30.9482 18.3947 30.7833 18.3897C30.6181 18.3852 30.4588 18.36 30.3058 18.3146C30.1519 18.2697 30.0078 18.1962 29.8721 18.0954C29.7361 17.9946 29.6158 17.8501 29.5104 17.6611C29.4026 17.4679 29.3419 17.2753 29.3273 17.0839C29.3127 16.8925 29.3398 16.7106 29.4077 16.5377C29.4756 16.3649 29.5804 16.2028 29.723 16.0523C29.8655 15.9016 30.0367 15.7703 30.2362 15.6581C30.3386 15.601 30.4466 15.552 30.5601 15.5116C30.6735 15.4712 30.7845 15.4407 30.8923 15.4183C31 15.397 31.1007 15.3848 31.1924 15.3812C31.2849 15.3782 31.348 15.3815 31.3838 15.3914C31.4186 15.4015 31.4436 15.4108 31.4582 15.4207C31.4728 15.4293 31.4883 15.4428 31.5037 15.4607C31.5201 15.479 31.5365 15.5014 31.5555 15.5286C31.574 15.5562 31.5957 15.5926 31.6213 15.6375C31.6448 15.6809 31.6648 15.7198 31.6794 15.7553C31.6946 15.7912 31.7047 15.8226 31.7103 15.8487C31.7163 15.8759 31.7151 15.8977 31.7077 15.9162C31.7002 15.9348 31.6889 15.9477 31.6719 15.9581C31.6457 15.9728 31.5954 15.9785 31.5204 15.9767C31.446 15.9746 31.357 15.9755 31.2531 15.9794C31.1486 15.9835 31.0319 15.9979 30.9018 16.026C30.7717 16.0535 30.6381 16.1065 30.4999 16.1833C30.371 16.2554 30.2695 16.3362 30.1933 16.4241C30.1177 16.5123 30.0641 16.6026 30.0346 16.6942C30.0049 16.7866 29.9965 16.8805 30.0096 16.9762C30.0227 17.0725 30.0537 17.1652 30.1028 17.2534C30.1745 17.3829 30.2662 17.4769 30.3776 17.5364C30.4892 17.5962 30.6142 17.6342 30.753 17.6506C30.8917 17.6671 31.0405 17.6692 31.1998 17.6578C31.3588 17.6467 31.5207 17.6348 31.6856 17.6222C31.8511 17.6097 32.0158 17.604 32.1828 17.6058C32.3498 17.6082 32.5099 17.6312 32.6638 17.6743C32.8175 17.7179 32.9624 17.7906 33.0982 17.8914C33.2342 17.9916 33.3536 18.1339 33.4557 18.3176Z" fill="white"/>
<path d="M35.5916 18.8859C35.6002 18.9057 35.6032 18.9257 35.5997 18.9448C35.5964 18.964 35.5845 18.9843 35.5636 19.0038C35.5428 19.0232 35.5127 19.0465 35.4746 19.0713C35.4365 19.0959 35.3862 19.1225 35.3243 19.1506C35.2645 19.1775 35.2121 19.197 35.1671 19.2098C35.1222 19.2224 35.0852 19.2296 35.0564 19.2323C35.0272 19.2349 35.0046 19.2305 34.9882 19.2203C34.9715 19.2098 34.9587 19.1943 34.9498 19.1745L32.8749 14.5193C32.8663 14.4999 32.8636 14.4792 32.8686 14.4592C32.8737 14.4398 32.8871 14.4191 32.9088 14.3988C32.9309 14.3787 32.9615 14.3554 32.9999 14.3306C33.0383 14.3061 33.0857 14.2806 33.1425 14.2549C33.2047 14.2265 33.258 14.2071 33.3015 14.1945C33.3449 14.1825 33.3822 14.1757 33.4101 14.1733C33.439 14.1703 33.4613 14.1748 33.4783 14.1849C33.495 14.1954 33.5081 14.211 33.5164 14.2304L35.5916 18.8859Z" fill="white"/>
<path d="M38.3477 12.6524C38.3647 12.7012 38.3766 12.7454 38.3837 12.7834C38.3903 12.8214 38.392 12.8531 38.3885 12.8791C38.384 12.9051 38.3757 12.9258 38.3626 12.9422C38.3489 12.9587 38.3316 12.97 38.3111 12.9769L36.903 13.4575L38.3789 17.8208C38.3855 17.8415 38.3867 17.8618 38.3822 17.8807C38.3766 17.8992 38.3635 17.918 38.3399 17.9366C38.3173 17.9548 38.2855 17.9737 38.2456 17.9943C38.2048 18.015 38.1527 18.0374 38.0884 18.0589C38.0265 18.0802 37.9726 18.0948 37.9268 18.1032C37.8806 18.1113 37.8431 18.116 37.8139 18.1157C37.7851 18.1154 37.763 18.1095 37.7472 18.0972C37.7315 18.0858 37.7205 18.0688 37.7136 18.0484L36.2374 13.6848L34.829 14.1661C34.8081 14.1726 34.7873 14.1738 34.7674 14.1697C34.7471 14.1646 34.7278 14.1532 34.7108 14.1353C34.6926 14.1167 34.6745 14.091 34.6554 14.056C34.637 14.0222 34.6191 13.98 34.6021 13.931C34.5855 13.8819 34.5739 13.8377 34.5679 13.7976C34.562 13.7575 34.5596 13.7246 34.5617 13.6977C34.564 13.6705 34.5718 13.6495 34.5855 13.6331C34.5986 13.6169 34.6158 13.6053 34.6364 13.5984L38.1197 12.4087C38.1402 12.4018 38.161 12.4006 38.181 12.4048C38.2009 12.4099 38.2212 12.4215 38.2408 12.4407C38.2599 12.4595 38.2789 12.4873 38.2968 12.5232C38.3143 12.5603 38.331 12.6031 38.3477 12.6524Z" fill="white"/>
<path d="M41.7693 14.9106L42.1655 16.8289C42.1703 16.8501 42.1685 16.8708 42.1611 16.8881C42.1539 16.9066 42.1376 16.9231 42.1129 16.938C42.0884 16.9533 42.0545 16.9689 42.0105 16.9847C41.967 17.0006 41.9131 17.0158 41.8494 17.0284C41.7827 17.0424 41.7271 17.0499 41.6821 17.0529C41.6371 17.0553 41.5996 17.0547 41.5696 17.0511C41.5392 17.0469 41.5175 17.0382 41.5035 17.0245C41.4895 17.0104 41.4803 16.9934 41.4758 16.9715L41.0799 15.0532L39.0085 12.4225C38.966 12.3666 38.9383 12.3226 38.9246 12.2891C38.9106 12.2562 38.9118 12.2275 38.9282 12.2051C38.9442 12.182 38.9779 12.162 39.0291 12.1465C39.0794 12.13 39.1493 12.1133 39.2375 12.0944C39.3175 12.0774 39.3824 12.0669 39.4327 12.0624C39.4834 12.0573 39.5247 12.0564 39.5554 12.06C39.5864 12.0633 39.6114 12.0717 39.6298 12.0863C39.6483 12.1007 39.6667 12.1195 39.6858 12.1438L40.7113 13.4902C40.8069 13.6188 40.9036 13.7537 41.0028 13.8952C41.1013 14.0375 41.2013 14.1799 41.3034 14.3238L41.3112 14.3223C41.3409 14.1563 41.3722 13.9918 41.4055 13.8264C41.4395 13.661 41.4743 13.4977 41.5106 13.3365L41.9208 11.6826C41.9232 11.6536 41.9298 11.6287 41.9405 11.6072C41.9509 11.5854 41.9685 11.5668 41.9917 11.5519C42.0152 11.5372 42.0486 11.5223 42.0935 11.5082C42.1373 11.493 42.1944 11.4783 42.2638 11.4645C42.3596 11.4448 42.4359 11.4325 42.4921 11.4275C42.5484 11.4224 42.5886 11.4275 42.6142 11.4418C42.6392 11.4565 42.6523 11.4819 42.6526 11.5178C42.6532 11.554 42.6451 11.6045 42.6279 11.67L41.7693 14.9106Z" fill="white"/>
<path d="M50.5888 13.6122C50.5903 14.0423 50.5409 14.4293 50.4411 14.775C50.3411 15.1202 50.1917 15.4151 49.9919 15.6573C49.7925 15.9002 49.5412 16.0874 49.2394 16.2181C48.9375 16.3491 48.5847 16.4149 48.1811 16.4164C47.783 16.4176 47.4389 16.3596 47.1481 16.2402C46.8569 16.1221 46.6173 15.9495 46.4271 15.7231C46.2365 15.4961 46.0948 15.215 46.0008 14.8785C45.9079 14.5417 45.86 14.1544 45.8582 13.716C45.857 13.2976 45.9064 12.9162 46.0061 12.5741C46.1059 12.2313 46.2562 11.9403 46.4574 11.7002C46.6584 11.4594 46.9102 11.2743 47.2124 11.1433C47.5145 11.0123 47.867 10.9465 48.2707 10.9456C48.6609 10.9441 48.9997 11.0018 49.2897 11.1188C49.5787 11.236 49.8196 11.4071 50.0125 11.6323C50.2051 11.8578 50.3494 12.1371 50.4441 12.4691C50.5391 12.8011 50.5879 13.1821 50.5888 13.6122ZM49.8449 13.6636C49.844 13.3622 49.816 13.0828 49.763 12.8235C49.7091 12.5651 49.6204 12.3411 49.496 12.1509C49.3715 11.9607 49.2054 11.8126 48.9985 11.707C48.7913 11.6012 48.5353 11.5482 48.2305 11.5497C47.9262 11.5503 47.6699 11.6084 47.4639 11.7244C47.2573 11.8401 47.0894 11.9933 46.9608 12.1859C46.8316 12.3779 46.7402 12.6019 46.6849 12.8582C46.6298 13.1139 46.603 13.3837 46.6039 13.6648C46.6048 13.9771 46.6316 14.2648 46.6843 14.5277C46.7373 14.7906 46.8248 15.017 46.948 15.2069C47.0713 15.3971 47.2353 15.5446 47.4407 15.6493C47.647 15.7545 47.9051 15.8057 48.2153 15.8051C48.5228 15.8042 48.7809 15.7462 48.9905 15.6304C49.1998 15.5147 49.3682 15.3591 49.4957 15.1629C49.6231 14.9673 49.7127 14.7403 49.7666 14.4831C49.8193 14.2238 49.8454 13.9511 49.8449 13.6636Z" fill="white"/>
<path d="M54.947 11.8859C54.9404 11.9376 54.9306 11.9813 54.9202 12.0187C54.9098 12.0561 54.8964 12.0854 54.8794 12.1063C54.8621 12.1272 54.8449 12.1425 54.8255 12.1503C54.8068 12.1586 54.7874 12.1616 54.769 12.1589L52.8492 11.8951L52.6057 13.6852L54.4207 13.9343C54.4394 13.9373 54.4573 13.9442 54.474 13.9561C54.49 13.9681 54.5034 13.986 54.5141 14.0094C54.5243 14.033 54.5302 14.0638 54.5311 14.1012C54.5314 14.1386 54.5275 14.1855 54.5201 14.2429C54.5136 14.2947 54.5037 14.3378 54.4939 14.3739C54.4835 14.4098 54.4701 14.4385 54.4534 14.4598C54.4362 14.4804 54.4186 14.496 54.3989 14.5058C54.3802 14.5154 54.3605 14.519 54.3421 14.5163L52.5271 14.2672L52.2288 16.4606C52.2261 16.4792 52.2187 16.4974 52.2053 16.5136C52.1919 16.53 52.1713 16.5411 52.1433 16.5462C52.1145 16.5522 52.0781 16.5551 52.0347 16.556C51.9909 16.5566 51.9332 16.5525 51.8632 16.5426C51.798 16.5342 51.7438 16.5231 51.6983 16.51C51.6533 16.4968 51.6176 16.484 51.5926 16.4708C51.5667 16.457 51.5494 16.4409 51.5414 16.4221C51.5334 16.4035 51.5301 16.3841 51.5331 16.3652L52.1966 11.4899C52.2115 11.384 52.249 11.314 52.3097 11.2796C52.3711 11.2452 52.4324 11.2324 52.4949 11.2408L54.852 11.5644C54.8705 11.5671 54.8883 11.5748 54.9047 11.5883C54.9208 11.6014 54.9342 11.6209 54.9443 11.6475C54.9544 11.6735 54.9598 11.7067 54.9598 11.7465C54.9574 11.7884 54.9541 11.8344 54.947 11.8859Z" fill="white"/>
<path d="M60.504 17.8576C60.49 17.8998 60.4769 17.9354 60.4638 17.9653C60.451 17.9961 60.4373 18.0215 60.4236 18.0431C60.4096 18.064 60.3938 18.0825 60.3778 18.0975C60.3617 18.1124 60.3361 18.1286 60.3018 18.1456C60.2679 18.1633 60.2 18.1851 60.0997 18.2111C59.9991 18.2372 59.8797 18.2548 59.7398 18.2656C59.5999 18.2754 59.4454 18.2719 59.2748 18.2551C59.1039 18.2372 58.9235 18.1977 58.7354 18.1352C58.4085 18.0281 58.1326 17.8762 57.9054 17.6803C57.678 17.4847 57.5065 17.2496 57.391 16.975C57.2755 16.7008 57.2195 16.3903 57.2225 16.0443C57.2258 15.698 57.2934 15.3205 57.4273 14.9123C57.5646 14.4939 57.7402 14.1379 57.9545 13.846C58.1692 13.5532 58.4103 13.3256 58.6794 13.162C58.9485 12.9984 59.2373 12.9015 59.5469 12.8707C59.8565 12.8405 60.1759 12.8794 60.5052 12.9886C60.6498 13.0361 60.7862 13.0965 60.9151 13.1692C61.0437 13.2419 61.1586 13.3182 61.2619 13.3986C61.3649 13.4794 61.4533 13.5613 61.5256 13.6454C61.5983 13.7297 61.6462 13.7958 61.67 13.8419C61.693 13.8885 61.7072 13.9229 61.7117 13.9447C61.7165 13.966 61.718 13.9905 61.7165 14.0171C61.7147 14.0443 61.7102 14.0748 61.7031 14.1104C61.6965 14.1451 61.6846 14.1864 61.6694 14.2331C61.6525 14.2851 61.6358 14.3279 61.6182 14.3635C61.6007 14.3984 61.5837 14.4263 61.5649 14.4472C61.5462 14.4684 61.528 14.4825 61.5096 14.49C61.4911 14.4968 61.4718 14.4965 61.4512 14.4903C61.4146 14.478 61.372 14.4358 61.3235 14.3638C61.2753 14.2917 61.2089 14.2079 61.1264 14.1128C61.044 14.0177 60.9368 13.9202 60.8067 13.8209C60.6766 13.7216 60.5078 13.6385 60.3027 13.5703C60.0789 13.4964 59.861 13.474 59.6481 13.5027C59.4347 13.5323 59.2346 13.6119 59.0477 13.7441C58.8604 13.8751 58.6901 14.0542 58.5359 14.2821C58.3826 14.5097 58.2534 14.7849 58.1472 15.1073C58.0421 15.427 57.9843 15.7219 57.9733 15.9902C57.962 16.2581 57.9933 16.4965 58.068 16.7047C58.1427 16.9122 58.2603 17.0893 58.4207 17.2355C58.5797 17.3818 58.7783 17.4939 59.0155 17.5723C59.2159 17.639 59.3986 17.6716 59.5651 17.6716C59.7315 17.6716 59.8761 17.6584 60.0021 17.6321C60.1274 17.6055 60.2316 17.5786 60.3161 17.5514C60.3998 17.5239 60.4614 17.5173 60.5004 17.5301C60.5189 17.5364 60.5326 17.5457 60.5439 17.5577C60.5543 17.5699 60.5602 17.5888 60.5611 17.6133C60.5617 17.6378 60.557 17.6701 60.5483 17.7105C60.5376 17.7479 60.5236 17.7978 60.504 17.8576Z" fill="white"/>
<path d="M64.6204 20.4106C64.6138 20.4743 64.6022 20.5231 64.5876 20.5566C64.573 20.5898 64.5513 20.6113 64.5233 20.6185C64.4947 20.6257 64.4566 20.6212 64.4096 20.6032C64.362 20.5853 64.3006 20.5587 64.2244 20.5213C64.1485 20.4833 64.0893 20.4522 64.0455 20.4259C64.0021 20.3999 63.9705 20.3768 63.9523 20.3571C63.9336 20.3374 63.9214 20.3167 63.9181 20.2967C63.9136 20.2769 63.9124 20.253 63.9136 20.2264L64.0765 18.8644L62.104 17.8867L61.1532 18.8402C61.1347 18.8587 61.1153 18.8725 61.0957 18.8829C61.0763 18.8928 61.0519 18.8979 61.0231 18.8976C60.9939 18.897 60.9576 18.8886 60.9123 18.8725C60.8674 18.8557 60.8102 18.8306 60.742 18.7971C60.6715 18.7621 60.6146 18.7298 60.573 18.7017C60.5304 18.6733 60.5048 18.6455 60.4944 18.6197C60.4848 18.5937 60.4881 18.5638 60.506 18.5318C60.5235 18.4995 60.5548 18.4612 60.6009 18.4164L64.3655 14.7762C64.3882 14.7544 64.4123 14.7382 64.4364 14.7296C64.4608 14.7203 64.4906 14.7179 64.526 14.7233C64.5614 14.7287 64.604 14.7415 64.6537 14.761C64.7031 14.7807 64.7647 14.8091 64.8374 14.845C64.9163 14.8842 64.98 14.9177 65.0297 14.9473C65.0791 14.9763 65.1175 15.0035 65.1449 15.0287C65.172 15.0544 65.1887 15.0807 65.1973 15.1076C65.2047 15.1348 65.2074 15.1638 65.2038 15.1961L64.6204 20.4106ZM64.4959 15.4904L64.4924 15.4886L62.5085 17.4596L64.1586 18.2767L64.4959 15.4904Z" fill="white"/>
<path d="M67.5482 22.3191C67.5178 22.3643 67.4908 22.4011 67.466 22.4292C67.441 22.4573 67.4163 22.4785 67.3919 22.4935C67.3675 22.5084 67.3446 22.5159 67.3235 22.5165C67.302 22.5168 67.2806 22.5102 67.2603 22.4971L65.309 21.202C65.2566 21.1673 65.2188 21.1168 65.1956 21.0501C65.172 20.9837 65.1893 20.9065 65.2488 20.8174L67.948 16.7116C67.9602 16.6931 67.9754 16.6805 67.993 16.6724C68.0114 16.665 68.0346 16.665 68.0617 16.6718C68.0903 16.6784 68.1254 16.6919 68.1671 16.7125C68.21 16.732 68.2585 16.7604 68.3124 16.7966C68.3689 16.8342 68.4145 16.8683 68.4484 16.8991C68.4818 16.9302 68.5074 16.9563 68.5252 16.9802C68.5431 17.0035 68.5514 17.0242 68.5514 17.0445C68.5517 17.0642 68.5452 17.0834 68.5333 17.101L66.0115 20.9356L67.5935 21.9862C67.6137 22.0003 67.6277 22.0173 67.6366 22.0371C67.6447 22.0568 67.6473 22.0807 67.6447 22.1062C67.642 22.1325 67.6325 22.1627 67.6161 22.198C67.6015 22.233 67.5783 22.2736 67.5482 22.3191Z" fill="white"/>
<path d="M70.9779 24.6142C70.9499 24.6477 70.9237 24.6764 70.9011 24.6995C70.8778 24.7228 70.8558 24.7422 70.8344 24.7557C70.8135 24.7706 70.7921 24.7811 70.7716 24.7886C70.7513 24.7958 70.7212 24.8015 70.6831 24.805C70.6444 24.8086 70.5745 24.8032 70.4715 24.7892C70.3679 24.7754 70.2506 24.7473 70.1178 24.7045C69.9845 24.6612 69.8416 24.5996 69.6897 24.5197C69.5379 24.4387 69.3858 24.3352 69.234 24.2057C68.9717 23.9835 68.7714 23.7385 68.6338 23.4714C68.4957 23.2041 68.4252 22.9217 68.4195 22.6241C68.4141 22.3262 68.4781 22.0176 68.6103 21.6967C68.741 21.3767 68.9455 21.0525 69.2212 20.7232C69.5043 20.3864 69.7993 20.1226 70.1077 19.9318C70.4161 19.741 70.7242 19.6207 71.0347 19.5702C71.3446 19.5191 71.6486 19.5382 71.9471 19.6264C72.2454 19.7147 72.5267 19.8702 72.7917 20.0945C72.9087 20.1935 73.0129 20.3003 73.1052 20.416C73.1971 20.5318 73.2757 20.6463 73.3415 20.7588C73.407 20.8715 73.4579 20.981 73.4936 21.0866C73.53 21.1924 73.5496 21.2714 73.5547 21.3237C73.5594 21.3761 73.5597 21.4129 73.5556 21.4341C73.5508 21.4559 73.5437 21.4787 73.5323 21.5029C73.521 21.5271 73.505 21.5546 73.4856 21.5839C73.4663 21.6138 73.441 21.6476 73.4082 21.685C73.3737 21.7275 73.3409 21.761 73.3126 21.787C73.2838 21.8127 73.2567 21.8319 73.232 21.8444C73.2073 21.857 73.1849 21.863 73.165 21.863C73.1459 21.8624 73.1275 21.8558 73.1102 21.8414C73.0807 21.8166 73.0572 21.7613 73.0394 21.676C73.0209 21.5908 72.9914 21.4885 72.9504 21.3698C72.9081 21.251 72.8456 21.12 72.7616 20.9786C72.6777 20.8371 72.5532 20.6974 72.3871 20.5572C72.2073 20.404 72.0129 20.3018 71.8048 20.2488C71.5965 20.1959 71.3809 20.1947 71.1583 20.2467C70.9359 20.2982 70.7111 20.4008 70.4837 20.5533C70.2563 20.7058 70.0336 20.9125 69.816 21.1721C69.5995 21.4293 69.437 21.6805 69.326 21.9258C69.2155 22.1701 69.1569 22.4037 69.1482 22.6241C69.1405 22.8446 69.1831 23.0536 69.2769 23.2492C69.3706 23.4445 69.5129 23.6237 69.704 23.7852C69.8651 23.9219 70.0229 24.0214 70.1765 24.0834C70.3307 24.1462 70.4703 24.1886 70.5962 24.2111C70.7227 24.2341 70.8293 24.2484 70.9171 24.2547C71.0049 24.261 71.0648 24.2772 71.0966 24.3041C71.1115 24.3166 71.1213 24.3307 71.1267 24.346C71.1324 24.3612 71.1303 24.3797 71.121 24.4025C71.1127 24.4258 71.0969 24.4548 71.0734 24.4883C71.0505 24.5251 71.018 24.5664 70.9779 24.6142Z" fill="white"/>
<path d="M75.1188 27.4028C74.8773 27.6167 74.6314 27.7716 74.3808 27.8694C74.1292 27.966 73.8807 28.007 73.6342 27.9911C73.3883 27.9759 73.1483 27.9038 72.915 27.7743C72.6813 27.6451 72.4595 27.4606 72.2481 27.2204C72.0555 27.0006 71.9108 26.7724 71.8159 26.5358C71.7206 26.2989 71.6775 26.0611 71.6873 25.8216C71.6971 25.5826 71.7647 25.3457 71.8894 25.1113C72.0141 24.8765 72.1975 24.6513 72.441 24.4353L74.902 22.252C74.919 22.2374 74.9363 22.2293 74.9562 22.2263C74.9753 22.2233 74.9982 22.2296 75.0235 22.244C75.0488 22.2583 75.0792 22.2793 75.1125 22.3077C75.1464 22.3364 75.1872 22.3765 75.234 22.43C75.2774 22.4793 75.3117 22.5233 75.3373 22.5628C75.3629 22.6023 75.3807 22.6349 75.3909 22.6606C75.401 22.6863 75.4037 22.7087 75.398 22.7285C75.3926 22.747 75.3819 22.7644 75.3664 22.7787L72.97 24.9043C72.7861 25.0676 72.6449 25.2327 72.5479 25.3987C72.4515 25.5656 72.394 25.7316 72.3788 25.8972C72.3624 26.0635 72.3848 26.2268 72.4443 26.3877C72.5041 26.5483 72.5994 26.7042 72.7316 26.8543C72.8664 27.008 73.0099 27.1247 73.1597 27.2054C73.3094 27.2862 73.4666 27.3275 73.6297 27.3308C73.7925 27.3346 73.9593 27.2993 74.1319 27.2252C74.3031 27.1513 74.4781 27.0356 74.6556 26.8779L77.0799 24.7281C77.0969 24.7132 77.1142 24.7048 77.1341 24.7018C77.1535 24.6991 77.1761 24.7054 77.2014 24.7195C77.2267 24.7341 77.2571 24.7557 77.2919 24.7853C77.3267 24.8146 77.3672 24.8543 77.4116 24.9058C77.455 24.9551 77.489 24.9991 77.514 25.0368C77.5384 25.0754 77.5563 25.1074 77.5661 25.1331C77.5756 25.1591 77.5789 25.1818 77.5744 25.2016C77.5697 25.2213 77.5595 25.239 77.5435 25.2536L75.1188 27.4028Z" fill="white"/>
<path d="M80.3397 29.7195C80.2963 29.7482 80.2581 29.7709 80.2221 29.7871C80.1873 29.8041 80.1569 29.8137 80.1304 29.8164C80.1042 29.8191 80.0819 29.8155 80.0623 29.8071C80.0438 29.7984 80.0289 29.7847 80.0167 29.7661L79.1981 28.5175L75.3677 31.0528C75.3492 31.0648 75.3305 31.0707 75.3111 31.0707C75.2921 31.0704 75.27 31.0621 75.2471 31.0441C75.2242 31.0262 75.1974 31.0005 75.1667 30.9667C75.1361 30.9329 75.1021 30.8865 75.0649 30.83C75.0289 30.7747 75.0006 30.7259 74.981 30.6837C74.9619 30.641 74.9482 30.6057 74.9411 30.5779C74.9345 30.5494 74.9345 30.5264 74.942 30.5088C74.9491 30.4902 74.9622 30.4759 74.981 30.4636L78.8114 27.9286L77.993 26.6799C77.9811 26.6614 77.9746 26.6419 77.9746 26.6213C77.9737 26.6007 77.9808 26.5788 77.993 26.557C78.0067 26.5349 78.0267 26.5109 78.0552 26.4837C78.0832 26.4571 78.1192 26.4293 78.1618 26.4012C78.2053 26.3722 78.2449 26.35 78.2812 26.3336C78.3181 26.3174 78.3496 26.3073 78.3764 26.3025C78.4026 26.2977 78.425 26.3001 78.4446 26.3088C78.4631 26.3174 78.4786 26.3312 78.4908 26.35L80.5145 29.4366C80.5264 29.4551 80.5329 29.4745 80.5332 29.4955C80.5338 29.5158 80.527 29.5391 80.5136 29.5628C80.4999 29.5864 80.4784 29.6115 80.4478 29.6381C80.4198 29.6636 80.3829 29.6908 80.3397 29.7195Z" fill="white"/>
<path d="M82.4298 33.8917C82.3837 33.9145 82.3417 33.9324 82.3051 33.9444C82.2685 33.9563 82.2369 33.9623 82.211 33.9611C82.1845 33.9605 82.1631 33.9548 82.1455 33.9432C82.1271 33.9321 82.1143 33.9162 82.1041 33.8971L81.4477 32.5557L77.3316 34.5889C77.3125 34.5988 77.2923 34.6023 77.2732 34.5997C77.2539 34.5967 77.233 34.5856 77.2134 34.5653C77.1928 34.5455 77.1699 34.5159 77.1434 34.4785C77.1178 34.4408 77.0892 34.3918 77.0598 34.3305C77.0309 34.2716 77.0092 34.2195 76.9949 34.1747C76.9803 34.1298 76.9717 34.0933 76.9678 34.0643C76.9642 34.035 76.9678 34.0126 76.9776 33.9958C76.9874 33.9782 77.002 33.9647 77.0214 33.9551L81.1372 31.922L80.4811 30.5806C80.4716 30.5614 80.4674 30.5405 80.4695 30.5202C80.4716 30.4995 80.4805 30.4783 80.4966 30.4589C80.5127 30.4391 80.5362 30.4167 80.5672 30.394C80.5981 30.3709 80.6368 30.3479 80.6842 30.3252C80.7306 30.3024 80.7729 30.2848 80.8119 30.2734C80.8503 30.2624 80.8824 30.2558 80.9095 30.2549C80.9366 30.2534 80.9586 30.2588 80.9768 30.2698C80.9943 30.2809 81.0078 30.2965 81.0176 30.3159L82.6409 33.6333C82.6504 33.6528 82.6546 33.6734 82.6525 33.694C82.6504 33.7144 82.6412 33.7365 82.6242 33.758C82.6072 33.7799 82.5825 33.8017 82.5495 33.825C82.5164 33.846 82.4766 33.8687 82.4298 33.8917Z" fill="white"/>
<path d="M79.4901 39.7394C79.4406 39.7804 79.3987 39.8079 79.365 39.8207C79.3308 39.8345 79.3007 39.8342 79.2751 39.8198C79.2498 39.8055 79.2269 39.7762 79.2046 39.7295C79.1825 39.6841 79.1575 39.6212 79.129 39.5408C79.1004 39.4603 79.0801 39.3966 79.0667 39.3476C79.0536 39.2985 79.0477 39.26 79.0483 39.2321C79.0486 39.204 79.0545 39.1819 79.0658 39.1646C79.0769 39.1472 79.0926 39.1296 79.1117 39.1107L80.1724 38.2467L79.4344 36.1648L78.0909 36.1833C78.065 36.1839 78.0418 36.1806 78.0207 36.1743C77.9998 36.1674 77.9784 36.1537 77.9584 36.1328C77.9388 36.1127 77.9174 36.0804 77.8965 36.0376C77.8757 35.994 77.8522 35.9366 77.8269 35.8645C77.7998 35.7897 77.7819 35.7272 77.7709 35.6773C77.7602 35.627 77.7608 35.5893 77.7718 35.5633C77.7825 35.5376 77.8054 35.5196 77.8406 35.5077C77.8754 35.4966 77.9254 35.4909 77.9894 35.4912L83.2136 35.514C83.2451 35.514 83.2731 35.5199 83.2969 35.5298C83.321 35.54 83.3437 35.56 83.3651 35.5881C83.3862 35.6165 83.4086 35.6554 83.4303 35.7045C83.452 35.7532 83.4764 35.8163 83.5038 35.8944C83.5336 35.9763 83.5559 36.0457 83.5714 36.1011C83.5869 36.157 83.5949 36.203 83.5967 36.2401C83.5982 36.2772 83.5928 36.3086 83.5791 36.3334C83.5663 36.3583 83.5482 36.381 83.5232 36.4019L79.4901 39.7394ZM82.812 36.122L82.8108 36.1181L80.0211 36.1441L80.638 37.8848L82.812 36.122Z" fill="white"/>
<path d="M88.5818 48.4713C88.5818 70.7879 70.576 88.8782 48.3626 88.8782C26.1483 88.8782 8.14331 70.7888 8.14331 48.4713C8.14331 26.1556 26.1483 8.0647 48.3626 8.0647C70.5757 8.065 88.5818 26.1556 88.5818 48.4713Z" stroke="white"/>
<path d="M91.799 48.4713C91.799 72.5731 72.3524 92.1097 48.3626 92.1097C24.3714 92.1097 4.92505 72.5731 4.92505 48.4713C4.92505 24.3697 24.3711 4.83276 48.3626 4.83276C72.3524 4.83276 91.799 24.3697 91.799 48.4713Z" stroke="white"/>
<path d="M82.5971 46.117C83.4604 46.117 84.1603 45.4139 84.1603 44.5466C84.1603 43.6792 83.4604 42.9761 82.5971 42.9761C81.7338 42.9761 81.0339 43.6792 81.0339 44.5466C81.0339 45.4139 81.7338 46.117 82.5971 46.117Z" fill="white"/>
<path d="M13.6071 46.117C14.4704 46.117 15.1703 45.4139 15.1703 44.5466C15.1703 43.6792 14.4704 42.9761 13.6071 42.9761C12.7438 42.9761 12.0439 43.6792 12.0439 44.5466C12.0439 45.4139 12.7438 46.117 13.6071 46.117Z" fill="white"/>
<path d="M53.7142 35.4778C46.5729 32.5059 38.3837 35.9115 35.425 43.0892C32.4671 50.2651 35.8584 58.4913 43.0012 61.4633C50.1419 64.4356 58.3314 61.0284 61.2908 53.854C64.2492 46.6761 60.8558 38.4486 53.7142 35.4778ZM55.9005 39.1652C56.3753 38.6879 57.1463 38.6879 57.6211 39.1652C58.0959 39.6423 58.0959 40.4169 57.6211 40.8942C57.1454 41.3713 56.3744 41.3713 55.9005 40.8942C55.4242 40.4166 55.4245 39.6432 55.9005 39.1652ZM48.3579 35.3104C49.0301 35.3104 49.5745 35.8577 49.5745 36.5327C49.5745 37.208 49.0301 37.755 48.3579 37.755C47.686 37.755 47.1412 37.208 47.1412 36.5327C47.1412 35.8577 47.686 35.3104 48.3579 35.3104ZM39.0958 39.1655C39.5703 38.6867 40.3411 38.6879 40.8162 39.1658C41.2901 39.642 41.2913 40.4178 40.8162 40.8942C40.3405 41.3713 39.5703 41.3721 39.0949 40.893C38.6201 40.4163 38.6204 39.6435 39.0958 39.1655ZM35.2592 48.4712C35.2577 47.7955 35.8031 47.2488 36.4758 47.2488C37.1468 47.2491 37.6928 47.7961 37.6928 48.4712C37.6928 49.1471 37.1486 49.6935 36.474 49.6935C35.8031 49.6935 35.2592 49.1468 35.2592 48.4712ZM40.8153 57.7774C40.3405 58.2541 39.5712 58.2541 39.0961 57.7768C38.6195 57.2995 38.6195 56.5255 39.0961 56.0472C39.5706 55.5714 40.3419 55.5696 40.8165 56.0472C41.2913 56.5258 41.2913 57.2986 40.8153 57.7774ZM48.3579 61.6311C47.6857 61.6317 47.1412 61.0847 47.1409 60.4084C47.1412 59.7349 47.6857 59.1864 48.3576 59.1864C49.0301 59.1864 49.5739 59.7331 49.5739 60.4102C49.5739 61.0847 49.0298 61.6305 48.3579 61.6311ZM57.6208 57.7771C57.1454 58.2547 56.3744 58.2541 55.8984 57.7771C55.4248 57.2995 55.4242 56.5254 55.8984 56.0481C56.375 55.5699 57.1442 55.5699 57.6208 56.0487C58.0959 56.526 58.0953 57.2995 57.6208 57.7771ZM60.5043 53.5041C59.9601 54.835 56.0291 54.1442 55.0187 55.1637C54.0134 56.1794 54.7198 60.1064 53.4037 60.6588C52.082 61.2133 49.7892 57.9326 48.3576 57.9359C46.9316 57.9398 44.6662 61.2189 43.3471 60.6737C42.0236 60.1264 42.7113 56.1788 41.6961 55.1637C40.6852 54.1525 36.7759 54.862 36.227 53.5397C35.6753 52.2124 38.941 49.9092 38.9371 48.4712C38.9333 47.0386 35.6688 44.7616 36.2121 43.4364C36.7569 42.1067 40.6864 42.7985 41.6964 41.7789C42.7023 40.7632 41.9968 36.8342 43.3129 36.2821C44.6341 35.7279 46.9263 39.0106 48.3576 39.0064C49.7844 39.0028 52.0504 35.7228 53.3689 36.268C54.6927 36.8156 54.0039 40.7641 55.0187 41.7789C56.0294 42.7892 59.9395 42.0786 60.4891 43.4011C61.041 44.7285 57.7738 47.0323 57.778 48.4712C57.7822 49.9041 61.0467 52.1792 60.5043 53.5041ZM60.2399 49.6938C59.5686 49.6935 59.0241 49.1471 59.0233 48.4715C59.0233 47.7955 59.5674 47.2491 60.2408 47.2488C60.9127 47.2488 61.4566 47.7961 61.4575 48.4712C61.4578 49.1468 60.9124 49.6938 60.2399 49.6938Z" fill="white"/>
<path d="M48.3575 49.3123C48.82 49.3123 49.195 48.9356 49.195 48.471C49.195 48.0063 48.82 47.6296 48.3575 47.6296C47.8951 47.6296 47.5201 48.0063 47.5201 48.471C47.5201 48.9356 47.8951 49.3123 48.3575 49.3123Z" fill="white"/>
<path d="M48.3575 52.6768C48.82 52.6768 49.195 52.3001 49.195 51.8355C49.195 51.3708 48.82 50.9941 48.3575 50.9941C47.8951 50.9941 47.5201 51.3708 47.5201 51.8355C47.5201 52.3001 47.8951 52.6768 48.3575 52.6768Z" fill="white"/>
<path d="M51.4985 49.9108C51.1362 49.6216 50.6102 49.6803 50.322 50.0439C50.033 50.4073 50.0925 50.9367 50.4542 51.2259C50.8156 51.5154 51.3419 51.4565 51.6301 51.0937C51.9197 50.7297 51.8596 50.2007 51.4985 49.9108Z" fill="white"/>
<path d="M51.4369 46.9017C50.9856 47.0055 50.7039 47.4562 50.8067 47.9091C50.9102 48.3622 51.3586 48.6454 51.8099 48.5413C52.2597 48.4378 52.5425 47.9871 52.4392 47.5352C52.3368 47.0815 51.887 46.7989 51.4369 46.9017Z" fill="white"/>
<path d="M50.5652 45.803C50.7658 45.3854 50.5905 44.8824 50.1746 44.6814C49.7578 44.4786 49.2577 44.656 49.0565 45.0738C48.8558 45.4928 49.0312 45.9956 49.447 46.1975C49.8644 46.3978 50.3645 46.2226 50.5652 45.803Z" fill="white"/>
<path d="M47.6576 45.0735C47.4588 44.6557 46.9572 44.4795 46.5416 44.6811C46.1245 44.8821 45.9507 45.3852 46.1507 45.8039C46.3514 46.2223 46.8518 46.3976 47.268 46.1969C47.6847 45.995 47.8604 45.4928 47.6576 45.0735Z" fill="white"/>
<path d="M45.9085 47.909C46.0121 47.4556 45.7307 47.0049 45.2783 46.9029C44.8279 46.7979 44.3792 47.0821 44.2762 47.5343C44.1726 47.9877 44.4563 48.4378 44.9067 48.5413C45.3568 48.6454 45.8061 48.3615 45.9085 47.909Z" fill="white"/>
<path d="M45.2175 49.912C44.8553 50.2009 44.7963 50.7294 45.0842 51.0936C45.3723 51.4567 45.9001 51.5141 46.2612 51.2252C46.6232 50.9369 46.6816 50.4066 46.3937 50.0445C46.105 49.6808 45.5786 49.6201 45.2175 49.912Z" fill="white"/>
</svg>
