<svg width="19" height="19" viewBox="0 0 19 19" fill="none" xmlns="http://www.w3.org/2000/svg">
<path d="M5.9375 2.67188C5.9375 1.85171 6.6025 1.1875 7.42188 1.1875H7.71875C8.50611 1.1875 9.26122 1.50028 9.81797 2.05703C10.3747 2.61378 10.6875 3.36889 10.6875 4.15625V5.64062C10.6875 6.46079 11.3525 7.125 12.1719 7.125H13.6562C14.4436 7.125 15.1987 7.43778 15.7555 7.99453C16.3122 8.55128 16.625 9.30639 16.625 10.0938V12.7656C16.625 13.585 15.96 14.25 15.1406 14.25H7.42188C7.02819 14.25 6.65064 14.0936 6.37226 13.8152C6.09389 13.5369 5.9375 13.1593 5.9375 12.7656V2.67188Z" fill="white"/>
<path d="M11.875 4.15625C11.8764 3.1576 11.5168 2.1921 10.8625 1.43767C12.1871 1.78597 13.3956 2.47988 14.3641 3.44841C15.3326 4.41695 16.0265 5.62535 16.3748 6.95004C15.6204 6.29572 14.6549 5.93611 13.6562 5.9375H12.1719C12.0931 5.9375 12.0176 5.90622 11.962 5.85055C11.9063 5.79487 11.875 5.71936 11.875 5.64063V4.15625ZM3.85937 4.75H4.75V12.7656C4.75 13.4743 5.0315 14.1539 5.53257 14.6549C6.03365 15.156 6.71325 15.4375 7.42187 15.4375H13.0625V16.3281C13.0625 17.1475 12.3975 17.8125 11.5781 17.8125H3.85937C3.46569 17.8125 3.08814 17.6561 2.80976 17.3777C2.53139 17.0994 2.375 16.7218 2.375 16.3281V6.23438C2.375 5.41421 3.04 4.75 3.85937 4.75Z" fill="white"/>
</svg>
