<svg width="17" height="17" viewBox="0 0 17 17" fill="none" xmlns="http://www.w3.org/2000/svg">
<path d="M11.6465 3.36525L12.9117 2.09925C13.1755 1.83549 13.5332 1.68732 13.9062 1.68732C14.2793 1.68732 14.637 1.83549 14.9008 2.09925C15.1645 2.36301 15.3127 2.72074 15.3127 3.09375C15.3127 3.46676 15.1645 3.82449 14.9008 4.08825L6.9365 12.0525C6.53999 12.4488 6.05102 12.74 5.51375 12.9L3.5 13.5L4.1 11.4863C4.25996 10.949 4.55123 10.46 4.9475 10.0635L11.6465 3.36525ZM11.6465 3.36525L13.625 5.34375M12.5 10.5V14.0625C12.5 14.5101 12.3222 14.9393 12.0057 15.2557C11.6893 15.5722 11.2601 15.75 10.8125 15.75H2.9375C2.48995 15.75 2.06072 15.5722 1.74426 15.2557C1.42779 14.9393 1.25 14.5101 1.25 14.0625V6.1875C1.25 5.73995 1.42779 5.31073 1.74426 4.99426C2.06072 4.67779 2.48995 4.5 2.9375 4.5H6.5" stroke="white" stroke-width="1.5" stroke-linecap="round" stroke-linejoin="round"/>
</svg>
