<svg width="34" height="34" viewBox="0 0 34 34" fill="none" xmlns="http://www.w3.org/2000/svg">
<path d="M25.25 8.75H25.265M9.5 2H24.5C28.6421 2 32 5.35786 32 9.5V24.5C32 28.6421 28.6421 32 24.5 32H9.5C5.35786 32 2 28.6421 2 24.5V9.5C2 5.35786 5.35786 2 9.5 2ZM23 16.055C23.1851 17.3034 22.9719 18.5783 22.3906 19.6985C21.8094 20.8187 20.8897 21.7271 19.7624 22.2945C18.6352 22.8619 17.3577 23.0594 16.1117 22.8589C14.8657 22.6584 13.7146 22.0701 12.8223 21.1777C11.9299 20.2854 11.3416 19.1343 11.1411 17.8883C10.9406 16.6423 11.1381 15.3648 11.7055 14.2376C12.2729 13.1103 13.1813 12.1906 14.3015 11.6094C15.4217 11.0281 16.6966 10.8149 17.945 11C19.2184 11.1888 20.3973 11.7822 21.3075 12.6925C22.2178 13.6027 22.8112 14.7816 23 16.055Z" stroke="white" stroke-width="4" stroke-linecap="round" stroke-linejoin="round"/>
</svg>
