<svg width="28" height="32" viewBox="0 0 28 32" fill="none" xmlns="http://www.w3.org/2000/svg">
<path d="M26 13.3333C26 22.6666 14 30.6666 14 30.6666C14 30.6666 2 22.6666 2 13.3333C2 10.1507 3.26428 7.09841 5.51472 4.84797C7.76516 2.59753 10.8174 1.33325 14 1.33325C17.1826 1.33325 20.2348 2.59753 22.4853 4.84797C24.7357 7.09841 26 10.1507 26 13.3333Z" stroke="white" stroke-width="3" stroke-linecap="round" stroke-linejoin="round"/>
<path d="M14 17.3333C16.2091 17.3333 18 15.5424 18 13.3333C18 11.1241 16.2091 9.33325 14 9.33325C11.7909 9.33325 10 11.1241 10 13.3333C10 15.5424 11.7909 17.3333 14 17.3333Z" stroke="white" stroke-width="3" stroke-linecap="round" stroke-linejoin="round"/>
</svg>
