<svg id="visual" viewBox="0 0 900 900" width="900" height="900" xmlns="http://www.w3.org/2000/svg" xmlns:xlink="http://www.w3.org/1999/xlink" version="1.1"><g transform="translate(463.19032218662926 471.41947640351884)"><path d="M171.1 -331.6C203.6 -277.7 199.2 -195.1 210.1 -135C220.9 -75 247 -37.5 273.2 15.2C299.5 67.8 326 135.7 313.6 193C301.1 250.3 249.8 297 191.1 317.8C132.3 338.5 66.2 333.3 -4.4 340.9C-75 348.6 -150 369.1 -187.5 336.1C-225.1 303.1 -225.1 216.6 -249.4 151.6C-273.8 86.7 -322.4 43.3 -337.7 -8.8C-353 -61 -335 -122 -295.6 -161C-256.3 -199.9 -195.7 -216.9 -142.8 -259.1C-90 -301.2 -45 -368.6 12.2 -389.7C69.3 -410.8 138.7 -385.5 171.1 -331.6" fill="#BB004B"></path></g></svg>