<svg id="visual" viewBox="0 0 960 540" width="960" height="540" xmlns="http://www.w3.org/2000/svg" xmlns:xlink="http://www.w3.org/1999/xlink" version="1.1"><rect x="0" y="0" width="960" height="540" fill="#ffda7f"></rect><defs><linearGradient id="grad1_0" x1="43.8%" y1="0%" x2="100%" y2="100%"><stop offset="14.444444444444446%" stop-color="#e63a3a" stop-opacity="1"></stop><stop offset="85.55555555555554%" stop-color="#e63a3a" stop-opacity="1"></stop></linearGradient></defs><defs><linearGradient id="grad1_1" x1="43.8%" y1="0%" x2="100%" y2="100%"><stop offset="14.444444444444446%" stop-color="#e63a3a" stop-opacity="1"></stop><stop offset="85.55555555555554%" stop-color="#ee623a" stop-opacity="1"></stop></linearGradient></defs><defs><linearGradient id="grad1_2" x1="43.8%" y1="0%" x2="100%" y2="100%"><stop offset="14.444444444444446%" stop-color="#f48441" stop-opacity="1"></stop><stop offset="85.55555555555554%" stop-color="#ee623a" stop-opacity="1"></stop></linearGradient></defs><defs><linearGradient id="grad1_3" x1="43.8%" y1="0%" x2="100%" y2="100%"><stop offset="14.444444444444446%" stop-color="#f48441" stop-opacity="1"></stop><stop offset="85.55555555555554%" stop-color="#f8a24f" stop-opacity="1"></stop></linearGradient></defs><defs><linearGradient id="grad1_4" x1="43.8%" y1="0%" x2="100%" y2="100%"><stop offset="14.444444444444446%" stop-color="#fcbf64" stop-opacity="1"></stop><stop offset="85.55555555555554%" stop-color="#f8a24f" stop-opacity="1"></stop></linearGradient></defs><defs><linearGradient id="grad1_5" x1="43.8%" y1="0%" x2="100%" y2="100%"><stop offset="14.444444444444446%" stop-color="#fcbf64" stop-opacity="1"></stop><stop offset="85.55555555555554%" stop-color="#ffda7f" stop-opacity="1"></stop></linearGradient></defs><defs><linearGradient id="grad2_0" x1="0%" y1="0%" x2="56.3%" y2="100%"><stop offset="14.444444444444446%" stop-color="#e63a3a" stop-opacity="1"></stop><stop offset="85.55555555555554%" stop-color="#e63a3a" stop-opacity="1"></stop></linearGradient></defs><defs><linearGradient id="grad2_1" x1="0%" y1="0%" x2="56.3%" y2="100%"><stop offset="14.444444444444446%" stop-color="#ee623a" stop-opacity="1"></stop><stop offset="85.55555555555554%" stop-color="#e63a3a" stop-opacity="1"></stop></linearGradient></defs><defs><linearGradient id="grad2_2" x1="0%" y1="0%" x2="56.3%" y2="100%"><stop offset="14.444444444444446%" stop-color="#ee623a" stop-opacity="1"></stop><stop offset="85.55555555555554%" stop-color="#f48441" stop-opacity="1"></stop></linearGradient></defs><defs><linearGradient id="grad2_3" x1="0%" y1="0%" x2="56.3%" y2="100%"><stop offset="14.444444444444446%" stop-color="#f8a24f" stop-opacity="1"></stop><stop offset="85.55555555555554%" stop-color="#f48441" stop-opacity="1"></stop></linearGradient></defs><defs><linearGradient id="grad2_4" x1="0%" y1="0%" x2="56.3%" y2="100%"><stop offset="14.444444444444446%" stop-color="#f8a24f" stop-opacity="1"></stop><stop offset="85.55555555555554%" stop-color="#fcbf64" stop-opacity="1"></stop></linearGradient></defs><defs><linearGradient id="grad2_5" x1="0%" y1="0%" x2="56.3%" y2="100%"><stop offset="14.444444444444446%" stop-color="#ffda7f" stop-opacity="1"></stop><stop offset="85.55555555555554%" stop-color="#fcbf64" stop-opacity="1"></stop></linearGradient></defs><g transform="translate(960, 0)"><path d="M0 351C-50.6 351 -101.2 351 -134.3 324.3C-167.4 297.6 -183.1 244.1 -207.9 207.9C-232.7 171.7 -266.6 152.7 -291.9 120.9C-317.3 89.2 -334.2 44.6 -351 0L0 0Z" fill="#fdcc71"></path><path d="M0 292.5C-42.2 292.5 -84.3 292.5 -111.9 270.2C-139.5 248 -152.6 203.4 -173.2 173.2C-193.9 143.1 -222.1 127.3 -243.3 100.8C-264.4 74.3 -278.5 37.1 -292.5 0L0 0Z" fill="#fab159"></path><path d="M0 234C-33.7 234 -67.5 234 -89.5 216.2C-111.6 198.4 -122.1 162.7 -138.6 138.6C-155.1 114.5 -177.7 101.8 -194.6 80.6C-211.5 59.4 -222.8 29.7 -234 0L0 0Z" fill="#f69347"></path><path d="M0 175.5C-25.3 175.5 -50.6 175.5 -67.2 162.1C-83.7 148.8 -91.6 122.1 -103.9 103.9C-116.3 85.8 -133.3 76.4 -146 60.5C-158.7 44.6 -167.1 22.3 -175.5 0L0 0Z" fill="#f1743d"></path><path d="M0 117C-16.9 117 -33.7 117 -44.8 108.1C-55.8 99.2 -61 81.4 -69.3 69.3C-77.6 57.2 -88.9 50.9 -97.3 40.3C-105.8 29.7 -111.4 14.9 -117 0L0 0Z" fill="#ea503a"></path><path d="M0 58.5C-8.4 58.5 -16.9 58.5 -22.4 54C-27.9 49.6 -30.5 40.7 -34.6 34.6C-38.8 28.6 -44.4 25.5 -48.7 20.2C-52.9 14.9 -55.7 7.4 -58.5 0L0 0Z" fill="#e63a3a"></path></g><g transform="translate(0, 540)"><path d="M0 -351C49.1 -348.3 98.2 -345.5 133.6 -322.4C168.9 -299.3 190.4 -255.8 223.4 -223.4C256.5 -191 301.1 -169.7 324.3 -134.3C347.5 -98.9 349.2 -49.5 351 0L0 0Z" fill="#fdcc71"></path><path d="M0 -292.5C40.9 -290.2 81.9 -287.9 111.3 -268.7C140.7 -249.4 158.7 -213.2 186.2 -186.2C213.8 -159.2 250.9 -141.4 270.2 -111.9C289.6 -82.4 291 -41.2 292.5 0L0 0Z" fill="#fab159"></path><path d="M0 -234C32.7 -232.2 65.5 -230.4 89 -215C112.6 -199.6 126.9 -170.6 149 -149C171 -127.4 200.7 -113.1 216.2 -89.5C231.6 -66 232.8 -33 234 0L0 0Z" fill="#f69347"></path><path d="M0 -175.5C24.6 -174.1 49.1 -172.8 66.8 -161.2C84.4 -149.7 95.2 -127.9 111.7 -111.7C128.3 -95.5 150.5 -84.9 162.1 -67.2C173.7 -49.5 174.6 -24.7 175.5 0L0 0Z" fill="#f1743d"></path><path d="M0 -117C16.4 -116.1 32.7 -115.2 44.5 -107.5C56.3 -99.8 63.5 -85.3 74.5 -74.5C85.5 -63.7 100.4 -56.6 108.1 -44.8C115.8 -33 116.4 -16.5 117 0L0 0Z" fill="#ea503a"></path><path d="M0 -58.5C8.2 -58 16.4 -57.6 22.3 -53.7C28.1 -49.9 31.7 -42.6 37.2 -37.2C42.8 -31.8 50.2 -28.3 54 -22.4C57.9 -16.5 58.2 -8.2 58.5 0L0 0Z" fill="#e63a3a"></path></g></svg>