<svg id="visual" viewBox="0 0 960 540" width="960" height="540" xmlns="http://www.w3.org/2000/svg" xmlns:xlink="http://www.w3.org/1999/xlink" version="1.1"><g stroke-width="1" stroke-linejoin="bevel"><path d="M527.3 235L500.3 186L431.7 194Z" fill="#b51f1d" stroke="#b51f1d"></path><path d="M431.7 194L397.7 267L527.3 235Z" fill="#bd2422" stroke="#bd2422"></path><path d="M397.7 267L511.3 321L527.3 235Z" fill="#b51f1d" stroke="#b51f1d"></path><path d="M437.7 83L349 166L431.7 194Z" fill="#bd2422" stroke="#bd2422"></path><path d="M431.7 194L349 166L397.7 267Z" fill="#960a0a" stroke="#960a0a"></path><path d="M349 166L337 275L397.7 267Z" fill="#bd2422" stroke="#bd2422"></path><path d="M397.7 267L398.7 392L511.3 321Z" fill="#bd2422" stroke="#bd2422"></path><path d="M500.3 186L437.7 83L431.7 194Z" fill="#c52927" stroke="#c52927"></path><path d="M511.3 321L628 246L527.3 235Z" fill="#960a0a" stroke="#960a0a"></path><path d="M527.3 235L618 140L500.3 186Z" fill="#de3635" stroke="#de3635"></path><path d="M500.3 186L526.3 86L437.7 83Z" fill="#ad1b18" stroke="#ad1b18"></path><path d="M618 140L526.3 86L500.3 186Z" fill="#a51614" stroke="#a51614"></path><path d="M337 275L398.7 392L397.7 267Z" fill="#bd2422" stroke="#bd2422"></path><path d="M628 246L618 140L527.3 235Z" fill="#e63a3a" stroke="#e63a3a"></path><path d="M437.7 83L343 101L349 166Z" fill="#bd2422" stroke="#bd2422"></path><path d="M349 166L234.3 173L337 275Z" fill="#9e100f" stroke="#9e100f"></path><path d="M337 275L307 376L398.7 392Z" fill="#bd2422" stroke="#bd2422"></path><path d="M206.3 299L307 376L337 275Z" fill="#c52927" stroke="#c52927"></path><path d="M504.3 452L645 365L511.3 321Z" fill="#a51614" stroke="#a51614"></path><path d="M511.3 321L645 365L628 246Z" fill="#b51f1d" stroke="#b51f1d"></path><path d="M628 246L679 117L618 140Z" fill="#b51f1d" stroke="#b51f1d"></path><path d="M307 376L352 419L398.7 392Z" fill="#a51614" stroke="#a51614"></path><path d="M398.7 392L504.3 452L511.3 321Z" fill="#d53130" stroke="#d53130"></path><path d="M423.7 453L504.3 452L398.7 392Z" fill="#bd2422" stroke="#bd2422"></path><path d="M352 419L423.7 453L398.7 392Z" fill="#d53130" stroke="#d53130"></path><path d="M773.7 171L679 117L628 246Z" fill="#9e100f" stroke="#9e100f"></path><path d="M616 0L526.3 0L526.3 86Z" fill="#b51f1d" stroke="#b51f1d"></path><path d="M616 0L526.3 86L618 140Z" fill="#bd2422" stroke="#bd2422"></path><path d="M526.3 86L526.3 0L437.7 83Z" fill="#c52927" stroke="#c52927"></path><path d="M437.7 83L388.7 0L343 101Z" fill="#bd2422" stroke="#bd2422"></path><path d="M343 101L234.3 173L349 166Z" fill="#d53130" stroke="#d53130"></path><path d="M526.3 0L388.7 0L437.7 83Z" fill="#960a0a" stroke="#960a0a"></path><path d="M343 101L244.3 90L234.3 173Z" fill="#cd2d2b" stroke="#cd2d2b"></path><path d="M504.3 452L606 465L645 365Z" fill="#d53130" stroke="#d53130"></path><path d="M535.3 540L606 465L504.3 452Z" fill="#960a0a" stroke="#960a0a"></path><path d="M291 0L244.3 90L343 101Z" fill="#de3635" stroke="#de3635"></path><path d="M102.7 141L206.3 299L234.3 173Z" fill="#cd2d2b" stroke="#cd2d2b"></path><path d="M234.3 173L206.3 299L337 275Z" fill="#bd2422" stroke="#bd2422"></path><path d="M307 376L299 540L352 419Z" fill="#9e100f" stroke="#9e100f"></path><path d="M679 117L616 0L618 140Z" fill="#de3635" stroke="#de3635"></path><path d="M206.3 299L229.3 376L307 376Z" fill="#b51f1d" stroke="#b51f1d"></path><path d="M405.7 540L504.3 452L423.7 453Z" fill="#e63a3a" stroke="#e63a3a"></path><path d="M747.7 330L750.7 279L645 365Z" fill="#e63a3a" stroke="#e63a3a"></path><path d="M645 365L750.7 279L628 246Z" fill="#c52927" stroke="#c52927"></path><path d="M756.7 438L747.7 330L645 365Z" fill="#c52927" stroke="#c52927"></path><path d="M388.7 0L291 0L343 101Z" fill="#b51f1d" stroke="#b51f1d"></path><path d="M887.3 243L773.7 171L750.7 279Z" fill="#de3635" stroke="#de3635"></path><path d="M750.7 279L773.7 171L628 246Z" fill="#e63a3a" stroke="#e63a3a"></path><path d="M679 117L711.7 0L616 0Z" fill="#c52927" stroke="#c52927"></path><path d="M405.7 540L423.7 453L352 419Z" fill="#9e100f" stroke="#9e100f"></path><path d="M405.7 540L535.3 540L504.3 452Z" fill="#c52927" stroke="#c52927"></path><path d="M606 465L756.7 438L645 365Z" fill="#cd2d2b" stroke="#cd2d2b"></path><path d="M299 540L405.7 540L352 419Z" fill="#a51614" stroke="#a51614"></path><path d="M777.7 59L711.7 0L679 117Z" fill="#c52927" stroke="#c52927"></path><path d="M678 540L756.7 438L606 465Z" fill="#a51614" stroke="#a51614"></path><path d="M747.7 330L887.3 243L750.7 279Z" fill="#c52927" stroke="#c52927"></path><path d="M181.3 475L299 540L307 376Z" fill="#9e100f" stroke="#9e100f"></path><path d="M773.7 171L777.7 59L679 117Z" fill="#c52927" stroke="#c52927"></path><path d="M291 0L194.3 0L244.3 90Z" fill="#9e100f" stroke="#9e100f"></path><path d="M244.3 90L102.7 141L234.3 173Z" fill="#cd2d2b" stroke="#cd2d2b"></path><path d="M535.3 540L678 540L606 465Z" fill="#960a0a" stroke="#960a0a"></path><path d="M229.3 376L181.3 475L307 376Z" fill="#9e100f" stroke="#9e100f"></path><path d="M106.7 395L181.3 475L229.3 376Z" fill="#de3635" stroke="#de3635"></path><path d="M106.7 395L229.3 376L206.3 299Z" fill="#cd2d2b" stroke="#cd2d2b"></path><path d="M106.7 54L102.7 141L244.3 90Z" fill="#b51f1d" stroke="#b51f1d"></path><path d="M69.7 279L106.7 395L206.3 299Z" fill="#c52927" stroke="#c52927"></path><path d="M102.7 141L69.7 279L206.3 299Z" fill="#9e100f" stroke="#9e100f"></path><path d="M194.3 0L106.7 54L244.3 90Z" fill="#ad1b18" stroke="#ad1b18"></path><path d="M0 204L0 253L69.7 279Z" fill="#de3635" stroke="#de3635"></path><path d="M765.7 540L834.3 431L756.7 438Z" fill="#a51614" stroke="#a51614"></path><path d="M756.7 438L834.3 431L747.7 330Z" fill="#de3635" stroke="#de3635"></path><path d="M773.7 171L890.3 113L777.7 59Z" fill="#cd2d2b" stroke="#cd2d2b"></path><path d="M874.3 392L887.3 243L747.7 330Z" fill="#cd2d2b" stroke="#cd2d2b"></path><path d="M887.3 243L888.3 201L773.7 171Z" fill="#e63a3a" stroke="#e63a3a"></path><path d="M678 540L765.7 540L756.7 438Z" fill="#d53130" stroke="#d53130"></path><path d="M129.7 540L176.3 540L181.3 475Z" fill="#ad1b18" stroke="#ad1b18"></path><path d="M181.3 475L176.3 540L299 540Z" fill="#960a0a" stroke="#960a0a"></path><path d="M194.3 0L107.7 0L106.7 54Z" fill="#cd2d2b" stroke="#cd2d2b"></path><path d="M0 204L69.7 279L102.7 141Z" fill="#960a0a" stroke="#960a0a"></path><path d="M960 462L874.3 392L834.3 431Z" fill="#ad1b18" stroke="#ad1b18"></path><path d="M834.3 431L874.3 392L747.7 330Z" fill="#ad1b18" stroke="#ad1b18"></path><path d="M888.3 201L890.3 113L773.7 171Z" fill="#bd2422" stroke="#bd2422"></path><path d="M777.7 59L882.3 0L711.7 0Z" fill="#de3635" stroke="#de3635"></path><path d="M68.7 477L129.7 540L181.3 475Z" fill="#d53130" stroke="#d53130"></path><path d="M68.7 477L181.3 475L106.7 395Z" fill="#c52927" stroke="#c52927"></path><path d="M0 481L68.7 477L106.7 395Z" fill="#e63a3a" stroke="#e63a3a"></path><path d="M0 204L102.7 141L0 97Z" fill="#d53130" stroke="#d53130"></path><path d="M69.7 279L0 330L106.7 395Z" fill="#9e100f" stroke="#9e100f"></path><path d="M0 97L102.7 141L106.7 54Z" fill="#9e100f" stroke="#9e100f"></path><path d="M890.3 113L882.3 0L777.7 59Z" fill="#de3635" stroke="#de3635"></path><path d="M0 253L0 330L69.7 279Z" fill="#cd2d2b" stroke="#cd2d2b"></path><path d="M765.7 540L843.3 540L834.3 431Z" fill="#c52927" stroke="#c52927"></path><path d="M0 0L0 97L106.7 54Z" fill="#960a0a" stroke="#960a0a"></path><path d="M887.3 243L960 289L888.3 201Z" fill="#9e100f" stroke="#9e100f"></path><path d="M888.3 201L960 153L890.3 113Z" fill="#ad1b18" stroke="#ad1b18"></path><path d="M890.3 113L960 81L882.3 0Z" fill="#960a0a" stroke="#960a0a"></path><path d="M874.3 392L960 289L887.3 243Z" fill="#c52927" stroke="#c52927"></path><path d="M960 382L960 289L874.3 392Z" fill="#cd2d2b" stroke="#cd2d2b"></path><path d="M960 289L960 153L888.3 201Z" fill="#c52927" stroke="#c52927"></path><path d="M960 462L960 382L874.3 392Z" fill="#a51614" stroke="#a51614"></path><path d="M960 153L960 81L890.3 113Z" fill="#ad1b18" stroke="#ad1b18"></path><path d="M107.7 0L0 0L106.7 54Z" fill="#b51f1d" stroke="#b51f1d"></path><path d="M0 330L0 481L106.7 395Z" fill="#c52927" stroke="#c52927"></path><path d="M68.7 477L0 540L129.7 540Z" fill="#d53130" stroke="#d53130"></path><path d="M843.3 540L960 462L834.3 431Z" fill="#ad1b18" stroke="#ad1b18"></path><path d="M960 81L960 0L882.3 0Z" fill="#e63a3a" stroke="#e63a3a"></path><path d="M0 481L0 540L68.7 477Z" fill="#c52927" stroke="#c52927"></path><path d="M843.3 540L960 540L960 462Z" fill="#e63a3a" stroke="#e63a3a"></path></g></svg>