<svg xmlns="http://www.w3.org/2000/svg" version="1.1" xmlns:xlink="http://www.w3.org/1999/xlink" xmlns:svgjs="http://svgjs.dev/svgjs" viewBox="0 0 800 800"><defs><linearGradient gradientTransform="rotate(270)" x1="50%" y1="0%" x2="50%" y2="100%" id="sssquiggly-grad"><stop stop-color="hsla(353, 98%, 41%, 1.00)" stop-opacity="1" offset="0%"></stop><stop stop-color="hsla(37, 91%, 55%, 1.00)" stop-opacity="1" offset="100%"></stop></linearGradient></defs><g stroke-width="2" stroke="url(#sssquiggly-grad)" fill="none" stroke-linecap="round" transform="matrix(1,0,0,1,0,57.560462951660156)"><path d="M10,10C21.805555555555557,15.625,40.97222222222223,42.416666666666664,66.66666666666667,37C92.36111111111111,31.583333333333336,105.55555555555557,-13.708333333333334,133.33333333333334,-16C161.11111111111111,-18.291666666666668,172.22222222222223,27.25,200,26C227.77777777777777,24.75,238.8888888888889,-22.833333333333332,266.6666666666667,-22C294.44444444444446,-21.166666666666668,305.5555555555556,30.625,333.33333333333337,30C361.11111111111114,29.375,372.22222222222223,-28.125,400,-25C427.77777777777777,-21.875,438.8888888888889,44.583333333333336,466.6666666666667,45C494.44444444444446,45.416666666666664,505.5555555555556,-20.708333333333332,533.3333333333334,-23C561.1111111111111,-25.291666666666668,572.2222222222222,32.75,600,34C627.7777777777778,35.25,638.8888888888889,-19.083333333333332,666.6666666666667,-17C694.4444444444446,-14.916666666666666,707.6388888888889,38.375,733.3333333333334,44C759.0277777777778,49.625,778.1944444444445,17.083333333333336,790,10"></path><path d="M10,10C21.805555555555557,15.625,40.97222222222223,42.416666666666664,66.66666666666667,37C92.36111111111111,31.583333333333336,105.55555555555557,-13.708333333333334,133.33333333333334,-16C161.11111111111111,-18.291666666666668,172.22222222222223,27.25,200,26C227.77777777777777,24.75,238.8888888888889,-22.833333333333332,266.6666666666667,-22C294.44444444444446,-21.166666666666668,305.5555555555556,30.625,333.33333333333337,30C361.11111111111114,29.375,372.22222222222223,-28.125,400,-25C427.77777777777777,-21.875,438.8888888888889,44.583333333333336,466.6666666666667,45C494.44444444444446,45.416666666666664,505.5555555555556,-20.708333333333332,533.3333333333334,-23C561.1111111111111,-25.291666666666668,572.2222222222222,32.75,600,34C627.7777777777778,35.25,638.8888888888889,-19.083333333333332,666.6666666666667,-17C694.4444444444446,-14.916666666666666,707.6388888888889,38.375,733.3333333333334,44C759.0277777777778,49.625,778.1944444444445,17.083333333333336,790,10" transform="matrix(1,0,0,1,0,665)"></path><path d="M10,10C21.805555555555557,15.625,40.97222222222223,42.416666666666664,66.66666666666667,37C92.36111111111111,31.583333333333336,105.55555555555557,-13.708333333333334,133.33333333333334,-16C161.11111111111111,-18.291666666666668,172.22222222222223,27.25,200,26C227.77777777777777,24.75,238.8888888888889,-22.833333333333332,266.6666666666667,-22C294.44444444444446,-21.166666666666668,305.5555555555556,30.625,333.33333333333337,30C361.11111111111114,29.375,372.22222222222223,-28.125,400,-25C427.77777777777777,-21.875,438.8888888888889,44.583333333333336,466.6666666666667,45C494.44444444444446,45.416666666666664,505.5555555555556,-20.708333333333332,533.3333333333334,-23C561.1111111111111,-25.291666666666668,572.2222222222222,32.75,600,34C627.7777777777778,35.25,638.8888888888889,-19.083333333333332,666.6666666666667,-17C694.4444444444446,-14.916666666666666,707.6388888888889,38.375,733.3333333333334,44C759.0277777777778,49.625,778.1944444444445,17.083333333333336,790,10" transform="matrix(1,0,0,1,0,630)"></path><path d="M10,10C21.805555555555557,15.625,40.97222222222223,42.416666666666664,66.66666666666667,37C92.36111111111111,31.583333333333336,105.55555555555557,-13.708333333333334,133.33333333333334,-16C161.11111111111111,-18.291666666666668,172.22222222222223,27.25,200,26C227.77777777777777,24.75,238.8888888888889,-22.833333333333332,266.6666666666667,-22C294.44444444444446,-21.166666666666668,305.5555555555556,30.625,333.33333333333337,30C361.11111111111114,29.375,372.22222222222223,-28.125,400,-25C427.77777777777777,-21.875,438.8888888888889,44.583333333333336,466.6666666666667,45C494.44444444444446,45.416666666666664,505.5555555555556,-20.708333333333332,533.3333333333334,-23C561.1111111111111,-25.291666666666668,572.2222222222222,32.75,600,34C627.7777777777778,35.25,638.8888888888889,-19.083333333333332,666.6666666666667,-17C694.4444444444446,-14.916666666666666,707.6388888888889,38.375,733.3333333333334,44C759.0277777777778,49.625,778.1944444444445,17.083333333333336,790,10" transform="matrix(1,0,0,1,0,595)"></path><path d="M10,10C21.805555555555557,15.625,40.97222222222223,42.416666666666664,66.66666666666667,37C92.36111111111111,31.583333333333336,105.55555555555557,-13.708333333333334,133.33333333333334,-16C161.11111111111111,-18.291666666666668,172.22222222222223,27.25,200,26C227.77777777777777,24.75,238.8888888888889,-22.833333333333332,266.6666666666667,-22C294.44444444444446,-21.166666666666668,305.5555555555556,30.625,333.33333333333337,30C361.11111111111114,29.375,372.22222222222223,-28.125,400,-25C427.77777777777777,-21.875,438.8888888888889,44.583333333333336,466.6666666666667,45C494.44444444444446,45.416666666666664,505.5555555555556,-20.708333333333332,533.3333333333334,-23C561.1111111111111,-25.291666666666668,572.2222222222222,32.75,600,34C627.7777777777778,35.25,638.8888888888889,-19.083333333333332,666.6666666666667,-17C694.4444444444446,-14.916666666666666,707.6388888888889,38.375,733.3333333333334,44C759.0277777777778,49.625,778.1944444444445,17.083333333333336,790,10" transform="matrix(1,0,0,1,0,560)"></path><path d="M10,10C21.805555555555557,15.625,40.97222222222223,42.416666666666664,66.66666666666667,37C92.36111111111111,31.583333333333336,105.55555555555557,-13.708333333333334,133.33333333333334,-16C161.11111111111111,-18.291666666666668,172.22222222222223,27.25,200,26C227.77777777777777,24.75,238.8888888888889,-22.833333333333332,266.6666666666667,-22C294.44444444444446,-21.166666666666668,305.5555555555556,30.625,333.33333333333337,30C361.11111111111114,29.375,372.22222222222223,-28.125,400,-25C427.77777777777777,-21.875,438.8888888888889,44.583333333333336,466.6666666666667,45C494.44444444444446,45.416666666666664,505.5555555555556,-20.708333333333332,533.3333333333334,-23C561.1111111111111,-25.291666666666668,572.2222222222222,32.75,600,34C627.7777777777778,35.25,638.8888888888889,-19.083333333333332,666.6666666666667,-17C694.4444444444446,-14.916666666666666,707.6388888888889,38.375,733.3333333333334,44C759.0277777777778,49.625,778.1944444444445,17.083333333333336,790,10" transform="matrix(1,0,0,1,0,525)"></path><path d="M10,10C21.805555555555557,15.625,40.97222222222223,42.416666666666664,66.66666666666667,37C92.36111111111111,31.583333333333336,105.55555555555557,-13.708333333333334,133.33333333333334,-16C161.11111111111111,-18.291666666666668,172.22222222222223,27.25,200,26C227.77777777777777,24.75,238.8888888888889,-22.833333333333332,266.6666666666667,-22C294.44444444444446,-21.166666666666668,305.5555555555556,30.625,333.33333333333337,30C361.11111111111114,29.375,372.22222222222223,-28.125,400,-25C427.77777777777777,-21.875,438.8888888888889,44.583333333333336,466.6666666666667,45C494.44444444444446,45.416666666666664,505.5555555555556,-20.708333333333332,533.3333333333334,-23C561.1111111111111,-25.291666666666668,572.2222222222222,32.75,600,34C627.7777777777778,35.25,638.8888888888889,-19.083333333333332,666.6666666666667,-17C694.4444444444446,-14.916666666666666,707.6388888888889,38.375,733.3333333333334,44C759.0277777777778,49.625,778.1944444444445,17.083333333333336,790,10" transform="matrix(1,0,0,1,0,490)"></path><path d="M10,10C21.805555555555557,15.625,40.97222222222223,42.416666666666664,66.66666666666667,37C92.36111111111111,31.583333333333336,105.55555555555557,-13.708333333333334,133.33333333333334,-16C161.11111111111111,-18.291666666666668,172.22222222222223,27.25,200,26C227.77777777777777,24.75,238.8888888888889,-22.833333333333332,266.6666666666667,-22C294.44444444444446,-21.166666666666668,305.5555555555556,30.625,333.33333333333337,30C361.11111111111114,29.375,372.22222222222223,-28.125,400,-25C427.77777777777777,-21.875,438.8888888888889,44.583333333333336,466.6666666666667,45C494.44444444444446,45.416666666666664,505.5555555555556,-20.708333333333332,533.3333333333334,-23C561.1111111111111,-25.291666666666668,572.2222222222222,32.75,600,34C627.7777777777778,35.25,638.8888888888889,-19.083333333333332,666.6666666666667,-17C694.4444444444446,-14.916666666666666,707.6388888888889,38.375,733.3333333333334,44C759.0277777777778,49.625,778.1944444444445,17.083333333333336,790,10" transform="matrix(1,0,0,1,0,455)"></path><path d="M10,10C21.805555555555557,15.625,40.97222222222223,42.416666666666664,66.66666666666667,37C92.36111111111111,31.583333333333336,105.55555555555557,-13.708333333333334,133.33333333333334,-16C161.11111111111111,-18.291666666666668,172.22222222222223,27.25,200,26C227.77777777777777,24.75,238.8888888888889,-22.833333333333332,266.6666666666667,-22C294.44444444444446,-21.166666666666668,305.5555555555556,30.625,333.33333333333337,30C361.11111111111114,29.375,372.22222222222223,-28.125,400,-25C427.77777777777777,-21.875,438.8888888888889,44.583333333333336,466.6666666666667,45C494.44444444444446,45.416666666666664,505.5555555555556,-20.708333333333332,533.3333333333334,-23C561.1111111111111,-25.291666666666668,572.2222222222222,32.75,600,34C627.7777777777778,35.25,638.8888888888889,-19.083333333333332,666.6666666666667,-17C694.4444444444446,-14.916666666666666,707.6388888888889,38.375,733.3333333333334,44C759.0277777777778,49.625,778.1944444444445,17.083333333333336,790,10" transform="matrix(1,0,0,1,0,420)"></path><path d="M10,10C21.805555555555557,15.625,40.97222222222223,42.416666666666664,66.66666666666667,37C92.36111111111111,31.583333333333336,105.55555555555557,-13.708333333333334,133.33333333333334,-16C161.11111111111111,-18.291666666666668,172.22222222222223,27.25,200,26C227.77777777777777,24.75,238.8888888888889,-22.833333333333332,266.6666666666667,-22C294.44444444444446,-21.166666666666668,305.5555555555556,30.625,333.33333333333337,30C361.11111111111114,29.375,372.22222222222223,-28.125,400,-25C427.77777777777777,-21.875,438.8888888888889,44.583333333333336,466.6666666666667,45C494.44444444444446,45.416666666666664,505.5555555555556,-20.708333333333332,533.3333333333334,-23C561.1111111111111,-25.291666666666668,572.2222222222222,32.75,600,34C627.7777777777778,35.25,638.8888888888889,-19.083333333333332,666.6666666666667,-17C694.4444444444446,-14.916666666666666,707.6388888888889,38.375,733.3333333333334,44C759.0277777777778,49.625,778.1944444444445,17.083333333333336,790,10" transform="matrix(1,0,0,1,0,385)"></path><path d="M10,10C21.805555555555557,15.625,40.97222222222223,42.416666666666664,66.66666666666667,37C92.36111111111111,31.583333333333336,105.55555555555557,-13.708333333333334,133.33333333333334,-16C161.11111111111111,-18.291666666666668,172.22222222222223,27.25,200,26C227.77777777777777,24.75,238.8888888888889,-22.833333333333332,266.6666666666667,-22C294.44444444444446,-21.166666666666668,305.5555555555556,30.625,333.33333333333337,30C361.11111111111114,29.375,372.22222222222223,-28.125,400,-25C427.77777777777777,-21.875,438.8888888888889,44.583333333333336,466.6666666666667,45C494.44444444444446,45.416666666666664,505.5555555555556,-20.708333333333332,533.3333333333334,-23C561.1111111111111,-25.291666666666668,572.2222222222222,32.75,600,34C627.7777777777778,35.25,638.8888888888889,-19.083333333333332,666.6666666666667,-17C694.4444444444446,-14.916666666666666,707.6388888888889,38.375,733.3333333333334,44C759.0277777777778,49.625,778.1944444444445,17.083333333333336,790,10" transform="matrix(1,0,0,1,0,350)"></path><path d="M10,10C21.805555555555557,15.625,40.97222222222223,42.416666666666664,66.66666666666667,37C92.36111111111111,31.583333333333336,105.55555555555557,-13.708333333333334,133.33333333333334,-16C161.11111111111111,-18.291666666666668,172.22222222222223,27.25,200,26C227.77777777777777,24.75,238.8888888888889,-22.833333333333332,266.6666666666667,-22C294.44444444444446,-21.166666666666668,305.5555555555556,30.625,333.33333333333337,30C361.11111111111114,29.375,372.22222222222223,-28.125,400,-25C427.77777777777777,-21.875,438.8888888888889,44.583333333333336,466.6666666666667,45C494.44444444444446,45.416666666666664,505.5555555555556,-20.708333333333332,533.3333333333334,-23C561.1111111111111,-25.291666666666668,572.2222222222222,32.75,600,34C627.7777777777778,35.25,638.8888888888889,-19.083333333333332,666.6666666666667,-17C694.4444444444446,-14.916666666666666,707.6388888888889,38.375,733.3333333333334,44C759.0277777777778,49.625,778.1944444444445,17.083333333333336,790,10" transform="matrix(1,0,0,1,0,315)"></path><path d="M10,10C21.805555555555557,15.625,40.97222222222223,42.416666666666664,66.66666666666667,37C92.36111111111111,31.583333333333336,105.55555555555557,-13.708333333333334,133.33333333333334,-16C161.11111111111111,-18.291666666666668,172.22222222222223,27.25,200,26C227.77777777777777,24.75,238.8888888888889,-22.833333333333332,266.6666666666667,-22C294.44444444444446,-21.166666666666668,305.5555555555556,30.625,333.33333333333337,30C361.11111111111114,29.375,372.22222222222223,-28.125,400,-25C427.77777777777777,-21.875,438.8888888888889,44.583333333333336,466.6666666666667,45C494.44444444444446,45.416666666666664,505.5555555555556,-20.708333333333332,533.3333333333334,-23C561.1111111111111,-25.291666666666668,572.2222222222222,32.75,600,34C627.7777777777778,35.25,638.8888888888889,-19.083333333333332,666.6666666666667,-17C694.4444444444446,-14.916666666666666,707.6388888888889,38.375,733.3333333333334,44C759.0277777777778,49.625,778.1944444444445,17.083333333333336,790,10" transform="matrix(1,0,0,1,0,280)"></path><path d="M10,10C21.805555555555557,15.625,40.97222222222223,42.416666666666664,66.66666666666667,37C92.36111111111111,31.583333333333336,105.55555555555557,-13.708333333333334,133.33333333333334,-16C161.11111111111111,-18.291666666666668,172.22222222222223,27.25,200,26C227.77777777777777,24.75,238.8888888888889,-22.833333333333332,266.6666666666667,-22C294.44444444444446,-21.166666666666668,305.5555555555556,30.625,333.33333333333337,30C361.11111111111114,29.375,372.22222222222223,-28.125,400,-25C427.77777777777777,-21.875,438.8888888888889,44.583333333333336,466.6666666666667,45C494.44444444444446,45.416666666666664,505.5555555555556,-20.708333333333332,533.3333333333334,-23C561.1111111111111,-25.291666666666668,572.2222222222222,32.75,600,34C627.7777777777778,35.25,638.8888888888889,-19.083333333333332,666.6666666666667,-17C694.4444444444446,-14.916666666666666,707.6388888888889,38.375,733.3333333333334,44C759.0277777777778,49.625,778.1944444444445,17.083333333333336,790,10" transform="matrix(1,0,0,1,0,245)"></path><path d="M10,10C21.805555555555557,15.625,40.97222222222223,42.416666666666664,66.66666666666667,37C92.36111111111111,31.583333333333336,105.55555555555557,-13.708333333333334,133.33333333333334,-16C161.11111111111111,-18.291666666666668,172.22222222222223,27.25,200,26C227.77777777777777,24.75,238.8888888888889,-22.833333333333332,266.6666666666667,-22C294.44444444444446,-21.166666666666668,305.5555555555556,30.625,333.33333333333337,30C361.11111111111114,29.375,372.22222222222223,-28.125,400,-25C427.77777777777777,-21.875,438.8888888888889,44.583333333333336,466.6666666666667,45C494.44444444444446,45.416666666666664,505.5555555555556,-20.708333333333332,533.3333333333334,-23C561.1111111111111,-25.291666666666668,572.2222222222222,32.75,600,34C627.7777777777778,35.25,638.8888888888889,-19.083333333333332,666.6666666666667,-17C694.4444444444446,-14.916666666666666,707.6388888888889,38.375,733.3333333333334,44C759.0277777777778,49.625,778.1944444444445,17.083333333333336,790,10" transform="matrix(1,0,0,1,0,210)"></path><path d="M10,10C21.805555555555557,15.625,40.97222222222223,42.416666666666664,66.66666666666667,37C92.36111111111111,31.583333333333336,105.55555555555557,-13.708333333333334,133.33333333333334,-16C161.11111111111111,-18.291666666666668,172.22222222222223,27.25,200,26C227.77777777777777,24.75,238.8888888888889,-22.833333333333332,266.6666666666667,-22C294.44444444444446,-21.166666666666668,305.5555555555556,30.625,333.33333333333337,30C361.11111111111114,29.375,372.22222222222223,-28.125,400,-25C427.77777777777777,-21.875,438.8888888888889,44.583333333333336,466.6666666666667,45C494.44444444444446,45.416666666666664,505.5555555555556,-20.708333333333332,533.3333333333334,-23C561.1111111111111,-25.291666666666668,572.2222222222222,32.75,600,34C627.7777777777778,35.25,638.8888888888889,-19.083333333333332,666.6666666666667,-17C694.4444444444446,-14.916666666666666,707.6388888888889,38.375,733.3333333333334,44C759.0277777777778,49.625,778.1944444444445,17.083333333333336,790,10" transform="matrix(1,0,0,1,0,175)"></path><path d="M10,10C21.805555555555557,15.625,40.97222222222223,42.416666666666664,66.66666666666667,37C92.36111111111111,31.583333333333336,105.55555555555557,-13.708333333333334,133.33333333333334,-16C161.11111111111111,-18.291666666666668,172.22222222222223,27.25,200,26C227.77777777777777,24.75,238.8888888888889,-22.833333333333332,266.6666666666667,-22C294.44444444444446,-21.166666666666668,305.5555555555556,30.625,333.33333333333337,30C361.11111111111114,29.375,372.22222222222223,-28.125,400,-25C427.77777777777777,-21.875,438.8888888888889,44.583333333333336,466.6666666666667,45C494.44444444444446,45.416666666666664,505.5555555555556,-20.708333333333332,533.3333333333334,-23C561.1111111111111,-25.291666666666668,572.2222222222222,32.75,600,34C627.7777777777778,35.25,638.8888888888889,-19.083333333333332,666.6666666666667,-17C694.4444444444446,-14.916666666666666,707.6388888888889,38.375,733.3333333333334,44C759.0277777777778,49.625,778.1944444444445,17.083333333333336,790,10" transform="matrix(1,0,0,1,0,140)"></path><path d="M10,10C21.805555555555557,15.625,40.97222222222223,42.416666666666664,66.66666666666667,37C92.36111111111111,31.583333333333336,105.55555555555557,-13.708333333333334,133.33333333333334,-16C161.11111111111111,-18.291666666666668,172.22222222222223,27.25,200,26C227.77777777777777,24.75,238.8888888888889,-22.833333333333332,266.6666666666667,-22C294.44444444444446,-21.166666666666668,305.5555555555556,30.625,333.33333333333337,30C361.11111111111114,29.375,372.22222222222223,-28.125,400,-25C427.77777777777777,-21.875,438.8888888888889,44.583333333333336,466.6666666666667,45C494.44444444444446,45.416666666666664,505.5555555555556,-20.708333333333332,533.3333333333334,-23C561.1111111111111,-25.291666666666668,572.2222222222222,32.75,600,34C627.7777777777778,35.25,638.8888888888889,-19.083333333333332,666.6666666666667,-17C694.4444444444446,-14.916666666666666,707.6388888888889,38.375,733.3333333333334,44C759.0277777777778,49.625,778.1944444444445,17.083333333333336,790,10" transform="matrix(1,0,0,1,0,105)"></path><path d="M10,10C21.805555555555557,15.625,40.97222222222223,42.416666666666664,66.66666666666667,37C92.36111111111111,31.583333333333336,105.55555555555557,-13.708333333333334,133.33333333333334,-16C161.11111111111111,-18.291666666666668,172.22222222222223,27.25,200,26C227.77777777777777,24.75,238.8888888888889,-22.833333333333332,266.6666666666667,-22C294.44444444444446,-21.166666666666668,305.5555555555556,30.625,333.33333333333337,30C361.11111111111114,29.375,372.22222222222223,-28.125,400,-25C427.77777777777777,-21.875,438.8888888888889,44.583333333333336,466.6666666666667,45C494.44444444444446,45.416666666666664,505.5555555555556,-20.708333333333332,533.3333333333334,-23C561.1111111111111,-25.291666666666668,572.2222222222222,32.75,600,34C627.7777777777778,35.25,638.8888888888889,-19.083333333333332,666.6666666666667,-17C694.4444444444446,-14.916666666666666,707.6388888888889,38.375,733.3333333333334,44C759.0277777777778,49.625,778.1944444444445,17.083333333333336,790,10" transform="matrix(1,0,0,1,0,70)"></path><path d="M10,10C21.805555555555557,15.625,40.97222222222223,42.416666666666664,66.66666666666667,37C92.36111111111111,31.583333333333336,105.55555555555557,-13.708333333333334,133.33333333333334,-16C161.11111111111111,-18.291666666666668,172.22222222222223,27.25,200,26C227.77777777777777,24.75,238.8888888888889,-22.833333333333332,266.6666666666667,-22C294.44444444444446,-21.166666666666668,305.5555555555556,30.625,333.33333333333337,30C361.11111111111114,29.375,372.22222222222223,-28.125,400,-25C427.77777777777777,-21.875,438.8888888888889,44.583333333333336,466.6666666666667,45C494.44444444444446,45.416666666666664,505.5555555555556,-20.708333333333332,533.3333333333334,-23C561.1111111111111,-25.291666666666668,572.2222222222222,32.75,600,34C627.7777777777778,35.25,638.8888888888889,-19.083333333333332,666.6666666666667,-17C694.4444444444446,-14.916666666666666,707.6388888888889,38.375,733.3333333333334,44C759.0277777777778,49.625,778.1944444444445,17.083333333333336,790,10" transform="matrix(1,0,0,1,0,35)"></path></g></svg>