<svg id="visual" viewBox="0 0 960 540" width="960" height="540" xmlns="http://www.w3.org/2000/svg" xmlns:xlink="http://www.w3.org/1999/xlink" version="1.1"><path d="M0 120L16 127.2C32 134.3 64 148.7 96 155C128 161.3 160 159.7 192 154.3C224 149 256 140 288 134.5C320 129 352 127 384 130.5C416 134 448 143 480 138.5C512 134 544 116 576 106.2C608 96.3 640 94.7 672 97.3C704 100 736 107 768 107.8C800 108.7 832 103.3 864 101.7C896 100 928 102 944 103L960 104L960 0L944 0C928 0 896 0 864 0C832 0 800 0 768 0C736 0 704 0 672 0C640 0 608 0 576 0C544 0 512 0 480 0C448 0 416 0 384 0C352 0 320 0 288 0C256 0 224 0 192 0C160 0 128 0 96 0C64 0 32 0 16 0L0 0Z" fill="#f87d78"></path><path d="M0 168L16 173.5C32 179 64 190 96 197.3C128 204.7 160 208.3 192 204.7C224 201 256 190 288 183.7C320 177.3 352 175.7 384 180.2C416 184.7 448 195.3 480 190.8C512 186.3 544 166.7 576 155.8C608 145 640 143 672 143C704 143 736 145 768 146C800 147 832 147 864 146C896 145 928 143 944 142L960 141L960 102L944 101C928 100 896 98 864 99.7C832 101.3 800 106.7 768 105.8C736 105 704 98 672 95.3C640 92.7 608 94.3 576 104.2C544 114 512 132 480 136.5C448 141 416 132 384 128.5C352 125 320 127 288 132.5C256 138 224 147 192 152.3C160 157.7 128 159.3 96 153C64 146.7 32 132.3 16 125.2L0 118Z" fill="#f36963"></path><path d="M0 239L16 244.3C32 249.7 64 260.3 96 267.5C128 274.7 160 278.3 192 272C224 265.7 256 249.3 288 243.8C320 238.3 352 243.7 384 249.2C416 254.7 448 260.3 480 252.3C512 244.3 544 222.7 576 212.7C608 202.7 640 204.3 672 206.2C704 208 736 210 768 211.8C800 213.7 832 215.3 864 209.8C896 204.3 928 191.7 944 185.3L960 179L960 139L944 140C928 141 896 143 864 144C832 145 800 145 768 144C736 143 704 141 672 141C640 141 608 143 576 153.8C544 164.7 512 184.3 480 188.8C448 193.3 416 182.7 384 178.2C352 173.7 320 175.3 288 181.7C256 188 224 199 192 202.7C160 206.3 128 202.7 96 195.3C64 188 32 177 16 171.5L0 166Z" fill="#ed534f"></path><path d="M0 298L16 307.8C32 317.7 64 337.3 96 343.7C128 350 160 343 192 335C224 327 256 318 288 314.3C320 310.7 352 312.3 384 322.2C416 332 448 350 480 343.7C512 337.3 544 306.7 576 297.7C608 288.7 640 301.3 672 303.2C704 305 736 296 768 296C800 296 832 305 864 307.7C896 310.3 928 306.7 944 304.8L960 303L960 177L944 183.3C928 189.7 896 202.3 864 207.8C832 213.3 800 211.7 768 209.8C736 208 704 206 672 204.2C640 202.3 608 200.7 576 210.7C544 220.7 512 242.3 480 250.3C448 258.3 416 252.7 384 247.2C352 241.7 320 236.3 288 241.8C256 247.3 224 263.7 192 270C160 276.3 128 272.7 96 265.5C64 258.3 32 247.7 16 242.3L0 237Z" fill="#e63a3a"></path><path d="M0 336L16 345C32 354 64 372 96 379.2C128 386.3 160 382.7 192 379C224 375.3 256 371.7 288 365.3C320 359 352 350 384 360C416 370 448 399 480 396.3C512 393.7 544 359.3 576 348.5C608 337.7 640 350.3 672 348.5C704 346.7 736 330.3 768 327.7C800 325 832 336 864 341.5C896 347 928 347 944 347L960 347L960 301L944 302.8C928 304.7 896 308.3 864 305.7C832 303 800 294 768 294C736 294 704 303 672 301.2C640 299.3 608 286.7 576 295.7C544 304.7 512 335.3 480 341.7C448 348 416 330 384 320.2C352 310.3 320 308.7 288 312.3C256 316 224 325 192 333C160 341 128 348 96 341.7C64 335.3 32 315.7 16 305.8L0 296Z" fill="#d23335"></path><path d="M0 487L16 486.2C32 485.3 64 483.7 96 484.5C128 485.3 160 488.7 192 488.7C224 488.7 256 485.3 288 487.2C320 489 352 496 384 498.7C416 501.3 448 499.7 480 497.8C512 496 544 494 576 493C608 492 640 492 672 490.3C704 488.7 736 485.3 768 480.8C800 476.3 832 470.7 864 473.3C896 476 928 487 944 492.5L960 498L960 345L944 345C928 345 896 345 864 339.5C832 334 800 323 768 325.7C736 328.3 704 344.7 672 346.5C640 348.3 608 335.7 576 346.5C544 357.3 512 391.7 480 394.3C448 397 416 368 384 358C352 348 320 357 288 363.3C256 369.7 224 373.3 192 377C160 380.7 128 384.3 96 377.2C64 370 32 352 16 343L0 334Z" fill="#be2d30"></path><path d="M0 541L16 541C32 541 64 541 96 541C128 541 160 541 192 541C224 541 256 541 288 541C320 541 352 541 384 541C416 541 448 541 480 541C512 541 544 541 576 541C608 541 640 541 672 541C704 541 736 541 768 541C800 541 832 541 864 541C896 541 928 541 944 541L960 541L960 496L944 490.5C928 485 896 474 864 471.3C832 468.7 800 474.3 768 478.8C736 483.3 704 486.7 672 488.3C640 490 608 490 576 491C544 492 512 494 480 495.8C448 497.7 416 499.3 384 496.7C352 494 320 487 288 485.2C256 483.3 224 486.7 192 486.7C160 486.7 128 483.3 96 482.5C64 481.7 32 483.3 16 484.2L0 485Z" fill="#ab272b"></path></svg>