<svg id="visual" viewBox="0 0 960 540" width="960" height="540" xmlns="http://www.w3.org/2000/svg" xmlns:xlink="http://www.w3.org/1999/xlink" version="1.1"><path d="M0 87L14.5 85.3C29 83.7 58 80.3 87.2 81.3C116.3 82.3 145.7 87.7 174.8 87.7C204 87.7 233 82.3 262 79.7C291 77 320 77 349 79.7C378 82.3 407 87.7 436.2 83.2C465.3 78.7 494.7 64.3 523.8 64.3C553 64.3 582 78.7 611 77.7C640 76.7 669 60.3 698 53.2C727 46 756 48 785.2 52.5C814.3 57 843.7 64 872.8 67.5C902 71 931 71 945.5 71L960 71L960 0L945.5 0C931 0 902 0 872.8 0C843.7 0 814.3 0 785.2 0C756 0 727 0 698 0C669 0 640 0 611 0C582 0 553 0 523.8 0C494.7 0 465.3 0 436.2 0C407 0 378 0 349 0C320 0 291 0 262 0C233 0 204 0 174.8 0C145.7 0 116.3 0 87.2 0C58 0 29 0 14.5 0L0 0Z" fill="#f87d78"></path><path d="M0 239L14.5 240.7C29 242.3 58 245.7 87.2 233C116.3 220.3 145.7 191.7 174.8 187.2C204 182.7 233 202.3 262 215C291 227.7 320 233.3 349 237C378 240.7 407 242.3 436.2 238.7C465.3 235 494.7 226 523.8 223.3C553 220.7 582 224.3 611 224.3C640 224.3 669 220.7 698 209.8C727 199 756 181 785.2 172C814.3 163 843.7 163 872.8 160.3C902 157.7 931 152.3 945.5 149.7L960 147L960 69L945.5 69C931 69 902 69 872.8 65.5C843.7 62 814.3 55 785.2 50.5C756 46 727 44 698 51.2C669 58.3 640 74.7 611 75.7C582 76.7 553 62.3 523.8 62.3C494.7 62.3 465.3 76.7 436.2 81.2C407 85.7 378 80.3 349 77.7C320 75 291 75 262 77.7C233 80.3 204 85.7 174.8 85.7C145.7 85.7 116.3 80.3 87.2 79.3C58 78.3 29 81.7 14.5 83.3L0 85Z" fill="#f05e59"></path><path d="M0 336L14.5 339.5C29 343 58 350 87.2 329.3C116.3 308.7 145.7 260.3 174.8 250.5C204 240.7 233 269.3 262 290C291 310.7 320 323.3 349 320.7C378 318 407 300 436.2 287.3C465.3 274.7 494.7 267.3 523.8 270C553 272.7 582 285.3 611 284.5C640 283.7 669 269.3 698 264C727 258.7 756 262.3 785.2 257.8C814.3 253.3 843.7 240.7 872.8 228.8C902 217 931 206 945.5 200.5L960 195L960 145L945.5 147.7C931 150.3 902 155.7 872.8 158.3C843.7 161 814.3 161 785.2 170C756 179 727 197 698 207.8C669 218.7 640 222.3 611 222.3C582 222.3 553 218.7 523.8 221.3C494.7 224 465.3 233 436.2 236.7C407 240.3 378 238.7 349 235C320 231.3 291 225.7 262 213C233 200.3 204 180.7 174.8 185.2C145.7 189.7 116.3 218.3 87.2 231C58 243.7 29 240.3 14.5 238.7L0 237Z" fill="#e63a3a"></path><path d="M0 444L14.5 437.7C29 431.3 58 418.7 87.2 399.7C116.3 380.7 145.7 355.3 174.8 353.5C204 351.7 233 373.3 262 383.3C291 393.3 320 391.7 349 395.3C378 399 407 408 436.2 405.3C465.3 402.7 494.7 388.3 523.8 391C553 393.7 582 413.3 611 409.7C640 406 669 379 698 371.8C727 364.7 756 377.3 785.2 365.7C814.3 354 843.7 318 872.8 309C902 300 931 318 945.5 327L960 336L960 193L945.5 198.5C931 204 902 215 872.8 226.8C843.7 238.7 814.3 251.3 785.2 255.8C756 260.3 727 256.7 698 262C669 267.3 640 281.7 611 282.5C582 283.3 553 270.7 523.8 268C494.7 265.3 465.3 272.7 436.2 285.3C407 298 378 316 349 318.7C320 321.3 291 308.7 262 288C233 267.3 204 238.7 174.8 248.5C145.7 258.3 116.3 306.7 87.2 327.3C58 348 29 341 14.5 337.5L0 334Z" fill="#c83033"></path><path d="M0 541L14.5 541C29 541 58 541 87.2 541C116.3 541 145.7 541 174.8 541C204 541 233 541 262 541C291 541 320 541 349 541C378 541 407 541 436.2 541C465.3 541 494.7 541 523.8 541C553 541 582 541 611 541C640 541 669 541 698 541C727 541 756 541 785.2 541C814.3 541 843.7 541 872.8 541C902 541 931 541 945.5 541L960 541L960 334L945.5 325C931 316 902 298 872.8 307C843.7 316 814.3 352 785.2 363.7C756 375.3 727 362.7 698 369.8C669 377 640 404 611 407.7C582 411.3 553 391.7 523.8 389C494.7 386.3 465.3 400.7 436.2 403.3C407 406 378 397 349 393.3C320 389.7 291 391.3 262 381.3C233 371.3 204 349.7 174.8 351.5C145.7 353.3 116.3 378.7 87.2 397.7C58 416.7 29 429.3 14.5 435.7L0 442Z" fill="#ab272b"></path></svg>