<svg width="353" height="338" viewBox="0 0 353 338" fill="none" xmlns="http://www.w3.org/2000/svg">
<path d="M166.485 159.334C166.485 159.334 151.054 194.235 144.737 190.963C138.42 187.69 164.736 153.312 164.736 153.312C164.736 153.312 145.514 119.749 133.494 113.091C133.494 113.091 130.56 155.514 125.243 150.788C119.926 146.061 120.929 101.774 120.929 101.774C120.929 101.774 95.2305 76.0731 78.5057 90.2739C61.781 104.475 63.4162 118.449 67.0289 122.54C70.6415 126.63 98.885 145.514 95.6582 148.65C92.4314 151.785 69.5272 144.604 61.2339 134.083C61.2339 134.083 53.1197 170.802 69.3888 179.847C85.6579 188.892 96.8832 182.689 106.836 188.461C116.788 194.233 121.946 201.528 115.469 200.823C108.993 200.118 94.1736 187.409 82.0762 188.65C69.9788 189.891 61.0488 189.64 73.2276 202.298C85.4063 214.955 112.105 230.635 124.694 223.228C125.243 222.905 125.766 222.597 126.268 222.302C125.341 222.992 124.694 223.228 124.694 223.228C126.26 226.553 125.18 236.526 124.063 243.98C123.798 245.196 123.508 246.933 123.192 249.345C123.007 250.406 122.849 251.27 122.736 251.871C119.136 267.813 101.64 287.587 101.64 287.587L104.11 290.483C125.786 273.335 126.306 247.36 126.306 247.36C128.42 227.932 137.283 215.822 137.283 215.822C137.283 215.822 175.048 219.3 176.572 189.829C176.572 189.828 175.142 170.105 166.485 159.334Z" fill="#DFEBFD"/>
<path d="M277.241 143.993C277.241 143.993 258.814 180.857 240.096 206.304C232.648 216.432 225.154 224.75 218.758 228.219C212.497 231.614 207.197 236.889 202.811 242.733C191.452 257.866 186.21 276.812 186.21 276.812L138.346 204.399C138.346 204.399 139.979 133.614 145.726 121.774C154.102 104.519 158.148 69.6562 161.366 62.7155C163.753 57.5667 170.57 30.9703 171.224 29.016C171.508 28.1737 173.776 26.8824 176.722 26.8848C179.086 26.8848 183.099 29.1696 184.112 33.8649C189.23 57.5971 183.069 73.2508 183.139 73.9465C184.945 92.1854 179.516 105.724 183.323 109.31C183.465 109.442 183.728 109.379 184.1 109.142C190.698 104.905 231.653 45.198 236.697 43.9089C242.025 42.5503 277.241 143.993 277.241 143.993Z" fill="#EFA26F"/>
<path d="M200.61 262.481C200.61 262.481 199.958 294.66 198.092 338H77.3579C104.955 279.149 128.948 229.616 128.948 229.616C128.948 229.616 197.692 231.715 200.61 262.481Z" fill="#F99746"/>
<path d="M319.089 19.2331L304.267 40.9624L289.722 62.2866C288.836 63.3567 287.809 63.7286 286.698 63.6216C283.208 63.2903 278.889 58.2561 275.524 55.4691L275.182 55.1887C270.744 51.5174 270.117 44.8833 273.789 40.4477L296.02 13.5746V13.5721L302.613 5.60276C306.285 1.16464 312.919 0.537895 317.355 4.20917L317.696 4.48936C322.134 8.16083 322.761 14.795 319.089 19.2331Z" fill="#FFB27D"/>
<path d="M304.267 40.9625L289.722 62.2868C288.835 63.3568 287.808 63.7287 286.698 63.6217L296.02 13.5747C296.04 13.8551 297.625 36.3104 304.267 40.9625Z" fill="#EFA26F"/>
<path d="M240.096 206.304C232.648 216.432 225.153 224.75 218.758 228.219C212.497 231.614 207.196 236.888 202.811 242.733C197.766 240.382 192.015 237.622 186.395 234.89C179.55 231.564 179.288 221.845 185.992 218.244C186.057 218.208 186.121 218.173 186.184 218.137C192.466 214.542 198.903 201.85 198.903 201.85L240.096 206.304Z" fill="#D38254"/>
<path d="M170.89 30.1172L167.012 45.7742C167.012 45.7742 170.403 47.1613 172.58 46.0844C174.757 45.0074 176.534 30.9601 170.89 30.1172Z" fill="#FFC197"/>
<path d="M282.42 213.703H199.026C190.823 213.703 184.111 206.991 184.111 198.788V15.4832C184.111 7.28039 190.823 0.568848 199.026 0.568848H282.42C290.623 0.568848 297.334 7.28039 297.334 15.4832V198.788C297.334 206.991 290.623 213.703 282.42 213.703Z" fill="#2B478B"/>
<path d="M291.723 16.8953V195.952C291.723 202.026 286.788 206.995 280.76 206.995H200.685C194.657 206.995 189.724 202.026 189.724 195.952V16.8953C189.724 10.8207 194.657 5.85205 200.685 5.85205H280.76C286.788 5.85186 291.723 10.8206 291.723 16.8953Z" fill="#C0D8FB"/>
<path d="M280.76 5.85156L201.676 206.995H200.685C194.657 206.995 189.724 202.026 189.724 195.951V16.895C189.724 10.8204 194.657 5.85175 200.685 5.85175L280.76 5.85156Z" fill="#CBE1FD"/>
<path d="M257.457 12.5105H223.99C221.264 12.5105 219.033 10.28 219.033 7.55379V6.77457C219.033 4.04835 221.264 1.81787 223.99 1.81787H257.457C260.183 1.81787 262.413 4.04835 262.413 6.77457V7.55379C262.414 10.2798 260.183 12.5105 257.457 12.5105Z" fill="#2B478B"/>
<path d="M311.711 101.291L309.5 102.131L294.636 107.779C294.288 107.912 293.935 108.025 293.583 108.113C288.661 109.392 283.424 106.769 281.579 101.912L281.361 101.341C279.383 96.1362 282.023 90.259 287.228 88.2812L301.085 83.0161L302.092 82.6328L304.302 81.7928C309.507 79.815 315.382 82.455 317.36 87.6601L317.578 88.2309C319.555 93.4359 316.916 99.3133 311.711 101.291Z" fill="#FFB27D"/>
<path d="M299.64 101.632C297.159 102.572 292.668 104.24 290.267 104.585C289.587 104.683 288.335 104.313 287.167 103.034C286.465 102.268 285.794 101.175 285.297 99.6621C285.064 98.9502 284.871 98.2412 284.789 97.5102C284.697 96.6543 284.721 95.7985 284.871 94.9507C285.007 94.1874 285.528 93.4917 286.289 93.1251C286.292 93.1223 286.297 93.1223 286.3 93.1196C288.854 91.8996 292.296 90.4135 295.315 89.5848C297.401 89.0087 299.512 89.9298 300.172 91.7557L300.485 92.6088L302.08 96.9776C302.74 98.7929 301.667 100.869 299.64 101.632Z" fill="#FFD3B6"/>
<path d="M299.64 101.632C297.16 102.572 292.668 104.24 290.267 104.585C289.587 104.683 288.335 104.313 287.167 103.033C287.042 102.743 286.927 102.436 286.819 102.107C286.585 101.395 286.392 100.686 286.311 99.9551C286.218 99.0992 286.243 98.2434 286.392 97.3956C286.528 96.6323 287.05 95.9366 287.81 95.5698C287.813 95.5671 287.818 95.5671 287.821 95.5644C290.375 94.3445 293.818 92.8583 296.836 92.0297C298.173 91.6601 299.518 91.9047 300.485 92.6083L302.08 96.9771C302.74 98.7925 301.667 100.868 299.64 101.632Z" fill="#FFC197"/>
<path d="M304.966 122.188L293.504 125.308C290.021 126.256 286.396 124.183 285.447 120.7L285.094 119.402C284.146 115.919 286.219 112.294 289.702 111.345L301.165 108.225C304.648 107.277 308.273 109.35 309.222 112.833L309.575 114.131C310.523 117.614 308.449 121.24 304.966 122.188Z" fill="#FFB27D"/>
<path d="M298.768 121.625C296.662 122.188 292.856 123.18 290.862 123.288C290.136 123.329 288.683 122.715 287.735 120.808C287.501 120.346 287.303 119.811 287.148 119.191C287.009 118.629 286.903 118.072 286.893 117.507C286.879 116.841 286.963 116.186 287.148 115.545C287.313 114.966 287.794 114.466 288.444 114.236C288.449 114.233 288.452 114.233 288.455 114.23C290.639 113.458 293.573 112.537 296.111 112.095C297.863 111.788 299.526 112.63 299.936 114.075L300.232 115.108L301.115 118.208C301.523 119.642 300.488 121.169 298.768 121.625Z" fill="#FFD3B6"/>
<path d="M298.768 121.625C296.662 122.188 292.856 123.179 290.862 123.288C290.136 123.329 288.683 122.715 287.735 120.807C287.607 120.283 287.514 119.759 287.504 119.226C287.49 118.563 287.574 117.906 287.759 117.264C287.925 116.688 288.406 116.186 289.055 115.955C289.06 115.952 289.063 115.952 289.066 115.949C291.25 115.178 294.185 114.257 296.722 113.817C298.173 113.561 299.564 114.097 300.232 115.107L301.115 118.207C301.523 119.642 300.488 121.169 298.768 121.625Z" fill="#FFC197"/>
<path d="M117.194 254.031C117.194 254.031 140.787 276.628 156.692 285.352L168.734 276.811V289.411C168.734 289.411 192.417 293.599 199.887 289.411V255.05L133.369 221.705L117.194 254.031Z" fill="#ED7D2B"/>
<path d="M138.346 201.85C138.346 201.85 123.364 224.264 108.473 248.229C108.473 248.229 139.854 269.817 156.868 276.149L179.184 250.59L175.998 281.357C175.998 281.357 195.748 288.556 204.911 286.676C204.911 286.676 204.332 258.765 204.338 240.479C204.338 240.479 150.047 225.261 138.346 201.85Z" fill="#F3F8FF"/>
<path d="M142.032 258.731C142.051 256.679 143.729 255.032 145.781 255.05C147.832 255.07 149.48 256.748 149.461 258.799C149.442 260.851 147.764 262.498 145.712 262.479C143.661 262.46 142.013 260.782 142.032 258.731Z" fill="#F99746"/>
<path d="M311.349 79.3229C311.268 79.3529 311.186 79.38 311.102 79.4071L296.075 83.2651C289.467 84.9632 282.634 81.3877 280.89 75.3207L279.996 72.2125C278.32 66.3874 281.922 60.2962 288.063 58.321L293.024 57.0468L303.09 54.463C309.697 52.765 316.53 56.3405 318.275 62.4073L319.169 65.5155C320.82 71.2619 317.337 77.2635 311.349 79.3229Z" fill="#FFB27D"/>
<path d="M304.463 75.1282L297.162 78.4183C297.152 78.421 297.138 78.4237 297.116 78.4291C296.823 78.5078 296.527 78.5676 296.233 78.611C296.111 78.6301 295.986 78.6437 295.864 78.6572C295.812 78.6626 295.761 78.6627 295.709 78.6599C294.905 78.6327 294.353 77.7797 294.701 77.0189C295.391 75.5163 295.579 73.7775 295.114 72.0686L294.94 71.4329C294.94 71.4275 294.937 71.4194 294.935 71.4138L294.37 69.3408C293.922 67.6889 292.968 66.3059 291.724 65.3061C291.574 65.1838 291.419 65.0697 291.262 64.9611C289.819 63.9613 290.186 61.6981 291.876 61.2279C291.892 61.2225 291.905 61.2198 291.922 61.2144L299.934 60.0027C301.914 59.4647 303.822 60.9889 304.363 62.9696L305.006 65.3307L306.376 70.3652C306.914 72.3487 306.444 74.5902 304.463 75.1282Z" fill="#FFD3B6"/>
<path d="M304.463 75.1281L297.162 78.4182C297.151 78.4209 297.138 78.4236 297.116 78.429C296.945 78.4615 296.41 78.5513 295.709 78.6598C294.904 78.6326 294.353 77.7796 294.701 77.0188C295.391 75.5162 295.578 73.7774 295.114 72.0684L294.94 71.4328C294.94 71.4274 294.937 71.4193 294.934 71.4136L294.369 69.3407C293.921 67.6888 292.968 66.3058 291.723 65.306C291.981 64.9283 292.367 64.6295 292.872 64.4881C292.886 64.4827 292.902 64.48 292.918 64.4745L300.93 63.2626C302.599 62.8089 304.213 63.8197 305.006 65.3304L306.375 70.3649C306.913 72.3486 306.443 74.5901 304.463 75.1281Z" fill="#FFC197"/>
<path d="M184.111 157.488C184.111 157.488 180.833 128.87 177.808 123.291C174.783 117.709 172.224 106.534 176.877 98.2304C181.53 89.9243 183.138 73.9468 183.138 73.9468C184.944 92.1857 179.516 105.725 183.322 109.31C183.464 109.443 183.727 109.38 184.099 109.142L184.111 157.488Z" fill="#D38254"/>
<path d="M94.9493 263.84C94.9493 263.84 89.3593 248.56 80.0773 241.998C80.0773 241.998 75.7591 273.094 70.0226 271.933C64.2861 270.771 77.3323 237.628 77.3323 237.628C77.3323 237.628 54.5391 215.426 43.5269 212.874C43.5269 212.874 50.7961 247.097 45.5203 244.56C40.2466 242.023 31.0283 206.763 31.0283 206.763C31.0283 206.763 11.7936 196.076 0 202.52V238.397C9.02716 241.97 22.9863 247.201 21.6339 249.556C20.2815 251.912 9.28839 252.267 0 249.74V274.729C2.11031 277.421 4.70882 279.427 7.90622 280.172C22.8206 283.65 30.298 276.205 39.4759 278.523C48.6538 280.839 54.3818 285.442 49.0997 286.348C43.8175 287.255 29.2216 280.55 19.933 284.268C10.6425 287.983 3.52189 289.805 16.0181 297.063C28.5122 304.324 53.1757 310.691 61.46 301.987C61.46 301.987 61.46 301.987 61.4622 301.985C61.8231 301.604 62.1692 301.241 62.4982 300.895C62.5001 300.893 62.5019 300.891 62.5038 300.889C61.9231 301.651 61.4608 301.987 61.4608 301.987C63.4521 304.264 64.8519 312.401 65.6536 318.551C65.7178 319.569 65.8809 321.005 66.1751 322.97C66.2718 323.883 66.3436 324.623 66.3906 325.129C66.6073 329.104 65.9417 333.616 64.8927 338H68.8734C70.1403 328.125 68.1983 320.744 68.1902 320.714L68.1908 320.712C65.4717 304.866 69.7448 293.282 69.7448 293.282V293.282C69.8129 293.269 100.4 287.471 94.9493 263.84Z" fill="#E1EEFB"/>
<path d="M350.708 236.507C345.46 217.132 312.765 223.187 312.765 223.187C312.765 223.187 290.565 257.093 284.107 257.9C277.648 258.707 297.427 225.205 297.427 225.205C284.914 223.994 253.026 239.333 253.026 239.333C253.026 239.333 255.044 278.89 248.586 278.083C242.128 277.275 248.586 242.966 248.586 242.966C236.477 246.598 225.175 260.726 225.175 260.726C211.047 283.734 241.32 300.687 241.32 300.687C241.32 300.687 241.724 314.411 233.248 330.152L233.247 330.153C233.247 330.153 231.334 333.06 229.389 338H232.691C232.961 337.115 233.258 336.259 233.587 335.437C233.587 335.431 233.589 335.427 233.593 335.422C233.598 335.41 233.603 335.399 233.608 335.387C233.834 334.877 234.159 334.151 234.564 333.267C234.564 333.265 234.565 333.264 234.565 333.263C234.565 333.261 234.568 333.261 234.568 333.259C235.576 331.285 236.258 329.826 236.688 328.773C236.69 328.77 236.691 328.766 236.692 328.763C239.714 322.565 244.068 314.49 246.971 312.796C246.971 312.796 246.606 312.282 246.265 311.282C246.49 311.765 246.725 312.268 246.971 312.796C252.622 324.905 280.878 326.923 296.62 323.694C312.362 320.465 305.5 316.025 297.023 308.819C288.547 301.612 270.786 303.512 265.539 300.686C260.292 297.861 267.961 295.036 278.456 295.843C288.95 296.65 294.198 307.145 311.151 308.759C328.104 310.374 341.02 278.486 341.02 278.486C329.315 282.119 308.325 275.661 307.518 271.624C306.711 267.588 337.791 267.992 342.635 266.781C347.479 265.57 355.955 255.882 350.708 236.507Z" fill="#DFEBFD"/>
</svg>
