<svg width="191" height="260" viewBox="0 0 191 260" fill="none" xmlns="http://www.w3.org/2000/svg">
<g clip-path="url(#clip0_312_825)">
<path opacity="0.67" d="M54.4353 -4.02114e-06C161.395 43.3333 175.084 86.6667 95.5003 130C15.917 173.333 2.22866 216.667 54.4353 260" stroke="url(#paint0_linear_312_825)" stroke-width="2" stroke-linecap="round"/>
<path opacity="0.97" d="M59.6877 -3.83413e-06C163.146 43.3333 175.083 86.6667 95.5002 130C15.9168 173.333 3.97933 216.667 59.6877 260" stroke="url(#paint1_linear_312_825)" stroke-width="2" stroke-linecap="round"/>
<path opacity="0.68" d="M64.9401 -3.64878e-06C164.897 43.3333 175.083 86.6667 95.5001 130C15.9168 173.333 5.7301 216.667 64.9401 260" stroke="url(#paint2_linear_312_825)" stroke-width="2" stroke-linecap="round"/>
<path opacity="0.95" d="M70.1928 -3.4652e-06C166.648 43.3333 175.084 86.6667 95.5003 130C15.9169 173.333 7.48111 216.667 70.1928 260" stroke="url(#paint3_linear_312_825)" stroke-width="2" stroke-linecap="round"/>
<path opacity="0.25" d="M75.4452 -3.28348e-06C168.399 43.3333 175.084 86.6667 95.5002 130C15.9169 173.333 9.23188 216.667 75.4452 260" stroke="url(#paint4_linear_312_825)" stroke-width="2" stroke-linecap="round"/>
<path opacity="0.57" d="M80.6977 -3.10375e-06C170.149 43.3333 175.084 86.6667 95.5002 130C15.9169 173.333 10.9827 216.667 80.6977 260" stroke="url(#paint5_linear_312_825)" stroke-width="2" stroke-linecap="round"/>
<path opacity="0.7" d="M85.9503 -2.92612e-06C171.9 43.3333 175.084 86.6667 95.5003 130C15.9169 173.333 12.7336 216.667 85.9503 260" stroke="url(#paint6_linear_312_825)" stroke-width="2" stroke-linecap="round"/>
<path opacity="0.73" d="M91.2027 -2.75074e-06C173.651 43.3333 175.084 86.6667 95.5002 130C15.9169 173.333 14.4844 216.667 91.2027 260" stroke="url(#paint7_linear_312_825)" stroke-width="2" stroke-linecap="round"/>
<path opacity="0.12" d="M96.455 -2.57776e-06C175.402 43.3333 175.083 86.6667 95.5 130C15.9167 173.333 16.235 216.667 96.455 260" stroke="url(#paint8_linear_312_825)" stroke-width="2" stroke-linecap="round"/>
<path opacity="0.07" d="M101.707 -2.40733e-06C177.152 43.3333 175.083 86.6667 95.5 130C15.9166 173.333 17.9858 216.667 101.707 260" stroke="url(#paint9_linear_312_825)" stroke-width="2" stroke-linecap="round"/>
<path opacity="0.08" d="M106.96 -2.23964e-06C178.904 43.3333 175.084 86.6667 95.5003 130C15.917 173.333 19.737 216.667 106.96 260" stroke="url(#paint10_linear_312_825)" stroke-width="2" stroke-linecap="round"/>
<path opacity="0.58" d="M112.213 -2.07487e-06C180.654 43.3333 175.083 86.6667 95.5001 130C15.9167 173.333 21.4876 216.667 112.213 260" stroke="url(#paint11_linear_312_825)" stroke-width="2" stroke-linecap="round"/>
<path opacity="0.13" d="M117.465 -1.91325e-06C182.405 43.3333 175.084 86.6667 95.5002 130C15.9169 173.333 23.2386 216.667 117.465 260" stroke="url(#paint12_linear_312_825)" stroke-width="2" stroke-linecap="round"/>
<path opacity="0.62" d="M122.718 -1.75501e-06C184.156 43.3333 175.084 86.6667 95.5003 130C15.917 173.333 24.9895 216.667 122.718 260" stroke="url(#paint13_linear_312_825)" stroke-width="2" stroke-linecap="round"/>
<path opacity="0.83" d="M127.97 -1.60039e-06C185.907 43.3333 175.084 86.6667 95.5002 130C15.9169 173.333 26.7403 216.667 127.97 260" stroke="url(#paint14_linear_312_825)" stroke-width="2" stroke-linecap="round"/>
<path opacity="0.73" d="M133.222 -1.4497e-06C187.657 43.3333 175.083 86.6667 95.4999 130C15.9166 173.333 28.4908 216.667 133.222 260" stroke="url(#paint15_linear_312_825)" stroke-width="2" stroke-linecap="round"/>
<path opacity="0.91" d="M138.475 -1.30324e-06C189.409 43.3333 175.084 86.6667 95.5004 130C15.9171 173.333 30.2421 216.667 138.475 260" stroke="url(#paint16_linear_312_825)" stroke-width="2" stroke-linecap="round"/>
<path opacity="0.57" d="M143.728 -1.16136e-06C191.159 43.3333 175.083 86.6667 95.5 130C15.9167 173.333 31.9925 216.667 143.728 260" stroke="url(#paint17_linear_312_825)" stroke-width="2" stroke-linecap="round"/>
<path opacity="0.13" d="M148.98 -1.02446e-06C192.91 43.3333 175.083 86.6667 95.5001 130C15.9168 173.333 33.7434 216.667 148.98 260" stroke="url(#paint18_linear_312_825)" stroke-width="2" stroke-linecap="round"/>
<path opacity="0.99" d="M154.232 -8.92964e-07C194.661 43.3333 175.083 86.6667 95.5 130C15.9167 173.333 35.4941 216.667 154.232 260" stroke="url(#paint19_linear_312_825)" stroke-width="2" stroke-linecap="round"/>
<path opacity="0.95" d="M159.485 -7.67367e-07C196.412 43.3333 175.084 86.6667 95.5002 130C15.9169 173.333 37.2452 216.667 159.485 260" stroke="url(#paint20_linear_312_825)" stroke-width="2" stroke-linecap="round"/>
<path opacity="0.38" d="M164.737 -6.48214e-07C198.162 43.3333 175.083 86.6667 95.5 130C15.9167 173.333 38.9958 216.667 164.737 260" stroke="url(#paint21_linear_312_825)" stroke-width="2" stroke-linecap="round"/>
<path opacity="0.36" d="M169.99 -5.36124e-07C199.914 43.3333 175.084 86.6667 95.5003 130C15.917 173.333 40.747 216.667 169.99 260" stroke="url(#paint22_linear_312_825)" stroke-width="2" stroke-linecap="round"/>
<path opacity="0.8" d="M175.243 -4.31797e-07C201.664 43.3333 175.084 86.6667 95.5002 130C15.9169 173.333 42.4977 216.667 175.243 260" stroke="url(#paint23_linear_312_825)" stroke-width="2" stroke-linecap="round"/>
<path opacity="0.6" d="M180.495 -3.36029e-07C203.415 43.3333 175.083 86.6667 95.5002 130C15.9168 173.333 44.2485 216.667 180.495 260" stroke="url(#paint24_linear_312_825)" stroke-width="2" stroke-linecap="round"/>
</g>
<defs>
<linearGradient id="paint0_linear_312_825" x1="146.428" y1="13000" x2="-12155" y2="13000" gradientUnits="userSpaceOnUse">
<stop stop-color="#FF4400"/>
<stop offset="1" stop-color="#FFC466"/>
</linearGradient>
<linearGradient id="paint1_linear_312_825" x1="147.402" y1="13000" x2="-12064.9" y2="13000" gradientUnits="userSpaceOnUse">
<stop stop-color="#FF4400"/>
<stop offset="1" stop-color="#FFC466"/>
</linearGradient>
<linearGradient id="paint2_linear_312_825" x1="148.414" y1="13000" x2="-11987.9" y2="13000" gradientUnits="userSpaceOnUse">
<stop stop-color="#FF4400"/>
<stop offset="1" stop-color="#FFC466"/>
</linearGradient>
<linearGradient id="paint3_linear_312_825" x1="149.467" y1="13000" x2="-11923.7" y2="13000" gradientUnits="userSpaceOnUse">
<stop stop-color="#FF4400"/>
<stop offset="1" stop-color="#FFC466"/>
</linearGradient>
<linearGradient id="paint4_linear_312_825" x1="150.562" y1="13000" x2="-11871.8" y2="13000" gradientUnits="userSpaceOnUse">
<stop stop-color="#FF4400"/>
<stop offset="1" stop-color="#FFC466"/>
</linearGradient>
<linearGradient id="paint5_linear_312_825" x1="151.703" y1="13000" x2="-11831.9" y2="13000" gradientUnits="userSpaceOnUse">
<stop stop-color="#FF4400"/>
<stop offset="1" stop-color="#FFC466"/>
</linearGradient>
<linearGradient id="paint6_linear_312_825" x1="152.892" y1="13000" x2="-11803.7" y2="13000" gradientUnits="userSpaceOnUse">
<stop stop-color="#FF4400"/>
<stop offset="1" stop-color="#FFC466"/>
</linearGradient>
<linearGradient id="paint7_linear_312_825" x1="154.132" y1="13000" x2="-11787.2" y2="13000" gradientUnits="userSpaceOnUse">
<stop stop-color="#FF4400"/>
<stop offset="1" stop-color="#FFC466"/>
</linearGradient>
<linearGradient id="paint8_linear_312_825" x1="155.427" y1="13000" x2="-11782.3" y2="13000" gradientUnits="userSpaceOnUse">
<stop stop-color="#FF4400"/>
<stop offset="1" stop-color="#FFC466"/>
</linearGradient>
<linearGradient id="paint9_linear_312_825" x1="156.78" y1="13000" x2="-11788.8" y2="13000" gradientUnits="userSpaceOnUse">
<stop stop-color="#FF4400"/>
<stop offset="1" stop-color="#FFC466"/>
</linearGradient>
<linearGradient id="paint10_linear_312_825" x1="158.197" y1="13000" x2="-11806.9" y2="13000" gradientUnits="userSpaceOnUse">
<stop stop-color="#FF4400"/>
<stop offset="1" stop-color="#FFC466"/>
</linearGradient>
<linearGradient id="paint11_linear_312_825" x1="159.68" y1="13000" x2="-11836.6" y2="13000" gradientUnits="userSpaceOnUse">
<stop stop-color="#FF4400"/>
<stop offset="1" stop-color="#FFC466"/>
</linearGradient>
<linearGradient id="paint12_linear_312_825" x1="161.235" y1="13000" x2="-11878.2" y2="13000" gradientUnits="userSpaceOnUse">
<stop stop-color="#FF4400"/>
<stop offset="1" stop-color="#FFC466"/>
</linearGradient>
<linearGradient id="paint13_linear_312_825" x1="162.867" y1="13000" x2="-11931.8" y2="13000" gradientUnits="userSpaceOnUse">
<stop stop-color="#FF4400"/>
<stop offset="1" stop-color="#FFC466"/>
</linearGradient>
<linearGradient id="paint14_linear_312_825" x1="164.582" y1="13000" x2="-11997.9" y2="13000" gradientUnits="userSpaceOnUse">
<stop stop-color="#FF4400"/>
<stop offset="1" stop-color="#FFC466"/>
</linearGradient>
<linearGradient id="paint15_linear_312_825" x1="166.387" y1="13000" x2="-12076.7" y2="13000" gradientUnits="userSpaceOnUse">
<stop stop-color="#FF4400"/>
<stop offset="1" stop-color="#FFC466"/>
</linearGradient>
<linearGradient id="paint16_linear_312_825" x1="168.289" y1="13000" x2="-12168.9" y2="13000" gradientUnits="userSpaceOnUse">
<stop stop-color="#FF4400"/>
<stop offset="1" stop-color="#FFC466"/>
</linearGradient>
<linearGradient id="paint17_linear_312_825" x1="170.296" y1="13000" x2="-12275" y2="13000" gradientUnits="userSpaceOnUse">
<stop stop-color="#FF4400"/>
<stop offset="1" stop-color="#FFC466"/>
</linearGradient>
<linearGradient id="paint18_linear_312_825" x1="172.416" y1="13000" x2="-12395.7" y2="13000" gradientUnits="userSpaceOnUse">
<stop stop-color="#FF4400"/>
<stop offset="1" stop-color="#FFC466"/>
</linearGradient>
<linearGradient id="paint19_linear_312_825" x1="174.661" y1="13000" x2="-12531.8" y2="13000" gradientUnits="userSpaceOnUse">
<stop stop-color="#FF4400"/>
<stop offset="1" stop-color="#FFC466"/>
</linearGradient>
<linearGradient id="paint20_linear_312_825" x1="177.04" y1="13000" x2="-12684.2" y2="13000" gradientUnits="userSpaceOnUse">
<stop stop-color="#FF4400"/>
<stop offset="1" stop-color="#FFC466"/>
</linearGradient>
<linearGradient id="paint21_linear_312_825" x1="179.566" y1="13000" x2="-12854.1" y2="13000" gradientUnits="userSpaceOnUse">
<stop stop-color="#FF4400"/>
<stop offset="1" stop-color="#FFC466"/>
</linearGradient>
<linearGradient id="paint22_linear_312_825" x1="182.255" y1="13000" x2="-13042.6" y2="13000" gradientUnits="userSpaceOnUse">
<stop stop-color="#FF4400"/>
<stop offset="1" stop-color="#FFC466"/>
</linearGradient>
<linearGradient id="paint23_linear_312_825" x1="185.121" y1="13000" x2="-13251.3" y2="13000" gradientUnits="userSpaceOnUse">
<stop stop-color="#FF4400"/>
<stop offset="1" stop-color="#FFC466"/>
</linearGradient>
<linearGradient id="paint24_linear_312_825" x1="188.182" y1="13000" x2="-13481.8" y2="13000" gradientUnits="userSpaceOnUse">
<stop stop-color="#FF4400"/>
<stop offset="1" stop-color="#FFC466"/>
</linearGradient>
<clipPath id="clip0_312_825">
<rect width="260" height="191" fill="white" transform="translate(191) rotate(90)"/>
</clipPath>
</defs>
</svg>
